<?xml version="1.0" encoding="utf-8" standalone="no"?>
<!DOCTYPE svg PUBLIC "-//W3C//DTD SVG 1.1//EN"
  "http://www.w3.org/Graphics/SVG/1.1/DTD/svg11.dtd">
<svg xmlns:xlink="http://www.w3.org/1999/xlink" width="460.8pt" height="345.6pt" viewBox="0 0 460.8 345.6" xmlns="http://www.w3.org/2000/svg" version="1.1">
 <metadata>
  <rdf:RDF xmlns:dc="http://purl.org/dc/elements/1.1/" xmlns:cc="http://creativecommons.org/ns#" xmlns:rdf="http://www.w3.org/1999/02/22-rdf-syntax-ns#">
   <cc:Work>
    <dc:type rdf:resource="http://purl.org/dc/dcmitype/StillImage"/>
    <dc:date>2024-04-24T14:58:33.523639</dc:date>
    <dc:format>image/svg+xml</dc:format>
    <dc:creator>
     <cc:Agent>
      <dc:title>Matplotlib v3.8.3, https://matplotlib.org/</dc:title>
     </cc:Agent>
    </dc:creator>
   </cc:Work>
  </rdf:RDF>
 </metadata>
 <defs>
  <style type="text/css">*{stroke-linejoin: round; stroke-linecap: butt}</style>
 </defs>
 <g id="figure_1">
  <g id="patch_1">
   <path d="M 0 345.6 
L 460.8 345.6 
L 460.8 0 
L 0 0 
z
" style="fill: #ffffff"/>
  </g>
  <g id="axes_1">
   <g id="patch_2">
    <path d="M 81.174 281.04 
L 437.76 281.04 
L 437.76 5.009705 
L 81.174 5.009705 
z
" style="fill: #ffffff"/>
   </g>
   <g id="line2d_1">
    <path d="M 81.174 191.801296 
L 437.76 191.801296 
" clip-path="url(#pabf05e2dfd)" style="fill: none; stroke: #000000; stroke-width: 1.5; stroke-linecap: square"/>
   </g>
   <g id="matplotlib.axis_1">
    <g id="xtick_1">
     <g id="line2d_2">
      <path d="M 172.951796 281.04 
L 172.951796 5.009705 
" clip-path="url(#pabf05e2dfd)" style="fill: none; stroke: #b0b0b0; stroke-width: 0.8; stroke-linecap: square"/>
     </g>
     <g id="line2d_3">
      <defs>
       <path id="m577437a5ed" d="M 0 0 
L 0 3.5 
" style="stroke: #000000; stroke-width: 0.8"/>
      </defs>
      <g>
       <use xlink:href="#m577437a5ed" x="172.951796" y="281.04" style="stroke: #000000; stroke-width: 0.8"/>
      </g>
     </g>
     <g id="text_1">
      <!-- −1.17 -->
      <g transform="translate(134.645156 307.036094) scale(0.25 -0.25)">
       <defs>
        <path id="DejaVuSans-2212" d="M 678 2272 
L 4684 2272 
L 4684 1741 
L 678 1741 
L 678 2272 
z
" transform="scale(0.015625)"/>
        <path id="DejaVuSans-31" d="M 794 531 
L 1825 531 
L 1825 4091 
L 703 3866 
L 703 4441 
L 1819 4666 
L 2450 4666 
L 2450 531 
L 3481 531 
L 3481 0 
L 794 0 
L 794 531 
z
" transform="scale(0.015625)"/>
        <path id="DejaVuSans-2e" d="M 684 794 
L 1344 794 
L 1344 0 
L 684 0 
L 684 794 
z
" transform="scale(0.015625)"/>
        <path id="DejaVuSans-37" d="M 525 4666 
L 3525 4666 
L 3525 4397 
L 1831 0 
L 1172 0 
L 2766 4134 
L 525 4134 
L 525 4666 
z
" transform="scale(0.015625)"/>
       </defs>
       <use xlink:href="#DejaVuSans-2212"/>
       <use xlink:href="#DejaVuSans-31" x="83.789062"/>
       <use xlink:href="#DejaVuSans-2e" x="147.412109"/>
       <use xlink:href="#DejaVuSans-31" x="179.199219"/>
       <use xlink:href="#DejaVuSans-37" x="242.822266"/>
      </g>
     </g>
    </g>
    <g id="xtick_2">
     <g id="line2d_4">
      <path d="M 254.597251 281.04 
L 254.597251 5.009705 
" clip-path="url(#pabf05e2dfd)" style="fill: none; stroke: #b0b0b0; stroke-width: 0.8; stroke-linecap: square"/>
     </g>
     <g id="line2d_5">
      <g>
       <use xlink:href="#m577437a5ed" x="254.597251" y="281.04" style="stroke: #000000; stroke-width: 0.8"/>
      </g>
     </g>
     <g id="text_2">
      <!-- −1.11 -->
      <g transform="translate(216.290611 307.036094) scale(0.25 -0.25)">
       <use xlink:href="#DejaVuSans-2212"/>
       <use xlink:href="#DejaVuSans-31" x="83.789062"/>
       <use xlink:href="#DejaVuSans-2e" x="147.412109"/>
       <use xlink:href="#DejaVuSans-31" x="179.199219"/>
       <use xlink:href="#DejaVuSans-31" x="242.822266"/>
      </g>
     </g>
    </g>
    <g id="xtick_3">
     <g id="line2d_6">
      <path d="M 349.850282 281.04 
L 349.850282 5.009705 
" clip-path="url(#pabf05e2dfd)" style="fill: none; stroke: #b0b0b0; stroke-width: 0.8; stroke-linecap: square"/>
     </g>
     <g id="line2d_7">
      <g>
       <use xlink:href="#m577437a5ed" x="349.850282" y="281.04" style="stroke: #000000; stroke-width: 0.8"/>
      </g>
     </g>
     <g id="text_3">
      <!-- −1.04 -->
      <g transform="translate(311.543641 307.036094) scale(0.25 -0.25)">
       <defs>
        <path id="DejaVuSans-30" d="M 2034 4250 
Q 1547 4250 1301 3770 
Q 1056 3291 1056 2328 
Q 1056 1369 1301 889 
Q 1547 409 2034 409 
Q 2525 409 2770 889 
Q 3016 1369 3016 2328 
Q 3016 3291 2770 3770 
Q 2525 4250 2034 4250 
z
M 2034 4750 
Q 2819 4750 3233 4129 
Q 3647 3509 3647 2328 
Q 3647 1150 3233 529 
Q 2819 -91 2034 -91 
Q 1250 -91 836 529 
Q 422 1150 422 2328 
Q 422 3509 836 4129 
Q 1250 4750 2034 4750 
z
" transform="scale(0.015625)"/>
        <path id="DejaVuSans-34" d="M 2419 4116 
L 825 1625 
L 2419 1625 
L 2419 4116 
z
M 2253 4666 
L 3047 4666 
L 3047 1625 
L 3713 1625 
L 3713 1100 
L 3047 1100 
L 3047 0 
L 2419 0 
L 2419 1100 
L 313 1100 
L 313 1709 
L 2253 4666 
z
" transform="scale(0.015625)"/>
       </defs>
       <use xlink:href="#DejaVuSans-2212"/>
       <use xlink:href="#DejaVuSans-31" x="83.789062"/>
       <use xlink:href="#DejaVuSans-2e" x="147.412109"/>
       <use xlink:href="#DejaVuSans-30" x="179.199219"/>
       <use xlink:href="#DejaVuSans-34" x="242.822266"/>
      </g>
     </g>
    </g>
    <g id="text_4">
     <!-- $V$ [V] -->
     <g transform="translate(224.887 337.510937) scale(0.28 -0.28)">
      <defs>
       <path id="DejaVuSans-Oblique-56" d="M 1319 0 
L 500 4666 
L 1119 4666 
L 1797 653 
L 4063 4666 
L 4750 4666 
L 2053 0 
L 1319 0 
z
" transform="scale(0.015625)"/>
       <path id="DejaVuSans-20" transform="scale(0.015625)"/>
       <path id="DejaVuSans-5b" d="M 550 4863 
L 1875 4863 
L 1875 4416 
L 1125 4416 
L 1125 -397 
L 1875 -397 
L 1875 -844 
L 550 -844 
L 550 4863 
z
" transform="scale(0.015625)"/>
       <path id="DejaVuSans-56" d="M 1831 0 
L 50 4666 
L 709 4666 
L 2188 738 
L 3669 4666 
L 4325 4666 
L 2547 0 
L 1831 0 
z
" transform="scale(0.015625)"/>
       <path id="DejaVuSans-5d" d="M 1947 4863 
L 1947 -844 
L 622 -844 
L 622 -397 
L 1369 -397 
L 1369 4416 
L 622 4416 
L 622 4863 
L 1947 4863 
z
" transform="scale(0.015625)"/>
      </defs>
      <use xlink:href="#DejaVuSans-Oblique-56" transform="translate(0 0.015625)"/>
      <use xlink:href="#DejaVuSans-20" transform="translate(68.408203 0.015625)"/>
      <use xlink:href="#DejaVuSans-5b" transform="translate(100.195312 0.015625)"/>
      <use xlink:href="#DejaVuSans-56" transform="translate(139.208984 0.015625)"/>
      <use xlink:href="#DejaVuSans-5d" transform="translate(207.617188 0.015625)"/>
     </g>
    </g>
   </g>
   <g id="matplotlib.axis_2">
    <g id="ytick_1">
     <g id="line2d_8">
      <path d="M 81.174 264.148683 
L 437.76 264.148683 
" clip-path="url(#pabf05e2dfd)" style="fill: none; stroke: #b0b0b0; stroke-width: 0.8; stroke-linecap: square"/>
     </g>
     <g id="line2d_9">
      <defs>
       <path id="me892242672" d="M 0 0 
L -3.5 0 
" style="stroke: #000000; stroke-width: 0.8"/>
      </defs>
      <g>
       <use xlink:href="#me892242672" x="81.174" y="264.148683" style="stroke: #000000; stroke-width: 0.8"/>
      </g>
     </g>
     <g id="text_5">
      <!-- −2 -->
      <g transform="translate(37.318531 273.64673) scale(0.25 -0.25)">
       <defs>
        <path id="DejaVuSans-32" d="M 1228 531 
L 3431 531 
L 3431 0 
L 469 0 
L 469 531 
Q 828 903 1448 1529 
Q 2069 2156 2228 2338 
Q 2531 2678 2651 2914 
Q 2772 3150 2772 3378 
Q 2772 3750 2511 3984 
Q 2250 4219 1831 4219 
Q 1534 4219 1204 4116 
Q 875 4013 500 3803 
L 500 4441 
Q 881 4594 1212 4672 
Q 1544 4750 1819 4750 
Q 2544 4750 2975 4387 
Q 3406 4025 3406 3419 
Q 3406 3131 3298 2873 
Q 3191 2616 2906 2266 
Q 2828 2175 2409 1742 
Q 1991 1309 1228 531 
z
" transform="scale(0.015625)"/>
       </defs>
       <use xlink:href="#DejaVuSans-2212"/>
       <use xlink:href="#DejaVuSans-32" x="83.789062"/>
      </g>
     </g>
    </g>
    <g id="ytick_2">
     <g id="line2d_10">
      <path d="M 81.174 227.97499 
L 437.76 227.97499 
" clip-path="url(#pabf05e2dfd)" style="fill: none; stroke: #b0b0b0; stroke-width: 0.8; stroke-linecap: square"/>
     </g>
     <g id="line2d_11">
      <g>
       <use xlink:href="#me892242672" x="81.174" y="227.97499" style="stroke: #000000; stroke-width: 0.8"/>
      </g>
     </g>
     <g id="text_6">
      <!-- −1 -->
      <g transform="translate(37.318531 237.473036) scale(0.25 -0.25)">
       <use xlink:href="#DejaVuSans-2212"/>
       <use xlink:href="#DejaVuSans-31" x="83.789062"/>
      </g>
     </g>
    </g>
    <g id="ytick_3">
     <g id="line2d_12">
      <path d="M 81.174 191.801296 
L 437.76 191.801296 
" clip-path="url(#pabf05e2dfd)" style="fill: none; stroke: #b0b0b0; stroke-width: 0.8; stroke-linecap: square"/>
     </g>
     <g id="line2d_13">
      <g>
       <use xlink:href="#me892242672" x="81.174" y="191.801296" style="stroke: #000000; stroke-width: 0.8"/>
      </g>
     </g>
     <g id="text_7">
      <!-- 0 -->
      <g transform="translate(58.26775 201.299343) scale(0.25 -0.25)">
       <use xlink:href="#DejaVuSans-30"/>
      </g>
     </g>
    </g>
    <g id="ytick_4">
     <g id="line2d_14">
      <path d="M 81.174 155.627603 
L 437.76 155.627603 
" clip-path="url(#pabf05e2dfd)" style="fill: none; stroke: #b0b0b0; stroke-width: 0.8; stroke-linecap: square"/>
     </g>
     <g id="line2d_15">
      <g>
       <use xlink:href="#me892242672" x="81.174" y="155.627603" style="stroke: #000000; stroke-width: 0.8"/>
      </g>
     </g>
     <g id="text_8">
      <!-- 1 -->
      <g transform="translate(58.26775 165.12565) scale(0.25 -0.25)">
       <use xlink:href="#DejaVuSans-31"/>
      </g>
     </g>
    </g>
    <g id="ytick_5">
     <g id="line2d_16">
      <path d="M 81.174 119.453909 
L 437.76 119.453909 
" clip-path="url(#pabf05e2dfd)" style="fill: none; stroke: #b0b0b0; stroke-width: 0.8; stroke-linecap: square"/>
     </g>
     <g id="line2d_17">
      <g>
       <use xlink:href="#me892242672" x="81.174" y="119.453909" style="stroke: #000000; stroke-width: 0.8"/>
      </g>
     </g>
     <g id="text_9">
      <!-- 2 -->
      <g transform="translate(58.26775 128.951956) scale(0.25 -0.25)">
       <use xlink:href="#DejaVuSans-32"/>
      </g>
     </g>
    </g>
    <g id="ytick_6">
     <g id="line2d_18">
      <path d="M 81.174 83.280216 
L 437.76 83.280216 
" clip-path="url(#pabf05e2dfd)" style="fill: none; stroke: #b0b0b0; stroke-width: 0.8; stroke-linecap: square"/>
     </g>
     <g id="line2d_19">
      <g>
       <use xlink:href="#me892242672" x="81.174" y="83.280216" style="stroke: #000000; stroke-width: 0.8"/>
      </g>
     </g>
     <g id="text_10">
      <!-- 3 -->
      <g transform="translate(58.26775 92.778263) scale(0.25 -0.25)">
       <defs>
        <path id="DejaVuSans-33" d="M 2597 2516 
Q 3050 2419 3304 2112 
Q 3559 1806 3559 1356 
Q 3559 666 3084 287 
Q 2609 -91 1734 -91 
Q 1441 -91 1130 -33 
Q 819 25 488 141 
L 488 750 
Q 750 597 1062 519 
Q 1375 441 1716 441 
Q 2309 441 2620 675 
Q 2931 909 2931 1356 
Q 2931 1769 2642 2001 
Q 2353 2234 1838 2234 
L 1294 2234 
L 1294 2753 
L 1863 2753 
Q 2328 2753 2575 2939 
Q 2822 3125 2822 3475 
Q 2822 3834 2567 4026 
Q 2313 4219 1838 4219 
Q 1578 4219 1281 4162 
Q 984 4106 628 3988 
L 628 4550 
Q 988 4650 1302 4700 
Q 1616 4750 1894 4750 
Q 2613 4750 3031 4423 
Q 3450 4097 3450 3541 
Q 3450 3153 3228 2886 
Q 3006 2619 2597 2516 
z
" transform="scale(0.015625)"/>
       </defs>
       <use xlink:href="#DejaVuSans-33"/>
      </g>
     </g>
    </g>
    <g id="ytick_7">
     <g id="line2d_20">
      <path d="M 81.174 47.106523 
L 437.76 47.106523 
" clip-path="url(#pabf05e2dfd)" style="fill: none; stroke: #b0b0b0; stroke-width: 0.8; stroke-linecap: square"/>
     </g>
     <g id="line2d_21">
      <g>
       <use xlink:href="#me892242672" x="81.174" y="47.106523" style="stroke: #000000; stroke-width: 0.8"/>
      </g>
     </g>
     <g id="text_11">
      <!-- 4 -->
      <g transform="translate(58.26775 56.604569) scale(0.25 -0.25)">
       <use xlink:href="#DejaVuSans-34"/>
      </g>
     </g>
    </g>
    <g id="ytick_8">
     <g id="line2d_22">
      <path d="M 81.174 10.932829 
L 437.76 10.932829 
" clip-path="url(#pabf05e2dfd)" style="fill: none; stroke: #b0b0b0; stroke-width: 0.8; stroke-linecap: square"/>
     </g>
     <g id="line2d_23">
      <g>
       <use xlink:href="#me892242672" x="81.174" y="10.932829" style="stroke: #000000; stroke-width: 0.8"/>
      </g>
     </g>
     <g id="text_12">
      <!-- 5 -->
      <g transform="translate(58.26775 20.430876) scale(0.25 -0.25)">
       <defs>
        <path id="DejaVuSans-35" d="M 691 4666 
L 3169 4666 
L 3169 4134 
L 1269 4134 
L 1269 2991 
Q 1406 3038 1543 3061 
Q 1681 3084 1819 3084 
Q 2600 3084 3056 2656 
Q 3513 2228 3513 1497 
Q 3513 744 3044 326 
Q 2575 -91 1722 -91 
Q 1428 -91 1123 -41 
Q 819 9 494 109 
L 494 744 
Q 775 591 1075 516 
Q 1375 441 1709 441 
Q 2250 441 2565 725 
Q 2881 1009 2881 1497 
Q 2881 1984 2565 2268 
Q 2250 2553 1709 2553 
Q 1456 2553 1204 2497 
Q 953 2441 691 2322 
L 691 4666 
z
" transform="scale(0.015625)"/>
       </defs>
       <use xlink:href="#DejaVuSans-35"/>
      </g>
     </g>
    </g>
    <g id="text_13">
     <!-- Corrente [$10^{-3}$ A] -->
     <g transform="translate(27.495406 266.784853) rotate(-90) scale(0.28 -0.28)">
      <defs>
       <path id="DejaVuSans-43" d="M 4122 4306 
L 4122 3641 
Q 3803 3938 3442 4084 
Q 3081 4231 2675 4231 
Q 1875 4231 1450 3742 
Q 1025 3253 1025 2328 
Q 1025 1406 1450 917 
Q 1875 428 2675 428 
Q 3081 428 3442 575 
Q 3803 722 4122 1019 
L 4122 359 
Q 3791 134 3420 21 
Q 3050 -91 2638 -91 
Q 1578 -91 968 557 
Q 359 1206 359 2328 
Q 359 3453 968 4101 
Q 1578 4750 2638 4750 
Q 3056 4750 3426 4639 
Q 3797 4528 4122 4306 
z
" transform="scale(0.015625)"/>
       <path id="DejaVuSans-6f" d="M 1959 3097 
Q 1497 3097 1228 2736 
Q 959 2375 959 1747 
Q 959 1119 1226 758 
Q 1494 397 1959 397 
Q 2419 397 2687 759 
Q 2956 1122 2956 1747 
Q 2956 2369 2687 2733 
Q 2419 3097 1959 3097 
z
M 1959 3584 
Q 2709 3584 3137 3096 
Q 3566 2609 3566 1747 
Q 3566 888 3137 398 
Q 2709 -91 1959 -91 
Q 1206 -91 779 398 
Q 353 888 353 1747 
Q 353 2609 779 3096 
Q 1206 3584 1959 3584 
z
" transform="scale(0.015625)"/>
       <path id="DejaVuSans-72" d="M 2631 2963 
Q 2534 3019 2420 3045 
Q 2306 3072 2169 3072 
Q 1681 3072 1420 2755 
Q 1159 2438 1159 1844 
L 1159 0 
L 581 0 
L 581 3500 
L 1159 3500 
L 1159 2956 
Q 1341 3275 1631 3429 
Q 1922 3584 2338 3584 
Q 2397 3584 2469 3576 
Q 2541 3569 2628 3553 
L 2631 2963 
z
" transform="scale(0.015625)"/>
       <path id="DejaVuSans-65" d="M 3597 1894 
L 3597 1613 
L 953 1613 
Q 991 1019 1311 708 
Q 1631 397 2203 397 
Q 2534 397 2845 478 
Q 3156 559 3463 722 
L 3463 178 
Q 3153 47 2828 -22 
Q 2503 -91 2169 -91 
Q 1331 -91 842 396 
Q 353 884 353 1716 
Q 353 2575 817 3079 
Q 1281 3584 2069 3584 
Q 2775 3584 3186 3129 
Q 3597 2675 3597 1894 
z
M 3022 2063 
Q 3016 2534 2758 2815 
Q 2500 3097 2075 3097 
Q 1594 3097 1305 2825 
Q 1016 2553 972 2059 
L 3022 2063 
z
" transform="scale(0.015625)"/>
       <path id="DejaVuSans-6e" d="M 3513 2113 
L 3513 0 
L 2938 0 
L 2938 2094 
Q 2938 2591 2744 2837 
Q 2550 3084 2163 3084 
Q 1697 3084 1428 2787 
Q 1159 2491 1159 1978 
L 1159 0 
L 581 0 
L 581 3500 
L 1159 3500 
L 1159 2956 
Q 1366 3272 1645 3428 
Q 1925 3584 2291 3584 
Q 2894 3584 3203 3211 
Q 3513 2838 3513 2113 
z
" transform="scale(0.015625)"/>
       <path id="DejaVuSans-74" d="M 1172 4494 
L 1172 3500 
L 2356 3500 
L 2356 3053 
L 1172 3053 
L 1172 1153 
Q 1172 725 1289 603 
Q 1406 481 1766 481 
L 2356 481 
L 2356 0 
L 1766 0 
Q 1100 0 847 248 
Q 594 497 594 1153 
L 594 3053 
L 172 3053 
L 172 3500 
L 594 3500 
L 594 4494 
L 1172 4494 
z
" transform="scale(0.015625)"/>
       <path id="DejaVuSans-41" d="M 2188 4044 
L 1331 1722 
L 3047 1722 
L 2188 4044 
z
M 1831 4666 
L 2547 4666 
L 4325 0 
L 3669 0 
L 3244 1197 
L 1141 1197 
L 716 0 
L 50 0 
L 1831 4666 
z
" transform="scale(0.015625)"/>
      </defs>
      <use xlink:href="#DejaVuSans-43" transform="translate(0 0.765625)"/>
      <use xlink:href="#DejaVuSans-6f" transform="translate(69.824219 0.765625)"/>
      <use xlink:href="#DejaVuSans-72" transform="translate(131.005859 0.765625)"/>
      <use xlink:href="#DejaVuSans-72" transform="translate(172.119141 0.765625)"/>
      <use xlink:href="#DejaVuSans-65" transform="translate(213.232422 0.765625)"/>
      <use xlink:href="#DejaVuSans-6e" transform="translate(274.755859 0.765625)"/>
      <use xlink:href="#DejaVuSans-74" transform="translate(338.134766 0.765625)"/>
      <use xlink:href="#DejaVuSans-65" transform="translate(377.34375 0.765625)"/>
      <use xlink:href="#DejaVuSans-20" transform="translate(438.867188 0.765625)"/>
      <use xlink:href="#DejaVuSans-5b" transform="translate(470.654297 0.765625)"/>
      <use xlink:href="#DejaVuSans-31" transform="translate(509.667969 0.765625)"/>
      <use xlink:href="#DejaVuSans-30" transform="translate(573.291016 0.765625)"/>
      <use xlink:href="#DejaVuSans-2212" transform="translate(637.871094 39.046875) scale(0.7)"/>
      <use xlink:href="#DejaVuSans-33" transform="translate(696.523438 39.046875) scale(0.7)"/>
      <use xlink:href="#DejaVuSans-20" transform="translate(743.793945 0.765625)"/>
      <use xlink:href="#DejaVuSans-41" transform="translate(775.581055 0.765625)"/>
      <use xlink:href="#DejaVuSans-5d" transform="translate(843.989258 0.765625)"/>
     </g>
    </g>
   </g>
   <g id="LineCollection_1">
    <path d="M 30.07225 211.4728 
L 98.110129 211.4728 
" clip-path="url(#pabf05e2dfd)" style="fill: none; stroke: #bf00bf; stroke-width: 2.5"/>
    <path d="M 98.110129 207.586156 
L 166.148008 207.586156 
" clip-path="url(#pabf05e2dfd)" style="fill: none; stroke: #bf00bf; stroke-width: 2.5"/>
    <path d="M 166.148008 202.762561 
L 234.185887 202.762561 
" clip-path="url(#pabf05e2dfd)" style="fill: none; stroke: #bf00bf; stroke-width: 2.5"/>
    <path d="M 234.185887 196.482668 
L 302.223766 196.482668 
" clip-path="url(#pabf05e2dfd)" style="fill: none; stroke: #bf00bf; stroke-width: 2.5"/>
    <path d="M 302.223766 187.987732 
L 370.261645 187.987732 
" clip-path="url(#pabf05e2dfd)" style="fill: none; stroke: #bf00bf; stroke-width: 2.5"/>
    <path d="M 370.261645 175.829281 
L 438.299524 175.829281 
" clip-path="url(#pabf05e2dfd)" style="fill: none; stroke: #bf00bf; stroke-width: 2.5"/>
    <path d="M 438.299524 157.859092 
L 461.8 157.859092 
" clip-path="url(#pabf05e2dfd)" style="fill: none; stroke: #bf00bf; stroke-width: 2.5"/>
   </g>
   <g id="LineCollection_2">
    <path d="M 64.09119 211.47297 
L 64.09119 211.47263 
" clip-path="url(#pabf05e2dfd)" style="fill: none; stroke: #bf00bf; stroke-width: 2.5"/>
    <path d="M 132.129069 207.586311 
L 132.129069 207.586001 
" clip-path="url(#pabf05e2dfd)" style="fill: none; stroke: #bf00bf; stroke-width: 2.5"/>
    <path d="M 200.166948 202.762648 
L 200.166948 202.762473 
" clip-path="url(#pabf05e2dfd)" style="fill: none; stroke: #bf00bf; stroke-width: 2.5"/>
    <path d="M 268.204827 196.482802 
L 268.204827 196.482535 
" clip-path="url(#pabf05e2dfd)" style="fill: none; stroke: #bf00bf; stroke-width: 2.5"/>
    <path d="M 336.242706 187.987805 
L 336.242706 187.987658 
" clip-path="url(#pabf05e2dfd)" style="fill: none; stroke: #bf00bf; stroke-width: 2.5"/>
    <path d="M 404.280585 175.829368 
L 404.280585 175.829193 
" clip-path="url(#pabf05e2dfd)" style="fill: none; stroke: #bf00bf; stroke-width: 2.5"/>
    <path clip-path="url(#pabf05e2dfd)" style="fill: none; stroke: #bf00bf; stroke-width: 2.5"/>
   </g>
   <g id="LineCollection_3">
    <path d="M 30.07225 241.015841 
L 98.110129 241.015841 
" clip-path="url(#pabf05e2dfd)" style="fill: none; stroke: #00bfbf; stroke-width: 2.5"/>
    <path d="M 98.110129 231.573559 
L 166.148008 231.573559 
" clip-path="url(#pabf05e2dfd)" style="fill: none; stroke: #00bfbf; stroke-width: 2.5"/>
    <path d="M 166.148008 219.686051 
L 234.185887 219.686051 
" clip-path="url(#pabf05e2dfd)" style="fill: none; stroke: #00bfbf; stroke-width: 2.5"/>
    <path d="M 234.185887 204.159287 
L 302.223766 204.159287 
" clip-path="url(#pabf05e2dfd)" style="fill: none; stroke: #00bfbf; stroke-width: 2.5"/>
    <path d="M 302.223766 182.883936 
L 370.261645 182.883936 
" clip-path="url(#pabf05e2dfd)" style="fill: none; stroke: #00bfbf; stroke-width: 2.5"/>
    <path d="M 370.261645 152.543155 
L 438.299524 152.543155 
" clip-path="url(#pabf05e2dfd)" style="fill: none; stroke: #00bfbf; stroke-width: 2.5"/>
    <path d="M 438.299524 87.402273 
L 461.8 87.402273 
" clip-path="url(#pabf05e2dfd)" style="fill: none; stroke: #00bfbf; stroke-width: 2.5"/>
   </g>
   <g id="LineCollection_4">
    <path d="M 64.09119 241.015913 
L 64.09119 241.015769 
" clip-path="url(#pabf05e2dfd)" style="fill: none; stroke: #00bfbf; stroke-width: 2.5"/>
    <path d="M 132.129069 231.57364 
L 132.129069 231.573479 
" clip-path="url(#pabf05e2dfd)" style="fill: none; stroke: #00bfbf; stroke-width: 2.5"/>
    <path d="M 200.166948 219.686124 
L 200.166948 219.685977 
" clip-path="url(#pabf05e2dfd)" style="fill: none; stroke: #00bfbf; stroke-width: 2.5"/>
    <path d="M 268.204827 204.15939 
L 268.204827 204.159184 
" clip-path="url(#pabf05e2dfd)" style="fill: none; stroke: #00bfbf; stroke-width: 2.5"/>
    <path d="M 336.242706 182.884058 
L 336.242706 182.883813 
" clip-path="url(#pabf05e2dfd)" style="fill: none; stroke: #00bfbf; stroke-width: 2.5"/>
    <path d="M 404.280585 152.543312 
L 404.280585 152.542999 
" clip-path="url(#pabf05e2dfd)" style="fill: none; stroke: #00bfbf; stroke-width: 2.5"/>
    <path clip-path="url(#pabf05e2dfd)" style="fill: none; stroke: #00bfbf; stroke-width: 2.5"/>
   </g>
   <g id="LineCollection_5">
    <path d="M 30.07225 252.651453 
L 98.110129 252.651453 
" clip-path="url(#pabf05e2dfd)" style="fill: none; stroke: #008000; stroke-width: 2.5"/>
    <path d="M 98.110129 241.272031 
L 166.148008 241.272031 
" clip-path="url(#pabf05e2dfd)" style="fill: none; stroke: #008000; stroke-width: 2.5"/>
    <path d="M 166.148008 226.4993 
L 234.185887 226.4993 
" clip-path="url(#pabf05e2dfd)" style="fill: none; stroke: #008000; stroke-width: 2.5"/>
    <path d="M 234.185887 207.17338 
L 302.223766 207.17338 
" clip-path="url(#pabf05e2dfd)" style="fill: none; stroke: #008000; stroke-width: 2.5"/>
    <path d="M 302.223766 180.739704 
L 370.261645 180.739704 
" clip-path="url(#pabf05e2dfd)" style="fill: none; stroke: #008000; stroke-width: 2.5"/>
    <path d="M 370.261645 142.994631 
L 438.299524 142.994631 
" clip-path="url(#pabf05e2dfd)" style="fill: none; stroke: #008000; stroke-width: 2.5"/>
    <path d="M 438.299524 61.958045 
L 461.8 61.958045 
" clip-path="url(#pabf05e2dfd)" style="fill: none; stroke: #008000; stroke-width: 2.5"/>
   </g>
   <g id="LineCollection_6">
    <path d="M 64.09119 252.651553 
L 64.09119 252.651354 
" clip-path="url(#pabf05e2dfd)" style="fill: none; stroke: #008000; stroke-width: 2.5"/>
    <path d="M 132.129069 241.272118 
L 132.129069 241.271943 
" clip-path="url(#pabf05e2dfd)" style="fill: none; stroke: #008000; stroke-width: 2.5"/>
    <path d="M 200.166948 226.499403 
L 200.166948 226.499198 
" clip-path="url(#pabf05e2dfd)" style="fill: none; stroke: #008000; stroke-width: 2.5"/>
    <path d="M 268.204827 207.17348 
L 268.204827 207.17328 
" clip-path="url(#pabf05e2dfd)" style="fill: none; stroke: #008000; stroke-width: 2.5"/>
    <path d="M 336.242706 180.739778 
L 336.242706 180.739631 
" clip-path="url(#pabf05e2dfd)" style="fill: none; stroke: #008000; stroke-width: 2.5"/>
    <path d="M 404.280585 142.994728 
L 404.280585 142.994534 
" clip-path="url(#pabf05e2dfd)" style="fill: none; stroke: #008000; stroke-width: 2.5"/>
    <path clip-path="url(#pabf05e2dfd)" style="fill: none; stroke: #008000; stroke-width: 2.5"/>
   </g>
   <g id="LineCollection_7">
    <path d="M 30.07225 269.867863 
L 98.110129 269.867863 
" clip-path="url(#pabf05e2dfd)" style="fill: none; stroke: #ff0000; stroke-width: 2.5"/>
    <path d="M 98.110129 247.924782 
L 166.148008 247.924782 
" clip-path="url(#pabf05e2dfd)" style="fill: none; stroke: #ff0000; stroke-width: 2.5"/>
    <path d="M 166.148008 235.636024 
L 234.185887 235.636024 
" clip-path="url(#pabf05e2dfd)" style="fill: none; stroke: #ff0000; stroke-width: 2.5"/>
    <path d="M 234.185887 211.704262 
L 302.223766 211.704262 
" clip-path="url(#pabf05e2dfd)" style="fill: none; stroke: #ff0000; stroke-width: 2.5"/>
    <path d="M 302.223766 178.088376 
L 370.261645 178.088376 
" clip-path="url(#pabf05e2dfd)" style="fill: none; stroke: #ff0000; stroke-width: 2.5"/>
    <path d="M 370.261645 130.147403 
L 438.299524 130.147403 
" clip-path="url(#pabf05e2dfd)" style="fill: none; stroke: #ff0000; stroke-width: 2.5"/>
    <path d="M 438.299524 28.090175 
L 461.8 28.090175 
" clip-path="url(#pabf05e2dfd)" style="fill: none; stroke: #ff0000; stroke-width: 2.5"/>
   </g>
   <g id="LineCollection_8">
    <path d="M 64.09119 269.867964 
L 64.09119 269.867763 
" clip-path="url(#pabf05e2dfd)" style="fill: none; stroke: #ff0000; stroke-width: 2.5"/>
    <path d="M 132.129069 247.92485 
L 132.129069 247.924713 
" clip-path="url(#pabf05e2dfd)" style="fill: none; stroke: #ff0000; stroke-width: 2.5"/>
    <path d="M 200.166948 235.636085 
L 200.166948 235.635964 
" clip-path="url(#pabf05e2dfd)" style="fill: none; stroke: #ff0000; stroke-width: 2.5"/>
    <path d="M 268.204827 211.704331 
L 268.204827 211.704192 
" clip-path="url(#pabf05e2dfd)" style="fill: none; stroke: #ff0000; stroke-width: 2.5"/>
    <path d="M 336.242706 178.088486 
L 336.242706 178.088266 
" clip-path="url(#pabf05e2dfd)" style="fill: none; stroke: #ff0000; stroke-width: 2.5"/>
    <path d="M 404.280585 130.147516 
L 404.280585 130.14729 
" clip-path="url(#pabf05e2dfd)" style="fill: none; stroke: #ff0000; stroke-width: 2.5"/>
    <path clip-path="url(#pabf05e2dfd)" style="fill: none; stroke: #ff0000; stroke-width: 2.5"/>
   </g>
   <g id="LineCollection_9">
    <path d="M 30.07225 281.04 
L 98.110129 281.04 
" clip-path="url(#pabf05e2dfd)" style="fill: none; stroke: #0000ff; stroke-width: 2.5"/>
    <path d="M 98.110129 262.589213 
L 166.148008 262.589213 
" clip-path="url(#pabf05e2dfd)" style="fill: none; stroke: #0000ff; stroke-width: 2.5"/>
    <path d="M 166.148008 234.194141 
L 234.185887 234.194141 
" clip-path="url(#pabf05e2dfd)" style="fill: none; stroke: #0000ff; stroke-width: 2.5"/>
    <path d="M 234.185887 213.952855 
L 302.223766 213.952855 
" clip-path="url(#pabf05e2dfd)" style="fill: none; stroke: #0000ff; stroke-width: 2.5"/>
    <path d="M 302.223766 176.385965 
L 370.261645 176.385965 
" clip-path="url(#pabf05e2dfd)" style="fill: none; stroke: #0000ff; stroke-width: 2.5"/>
    <path d="M 370.261645 121.794481 
L 438.299524 121.794481 
" clip-path="url(#pabf05e2dfd)" style="fill: none; stroke: #0000ff; stroke-width: 2.5"/>
    <path d="M 438.299524 5.009705 
L 461.8 5.009705 
" clip-path="url(#pabf05e2dfd)" style="fill: none; stroke: #0000ff; stroke-width: 2.5"/>
   </g>
   <g id="LineCollection_10">
    <path d="M 64.09119 281.040078 
L 64.09119 281.039922 
" clip-path="url(#pabf05e2dfd)" style="fill: none; stroke: #0000ff; stroke-width: 2.5"/>
    <path d="M 132.129069 262.592696 
L 132.129069 262.585731 
" clip-path="url(#pabf05e2dfd)" style="fill: none; stroke: #0000ff; stroke-width: 2.5"/>
    <path d="M 200.166948 234.19826 
L 200.166948 234.190022 
" clip-path="url(#pabf05e2dfd)" style="fill: none; stroke: #0000ff; stroke-width: 2.5"/>
    <path d="M 268.204827 213.95328 
L 268.204827 213.952429 
" clip-path="url(#pabf05e2dfd)" style="fill: none; stroke: #0000ff; stroke-width: 2.5"/>
    <path d="M 336.242706 176.386081 
L 336.242706 176.385849 
" clip-path="url(#pabf05e2dfd)" style="fill: none; stroke: #0000ff; stroke-width: 2.5"/>
    <path d="M 404.280585 121.794627 
L 404.280585 121.794336 
" clip-path="url(#pabf05e2dfd)" style="fill: none; stroke: #0000ff; stroke-width: 2.5"/>
    <path clip-path="url(#pabf05e2dfd)" style="fill: none; stroke: #0000ff; stroke-width: 2.5"/>
   </g>
   <g id="line2d_24">
    <defs>
     <path id="mc02f987def" d="M 0 3.5 
C 0.928211 3.5 1.81853 3.131218 2.474874 2.474874 
C 3.131218 1.81853 3.5 0.928211 3.5 0 
C 3.5 -0.928211 3.131218 -1.81853 2.474874 -2.474874 
C 1.81853 -3.131218 0.928211 -3.5 0 -3.5 
C -0.928211 -3.5 -1.81853 -3.131218 -2.474874 -2.474874 
C -3.131218 -1.81853 -3.5 -0.928211 -3.5 0 
C -3.5 0.928211 -3.131218 1.81853 -2.474874 2.474874 
C -1.81853 3.131218 -0.928211 3.5 0 3.5 
z
" style="stroke: #bf00bf"/>
    </defs>
    <g clip-path="url(#pabf05e2dfd)">
     <use xlink:href="#mc02f987def" x="64.09119" y="211.4728" style="fill: #bf00bf; stroke: #bf00bf"/>
     <use xlink:href="#mc02f987def" x="132.129069" y="207.586156" style="fill: #bf00bf; stroke: #bf00bf"/>
     <use xlink:href="#mc02f987def" x="200.166948" y="202.762561" style="fill: #bf00bf; stroke: #bf00bf"/>
     <use xlink:href="#mc02f987def" x="268.204827" y="196.482668" style="fill: #bf00bf; stroke: #bf00bf"/>
     <use xlink:href="#mc02f987def" x="336.242706" y="187.987732" style="fill: #bf00bf; stroke: #bf00bf"/>
     <use xlink:href="#mc02f987def" x="404.280585" y="175.829281" style="fill: #bf00bf; stroke: #bf00bf"/>
     <use xlink:href="#mc02f987def" x="472.318464" y="157.859092" style="fill: #bf00bf; stroke: #bf00bf"/>
    </g>
   </g>
   <g id="line2d_25">
    <defs>
     <path id="m35e03fe2b2" d="M 0 3.5 
C 0.928211 3.5 1.81853 3.131218 2.474874 2.474874 
C 3.131218 1.81853 3.5 0.928211 3.5 0 
C 3.5 -0.928211 3.131218 -1.81853 2.474874 -2.474874 
C 1.81853 -3.131218 0.928211 -3.5 0 -3.5 
C -0.928211 -3.5 -1.81853 -3.131218 -2.474874 -2.474874 
C -3.131218 -1.81853 -3.5 -0.928211 -3.5 0 
C -3.5 0.928211 -3.131218 1.81853 -2.474874 2.474874 
C -1.81853 3.131218 -0.928211 3.5 0 3.5 
z
" style="stroke: #00bfbf"/>
    </defs>
    <g clip-path="url(#pabf05e2dfd)">
     <use xlink:href="#m35e03fe2b2" x="64.09119" y="241.015841" style="fill: #00bfbf; stroke: #00bfbf"/>
     <use xlink:href="#m35e03fe2b2" x="132.129069" y="231.573559" style="fill: #00bfbf; stroke: #00bfbf"/>
     <use xlink:href="#m35e03fe2b2" x="200.166948" y="219.686051" style="fill: #00bfbf; stroke: #00bfbf"/>
     <use xlink:href="#m35e03fe2b2" x="268.204827" y="204.159287" style="fill: #00bfbf; stroke: #00bfbf"/>
     <use xlink:href="#m35e03fe2b2" x="336.242706" y="182.883936" style="fill: #00bfbf; stroke: #00bfbf"/>
     <use xlink:href="#m35e03fe2b2" x="404.280585" y="152.543155" style="fill: #00bfbf; stroke: #00bfbf"/>
     <use xlink:href="#m35e03fe2b2" x="472.318464" y="87.402273" style="fill: #00bfbf; stroke: #00bfbf"/>
    </g>
   </g>
   <g id="line2d_26">
    <defs>
     <path id="md90842b6ac" d="M 0 3.5 
C 0.928211 3.5 1.81853 3.131218 2.474874 2.474874 
C 3.131218 1.81853 3.5 0.928211 3.5 0 
C 3.5 -0.928211 3.131218 -1.81853 2.474874 -2.474874 
C 1.81853 -3.131218 0.928211 -3.5 0 -3.5 
C -0.928211 -3.5 -1.81853 -3.131218 -2.474874 -2.474874 
C -3.131218 -1.81853 -3.5 -0.928211 -3.5 0 
C -3.5 0.928211 -3.131218 1.81853 -2.474874 2.474874 
C -1.81853 3.131218 -0.928211 3.5 0 3.5 
z
" style="stroke: #008000"/>
    </defs>
    <g clip-path="url(#pabf05e2dfd)">
     <use xlink:href="#md90842b6ac" x="64.09119" y="252.651453" style="fill: #008000; stroke: #008000"/>
     <use xlink:href="#md90842b6ac" x="132.129069" y="241.272031" style="fill: #008000; stroke: #008000"/>
     <use xlink:href="#md90842b6ac" x="200.166948" y="226.4993" style="fill: #008000; stroke: #008000"/>
     <use xlink:href="#md90842b6ac" x="268.204827" y="207.17338" style="fill: #008000; stroke: #008000"/>
     <use xlink:href="#md90842b6ac" x="336.242706" y="180.739704" style="fill: #008000; stroke: #008000"/>
     <use xlink:href="#md90842b6ac" x="404.280585" y="142.994631" style="fill: #008000; stroke: #008000"/>
     <use xlink:href="#md90842b6ac" x="472.318464" y="61.958045" style="fill: #008000; stroke: #008000"/>
    </g>
   </g>
   <g id="line2d_27">
    <defs>
     <path id="m07c96b1532" d="M 0 3.5 
C 0.928211 3.5 1.81853 3.131218 2.474874 2.474874 
C 3.131218 1.81853 3.5 0.928211 3.5 0 
C 3.5 -0.928211 3.131218 -1.81853 2.474874 -2.474874 
C 1.81853 -3.131218 0.928211 -3.5 0 -3.5 
C -0.928211 -3.5 -1.81853 -3.131218 -2.474874 -2.474874 
C -3.131218 -1.81853 -3.5 -0.928211 -3.5 0 
C -3.5 0.928211 -3.131218 1.81853 -2.474874 2.474874 
C -1.81853 3.131218 -0.928211 3.5 0 3.5 
z
" style="stroke: #ff0000"/>
    </defs>
    <g clip-path="url(#pabf05e2dfd)">
     <use xlink:href="#m07c96b1532" x="64.09119" y="269.867863" style="fill: #ff0000; stroke: #ff0000"/>
     <use xlink:href="#m07c96b1532" x="132.129069" y="247.924782" style="fill: #ff0000; stroke: #ff0000"/>
     <use xlink:href="#m07c96b1532" x="200.166948" y="235.636024" style="fill: #ff0000; stroke: #ff0000"/>
     <use xlink:href="#m07c96b1532" x="268.204827" y="211.704262" style="fill: #ff0000; stroke: #ff0000"/>
     <use xlink:href="#m07c96b1532" x="336.242706" y="178.088376" style="fill: #ff0000; stroke: #ff0000"/>
     <use xlink:href="#m07c96b1532" x="404.280585" y="130.147403" style="fill: #ff0000; stroke: #ff0000"/>
     <use xlink:href="#m07c96b1532" x="472.318464" y="28.090175" style="fill: #ff0000; stroke: #ff0000"/>
    </g>
   </g>
   <g id="line2d_28">
    <defs>
     <path id="ma440d2bb8a" d="M 0 3.5 
C 0.928211 3.5 1.81853 3.131218 2.474874 2.474874 
C 3.131218 1.81853 3.5 0.928211 3.5 0 
C 3.5 -0.928211 3.131218 -1.81853 2.474874 -2.474874 
C 1.81853 -3.131218 0.928211 -3.5 0 -3.5 
C -0.928211 -3.5 -1.81853 -3.131218 -2.474874 -2.474874 
C -3.131218 -1.81853 -3.5 -0.928211 -3.5 0 
C -3.5 0.928211 -3.131218 1.81853 -2.474874 2.474874 
C -1.81853 3.131218 -0.928211 3.5 0 3.5 
z
" style="stroke: #0000ff"/>
    </defs>
    <g clip-path="url(#pabf05e2dfd)">
     <use xlink:href="#ma440d2bb8a" x="64.09119" y="281.04" style="fill: #0000ff; stroke: #0000ff"/>
     <use xlink:href="#ma440d2bb8a" x="132.129069" y="262.589213" style="fill: #0000ff; stroke: #0000ff"/>
     <use xlink:href="#ma440d2bb8a" x="200.166948" y="234.194141" style="fill: #0000ff; stroke: #0000ff"/>
     <use xlink:href="#ma440d2bb8a" x="268.204827" y="213.952855" style="fill: #0000ff; stroke: #0000ff"/>
     <use xlink:href="#ma440d2bb8a" x="336.242706" y="176.385965" style="fill: #0000ff; stroke: #0000ff"/>
     <use xlink:href="#ma440d2bb8a" x="404.280585" y="121.794481" style="fill: #0000ff; stroke: #0000ff"/>
     <use xlink:href="#ma440d2bb8a" x="472.318464" y="5.009705" style="fill: #0000ff; stroke: #0000ff"/>
    </g>
   </g>
   <g id="patch_3">
    <path d="M 81.174 281.04 
L 81.174 5.009705 
" style="fill: none; stroke: #000000; stroke-width: 0.8; stroke-linejoin: miter; stroke-linecap: square"/>
   </g>
   <g id="patch_4">
    <path d="M 437.76 281.04 
L 437.76 5.009705 
" style="fill: none; stroke: #000000; stroke-width: 0.8; stroke-linejoin: miter; stroke-linecap: square"/>
   </g>
   <g id="patch_5">
    <path d="M 81.174 281.04 
L 437.76 281.04 
" style="fill: none; stroke: #000000; stroke-width: 0.8; stroke-linejoin: miter; stroke-linecap: square"/>
   </g>
   <g id="patch_6">
    <path d="M 81.174 5.009705 
L 437.76 5.009705 
" style="fill: none; stroke: #000000; stroke-width: 0.8; stroke-linejoin: miter; stroke-linecap: square"/>
   </g>
   <g id="line2d_29">
    <path d="M 64.09119 211.4728 
L 132.129069 207.586156 
L 200.166948 202.762561 
L 268.204827 196.482668 
L 336.242706 187.987732 
L 404.280585 175.829281 
L 461.8 160.637233 
" clip-path="url(#pabf05e2dfd)" style="fill: none; stroke: #bf00bf; stroke-width: 3; stroke-linecap: square"/>
   </g>
   <g id="line2d_30">
    <path d="M 64.09119 241.015841 
L 132.129069 231.573559 
L 200.166948 219.686051 
L 268.204827 204.159287 
L 336.242706 182.883936 
L 404.280585 152.543155 
L 461.8 97.47287 
" clip-path="url(#pabf05e2dfd)" style="fill: none; stroke: #00bfbf; stroke-width: 3; stroke-linecap: square"/>
   </g>
   <g id="line2d_31">
    <path d="M 64.09119 252.651453 
L 132.129069 241.272031 
L 200.166948 226.4993 
L 268.204827 207.17338 
L 336.242706 180.739704 
L 404.280585 142.994631 
L 461.8 74.486072 
" clip-path="url(#pabf05e2dfd)" style="fill: none; stroke: #008000; stroke-width: 3; stroke-linecap: square"/>
   </g>
   <g id="line2d_32">
    <path d="M 64.09119 269.867863 
L 132.129069 247.924782 
L 200.166948 235.636024 
L 268.204827 211.704262 
L 336.242706 178.088376 
L 404.280585 130.147403 
L 461.8 43.867934 
" clip-path="url(#pabf05e2dfd)" style="fill: none; stroke: #ff0000; stroke-width: 3; stroke-linecap: square"/>
   </g>
   <g id="line2d_33">
    <path d="M 64.09119 281.04 
L 132.129069 262.589213 
L 200.166948 234.194141 
L 268.204827 213.952855 
L 336.242706 176.385965 
L 404.280585 121.794481 
L 461.8 23.064302 
" clip-path="url(#pabf05e2dfd)" style="fill: none; stroke: #0000ff; stroke-width: 3; stroke-linecap: square"/>
   </g>
   <g id="text_14">
    <g id="patch_7">
     <path d="M 82.65693 38.484535 
L 123.161618 38.484535 
L 123.161618 8.85016 
L 82.65693 8.85016 
z
" style="fill: #ffffff; opacity: 0.85"/>
    </g>
    <!-- (c) -->
    <g transform="translate(82.95693 31.945472) scale(0.3 -0.3)">
     <defs>
      <path id="DejaVuSans-28" d="M 1984 4856 
Q 1566 4138 1362 3434 
Q 1159 2731 1159 2009 
Q 1159 1288 1364 580 
Q 1569 -128 1984 -844 
L 1484 -844 
Q 1016 -109 783 600 
Q 550 1309 550 2009 
Q 550 2706 781 3412 
Q 1013 4119 1484 4856 
L 1984 4856 
z
" transform="scale(0.015625)"/>
      <path id="DejaVuSans-63" d="M 3122 3366 
L 3122 2828 
Q 2878 2963 2633 3030 
Q 2388 3097 2138 3097 
Q 1578 3097 1268 2742 
Q 959 2388 959 1747 
Q 959 1106 1268 751 
Q 1578 397 2138 397 
Q 2388 397 2633 464 
Q 2878 531 3122 666 
L 3122 134 
Q 2881 22 2623 -34 
Q 2366 -91 2075 -91 
Q 1284 -91 818 406 
Q 353 903 353 1747 
Q 353 2603 823 3093 
Q 1294 3584 2113 3584 
Q 2378 3584 2631 3529 
Q 2884 3475 3122 3366 
z
" transform="scale(0.015625)"/>
      <path id="DejaVuSans-29" d="M 513 4856 
L 1013 4856 
Q 1481 4119 1714 3412 
Q 1947 2706 1947 2009 
Q 1947 1309 1714 600 
Q 1481 -109 1013 -844 
L 513 -844 
Q 928 -128 1133 580 
Q 1338 1288 1338 2009 
Q 1338 2731 1133 3434 
Q 928 4138 513 4856 
z
" transform="scale(0.015625)"/>
     </defs>
     <use xlink:href="#DejaVuSans-28"/>
     <use xlink:href="#DejaVuSans-63" x="39.013672"/>
     <use xlink:href="#DejaVuSans-29" x="93.994141"/>
    </g>
   </g>
   <g id="PathCollection_1">
    <defs>
     <path id="m8a68001526" d="M -9.354143 9.354143 
L 9.354143 -9.354143 
M -9.354143 -9.354143 
L 9.354143 9.354143 
" style="stroke: #000000; stroke-width: 8"/>
    </defs>
    <g clip-path="url(#pabf05e2dfd)">
     <use xlink:href="#m8a68001526" x="305.699001" y="191.801296" style="stroke: #000000; stroke-width: 8"/>
    </g>
   </g>
   <g id="PathCollection_2">
    <g clip-path="url(#pabf05e2dfd)">
     <use xlink:href="#m8a68001526" x="307.725278" y="191.801296" style="stroke: #000000; stroke-width: 8"/>
    </g>
   </g>
   <g id="PathCollection_3">
    <g clip-path="url(#pabf05e2dfd)">
     <use xlink:href="#m8a68001526" x="307.771174" y="191.801296" style="stroke: #000000; stroke-width: 8"/>
    </g>
   </g>
   <g id="PathCollection_4">
    <g clip-path="url(#pabf05e2dfd)">
     <use xlink:href="#m8a68001526" x="308.48803" y="191.801296" style="stroke: #000000; stroke-width: 8"/>
    </g>
   </g>
   <g id="PathCollection_5">
    <g clip-path="url(#pabf05e2dfd)">
     <use xlink:href="#m8a68001526" x="308.3238" y="191.801296" style="stroke: #000000; stroke-width: 8"/>
    </g>
   </g>
   <g id="PathCollection_6">
    <g clip-path="url(#pabf05e2dfd)">
     <use xlink:href="#m8a68001526" x="307.601457" y="191.801296" style="stroke: #000000; stroke-width: 8"/>
    </g>
   </g>
   <g id="PathCollection_7">
    <defs>
     <path id="m25a8589808" d="M -7.905694 7.905694 
L 7.905694 -7.905694 
M -7.905694 -7.905694 
L 7.905694 7.905694 
" style="stroke: #bf00bf; stroke-width: 4"/>
    </defs>
    <g clip-path="url(#pabf05e2dfd)">
     <use xlink:href="#m25a8589808" x="305.699001" y="191.801296" style="fill: #bf00bf; stroke: #bf00bf; stroke-width: 4"/>
    </g>
   </g>
   <g id="PathCollection_8">
    <defs>
     <path id="mb93f91818f" d="M -7.905694 7.905694 
L 7.905694 -7.905694 
M -7.905694 -7.905694 
L 7.905694 7.905694 
" style="stroke: #00bfbf; stroke-width: 4"/>
    </defs>
    <g clip-path="url(#pabf05e2dfd)">
     <use xlink:href="#mb93f91818f" x="307.725278" y="191.801296" style="fill: #00bfbf; stroke: #00bfbf; stroke-width: 4"/>
    </g>
   </g>
   <g id="PathCollection_9">
    <defs>
     <path id="ma134460355" d="M -7.905694 7.905694 
L 7.905694 -7.905694 
M -7.905694 -7.905694 
L 7.905694 7.905694 
" style="stroke: #008000; stroke-width: 4"/>
    </defs>
    <g clip-path="url(#pabf05e2dfd)">
     <use xlink:href="#ma134460355" x="307.771174" y="191.801296" style="fill: #008000; stroke: #008000; stroke-width: 4"/>
    </g>
   </g>
   <g id="PathCollection_10">
    <defs>
     <path id="m29078ec6f4" d="M -7.905694 7.905694 
L 7.905694 -7.905694 
M -7.905694 -7.905694 
L 7.905694 7.905694 
" style="stroke: #ff0000; stroke-width: 4"/>
    </defs>
    <g clip-path="url(#pabf05e2dfd)">
     <use xlink:href="#m29078ec6f4" x="308.48803" y="191.801296" style="fill: #ff0000; stroke: #ff0000; stroke-width: 4"/>
    </g>
   </g>
   <g id="PathCollection_11">
    <defs>
     <path id="m1fe730e26b" d="M -7.905694 7.905694 
L 7.905694 -7.905694 
M -7.905694 -7.905694 
L 7.905694 7.905694 
" style="stroke: #0000ff; stroke-width: 4"/>
    </defs>
    <g clip-path="url(#pabf05e2dfd)">
     <use xlink:href="#m1fe730e26b" x="308.3238" y="191.801296" style="fill: #0000ff; stroke: #0000ff; stroke-width: 4"/>
    </g>
   </g>
   <g id="legend_1">
    <g id="patch_8">
     <path d="M 150.677 110.68533 
L 368.257 110.68533 
Q 372.657 110.68533 372.657 106.28533 
L 372.657 20.409705 
Q 372.657 16.009705 368.257 16.009705 
L 150.677 16.009705 
Q 146.277 16.009705 146.277 20.409705 
L 146.277 106.28533 
Q 146.277 110.68533 150.677 110.68533 
z
" style="fill: #ffffff; opacity: 0.8; stroke: #cccccc; stroke-linejoin: miter"/>
    </g>
    <g id="line2d_34">
     <path d="M 150.677 29.426268 
L 158.377 29.426268 
L 166.077 29.426268 
" style="fill: none; stroke: #bf00bf; stroke-width: 3; stroke-linecap: square"/>
    </g>
    <g id="text_15">
     <!-- $I=$20% -->
     <g transform="translate(168.277 37.126268) scale(0.22 -0.22)">
      <defs>
       <path id="DejaVuSans-Oblique-49" d="M 1081 4666 
L 1716 4666 
L 806 0 
L 172 0 
L 1081 4666 
z
" transform="scale(0.015625)"/>
       <path id="DejaVuSans-3d" d="M 678 2906 
L 4684 2906 
L 4684 2381 
L 678 2381 
L 678 2906 
z
M 678 1631 
L 4684 1631 
L 4684 1100 
L 678 1100 
L 678 1631 
z
" transform="scale(0.015625)"/>
       <path id="DejaVuSans-25" d="M 4653 2053 
Q 4381 2053 4226 1822 
Q 4072 1591 4072 1178 
Q 4072 772 4226 539 
Q 4381 306 4653 306 
Q 4919 306 5073 539 
Q 5228 772 5228 1178 
Q 5228 1588 5073 1820 
Q 4919 2053 4653 2053 
z
M 4653 2450 
Q 5147 2450 5437 2106 
Q 5728 1763 5728 1178 
Q 5728 594 5436 251 
Q 5144 -91 4653 -91 
Q 4153 -91 3862 251 
Q 3572 594 3572 1178 
Q 3572 1766 3864 2108 
Q 4156 2450 4653 2450 
z
M 1428 4353 
Q 1159 4353 1004 4120 
Q 850 3888 850 3481 
Q 850 3069 1003 2837 
Q 1156 2606 1428 2606 
Q 1700 2606 1854 2837 
Q 2009 3069 2009 3481 
Q 2009 3884 1853 4118 
Q 1697 4353 1428 4353 
z
M 4250 4750 
L 4750 4750 
L 1831 -91 
L 1331 -91 
L 4250 4750 
z
M 1428 4750 
Q 1922 4750 2215 4408 
Q 2509 4066 2509 3481 
Q 2509 2891 2217 2550 
Q 1925 2209 1428 2209 
Q 931 2209 642 2551 
Q 353 2894 353 3481 
Q 353 4063 643 4406 
Q 934 4750 1428 4750 
z
" transform="scale(0.015625)"/>
      </defs>
      <use xlink:href="#DejaVuSans-Oblique-49" transform="translate(0 0.78125)"/>
      <use xlink:href="#DejaVuSans-3d" transform="translate(48.974609 0.78125)"/>
      <use xlink:href="#DejaVuSans-32" transform="translate(152.246094 0.78125)"/>
      <use xlink:href="#DejaVuSans-30" transform="translate(215.869141 0.78125)"/>
      <use xlink:href="#DejaVuSans-25" transform="translate(279.492188 0.78125)"/>
     </g>
    </g>
    <g id="line2d_35">
     <path d="M 150.677 61.718143 
L 158.377 61.718143 
L 166.077 61.718143 
" style="fill: none; stroke: #00bfbf; stroke-width: 3; stroke-linecap: square"/>
    </g>
    <g id="text_16">
     <!-- $I=$40% -->
     <g transform="translate(168.277 69.418143) scale(0.22 -0.22)">
      <use xlink:href="#DejaVuSans-Oblique-49" transform="translate(0 0.78125)"/>
      <use xlink:href="#DejaVuSans-3d" transform="translate(48.974609 0.78125)"/>
      <use xlink:href="#DejaVuSans-34" transform="translate(152.246094 0.78125)"/>
      <use xlink:href="#DejaVuSans-30" transform="translate(215.869141 0.78125)"/>
      <use xlink:href="#DejaVuSans-25" transform="translate(279.492188 0.78125)"/>
     </g>
    </g>
    <g id="line2d_36">
     <path d="M 150.677 94.010018 
L 158.377 94.010018 
L 166.077 94.010018 
" style="fill: none; stroke: #008000; stroke-width: 3; stroke-linecap: square"/>
    </g>
    <g id="text_17">
     <!-- $I=$60% -->
     <g transform="translate(168.277 101.710018) scale(0.22 -0.22)">
      <defs>
       <path id="DejaVuSans-36" d="M 2113 2584 
Q 1688 2584 1439 2293 
Q 1191 2003 1191 1497 
Q 1191 994 1439 701 
Q 1688 409 2113 409 
Q 2538 409 2786 701 
Q 3034 994 3034 1497 
Q 3034 2003 2786 2293 
Q 2538 2584 2113 2584 
z
M 3366 4563 
L 3366 3988 
Q 3128 4100 2886 4159 
Q 2644 4219 2406 4219 
Q 1781 4219 1451 3797 
Q 1122 3375 1075 2522 
Q 1259 2794 1537 2939 
Q 1816 3084 2150 3084 
Q 2853 3084 3261 2657 
Q 3669 2231 3669 1497 
Q 3669 778 3244 343 
Q 2819 -91 2113 -91 
Q 1303 -91 875 529 
Q 447 1150 447 2328 
Q 447 3434 972 4092 
Q 1497 4750 2381 4750 
Q 2619 4750 2861 4703 
Q 3103 4656 3366 4563 
z
" transform="scale(0.015625)"/>
      </defs>
      <use xlink:href="#DejaVuSans-Oblique-49" transform="translate(0 0.78125)"/>
      <use xlink:href="#DejaVuSans-3d" transform="translate(48.974609 0.78125)"/>
      <use xlink:href="#DejaVuSans-36" transform="translate(152.246094 0.78125)"/>
      <use xlink:href="#DejaVuSans-30" transform="translate(215.869141 0.78125)"/>
      <use xlink:href="#DejaVuSans-25" transform="translate(279.492188 0.78125)"/>
     </g>
    </g>
    <g id="line2d_37">
     <path d="M 254.077 29.426268 
L 261.777 29.426268 
L 269.477 29.426268 
" style="fill: none; stroke: #ff0000; stroke-width: 3; stroke-linecap: square"/>
    </g>
    <g id="text_18">
     <!-- $I=$80% -->
     <g transform="translate(271.677 37.126268) scale(0.22 -0.22)">
      <defs>
       <path id="DejaVuSans-38" d="M 2034 2216 
Q 1584 2216 1326 1975 
Q 1069 1734 1069 1313 
Q 1069 891 1326 650 
Q 1584 409 2034 409 
Q 2484 409 2743 651 
Q 3003 894 3003 1313 
Q 3003 1734 2745 1975 
Q 2488 2216 2034 2216 
z
M 1403 2484 
Q 997 2584 770 2862 
Q 544 3141 544 3541 
Q 544 4100 942 4425 
Q 1341 4750 2034 4750 
Q 2731 4750 3128 4425 
Q 3525 4100 3525 3541 
Q 3525 3141 3298 2862 
Q 3072 2584 2669 2484 
Q 3125 2378 3379 2068 
Q 3634 1759 3634 1313 
Q 3634 634 3220 271 
Q 2806 -91 2034 -91 
Q 1263 -91 848 271 
Q 434 634 434 1313 
Q 434 1759 690 2068 
Q 947 2378 1403 2484 
z
M 1172 3481 
Q 1172 3119 1398 2916 
Q 1625 2713 2034 2713 
Q 2441 2713 2670 2916 
Q 2900 3119 2900 3481 
Q 2900 3844 2670 4047 
Q 2441 4250 2034 4250 
Q 1625 4250 1398 4047 
Q 1172 3844 1172 3481 
z
" transform="scale(0.015625)"/>
      </defs>
      <use xlink:href="#DejaVuSans-Oblique-49" transform="translate(0 0.78125)"/>
      <use xlink:href="#DejaVuSans-3d" transform="translate(48.974609 0.78125)"/>
      <use xlink:href="#DejaVuSans-38" transform="translate(152.246094 0.78125)"/>
      <use xlink:href="#DejaVuSans-30" transform="translate(215.869141 0.78125)"/>
      <use xlink:href="#DejaVuSans-25" transform="translate(279.492188 0.78125)"/>
     </g>
    </g>
    <g id="line2d_38">
     <path d="M 254.077 61.718143 
L 261.777 61.718143 
L 269.477 61.718143 
" style="fill: none; stroke: #0000ff; stroke-width: 3; stroke-linecap: square"/>
    </g>
    <g id="text_19">
     <!-- $I=$100% -->
     <g transform="translate(271.677 69.418143) scale(0.22 -0.22)">
      <use xlink:href="#DejaVuSans-Oblique-49" transform="translate(0 0.78125)"/>
      <use xlink:href="#DejaVuSans-3d" transform="translate(48.974609 0.78125)"/>
      <use xlink:href="#DejaVuSans-31" transform="translate(152.246094 0.78125)"/>
      <use xlink:href="#DejaVuSans-30" transform="translate(215.869141 0.78125)"/>
      <use xlink:href="#DejaVuSans-30" transform="translate(279.492188 0.78125)"/>
      <use xlink:href="#DejaVuSans-25" transform="translate(343.115234 0.78125)"/>
     </g>
    </g>
   </g>
  </g>
 </g>
 <defs>
  <clipPath id="pabf05e2dfd">
   <rect x="81.174" y="5.009705" width="356.586" height="276.030295"/>
  </clipPath>
 </defs>
</svg>
