<?xml version="1.0" encoding="utf-8" standalone="no"?>
<!DOCTYPE svg PUBLIC "-//W3C//DTD SVG 1.1//EN"
  "http://www.w3.org/Graphics/SVG/1.1/DTD/svg11.dtd">
<svg xmlns:xlink="http://www.w3.org/1999/xlink" width="460.8pt" height="345.6pt" viewBox="0 0 460.8 345.6" xmlns="http://www.w3.org/2000/svg" version="1.1">
 <metadata>
  <rdf:RDF xmlns:dc="http://purl.org/dc/elements/1.1/" xmlns:cc="http://creativecommons.org/ns#" xmlns:rdf="http://www.w3.org/1999/02/22-rdf-syntax-ns#">
   <cc:Work>
    <dc:type rdf:resource="http://purl.org/dc/dcmitype/StillImage"/>
    <dc:date>2024-04-24T14:58:32.923241</dc:date>
    <dc:format>image/svg+xml</dc:format>
    <dc:creator>
     <cc:Agent>
      <dc:title>Matplotlib v3.8.3, https://matplotlib.org/</dc:title>
     </cc:Agent>
    </dc:creator>
   </cc:Work>
  </rdf:RDF>
 </metadata>
 <defs>
  <style type="text/css">*{stroke-linejoin: round; stroke-linecap: butt}</style>
 </defs>
 <g id="figure_1">
  <g id="patch_1">
   <path d="M 0 345.6 
L 460.8 345.6 
L 460.8 0 
L 0 0 
z
" style="fill: #ffffff"/>
  </g>
  <g id="axes_1">
   <g id="patch_2">
    <path d="M 80.58 281.04 
L 437.76 281.04 
L 437.76 1 
L 80.58 1 
z
" style="fill: #ffffff"/>
   </g>
   <g id="line2d_1">
    <path d="M 80.58 192.550939 
L 437.76 192.550939 
" clip-path="url(#p14e2ae8a53)" style="fill: none; stroke: #000000; stroke-width: 1.5; stroke-linecap: square"/>
   </g>
   <g id="matplotlib.axis_1">
    <g id="xtick_1">
     <g id="line2d_2">
      <path d="M 91.715416 281.04 
L 91.715416 1 
" clip-path="url(#p14e2ae8a53)" style="fill: none; stroke: #b0b0b0; stroke-width: 0.8; stroke-linecap: square"/>
     </g>
     <g id="line2d_3">
      <defs>
       <path id="m667e729920" d="M 0 0 
L 0 3.5 
" style="stroke: #000000; stroke-width: 0.8"/>
      </defs>
      <g>
       <use xlink:href="#m667e729920" x="91.715416" y="281.04" style="stroke: #000000; stroke-width: 0.8"/>
      </g>
     </g>
     <g id="text_1">
      <!-- −1.00 -->
      <g transform="translate(53.408776 307.036094) scale(0.25 -0.25)">
       <defs>
        <path id="DejaVuSans-2212" d="M 678 2272 
L 4684 2272 
L 4684 1741 
L 678 1741 
L 678 2272 
z
" transform="scale(0.015625)"/>
        <path id="DejaVuSans-31" d="M 794 531 
L 1825 531 
L 1825 4091 
L 703 3866 
L 703 4441 
L 1819 4666 
L 2450 4666 
L 2450 531 
L 3481 531 
L 3481 0 
L 794 0 
L 794 531 
z
" transform="scale(0.015625)"/>
        <path id="DejaVuSans-2e" d="M 684 794 
L 1344 794 
L 1344 0 
L 684 0 
L 684 794 
z
" transform="scale(0.015625)"/>
        <path id="DejaVuSans-30" d="M 2034 4250 
Q 1547 4250 1301 3770 
Q 1056 3291 1056 2328 
Q 1056 1369 1301 889 
Q 1547 409 2034 409 
Q 2525 409 2770 889 
Q 3016 1369 3016 2328 
Q 3016 3291 2770 3770 
Q 2525 4250 2034 4250 
z
M 2034 4750 
Q 2819 4750 3233 4129 
Q 3647 3509 3647 2328 
Q 3647 1150 3233 529 
Q 2819 -91 2034 -91 
Q 1250 -91 836 529 
Q 422 1150 422 2328 
Q 422 3509 836 4129 
Q 1250 4750 2034 4750 
z
" transform="scale(0.015625)"/>
       </defs>
       <use xlink:href="#DejaVuSans-2212"/>
       <use xlink:href="#DejaVuSans-31" x="83.789062"/>
       <use xlink:href="#DejaVuSans-2e" x="147.412109"/>
       <use xlink:href="#DejaVuSans-30" x="179.199219"/>
       <use xlink:href="#DejaVuSans-30" x="242.822266"/>
      </g>
     </g>
    </g>
    <g id="xtick_2">
     <g id="line2d_4">
      <path d="M 180.038904 281.04 
L 180.038904 1 
" clip-path="url(#p14e2ae8a53)" style="fill: none; stroke: #b0b0b0; stroke-width: 0.8; stroke-linecap: square"/>
     </g>
     <g id="line2d_5">
      <g>
       <use xlink:href="#m667e729920" x="180.038904" y="281.04" style="stroke: #000000; stroke-width: 0.8"/>
      </g>
     </g>
     <g id="text_2">
      <!-- −0.89 -->
      <g transform="translate(141.732263 307.036094) scale(0.25 -0.25)">
       <defs>
        <path id="DejaVuSans-38" d="M 2034 2216 
Q 1584 2216 1326 1975 
Q 1069 1734 1069 1313 
Q 1069 891 1326 650 
Q 1584 409 2034 409 
Q 2484 409 2743 651 
Q 3003 894 3003 1313 
Q 3003 1734 2745 1975 
Q 2488 2216 2034 2216 
z
M 1403 2484 
Q 997 2584 770 2862 
Q 544 3141 544 3541 
Q 544 4100 942 4425 
Q 1341 4750 2034 4750 
Q 2731 4750 3128 4425 
Q 3525 4100 3525 3541 
Q 3525 3141 3298 2862 
Q 3072 2584 2669 2484 
Q 3125 2378 3379 2068 
Q 3634 1759 3634 1313 
Q 3634 634 3220 271 
Q 2806 -91 2034 -91 
Q 1263 -91 848 271 
Q 434 634 434 1313 
Q 434 1759 690 2068 
Q 947 2378 1403 2484 
z
M 1172 3481 
Q 1172 3119 1398 2916 
Q 1625 2713 2034 2713 
Q 2441 2713 2670 2916 
Q 2900 3119 2900 3481 
Q 2900 3844 2670 4047 
Q 2441 4250 2034 4250 
Q 1625 4250 1398 4047 
Q 1172 3844 1172 3481 
z
" transform="scale(0.015625)"/>
        <path id="DejaVuSans-39" d="M 703 97 
L 703 672 
Q 941 559 1184 500 
Q 1428 441 1663 441 
Q 2288 441 2617 861 
Q 2947 1281 2994 2138 
Q 2813 1869 2534 1725 
Q 2256 1581 1919 1581 
Q 1219 1581 811 2004 
Q 403 2428 403 3163 
Q 403 3881 828 4315 
Q 1253 4750 1959 4750 
Q 2769 4750 3195 4129 
Q 3622 3509 3622 2328 
Q 3622 1225 3098 567 
Q 2575 -91 1691 -91 
Q 1453 -91 1209 -44 
Q 966 3 703 97 
z
M 1959 2075 
Q 2384 2075 2632 2365 
Q 2881 2656 2881 3163 
Q 2881 3666 2632 3958 
Q 2384 4250 1959 4250 
Q 1534 4250 1286 3958 
Q 1038 3666 1038 3163 
Q 1038 2656 1286 2365 
Q 1534 2075 1959 2075 
z
" transform="scale(0.015625)"/>
       </defs>
       <use xlink:href="#DejaVuSans-2212"/>
       <use xlink:href="#DejaVuSans-30" x="83.789062"/>
       <use xlink:href="#DejaVuSans-2e" x="147.412109"/>
       <use xlink:href="#DejaVuSans-38" x="179.199219"/>
       <use xlink:href="#DejaVuSans-39" x="242.822266"/>
      </g>
     </g>
    </g>
    <g id="xtick_3">
     <g id="line2d_6">
      <path d="M 260.332983 281.04 
L 260.332983 1 
" clip-path="url(#p14e2ae8a53)" style="fill: none; stroke: #b0b0b0; stroke-width: 0.8; stroke-linecap: square"/>
     </g>
     <g id="line2d_7">
      <g>
       <use xlink:href="#m667e729920" x="260.332983" y="281.04" style="stroke: #000000; stroke-width: 0.8"/>
      </g>
     </g>
     <g id="text_3">
      <!-- −0.79 -->
      <g transform="translate(222.026342 307.036094) scale(0.25 -0.25)">
       <defs>
        <path id="DejaVuSans-37" d="M 525 4666 
L 3525 4666 
L 3525 4397 
L 1831 0 
L 1172 0 
L 2766 4134 
L 525 4134 
L 525 4666 
z
" transform="scale(0.015625)"/>
       </defs>
       <use xlink:href="#DejaVuSans-2212"/>
       <use xlink:href="#DejaVuSans-30" x="83.789062"/>
       <use xlink:href="#DejaVuSans-2e" x="147.412109"/>
       <use xlink:href="#DejaVuSans-37" x="179.199219"/>
       <use xlink:href="#DejaVuSans-39" x="242.822266"/>
      </g>
     </g>
    </g>
    <g id="xtick_4">
     <g id="line2d_8">
      <path d="M 340.627063 281.04 
L 340.627063 1 
" clip-path="url(#p14e2ae8a53)" style="fill: none; stroke: #b0b0b0; stroke-width: 0.8; stroke-linecap: square"/>
     </g>
     <g id="line2d_9">
      <g>
       <use xlink:href="#m667e729920" x="340.627063" y="281.04" style="stroke: #000000; stroke-width: 0.8"/>
      </g>
     </g>
     <g id="text_4">
      <!-- −0.69 -->
      <g transform="translate(302.320422 307.036094) scale(0.25 -0.25)">
       <defs>
        <path id="DejaVuSans-36" d="M 2113 2584 
Q 1688 2584 1439 2293 
Q 1191 2003 1191 1497 
Q 1191 994 1439 701 
Q 1688 409 2113 409 
Q 2538 409 2786 701 
Q 3034 994 3034 1497 
Q 3034 2003 2786 2293 
Q 2538 2584 2113 2584 
z
M 3366 4563 
L 3366 3988 
Q 3128 4100 2886 4159 
Q 2644 4219 2406 4219 
Q 1781 4219 1451 3797 
Q 1122 3375 1075 2522 
Q 1259 2794 1537 2939 
Q 1816 3084 2150 3084 
Q 2853 3084 3261 2657 
Q 3669 2231 3669 1497 
Q 3669 778 3244 343 
Q 2819 -91 2113 -91 
Q 1303 -91 875 529 
Q 447 1150 447 2328 
Q 447 3434 972 4092 
Q 1497 4750 2381 4750 
Q 2619 4750 2861 4703 
Q 3103 4656 3366 4563 
z
" transform="scale(0.015625)"/>
       </defs>
       <use xlink:href="#DejaVuSans-2212"/>
       <use xlink:href="#DejaVuSans-30" x="83.789062"/>
       <use xlink:href="#DejaVuSans-2e" x="147.412109"/>
       <use xlink:href="#DejaVuSans-36" x="179.199219"/>
       <use xlink:href="#DejaVuSans-39" x="242.822266"/>
      </g>
     </g>
    </g>
    <g id="xtick_5">
     <g id="line2d_10">
      <path d="M 420.921142 281.04 
L 420.921142 1 
" clip-path="url(#p14e2ae8a53)" style="fill: none; stroke: #b0b0b0; stroke-width: 0.8; stroke-linecap: square"/>
     </g>
     <g id="line2d_11">
      <g>
       <use xlink:href="#m667e729920" x="420.921142" y="281.04" style="stroke: #000000; stroke-width: 0.8"/>
      </g>
     </g>
     <g id="text_5">
      <!-- −0.59 -->
      <g transform="translate(382.614501 307.036094) scale(0.25 -0.25)">
       <defs>
        <path id="DejaVuSans-35" d="M 691 4666 
L 3169 4666 
L 3169 4134 
L 1269 4134 
L 1269 2991 
Q 1406 3038 1543 3061 
Q 1681 3084 1819 3084 
Q 2600 3084 3056 2656 
Q 3513 2228 3513 1497 
Q 3513 744 3044 326 
Q 2575 -91 1722 -91 
Q 1428 -91 1123 -41 
Q 819 9 494 109 
L 494 744 
Q 775 591 1075 516 
Q 1375 441 1709 441 
Q 2250 441 2565 725 
Q 2881 1009 2881 1497 
Q 2881 1984 2565 2268 
Q 2250 2553 1709 2553 
Q 1456 2553 1204 2497 
Q 953 2441 691 2322 
L 691 4666 
z
" transform="scale(0.015625)"/>
       </defs>
       <use xlink:href="#DejaVuSans-2212"/>
       <use xlink:href="#DejaVuSans-30" x="83.789062"/>
       <use xlink:href="#DejaVuSans-2e" x="147.412109"/>
       <use xlink:href="#DejaVuSans-35" x="179.199219"/>
       <use xlink:href="#DejaVuSans-39" x="242.822266"/>
      </g>
     </g>
    </g>
    <g id="text_6">
     <!-- $V$ [V] -->
     <g transform="translate(224.59 337.510937) scale(0.28 -0.28)">
      <defs>
       <path id="DejaVuSans-Oblique-56" d="M 1319 0 
L 500 4666 
L 1119 4666 
L 1797 653 
L 4063 4666 
L 4750 4666 
L 2053 0 
L 1319 0 
z
" transform="scale(0.015625)"/>
       <path id="DejaVuSans-20" transform="scale(0.015625)"/>
       <path id="DejaVuSans-5b" d="M 550 4863 
L 1875 4863 
L 1875 4416 
L 1125 4416 
L 1125 -397 
L 1875 -397 
L 1875 -844 
L 550 -844 
L 550 4863 
z
" transform="scale(0.015625)"/>
       <path id="DejaVuSans-56" d="M 1831 0 
L 50 4666 
L 709 4666 
L 2188 738 
L 3669 4666 
L 4325 4666 
L 2547 0 
L 1831 0 
z
" transform="scale(0.015625)"/>
       <path id="DejaVuSans-5d" d="M 1947 4863 
L 1947 -844 
L 622 -844 
L 622 -397 
L 1369 -397 
L 1369 4416 
L 622 4416 
L 622 4863 
L 1947 4863 
z
" transform="scale(0.015625)"/>
      </defs>
      <use xlink:href="#DejaVuSans-Oblique-56" transform="translate(0 0.015625)"/>
      <use xlink:href="#DejaVuSans-20" transform="translate(68.408203 0.015625)"/>
      <use xlink:href="#DejaVuSans-5b" transform="translate(100.195312 0.015625)"/>
      <use xlink:href="#DejaVuSans-56" transform="translate(139.208984 0.015625)"/>
      <use xlink:href="#DejaVuSans-5d" transform="translate(207.617188 0.015625)"/>
     </g>
    </g>
   </g>
   <g id="matplotlib.axis_2">
    <g id="ytick_1">
     <g id="line2d_12">
      <path d="M 80.58 249.532667 
L 437.76 249.532667 
" clip-path="url(#p14e2ae8a53)" style="fill: none; stroke: #b0b0b0; stroke-width: 0.8; stroke-linecap: square"/>
     </g>
     <g id="line2d_13">
      <defs>
       <path id="m768b344901" d="M 0 0 
L -3.5 0 
" style="stroke: #000000; stroke-width: 0.8"/>
      </defs>
      <g>
       <use xlink:href="#m768b344901" x="80.58" y="249.532667" style="stroke: #000000; stroke-width: 0.8"/>
      </g>
     </g>
     <g id="text_7">
      <!-- −2 -->
      <g transform="translate(36.724531 259.030714) scale(0.25 -0.25)">
       <defs>
        <path id="DejaVuSans-32" d="M 1228 531 
L 3431 531 
L 3431 0 
L 469 0 
L 469 531 
Q 828 903 1448 1529 
Q 2069 2156 2228 2338 
Q 2531 2678 2651 2914 
Q 2772 3150 2772 3378 
Q 2772 3750 2511 3984 
Q 2250 4219 1831 4219 
Q 1534 4219 1204 4116 
Q 875 4013 500 3803 
L 500 4441 
Q 881 4594 1212 4672 
Q 1544 4750 1819 4750 
Q 2544 4750 2975 4387 
Q 3406 4025 3406 3419 
Q 3406 3131 3298 2873 
Q 3191 2616 2906 2266 
Q 2828 2175 2409 1742 
Q 1991 1309 1228 531 
z
" transform="scale(0.015625)"/>
       </defs>
       <use xlink:href="#DejaVuSans-2212"/>
       <use xlink:href="#DejaVuSans-32" x="83.789062"/>
      </g>
     </g>
    </g>
    <g id="ytick_2">
     <g id="line2d_14">
      <path d="M 80.58 192.550939 
L 437.76 192.550939 
" clip-path="url(#p14e2ae8a53)" style="fill: none; stroke: #b0b0b0; stroke-width: 0.8; stroke-linecap: square"/>
     </g>
     <g id="line2d_15">
      <g>
       <use xlink:href="#m768b344901" x="80.58" y="192.550939" style="stroke: #000000; stroke-width: 0.8"/>
      </g>
     </g>
     <g id="text_8">
      <!-- 0 -->
      <g transform="translate(57.67375 202.048986) scale(0.25 -0.25)">
       <use xlink:href="#DejaVuSans-30"/>
      </g>
     </g>
    </g>
    <g id="ytick_3">
     <g id="line2d_16">
      <path d="M 80.58 135.569212 
L 437.76 135.569212 
" clip-path="url(#p14e2ae8a53)" style="fill: none; stroke: #b0b0b0; stroke-width: 0.8; stroke-linecap: square"/>
     </g>
     <g id="line2d_17">
      <g>
       <use xlink:href="#m768b344901" x="80.58" y="135.569212" style="stroke: #000000; stroke-width: 0.8"/>
      </g>
     </g>
     <g id="text_9">
      <!-- 2 -->
      <g transform="translate(57.67375 145.067259) scale(0.25 -0.25)">
       <use xlink:href="#DejaVuSans-32"/>
      </g>
     </g>
    </g>
    <g id="ytick_4">
     <g id="line2d_18">
      <path d="M 80.58 78.587484 
L 437.76 78.587484 
" clip-path="url(#p14e2ae8a53)" style="fill: none; stroke: #b0b0b0; stroke-width: 0.8; stroke-linecap: square"/>
     </g>
     <g id="line2d_19">
      <g>
       <use xlink:href="#m768b344901" x="80.58" y="78.587484" style="stroke: #000000; stroke-width: 0.8"/>
      </g>
     </g>
     <g id="text_10">
      <!-- 4 -->
      <g transform="translate(57.67375 88.085531) scale(0.25 -0.25)">
       <defs>
        <path id="DejaVuSans-34" d="M 2419 4116 
L 825 1625 
L 2419 1625 
L 2419 4116 
z
M 2253 4666 
L 3047 4666 
L 3047 1625 
L 3713 1625 
L 3713 1100 
L 3047 1100 
L 3047 0 
L 2419 0 
L 2419 1100 
L 313 1100 
L 313 1709 
L 2253 4666 
z
" transform="scale(0.015625)"/>
       </defs>
       <use xlink:href="#DejaVuSans-34"/>
      </g>
     </g>
    </g>
    <g id="ytick_5">
     <g id="line2d_20">
      <path d="M 80.58 21.605756 
L 437.76 21.605756 
" clip-path="url(#p14e2ae8a53)" style="fill: none; stroke: #b0b0b0; stroke-width: 0.8; stroke-linecap: square"/>
     </g>
     <g id="line2d_21">
      <g>
       <use xlink:href="#m768b344901" x="80.58" y="21.605756" style="stroke: #000000; stroke-width: 0.8"/>
      </g>
     </g>
     <g id="text_11">
      <!-- 6 -->
      <g transform="translate(57.67375 31.103803) scale(0.25 -0.25)">
       <use xlink:href="#DejaVuSans-36"/>
      </g>
     </g>
    </g>
    <g id="text_12">
     <!-- Corrente [$10^{-5}$ A] -->
     <g transform="translate(26.901406 264.78) rotate(-90) scale(0.28 -0.28)">
      <defs>
       <path id="DejaVuSans-43" d="M 4122 4306 
L 4122 3641 
Q 3803 3938 3442 4084 
Q 3081 4231 2675 4231 
Q 1875 4231 1450 3742 
Q 1025 3253 1025 2328 
Q 1025 1406 1450 917 
Q 1875 428 2675 428 
Q 3081 428 3442 575 
Q 3803 722 4122 1019 
L 4122 359 
Q 3791 134 3420 21 
Q 3050 -91 2638 -91 
Q 1578 -91 968 557 
Q 359 1206 359 2328 
Q 359 3453 968 4101 
Q 1578 4750 2638 4750 
Q 3056 4750 3426 4639 
Q 3797 4528 4122 4306 
z
" transform="scale(0.015625)"/>
       <path id="DejaVuSans-6f" d="M 1959 3097 
Q 1497 3097 1228 2736 
Q 959 2375 959 1747 
Q 959 1119 1226 758 
Q 1494 397 1959 397 
Q 2419 397 2687 759 
Q 2956 1122 2956 1747 
Q 2956 2369 2687 2733 
Q 2419 3097 1959 3097 
z
M 1959 3584 
Q 2709 3584 3137 3096 
Q 3566 2609 3566 1747 
Q 3566 888 3137 398 
Q 2709 -91 1959 -91 
Q 1206 -91 779 398 
Q 353 888 353 1747 
Q 353 2609 779 3096 
Q 1206 3584 1959 3584 
z
" transform="scale(0.015625)"/>
       <path id="DejaVuSans-72" d="M 2631 2963 
Q 2534 3019 2420 3045 
Q 2306 3072 2169 3072 
Q 1681 3072 1420 2755 
Q 1159 2438 1159 1844 
L 1159 0 
L 581 0 
L 581 3500 
L 1159 3500 
L 1159 2956 
Q 1341 3275 1631 3429 
Q 1922 3584 2338 3584 
Q 2397 3584 2469 3576 
Q 2541 3569 2628 3553 
L 2631 2963 
z
" transform="scale(0.015625)"/>
       <path id="DejaVuSans-65" d="M 3597 1894 
L 3597 1613 
L 953 1613 
Q 991 1019 1311 708 
Q 1631 397 2203 397 
Q 2534 397 2845 478 
Q 3156 559 3463 722 
L 3463 178 
Q 3153 47 2828 -22 
Q 2503 -91 2169 -91 
Q 1331 -91 842 396 
Q 353 884 353 1716 
Q 353 2575 817 3079 
Q 1281 3584 2069 3584 
Q 2775 3584 3186 3129 
Q 3597 2675 3597 1894 
z
M 3022 2063 
Q 3016 2534 2758 2815 
Q 2500 3097 2075 3097 
Q 1594 3097 1305 2825 
Q 1016 2553 972 2059 
L 3022 2063 
z
" transform="scale(0.015625)"/>
       <path id="DejaVuSans-6e" d="M 3513 2113 
L 3513 0 
L 2938 0 
L 2938 2094 
Q 2938 2591 2744 2837 
Q 2550 3084 2163 3084 
Q 1697 3084 1428 2787 
Q 1159 2491 1159 1978 
L 1159 0 
L 581 0 
L 581 3500 
L 1159 3500 
L 1159 2956 
Q 1366 3272 1645 3428 
Q 1925 3584 2291 3584 
Q 2894 3584 3203 3211 
Q 3513 2838 3513 2113 
z
" transform="scale(0.015625)"/>
       <path id="DejaVuSans-74" d="M 1172 4494 
L 1172 3500 
L 2356 3500 
L 2356 3053 
L 1172 3053 
L 1172 1153 
Q 1172 725 1289 603 
Q 1406 481 1766 481 
L 2356 481 
L 2356 0 
L 1766 0 
Q 1100 0 847 248 
Q 594 497 594 1153 
L 594 3053 
L 172 3053 
L 172 3500 
L 594 3500 
L 594 4494 
L 1172 4494 
z
" transform="scale(0.015625)"/>
       <path id="DejaVuSans-41" d="M 2188 4044 
L 1331 1722 
L 3047 1722 
L 2188 4044 
z
M 1831 4666 
L 2547 4666 
L 4325 0 
L 3669 0 
L 3244 1197 
L 1141 1197 
L 716 0 
L 50 0 
L 1831 4666 
z
" transform="scale(0.015625)"/>
      </defs>
      <use xlink:href="#DejaVuSans-43" transform="translate(0 0.684375)"/>
      <use xlink:href="#DejaVuSans-6f" transform="translate(69.824219 0.684375)"/>
      <use xlink:href="#DejaVuSans-72" transform="translate(131.005859 0.684375)"/>
      <use xlink:href="#DejaVuSans-72" transform="translate(172.119141 0.684375)"/>
      <use xlink:href="#DejaVuSans-65" transform="translate(213.232422 0.684375)"/>
      <use xlink:href="#DejaVuSans-6e" transform="translate(274.755859 0.684375)"/>
      <use xlink:href="#DejaVuSans-74" transform="translate(338.134766 0.684375)"/>
      <use xlink:href="#DejaVuSans-65" transform="translate(377.34375 0.684375)"/>
      <use xlink:href="#DejaVuSans-20" transform="translate(438.867188 0.684375)"/>
      <use xlink:href="#DejaVuSans-5b" transform="translate(470.654297 0.684375)"/>
      <use xlink:href="#DejaVuSans-31" transform="translate(509.667969 0.684375)"/>
      <use xlink:href="#DejaVuSans-30" transform="translate(573.291016 0.684375)"/>
      <use xlink:href="#DejaVuSans-2212" transform="translate(637.871094 38.965625) scale(0.7)"/>
      <use xlink:href="#DejaVuSans-35" transform="translate(696.523438 38.965625) scale(0.7)"/>
      <use xlink:href="#DejaVuSans-20" transform="translate(743.793945 0.684375)"/>
      <use xlink:href="#DejaVuSans-41" transform="translate(775.581055 0.684375)"/>
      <use xlink:href="#DejaVuSans-5d" transform="translate(843.989258 0.684375)"/>
     </g>
    </g>
   </g>
   <g id="LineCollection_1">
    <path d="M 71.641896 207.454545 
L 111.788936 207.454545 
" clip-path="url(#p14e2ae8a53)" style="fill: none; stroke: #bf00bf; stroke-width: 2.5"/>
    <path d="M 111.788936 204.300497 
L 151.935976 204.300497 
" clip-path="url(#p14e2ae8a53)" style="fill: none; stroke: #bf00bf; stroke-width: 2.5"/>
    <path d="M 151.935976 197.840847 
L 192.083016 197.840847 
" clip-path="url(#p14e2ae8a53)" style="fill: none; stroke: #bf00bf; stroke-width: 2.5"/>
    <path d="M 192.083016 192.68686 
L 232.230055 192.68686 
" clip-path="url(#p14e2ae8a53)" style="fill: none; stroke: #bf00bf; stroke-width: 2.5"/>
    <path d="M 232.230055 186.681774 
L 272.377095 186.681774 
" clip-path="url(#p14e2ae8a53)" style="fill: none; stroke: #bf00bf; stroke-width: 2.5"/>
    <path d="M 272.377095 174.353414 
L 312.524135 174.353414 
" clip-path="url(#p14e2ae8a53)" style="fill: none; stroke: #bf00bf; stroke-width: 2.5"/>
    <path d="M 312.524135 161.214534 
L 352.671174 161.214534 
" clip-path="url(#p14e2ae8a53)" style="fill: none; stroke: #bf00bf; stroke-width: 2.5"/>
    <path d="M 352.671174 141.544945 
L 392.818214 141.544945 
" clip-path="url(#p14e2ae8a53)" style="fill: none; stroke: #bf00bf; stroke-width: 2.5"/>
    <path d="M 392.818214 104.760662 
L 432.965254 104.760662 
" clip-path="url(#p14e2ae8a53)" style="fill: none; stroke: #bf00bf; stroke-width: 2.5"/>
    <path d="M 432.965254 38.966998 
L 461.8 38.966998 
" clip-path="url(#p14e2ae8a53)" style="fill: none; stroke: #bf00bf; stroke-width: 2.5"/>
   </g>
   <g id="LineCollection_2">
    <path d="M 91.715416 207.45459 
L 91.715416 207.454501 
" clip-path="url(#p14e2ae8a53)" style="fill: none; stroke: #bf00bf; stroke-width: 2.5"/>
    <path d="M 131.862456 204.300534 
L 131.862456 204.30046 
" clip-path="url(#p14e2ae8a53)" style="fill: none; stroke: #bf00bf; stroke-width: 2.5"/>
    <path d="M 172.009496 197.840883 
L 172.009496 197.840812 
" clip-path="url(#p14e2ae8a53)" style="fill: none; stroke: #bf00bf; stroke-width: 2.5"/>
    <path d="M 212.156535 192.686894 
L 212.156535 192.686825 
" clip-path="url(#p14e2ae8a53)" style="fill: none; stroke: #bf00bf; stroke-width: 2.5"/>
    <path d="M 252.303575 186.681812 
L 252.303575 186.681736 
" clip-path="url(#p14e2ae8a53)" style="fill: none; stroke: #bf00bf; stroke-width: 2.5"/>
    <path d="M 292.450615 174.353438 
L 292.450615 174.353389 
" clip-path="url(#p14e2ae8a53)" style="fill: none; stroke: #bf00bf; stroke-width: 2.5"/>
    <path d="M 332.597655 161.214561 
L 332.597655 161.214506 
" clip-path="url(#p14e2ae8a53)" style="fill: none; stroke: #bf00bf; stroke-width: 2.5"/>
    <path d="M 372.744694 141.544984 
L 372.744694 141.544906 
" clip-path="url(#p14e2ae8a53)" style="fill: none; stroke: #bf00bf; stroke-width: 2.5"/>
    <path d="M 412.891734 104.760695 
L 412.891734 104.760628 
" clip-path="url(#p14e2ae8a53)" style="fill: none; stroke: #bf00bf; stroke-width: 2.5"/>
    <path d="M 453.038774 38.967037 
L 453.038774 38.966958 
" clip-path="url(#p14e2ae8a53)" style="fill: none; stroke: #bf00bf; stroke-width: 2.5"/>
   </g>
   <g id="LineCollection_3">
    <path d="M 71.641896 259.725388 
L 111.788936 259.725388 
" clip-path="url(#p14e2ae8a53)" style="fill: none; stroke: #00bfbf; stroke-width: 2.5"/>
    <path d="M 111.788936 256.505353 
L 151.935976 256.505353 
" clip-path="url(#p14e2ae8a53)" style="fill: none; stroke: #00bfbf; stroke-width: 2.5"/>
    <path d="M 151.935976 253.85799 
L 192.083016 253.85799 
" clip-path="url(#p14e2ae8a53)" style="fill: none; stroke: #00bfbf; stroke-width: 2.5"/>
    <path d="M 192.083016 239.721349 
L 232.230055 239.721349 
" clip-path="url(#p14e2ae8a53)" style="fill: none; stroke: #00bfbf; stroke-width: 2.5"/>
    <path d="M 232.230055 231.212201 
L 272.377095 231.212201 
" clip-path="url(#p14e2ae8a53)" style="fill: none; stroke: #00bfbf; stroke-width: 2.5"/>
    <path d="M 272.377095 221.800351 
L 312.524135 221.800351 
" clip-path="url(#p14e2ae8a53)" style="fill: none; stroke: #00bfbf; stroke-width: 2.5"/>
    <path d="M 312.524135 200.812934 
L 352.671174 200.812934 
" clip-path="url(#p14e2ae8a53)" style="fill: none; stroke: #00bfbf; stroke-width: 2.5"/>
    <path d="M 352.671174 171.50696 
L 392.818214 171.50696 
" clip-path="url(#p14e2ae8a53)" style="fill: none; stroke: #00bfbf; stroke-width: 2.5"/>
    <path d="M 392.818214 116.661267 
L 432.965254 116.661267 
" clip-path="url(#p14e2ae8a53)" style="fill: none; stroke: #00bfbf; stroke-width: 2.5"/>
    <path d="M 432.965254 9.78176 
L 461.8 9.78176 
" clip-path="url(#p14e2ae8a53)" style="fill: none; stroke: #00bfbf; stroke-width: 2.5"/>
   </g>
   <g id="LineCollection_4">
    <path d="M 91.715416 259.725497 
L 91.715416 259.725278 
" clip-path="url(#p14e2ae8a53)" style="fill: none; stroke: #00bfbf; stroke-width: 2.5"/>
    <path d="M 131.862456 256.505448 
L 131.862456 256.505258 
" clip-path="url(#p14e2ae8a53)" style="fill: none; stroke: #00bfbf; stroke-width: 2.5"/>
    <path d="M 172.009496 253.858125 
L 172.009496 253.857856 
" clip-path="url(#p14e2ae8a53)" style="fill: none; stroke: #00bfbf; stroke-width: 2.5"/>
    <path d="M 212.156535 239.721455 
L 212.156535 239.721242 
" clip-path="url(#p14e2ae8a53)" style="fill: none; stroke: #00bfbf; stroke-width: 2.5"/>
    <path d="M 252.303575 231.212281 
L 252.303575 231.212121 
" clip-path="url(#p14e2ae8a53)" style="fill: none; stroke: #00bfbf; stroke-width: 2.5"/>
    <path d="M 292.450615 221.80044 
L 292.450615 221.800263 
" clip-path="url(#p14e2ae8a53)" style="fill: none; stroke: #00bfbf; stroke-width: 2.5"/>
    <path d="M 332.597655 200.813023 
L 332.597655 200.812845 
" clip-path="url(#p14e2ae8a53)" style="fill: none; stroke: #00bfbf; stroke-width: 2.5"/>
    <path d="M 372.744694 171.507043 
L 372.744694 171.506876 
" clip-path="url(#p14e2ae8a53)" style="fill: none; stroke: #00bfbf; stroke-width: 2.5"/>
    <path d="M 412.891734 116.661342 
L 412.891734 116.661192 
" clip-path="url(#p14e2ae8a53)" style="fill: none; stroke: #00bfbf; stroke-width: 2.5"/>
    <path d="M 453.038774 9.781851 
L 453.038774 9.781669 
" clip-path="url(#p14e2ae8a53)" style="fill: none; stroke: #00bfbf; stroke-width: 2.5"/>
   </g>
   <g id="LineCollection_5">
    <path d="M 71.641896 281.761339 
L 111.788936 281.761339 
" clip-path="url(#p14e2ae8a53)" style="fill: none; stroke: #008000; stroke-width: 2.5"/>
    <path d="M 111.788936 277.350503 
L 151.935976 277.350503 
" clip-path="url(#p14e2ae8a53)" style="fill: none; stroke: #008000; stroke-width: 2.5"/>
    <path d="M 151.935976 271.121354 
L 192.083016 271.121354 
" clip-path="url(#p14e2ae8a53)" style="fill: none; stroke: #008000; stroke-width: 2.5"/>
    <path d="M 192.083016 264.67531 
L 232.230055 264.67531 
" clip-path="url(#p14e2ae8a53)" style="fill: none; stroke: #008000; stroke-width: 2.5"/>
    <path d="M 232.230055 255.079807 
L 272.377095 255.079807 
" clip-path="url(#p14e2ae8a53)" style="fill: none; stroke: #008000; stroke-width: 2.5"/>
    <path d="M 272.377095 242.125581 
L 312.524135 242.125581 
" clip-path="url(#p14e2ae8a53)" style="fill: none; stroke: #008000; stroke-width: 2.5"/>
    <path d="M 312.524135 222.820355 
L 352.671174 222.820355 
" clip-path="url(#p14e2ae8a53)" style="fill: none; stroke: #008000; stroke-width: 2.5"/>
    <path d="M 352.671174 189.01523 
L 392.818214 189.01523 
" clip-path="url(#p14e2ae8a53)" style="fill: none; stroke: #008000; stroke-width: 2.5"/>
    <path d="M 392.818214 130.267808 
L 432.965254 130.267808 
" clip-path="url(#p14e2ae8a53)" style="fill: none; stroke: #008000; stroke-width: 2.5"/>
    <path d="M 432.965254 13.512616 
L 461.8 13.512616 
" clip-path="url(#p14e2ae8a53)" style="fill: none; stroke: #008000; stroke-width: 2.5"/>
   </g>
   <g id="LineCollection_6">
    <path d="M 91.715416 281.761359 
L 91.715416 281.761318 
" clip-path="url(#p14e2ae8a53)" style="fill: none; stroke: #008000; stroke-width: 2.5"/>
    <path d="M 131.862456 277.350527 
L 131.862456 277.350478 
" clip-path="url(#p14e2ae8a53)" style="fill: none; stroke: #008000; stroke-width: 2.5"/>
    <path d="M 172.009496 271.121392 
L 172.009496 271.121317 
" clip-path="url(#p14e2ae8a53)" style="fill: none; stroke: #008000; stroke-width: 2.5"/>
    <path d="M 212.156535 264.675335 
L 212.156535 264.675286 
" clip-path="url(#p14e2ae8a53)" style="fill: none; stroke: #008000; stroke-width: 2.5"/>
    <path d="M 252.303575 255.079848 
L 252.303575 255.079766 
" clip-path="url(#p14e2ae8a53)" style="fill: none; stroke: #008000; stroke-width: 2.5"/>
    <path d="M 292.450615 242.125624 
L 292.450615 242.125538 
" clip-path="url(#p14e2ae8a53)" style="fill: none; stroke: #008000; stroke-width: 2.5"/>
    <path d="M 332.597655 222.820407 
L 332.597655 222.820303 
" clip-path="url(#p14e2ae8a53)" style="fill: none; stroke: #008000; stroke-width: 2.5"/>
    <path d="M 372.744694 189.01527 
L 372.744694 189.015191 
" clip-path="url(#p14e2ae8a53)" style="fill: none; stroke: #008000; stroke-width: 2.5"/>
    <path d="M 412.891734 130.267866 
L 412.891734 130.267751 
" clip-path="url(#p14e2ae8a53)" style="fill: none; stroke: #008000; stroke-width: 2.5"/>
    <path d="M 453.038774 13.512676 
L 453.038774 13.512556 
" clip-path="url(#p14e2ae8a53)" style="fill: none; stroke: #008000; stroke-width: 2.5"/>
   </g>
   <g id="LineCollection_7">
    <path d="M 71.641896 297.01184 
L 111.788936 297.01184 
" clip-path="url(#p14e2ae8a53)" style="fill: none; stroke: #ff0000; stroke-width: 2.5"/>
    <path d="M 111.788936 290.913644 
L 151.935976 290.913644 
" clip-path="url(#p14e2ae8a53)" style="fill: none; stroke: #ff0000; stroke-width: 2.5"/>
    <path d="M 151.935976 283.226179 
L 192.083016 283.226179 
" clip-path="url(#p14e2ae8a53)" style="fill: none; stroke: #ff0000; stroke-width: 2.5"/>
    <path d="M 192.083016 277.288612 
L 232.230055 277.288612 
" clip-path="url(#p14e2ae8a53)" style="fill: none; stroke: #ff0000; stroke-width: 2.5"/>
    <path d="M 232.230055 259.131857 
L 272.377095 259.131857 
" clip-path="url(#p14e2ae8a53)" style="fill: none; stroke: #ff0000; stroke-width: 2.5"/>
    <path d="M 272.377095 249.629642 
L 312.524135 249.629642 
" clip-path="url(#p14e2ae8a53)" style="fill: none; stroke: #ff0000; stroke-width: 2.5"/>
    <path d="M 312.524135 229.006797 
L 352.671174 229.006797 
" clip-path="url(#p14e2ae8a53)" style="fill: none; stroke: #ff0000; stroke-width: 2.5"/>
    <path d="M 352.671174 199.490772 
L 392.818214 199.490772 
" clip-path="url(#p14e2ae8a53)" style="fill: none; stroke: #ff0000; stroke-width: 2.5"/>
    <path d="M 392.818214 140.901468 
L 432.965254 140.901468 
" clip-path="url(#p14e2ae8a53)" style="fill: none; stroke: #ff0000; stroke-width: 2.5"/>
    <path d="M 432.965254 20.037873 
L 461.8 20.037873 
" clip-path="url(#p14e2ae8a53)" style="fill: none; stroke: #ff0000; stroke-width: 2.5"/>
   </g>
   <g id="LineCollection_8">
    <path d="M 91.715416 297.011888 
L 91.715416 297.011792 
" clip-path="url(#p14e2ae8a53)" style="fill: none; stroke: #ff0000; stroke-width: 2.5"/>
    <path d="M 131.862456 290.913701 
L 131.862456 290.913587 
" clip-path="url(#p14e2ae8a53)" style="fill: none; stroke: #ff0000; stroke-width: 2.5"/>
    <path d="M 172.009496 283.226306 
L 172.009496 283.226052 
" clip-path="url(#p14e2ae8a53)" style="fill: none; stroke: #ff0000; stroke-width: 2.5"/>
    <path d="M 212.156535 277.288716 
L 212.156535 277.288508 
" clip-path="url(#p14e2ae8a53)" style="fill: none; stroke: #ff0000; stroke-width: 2.5"/>
    <path d="M 252.303575 259.132223 
L 252.303575 259.131492 
" clip-path="url(#p14e2ae8a53)" style="fill: none; stroke: #ff0000; stroke-width: 2.5"/>
    <path d="M 292.450615 249.62989 
L 292.450615 249.629393 
" clip-path="url(#p14e2ae8a53)" style="fill: none; stroke: #ff0000; stroke-width: 2.5"/>
    <path d="M 332.597655 229.007062 
L 332.597655 229.006533 
" clip-path="url(#p14e2ae8a53)" style="fill: none; stroke: #ff0000; stroke-width: 2.5"/>
    <path d="M 372.744694 199.490906 
L 372.744694 199.490637 
" clip-path="url(#p14e2ae8a53)" style="fill: none; stroke: #ff0000; stroke-width: 2.5"/>
    <path d="M 412.891734 140.901527 
L 412.891734 140.901408 
" clip-path="url(#p14e2ae8a53)" style="fill: none; stroke: #ff0000; stroke-width: 2.5"/>
    <path d="M 453.038774 20.037949 
L 453.038774 20.037797 
" clip-path="url(#p14e2ae8a53)" style="fill: none; stroke: #ff0000; stroke-width: 2.5"/>
   </g>
   <g id="LineCollection_9">
    <path d="M 71.641896 303.162265 
L 111.788936 303.162265 
" clip-path="url(#p14e2ae8a53)" style="fill: none; stroke: #0000ff; stroke-width: 2.5"/>
    <path d="M 111.788936 299.085983 
L 151.935976 299.085983 
" clip-path="url(#p14e2ae8a53)" style="fill: none; stroke: #0000ff; stroke-width: 2.5"/>
    <path d="M 151.935976 295.032038 
L 192.083016 295.032038 
" clip-path="url(#p14e2ae8a53)" style="fill: none; stroke: #0000ff; stroke-width: 2.5"/>
    <path d="M 192.083016 288.573783 
L 232.230055 288.573783 
" clip-path="url(#p14e2ae8a53)" style="fill: none; stroke: #0000ff; stroke-width: 2.5"/>
    <path d="M 232.230055 278.662273 
L 272.377095 278.662273 
" clip-path="url(#p14e2ae8a53)" style="fill: none; stroke: #0000ff; stroke-width: 2.5"/>
    <path d="M 272.377095 264.889562 
L 312.524135 264.889562 
" clip-path="url(#p14e2ae8a53)" style="fill: none; stroke: #0000ff; stroke-width: 2.5"/>
    <path d="M 312.524135 244.900628 
L 352.671174 244.900628 
" clip-path="url(#p14e2ae8a53)" style="fill: none; stroke: #0000ff; stroke-width: 2.5"/>
    <path d="M 352.671174 211.740651 
L 392.818214 211.740651 
" clip-path="url(#p14e2ae8a53)" style="fill: none; stroke: #0000ff; stroke-width: 2.5"/>
    <path d="M 392.818214 151.665724 
L 432.965254 151.665724 
" clip-path="url(#p14e2ae8a53)" style="fill: none; stroke: #0000ff; stroke-width: 2.5"/>
    <path d="M 432.965254 32.925157 
L 461.8 32.925157 
" clip-path="url(#p14e2ae8a53)" style="fill: none; stroke: #0000ff; stroke-width: 2.5"/>
   </g>
   <g id="LineCollection_10">
    <path d="M 91.715416 303.162288 
L 91.715416 303.162242 
" clip-path="url(#p14e2ae8a53)" style="fill: none; stroke: #0000ff; stroke-width: 2.5"/>
    <path d="M 131.862456 299.086007 
L 131.862456 299.085959 
" clip-path="url(#p14e2ae8a53)" style="fill: none; stroke: #0000ff; stroke-width: 2.5"/>
    <path d="M 172.009496 295.032093 
L 172.009496 295.031984 
" clip-path="url(#p14e2ae8a53)" style="fill: none; stroke: #0000ff; stroke-width: 2.5"/>
    <path d="M 212.156535 288.573846 
L 212.156535 288.57372 
" clip-path="url(#p14e2ae8a53)" style="fill: none; stroke: #0000ff; stroke-width: 2.5"/>
    <path d="M 252.303575 278.662332 
L 252.303575 278.662215 
" clip-path="url(#p14e2ae8a53)" style="fill: none; stroke: #0000ff; stroke-width: 2.5"/>
    <path d="M 292.450615 264.889616 
L 292.450615 264.889508 
" clip-path="url(#p14e2ae8a53)" style="fill: none; stroke: #0000ff; stroke-width: 2.5"/>
    <path d="M 332.597655 244.900667 
L 332.597655 244.900589 
" clip-path="url(#p14e2ae8a53)" style="fill: none; stroke: #0000ff; stroke-width: 2.5"/>
    <path d="M 372.744694 211.740684 
L 372.744694 211.740618 
" clip-path="url(#p14e2ae8a53)" style="fill: none; stroke: #0000ff; stroke-width: 2.5"/>
    <path d="M 412.891734 151.665755 
L 412.891734 151.665692 
" clip-path="url(#p14e2ae8a53)" style="fill: none; stroke: #0000ff; stroke-width: 2.5"/>
    <path d="M 453.038774 32.925214 
L 453.038774 32.925099 
" clip-path="url(#p14e2ae8a53)" style="fill: none; stroke: #0000ff; stroke-width: 2.5"/>
   </g>
   <g id="line2d_22">
    <defs>
     <path id="mf81aa03959" d="M 0 3.5 
C 0.928211 3.5 1.81853 3.131218 2.474874 2.474874 
C 3.131218 1.81853 3.5 0.928211 3.5 0 
C 3.5 -0.928211 3.131218 -1.81853 2.474874 -2.474874 
C 1.81853 -3.131218 0.928211 -3.5 0 -3.5 
C -0.928211 -3.5 -1.81853 -3.131218 -2.474874 -2.474874 
C -3.131218 -1.81853 -3.5 -0.928211 -3.5 0 
C -3.5 0.928211 -3.131218 1.81853 -2.474874 2.474874 
C -1.81853 3.131218 -0.928211 3.5 0 3.5 
z
" style="stroke: #bf00bf"/>
    </defs>
    <g clip-path="url(#p14e2ae8a53)">
     <use xlink:href="#mf81aa03959" x="91.715416" y="207.454545" style="fill: #bf00bf; stroke: #bf00bf"/>
     <use xlink:href="#mf81aa03959" x="131.862456" y="204.300497" style="fill: #bf00bf; stroke: #bf00bf"/>
     <use xlink:href="#mf81aa03959" x="172.009496" y="197.840847" style="fill: #bf00bf; stroke: #bf00bf"/>
     <use xlink:href="#mf81aa03959" x="212.156535" y="192.68686" style="fill: #bf00bf; stroke: #bf00bf"/>
     <use xlink:href="#mf81aa03959" x="252.303575" y="186.681774" style="fill: #bf00bf; stroke: #bf00bf"/>
     <use xlink:href="#mf81aa03959" x="292.450615" y="174.353414" style="fill: #bf00bf; stroke: #bf00bf"/>
     <use xlink:href="#mf81aa03959" x="332.597655" y="161.214534" style="fill: #bf00bf; stroke: #bf00bf"/>
     <use xlink:href="#mf81aa03959" x="372.744694" y="141.544945" style="fill: #bf00bf; stroke: #bf00bf"/>
     <use xlink:href="#mf81aa03959" x="412.891734" y="104.760662" style="fill: #bf00bf; stroke: #bf00bf"/>
     <use xlink:href="#mf81aa03959" x="453.038774" y="38.966998" style="fill: #bf00bf; stroke: #bf00bf"/>
    </g>
   </g>
   <g id="line2d_23">
    <defs>
     <path id="m742e06c2b7" d="M 0 3.5 
C 0.928211 3.5 1.81853 3.131218 2.474874 2.474874 
C 3.131218 1.81853 3.5 0.928211 3.5 0 
C 3.5 -0.928211 3.131218 -1.81853 2.474874 -2.474874 
C 1.81853 -3.131218 0.928211 -3.5 0 -3.5 
C -0.928211 -3.5 -1.81853 -3.131218 -2.474874 -2.474874 
C -3.131218 -1.81853 -3.5 -0.928211 -3.5 0 
C -3.5 0.928211 -3.131218 1.81853 -2.474874 2.474874 
C -1.81853 3.131218 -0.928211 3.5 0 3.5 
z
" style="stroke: #00bfbf"/>
    </defs>
    <g clip-path="url(#p14e2ae8a53)">
     <use xlink:href="#m742e06c2b7" x="91.715416" y="259.725388" style="fill: #00bfbf; stroke: #00bfbf"/>
     <use xlink:href="#m742e06c2b7" x="131.862456" y="256.505353" style="fill: #00bfbf; stroke: #00bfbf"/>
     <use xlink:href="#m742e06c2b7" x="172.009496" y="253.85799" style="fill: #00bfbf; stroke: #00bfbf"/>
     <use xlink:href="#m742e06c2b7" x="212.156535" y="239.721349" style="fill: #00bfbf; stroke: #00bfbf"/>
     <use xlink:href="#m742e06c2b7" x="252.303575" y="231.212201" style="fill: #00bfbf; stroke: #00bfbf"/>
     <use xlink:href="#m742e06c2b7" x="292.450615" y="221.800351" style="fill: #00bfbf; stroke: #00bfbf"/>
     <use xlink:href="#m742e06c2b7" x="332.597655" y="200.812934" style="fill: #00bfbf; stroke: #00bfbf"/>
     <use xlink:href="#m742e06c2b7" x="372.744694" y="171.50696" style="fill: #00bfbf; stroke: #00bfbf"/>
     <use xlink:href="#m742e06c2b7" x="412.891734" y="116.661267" style="fill: #00bfbf; stroke: #00bfbf"/>
     <use xlink:href="#m742e06c2b7" x="453.038774" y="9.78176" style="fill: #00bfbf; stroke: #00bfbf"/>
    </g>
   </g>
   <g id="line2d_24">
    <defs>
     <path id="m139157eae2" d="M 0 3.5 
C 0.928211 3.5 1.81853 3.131218 2.474874 2.474874 
C 3.131218 1.81853 3.5 0.928211 3.5 0 
C 3.5 -0.928211 3.131218 -1.81853 2.474874 -2.474874 
C 1.81853 -3.131218 0.928211 -3.5 0 -3.5 
C -0.928211 -3.5 -1.81853 -3.131218 -2.474874 -2.474874 
C -3.131218 -1.81853 -3.5 -0.928211 -3.5 0 
C -3.5 0.928211 -3.131218 1.81853 -2.474874 2.474874 
C -1.81853 3.131218 -0.928211 3.5 0 3.5 
z
" style="stroke: #008000"/>
    </defs>
    <g clip-path="url(#p14e2ae8a53)">
     <use xlink:href="#m139157eae2" x="91.715416" y="281.761339" style="fill: #008000; stroke: #008000"/>
     <use xlink:href="#m139157eae2" x="131.862456" y="277.350503" style="fill: #008000; stroke: #008000"/>
     <use xlink:href="#m139157eae2" x="172.009496" y="271.121354" style="fill: #008000; stroke: #008000"/>
     <use xlink:href="#m139157eae2" x="212.156535" y="264.67531" style="fill: #008000; stroke: #008000"/>
     <use xlink:href="#m139157eae2" x="252.303575" y="255.079807" style="fill: #008000; stroke: #008000"/>
     <use xlink:href="#m139157eae2" x="292.450615" y="242.125581" style="fill: #008000; stroke: #008000"/>
     <use xlink:href="#m139157eae2" x="332.597655" y="222.820355" style="fill: #008000; stroke: #008000"/>
     <use xlink:href="#m139157eae2" x="372.744694" y="189.01523" style="fill: #008000; stroke: #008000"/>
     <use xlink:href="#m139157eae2" x="412.891734" y="130.267808" style="fill: #008000; stroke: #008000"/>
     <use xlink:href="#m139157eae2" x="453.038774" y="13.512616" style="fill: #008000; stroke: #008000"/>
    </g>
   </g>
   <g id="line2d_25">
    <defs>
     <path id="ma20a99b3b4" d="M 0 3.5 
C 0.928211 3.5 1.81853 3.131218 2.474874 2.474874 
C 3.131218 1.81853 3.5 0.928211 3.5 0 
C 3.5 -0.928211 3.131218 -1.81853 2.474874 -2.474874 
C 1.81853 -3.131218 0.928211 -3.5 0 -3.5 
C -0.928211 -3.5 -1.81853 -3.131218 -2.474874 -2.474874 
C -3.131218 -1.81853 -3.5 -0.928211 -3.5 0 
C -3.5 0.928211 -3.131218 1.81853 -2.474874 2.474874 
C -1.81853 3.131218 -0.928211 3.5 0 3.5 
z
" style="stroke: #ff0000"/>
    </defs>
    <g clip-path="url(#p14e2ae8a53)">
     <use xlink:href="#ma20a99b3b4" x="91.715416" y="297.01184" style="fill: #ff0000; stroke: #ff0000"/>
     <use xlink:href="#ma20a99b3b4" x="131.862456" y="290.913644" style="fill: #ff0000; stroke: #ff0000"/>
     <use xlink:href="#ma20a99b3b4" x="172.009496" y="283.226179" style="fill: #ff0000; stroke: #ff0000"/>
     <use xlink:href="#ma20a99b3b4" x="212.156535" y="277.288612" style="fill: #ff0000; stroke: #ff0000"/>
     <use xlink:href="#ma20a99b3b4" x="252.303575" y="259.131857" style="fill: #ff0000; stroke: #ff0000"/>
     <use xlink:href="#ma20a99b3b4" x="292.450615" y="249.629642" style="fill: #ff0000; stroke: #ff0000"/>
     <use xlink:href="#ma20a99b3b4" x="332.597655" y="229.006797" style="fill: #ff0000; stroke: #ff0000"/>
     <use xlink:href="#ma20a99b3b4" x="372.744694" y="199.490772" style="fill: #ff0000; stroke: #ff0000"/>
     <use xlink:href="#ma20a99b3b4" x="412.891734" y="140.901468" style="fill: #ff0000; stroke: #ff0000"/>
     <use xlink:href="#ma20a99b3b4" x="453.038774" y="20.037873" style="fill: #ff0000; stroke: #ff0000"/>
    </g>
   </g>
   <g id="line2d_26">
    <defs>
     <path id="mc2763c7048" d="M 0 3.5 
C 0.928211 3.5 1.81853 3.131218 2.474874 2.474874 
C 3.131218 1.81853 3.5 0.928211 3.5 0 
C 3.5 -0.928211 3.131218 -1.81853 2.474874 -2.474874 
C 1.81853 -3.131218 0.928211 -3.5 0 -3.5 
C -0.928211 -3.5 -1.81853 -3.131218 -2.474874 -2.474874 
C -3.131218 -1.81853 -3.5 -0.928211 -3.5 0 
C -3.5 0.928211 -3.131218 1.81853 -2.474874 2.474874 
C -1.81853 3.131218 -0.928211 3.5 0 3.5 
z
" style="stroke: #0000ff"/>
    </defs>
    <g clip-path="url(#p14e2ae8a53)">
     <use xlink:href="#mc2763c7048" x="91.715416" y="303.162265" style="fill: #0000ff; stroke: #0000ff"/>
     <use xlink:href="#mc2763c7048" x="131.862456" y="299.085983" style="fill: #0000ff; stroke: #0000ff"/>
     <use xlink:href="#mc2763c7048" x="172.009496" y="295.032038" style="fill: #0000ff; stroke: #0000ff"/>
     <use xlink:href="#mc2763c7048" x="212.156535" y="288.573783" style="fill: #0000ff; stroke: #0000ff"/>
     <use xlink:href="#mc2763c7048" x="252.303575" y="278.662273" style="fill: #0000ff; stroke: #0000ff"/>
     <use xlink:href="#mc2763c7048" x="292.450615" y="264.889562" style="fill: #0000ff; stroke: #0000ff"/>
     <use xlink:href="#mc2763c7048" x="332.597655" y="244.900628" style="fill: #0000ff; stroke: #0000ff"/>
     <use xlink:href="#mc2763c7048" x="372.744694" y="211.740651" style="fill: #0000ff; stroke: #0000ff"/>
     <use xlink:href="#mc2763c7048" x="412.891734" y="151.665724" style="fill: #0000ff; stroke: #0000ff"/>
     <use xlink:href="#mc2763c7048" x="453.038774" y="32.925157" style="fill: #0000ff; stroke: #0000ff"/>
    </g>
   </g>
   <g id="patch_3">
    <path d="M 80.58 281.04 
L 80.58 1 
" style="fill: none; stroke: #000000; stroke-width: 0.8; stroke-linejoin: miter; stroke-linecap: square"/>
   </g>
   <g id="patch_4">
    <path d="M 437.76 281.04 
L 437.76 1 
" style="fill: none; stroke: #000000; stroke-width: 0.8; stroke-linejoin: miter; stroke-linecap: square"/>
   </g>
   <g id="patch_5">
    <path d="M 80.58 281.04 
L 437.76 281.04 
" style="fill: none; stroke: #000000; stroke-width: 0.8; stroke-linejoin: miter; stroke-linecap: square"/>
   </g>
   <g id="patch_6">
    <path d="M 80.58 1 
L 437.76 1 
" style="fill: none; stroke: #000000; stroke-width: 0.8; stroke-linejoin: miter; stroke-linecap: square"/>
   </g>
   <g id="line2d_27">
    <path d="M 91.715416 207.454545 
L 131.862456 204.300497 
L 172.009496 197.840847 
L 212.156535 192.68686 
L 252.303575 186.681774 
L 292.450615 174.353414 
L 332.597655 161.214534 
L 372.744694 141.544945 
L 412.891734 104.760662 
L 453.038774 38.966998 
" clip-path="url(#p14e2ae8a53)" style="fill: none; stroke: #bf00bf; stroke-width: 3; stroke-linecap: square"/>
   </g>
   <g id="line2d_28">
    <path d="M 91.715416 259.725388 
L 131.862456 256.505353 
L 172.009496 253.85799 
L 212.156535 239.721349 
L 252.303575 231.212201 
L 292.450615 221.800351 
L 332.597655 200.812934 
L 372.744694 171.50696 
L 412.891734 116.661267 
L 453.038774 9.78176 
" clip-path="url(#p14e2ae8a53)" style="fill: none; stroke: #00bfbf; stroke-width: 3; stroke-linecap: square"/>
   </g>
   <g id="line2d_29">
    <path d="M 91.715416 281.761339 
L 131.862456 277.350503 
L 172.009496 271.121354 
L 212.156535 264.67531 
L 252.303575 255.079807 
L 292.450615 242.125581 
L 332.597655 222.820355 
L 372.744694 189.01523 
L 412.891734 130.267808 
L 453.038774 13.512616 
" clip-path="url(#p14e2ae8a53)" style="fill: none; stroke: #008000; stroke-width: 3; stroke-linecap: square"/>
   </g>
   <g id="line2d_30">
    <path d="M 91.715416 297.01184 
L 131.862456 290.913644 
L 172.009496 283.226179 
L 212.156535 277.288612 
L 252.303575 259.131857 
L 292.450615 249.629642 
L 332.597655 229.006797 
L 372.744694 199.490772 
L 412.891734 140.901468 
L 453.038774 20.037873 
" clip-path="url(#p14e2ae8a53)" style="fill: none; stroke: #ff0000; stroke-width: 3; stroke-linecap: square"/>
   </g>
   <g id="line2d_31">
    <path d="M 91.715416 303.162265 
L 131.862456 299.085983 
L 172.009496 295.032038 
L 212.156535 288.573783 
L 252.303575 278.662273 
L 292.450615 264.889562 
L 332.597655 244.900628 
L 372.744694 211.740651 
L 412.891734 151.665724 
L 453.038774 32.925157 
" clip-path="url(#p14e2ae8a53)" style="fill: none; stroke: #0000ff; stroke-width: 3; stroke-linecap: square"/>
   </g>
   <g id="text_13">
    <g id="patch_7">
     <path d="M 82.0659 34.534975 
L 124.45965 34.534975 
L 124.45965 4.9006 
L 82.0659 4.9006 
z
" style="fill: #ffffff; opacity: 0.85"/>
    </g>
    <!-- (a) -->
    <g transform="translate(82.3659 27.995913) scale(0.3 -0.3)">
     <defs>
      <path id="DejaVuSans-28" d="M 1984 4856 
Q 1566 4138 1362 3434 
Q 1159 2731 1159 2009 
Q 1159 1288 1364 580 
Q 1569 -128 1984 -844 
L 1484 -844 
Q 1016 -109 783 600 
Q 550 1309 550 2009 
Q 550 2706 781 3412 
Q 1013 4119 1484 4856 
L 1984 4856 
z
" transform="scale(0.015625)"/>
      <path id="DejaVuSans-61" d="M 2194 1759 
Q 1497 1759 1228 1600 
Q 959 1441 959 1056 
Q 959 750 1161 570 
Q 1363 391 1709 391 
Q 2188 391 2477 730 
Q 2766 1069 2766 1631 
L 2766 1759 
L 2194 1759 
z
M 3341 1997 
L 3341 0 
L 2766 0 
L 2766 531 
Q 2569 213 2275 61 
Q 1981 -91 1556 -91 
Q 1019 -91 701 211 
Q 384 513 384 1019 
Q 384 1609 779 1909 
Q 1175 2209 1959 2209 
L 2766 2209 
L 2766 2266 
Q 2766 2663 2505 2880 
Q 2244 3097 1772 3097 
Q 1472 3097 1187 3025 
Q 903 2953 641 2809 
L 641 3341 
Q 956 3463 1253 3523 
Q 1550 3584 1831 3584 
Q 2591 3584 2966 3190 
Q 3341 2797 3341 1997 
z
" transform="scale(0.015625)"/>
      <path id="DejaVuSans-29" d="M 513 4856 
L 1013 4856 
Q 1481 4119 1714 3412 
Q 1947 2706 1947 2009 
Q 1947 1309 1714 600 
Q 1481 -109 1013 -844 
L 513 -844 
Q 928 -128 1133 580 
Q 1338 1288 1338 2009 
Q 1338 2731 1133 3434 
Q 928 4138 513 4856 
z
" transform="scale(0.015625)"/>
     </defs>
     <use xlink:href="#DejaVuSans-28"/>
     <use xlink:href="#DejaVuSans-61" x="39.013672"/>
     <use xlink:href="#DejaVuSans-29" x="100.292969"/>
    </g>
   </g>
   <g id="PathCollection_1">
    <defs>
     <path id="mc26738b499" d="M -9.354143 9.354143 
L 9.354143 -9.354143 
M -9.354143 -9.354143 
L 9.354143 9.354143 
" style="stroke: #000000; stroke-width: 8"/>
    </defs>
    <g clip-path="url(#p14e2ae8a53)">
     <use xlink:href="#mc26738b499" x="213.065231" y="192.550939" style="stroke: #000000; stroke-width: 8"/>
    </g>
   </g>
   <g id="PathCollection_2">
    <g clip-path="url(#p14e2ae8a53)">
     <use xlink:href="#mc26738b499" x="343.915983" y="192.550939" style="stroke: #000000; stroke-width: 8"/>
    </g>
   </g>
   <g id="PathCollection_3">
    <g clip-path="url(#p14e2ae8a53)">
     <use xlink:href="#mc26738b499" x="368.545678" y="192.550939" style="stroke: #000000; stroke-width: 8"/>
    </g>
   </g>
   <g id="PathCollection_4">
    <g clip-path="url(#p14e2ae8a53)">
     <use xlink:href="#mc26738b499" x="377.500063" y="192.550939" style="stroke: #000000; stroke-width: 8"/>
    </g>
   </g>
   <g id="PathCollection_5">
    <g clip-path="url(#p14e2ae8a53)">
     <use xlink:href="#mc26738b499" x="385.568848" y="192.550939" style="stroke: #000000; stroke-width: 8"/>
    </g>
   </g>
   <g id="PathCollection_6">
    <g clip-path="url(#p14e2ae8a53)">
     <use xlink:href="#mc26738b499" x="337.719161" y="192.550939" style="stroke: #000000; stroke-width: 8"/>
    </g>
   </g>
   <g id="PathCollection_7">
    <defs>
     <path id="mc0a1abd981" d="M -7.905694 7.905694 
L 7.905694 -7.905694 
M -7.905694 -7.905694 
L 7.905694 7.905694 
" style="stroke: #bf00bf; stroke-width: 4"/>
    </defs>
    <g clip-path="url(#p14e2ae8a53)">
     <use xlink:href="#mc0a1abd981" x="213.065231" y="192.550939" style="fill: #bf00bf; stroke: #bf00bf; stroke-width: 4"/>
    </g>
   </g>
   <g id="PathCollection_8">
    <defs>
     <path id="mdb4505c650" d="M -7.905694 7.905694 
L 7.905694 -7.905694 
M -7.905694 -7.905694 
L 7.905694 7.905694 
" style="stroke: #00bfbf; stroke-width: 4"/>
    </defs>
    <g clip-path="url(#p14e2ae8a53)">
     <use xlink:href="#mdb4505c650" x="343.915983" y="192.550939" style="fill: #00bfbf; stroke: #00bfbf; stroke-width: 4"/>
    </g>
   </g>
   <g id="PathCollection_9">
    <defs>
     <path id="m35a5d75101" d="M -7.905694 7.905694 
L 7.905694 -7.905694 
M -7.905694 -7.905694 
L 7.905694 7.905694 
" style="stroke: #008000; stroke-width: 4"/>
    </defs>
    <g clip-path="url(#p14e2ae8a53)">
     <use xlink:href="#m35a5d75101" x="368.545678" y="192.550939" style="fill: #008000; stroke: #008000; stroke-width: 4"/>
    </g>
   </g>
   <g id="PathCollection_10">
    <defs>
     <path id="m5b75961fa2" d="M -7.905694 7.905694 
L 7.905694 -7.905694 
M -7.905694 -7.905694 
L 7.905694 7.905694 
" style="stroke: #ff0000; stroke-width: 4"/>
    </defs>
    <g clip-path="url(#p14e2ae8a53)">
     <use xlink:href="#m5b75961fa2" x="377.500063" y="192.550939" style="fill: #ff0000; stroke: #ff0000; stroke-width: 4"/>
    </g>
   </g>
   <g id="PathCollection_11">
    <defs>
     <path id="m0d966ed6d8" d="M -7.905694 7.905694 
L 7.905694 -7.905694 
M -7.905694 -7.905694 
L 7.905694 7.905694 
" style="stroke: #0000ff; stroke-width: 4"/>
    </defs>
    <g clip-path="url(#p14e2ae8a53)">
     <use xlink:href="#m0d966ed6d8" x="385.568848" y="192.550939" style="fill: #0000ff; stroke: #0000ff; stroke-width: 4"/>
    </g>
   </g>
   <g id="legend_1">
    <g id="patch_8">
     <path d="M 150.38 106.675625 
L 367.96 106.675625 
Q 372.36 106.675625 372.36 102.275625 
L 372.36 16.4 
Q 372.36 12 367.96 12 
L 150.38 12 
Q 145.98 12 145.98 16.4 
L 145.98 102.275625 
Q 145.98 106.675625 150.38 106.675625 
z
" style="fill: #ffffff; opacity: 0.8; stroke: #cccccc; stroke-linejoin: miter"/>
    </g>
    <g id="line2d_32">
     <path d="M 150.38 25.416563 
L 158.08 25.416563 
L 165.78 25.416563 
" style="fill: none; stroke: #bf00bf; stroke-width: 3; stroke-linecap: square"/>
    </g>
    <g id="text_14">
     <!-- $I=$20% -->
     <g transform="translate(167.98 33.116563) scale(0.22 -0.22)">
      <defs>
       <path id="DejaVuSans-Oblique-49" d="M 1081 4666 
L 1716 4666 
L 806 0 
L 172 0 
L 1081 4666 
z
" transform="scale(0.015625)"/>
       <path id="DejaVuSans-3d" d="M 678 2906 
L 4684 2906 
L 4684 2381 
L 678 2381 
L 678 2906 
z
M 678 1631 
L 4684 1631 
L 4684 1100 
L 678 1100 
L 678 1631 
z
" transform="scale(0.015625)"/>
       <path id="DejaVuSans-25" d="M 4653 2053 
Q 4381 2053 4226 1822 
Q 4072 1591 4072 1178 
Q 4072 772 4226 539 
Q 4381 306 4653 306 
Q 4919 306 5073 539 
Q 5228 772 5228 1178 
Q 5228 1588 5073 1820 
Q 4919 2053 4653 2053 
z
M 4653 2450 
Q 5147 2450 5437 2106 
Q 5728 1763 5728 1178 
Q 5728 594 5436 251 
Q 5144 -91 4653 -91 
Q 4153 -91 3862 251 
Q 3572 594 3572 1178 
Q 3572 1766 3864 2108 
Q 4156 2450 4653 2450 
z
M 1428 4353 
Q 1159 4353 1004 4120 
Q 850 3888 850 3481 
Q 850 3069 1003 2837 
Q 1156 2606 1428 2606 
Q 1700 2606 1854 2837 
Q 2009 3069 2009 3481 
Q 2009 3884 1853 4118 
Q 1697 4353 1428 4353 
z
M 4250 4750 
L 4750 4750 
L 1831 -91 
L 1331 -91 
L 4250 4750 
z
M 1428 4750 
Q 1922 4750 2215 4408 
Q 2509 4066 2509 3481 
Q 2509 2891 2217 2550 
Q 1925 2209 1428 2209 
Q 931 2209 642 2551 
Q 353 2894 353 3481 
Q 353 4063 643 4406 
Q 934 4750 1428 4750 
z
" transform="scale(0.015625)"/>
      </defs>
      <use xlink:href="#DejaVuSans-Oblique-49" transform="translate(0 0.78125)"/>
      <use xlink:href="#DejaVuSans-3d" transform="translate(48.974609 0.78125)"/>
      <use xlink:href="#DejaVuSans-32" transform="translate(152.246094 0.78125)"/>
      <use xlink:href="#DejaVuSans-30" transform="translate(215.869141 0.78125)"/>
      <use xlink:href="#DejaVuSans-25" transform="translate(279.492188 0.78125)"/>
     </g>
    </g>
    <g id="line2d_33">
     <path d="M 150.38 57.708438 
L 158.08 57.708438 
L 165.78 57.708438 
" style="fill: none; stroke: #00bfbf; stroke-width: 3; stroke-linecap: square"/>
    </g>
    <g id="text_15">
     <!-- $I=$40% -->
     <g transform="translate(167.98 65.408438) scale(0.22 -0.22)">
      <use xlink:href="#DejaVuSans-Oblique-49" transform="translate(0 0.78125)"/>
      <use xlink:href="#DejaVuSans-3d" transform="translate(48.974609 0.78125)"/>
      <use xlink:href="#DejaVuSans-34" transform="translate(152.246094 0.78125)"/>
      <use xlink:href="#DejaVuSans-30" transform="translate(215.869141 0.78125)"/>
      <use xlink:href="#DejaVuSans-25" transform="translate(279.492188 0.78125)"/>
     </g>
    </g>
    <g id="line2d_34">
     <path d="M 150.38 90.000313 
L 158.08 90.000313 
L 165.78 90.000313 
" style="fill: none; stroke: #008000; stroke-width: 3; stroke-linecap: square"/>
    </g>
    <g id="text_16">
     <!-- $I=$60% -->
     <g transform="translate(167.98 97.700313) scale(0.22 -0.22)">
      <use xlink:href="#DejaVuSans-Oblique-49" transform="translate(0 0.78125)"/>
      <use xlink:href="#DejaVuSans-3d" transform="translate(48.974609 0.78125)"/>
      <use xlink:href="#DejaVuSans-36" transform="translate(152.246094 0.78125)"/>
      <use xlink:href="#DejaVuSans-30" transform="translate(215.869141 0.78125)"/>
      <use xlink:href="#DejaVuSans-25" transform="translate(279.492188 0.78125)"/>
     </g>
    </g>
    <g id="line2d_35">
     <path d="M 253.78 25.416563 
L 261.48 25.416563 
L 269.18 25.416563 
" style="fill: none; stroke: #ff0000; stroke-width: 3; stroke-linecap: square"/>
    </g>
    <g id="text_17">
     <!-- $I=$80% -->
     <g transform="translate(271.38 33.116563) scale(0.22 -0.22)">
      <use xlink:href="#DejaVuSans-Oblique-49" transform="translate(0 0.78125)"/>
      <use xlink:href="#DejaVuSans-3d" transform="translate(48.974609 0.78125)"/>
      <use xlink:href="#DejaVuSans-38" transform="translate(152.246094 0.78125)"/>
      <use xlink:href="#DejaVuSans-30" transform="translate(215.869141 0.78125)"/>
      <use xlink:href="#DejaVuSans-25" transform="translate(279.492188 0.78125)"/>
     </g>
    </g>
    <g id="line2d_36">
     <path d="M 253.78 57.708438 
L 261.48 57.708438 
L 269.18 57.708438 
" style="fill: none; stroke: #0000ff; stroke-width: 3; stroke-linecap: square"/>
    </g>
    <g id="text_18">
     <!-- $I=$100% -->
     <g transform="translate(271.38 65.408438) scale(0.22 -0.22)">
      <use xlink:href="#DejaVuSans-Oblique-49" transform="translate(0 0.78125)"/>
      <use xlink:href="#DejaVuSans-3d" transform="translate(48.974609 0.78125)"/>
      <use xlink:href="#DejaVuSans-31" transform="translate(152.246094 0.78125)"/>
      <use xlink:href="#DejaVuSans-30" transform="translate(215.869141 0.78125)"/>
      <use xlink:href="#DejaVuSans-30" transform="translate(279.492188 0.78125)"/>
      <use xlink:href="#DejaVuSans-25" transform="translate(343.115234 0.78125)"/>
     </g>
    </g>
   </g>
  </g>
 </g>
 <defs>
  <clipPath id="p14e2ae8a53">
   <rect x="80.58" y="1" width="357.18" height="280.04"/>
  </clipPath>
 </defs>
</svg>
