<?xml version="1.0" encoding="utf-8" standalone="no"?>
<!DOCTYPE svg PUBLIC "-//W3C//DTD SVG 1.1//EN"
  "http://www.w3.org/Graphics/SVG/1.1/DTD/svg11.dtd">
<svg xmlns:xlink="http://www.w3.org/1999/xlink" width="460.8pt" height="345.6pt" viewBox="0 0 460.8 345.6" xmlns="http://www.w3.org/2000/svg" version="1.1">
 <metadata>
  <rdf:RDF xmlns:dc="http://purl.org/dc/elements/1.1/" xmlns:cc="http://creativecommons.org/ns#" xmlns:rdf="http://www.w3.org/1999/02/22-rdf-syntax-ns#">
   <cc:Work>
    <dc:type rdf:resource="http://purl.org/dc/dcmitype/StillImage"/>
    <dc:date>2024-04-24T14:58:33.193441</dc:date>
    <dc:format>image/svg+xml</dc:format>
    <dc:creator>
     <cc:Agent>
      <dc:title>Matplotlib v3.8.3, https://matplotlib.org/</dc:title>
     </cc:Agent>
    </dc:creator>
   </cc:Work>
  </rdf:RDF>
 </metadata>
 <defs>
  <style type="text/css">*{stroke-linejoin: round; stroke-linecap: butt}</style>
 </defs>
 <g id="figure_1">
  <g id="patch_1">
   <path d="M 0 345.6 
L 460.8 345.6 
L 460.8 0 
L 0 0 
z
" style="fill: #ffffff"/>
  </g>
  <g id="axes_1">
   <g id="patch_2">
    <path d="M 80.67 281.04 
L 437.76 281.04 
L 437.76 1 
L 80.67 1 
z
" style="fill: #ffffff"/>
   </g>
   <g id="line2d_1">
    <path d="M 80.67 187.659396 
L 437.76 187.659396 
" clip-path="url(#pa4c827c5d8)" style="fill: none; stroke: #000000; stroke-width: 1.5; stroke-linecap: square"/>
   </g>
   <g id="matplotlib.axis_1">
    <g id="xtick_1">
     <g id="line2d_2">
      <path d="M 172.128542 281.04 
L 172.128542 1 
" clip-path="url(#pa4c827c5d8)" style="fill: none; stroke: #b0b0b0; stroke-width: 0.8; stroke-linecap: square"/>
     </g>
     <g id="line2d_3">
      <defs>
       <path id="ma25543ed2f" d="M 0 0 
L 0 3.5 
" style="stroke: #000000; stroke-width: 0.8"/>
      </defs>
      <g>
       <use xlink:href="#ma25543ed2f" x="172.128542" y="281.04" style="stroke: #000000; stroke-width: 0.8"/>
      </g>
     </g>
     <g id="text_1">
      <!-- −1.22 -->
      <g transform="translate(133.821901 307.036094) scale(0.25 -0.25)">
       <defs>
        <path id="DejaVuSans-2212" d="M 678 2272 
L 4684 2272 
L 4684 1741 
L 678 1741 
L 678 2272 
z
" transform="scale(0.015625)"/>
        <path id="DejaVuSans-31" d="M 794 531 
L 1825 531 
L 1825 4091 
L 703 3866 
L 703 4441 
L 1819 4666 
L 2450 4666 
L 2450 531 
L 3481 531 
L 3481 0 
L 794 0 
L 794 531 
z
" transform="scale(0.015625)"/>
        <path id="DejaVuSans-2e" d="M 684 794 
L 1344 794 
L 1344 0 
L 684 0 
L 684 794 
z
" transform="scale(0.015625)"/>
        <path id="DejaVuSans-32" d="M 1228 531 
L 3431 531 
L 3431 0 
L 469 0 
L 469 531 
Q 828 903 1448 1529 
Q 2069 2156 2228 2338 
Q 2531 2678 2651 2914 
Q 2772 3150 2772 3378 
Q 2772 3750 2511 3984 
Q 2250 4219 1831 4219 
Q 1534 4219 1204 4116 
Q 875 4013 500 3803 
L 500 4441 
Q 881 4594 1212 4672 
Q 1544 4750 1819 4750 
Q 2544 4750 2975 4387 
Q 3406 4025 3406 3419 
Q 3406 3131 3298 2873 
Q 3191 2616 2906 2266 
Q 2828 2175 2409 1742 
Q 1991 1309 1228 531 
z
" transform="scale(0.015625)"/>
       </defs>
       <use xlink:href="#DejaVuSans-2212"/>
       <use xlink:href="#DejaVuSans-31" x="83.789062"/>
       <use xlink:href="#DejaVuSans-2e" x="147.412109"/>
       <use xlink:href="#DejaVuSans-32" x="179.199219"/>
       <use xlink:href="#DejaVuSans-32" x="242.822266"/>
      </g>
     </g>
    </g>
    <g id="xtick_2">
     <g id="line2d_4">
      <path d="M 253.718415 281.04 
L 253.718415 1 
" clip-path="url(#pa4c827c5d8)" style="fill: none; stroke: #b0b0b0; stroke-width: 0.8; stroke-linecap: square"/>
     </g>
     <g id="line2d_5">
      <g>
       <use xlink:href="#ma25543ed2f" x="253.718415" y="281.04" style="stroke: #000000; stroke-width: 0.8"/>
      </g>
     </g>
     <g id="text_2">
      <!-- −1.16 -->
      <g transform="translate(215.411774 307.036094) scale(0.25 -0.25)">
       <defs>
        <path id="DejaVuSans-36" d="M 2113 2584 
Q 1688 2584 1439 2293 
Q 1191 2003 1191 1497 
Q 1191 994 1439 701 
Q 1688 409 2113 409 
Q 2538 409 2786 701 
Q 3034 994 3034 1497 
Q 3034 2003 2786 2293 
Q 2538 2584 2113 2584 
z
M 3366 4563 
L 3366 3988 
Q 3128 4100 2886 4159 
Q 2644 4219 2406 4219 
Q 1781 4219 1451 3797 
Q 1122 3375 1075 2522 
Q 1259 2794 1537 2939 
Q 1816 3084 2150 3084 
Q 2853 3084 3261 2657 
Q 3669 2231 3669 1497 
Q 3669 778 3244 343 
Q 2819 -91 2113 -91 
Q 1303 -91 875 529 
Q 447 1150 447 2328 
Q 447 3434 972 4092 
Q 1497 4750 2381 4750 
Q 2619 4750 2861 4703 
Q 3103 4656 3366 4563 
z
" transform="scale(0.015625)"/>
       </defs>
       <use xlink:href="#DejaVuSans-2212"/>
       <use xlink:href="#DejaVuSans-31" x="83.789062"/>
       <use xlink:href="#DejaVuSans-2e" x="147.412109"/>
       <use xlink:href="#DejaVuSans-31" x="179.199219"/>
       <use xlink:href="#DejaVuSans-36" x="242.822266"/>
      </g>
     </g>
    </g>
    <g id="xtick_3">
     <g id="line2d_6">
      <path d="M 348.9066 281.04 
L 348.9066 1 
" clip-path="url(#pa4c827c5d8)" style="fill: none; stroke: #b0b0b0; stroke-width: 0.8; stroke-linecap: square"/>
     </g>
     <g id="line2d_7">
      <g>
       <use xlink:href="#ma25543ed2f" x="348.9066" y="281.04" style="stroke: #000000; stroke-width: 0.8"/>
      </g>
     </g>
     <g id="text_3">
      <!-- −1.09 -->
      <g transform="translate(310.599959 307.036094) scale(0.25 -0.25)">
       <defs>
        <path id="DejaVuSans-30" d="M 2034 4250 
Q 1547 4250 1301 3770 
Q 1056 3291 1056 2328 
Q 1056 1369 1301 889 
Q 1547 409 2034 409 
Q 2525 409 2770 889 
Q 3016 1369 3016 2328 
Q 3016 3291 2770 3770 
Q 2525 4250 2034 4250 
z
M 2034 4750 
Q 2819 4750 3233 4129 
Q 3647 3509 3647 2328 
Q 3647 1150 3233 529 
Q 2819 -91 2034 -91 
Q 1250 -91 836 529 
Q 422 1150 422 2328 
Q 422 3509 836 4129 
Q 1250 4750 2034 4750 
z
" transform="scale(0.015625)"/>
        <path id="DejaVuSans-39" d="M 703 97 
L 703 672 
Q 941 559 1184 500 
Q 1428 441 1663 441 
Q 2288 441 2617 861 
Q 2947 1281 2994 2138 
Q 2813 1869 2534 1725 
Q 2256 1581 1919 1581 
Q 1219 1581 811 2004 
Q 403 2428 403 3163 
Q 403 3881 828 4315 
Q 1253 4750 1959 4750 
Q 2769 4750 3195 4129 
Q 3622 3509 3622 2328 
Q 3622 1225 3098 567 
Q 2575 -91 1691 -91 
Q 1453 -91 1209 -44 
Q 966 3 703 97 
z
M 1959 2075 
Q 2384 2075 2632 2365 
Q 2881 2656 2881 3163 
Q 2881 3666 2632 3958 
Q 2384 4250 1959 4250 
Q 1534 4250 1286 3958 
Q 1038 3666 1038 3163 
Q 1038 2656 1286 2365 
Q 1534 2075 1959 2075 
z
" transform="scale(0.015625)"/>
       </defs>
       <use xlink:href="#DejaVuSans-2212"/>
       <use xlink:href="#DejaVuSans-31" x="83.789062"/>
       <use xlink:href="#DejaVuSans-2e" x="147.412109"/>
       <use xlink:href="#DejaVuSans-30" x="179.199219"/>
       <use xlink:href="#DejaVuSans-39" x="242.822266"/>
      </g>
     </g>
    </g>
    <g id="text_4">
     <!-- $V$ [V] -->
     <g transform="translate(224.635 337.510937) scale(0.28 -0.28)">
      <defs>
       <path id="DejaVuSans-Oblique-56" d="M 1319 0 
L 500 4666 
L 1119 4666 
L 1797 653 
L 4063 4666 
L 4750 4666 
L 2053 0 
L 1319 0 
z
" transform="scale(0.015625)"/>
       <path id="DejaVuSans-20" transform="scale(0.015625)"/>
       <path id="DejaVuSans-5b" d="M 550 4863 
L 1875 4863 
L 1875 4416 
L 1125 4416 
L 1125 -397 
L 1875 -397 
L 1875 -844 
L 550 -844 
L 550 4863 
z
" transform="scale(0.015625)"/>
       <path id="DejaVuSans-56" d="M 1831 0 
L 50 4666 
L 709 4666 
L 2188 738 
L 3669 4666 
L 4325 4666 
L 2547 0 
L 1831 0 
z
" transform="scale(0.015625)"/>
       <path id="DejaVuSans-5d" d="M 1947 4863 
L 1947 -844 
L 622 -844 
L 622 -397 
L 1369 -397 
L 1369 4416 
L 622 4416 
L 622 4863 
L 1947 4863 
z
" transform="scale(0.015625)"/>
      </defs>
      <use xlink:href="#DejaVuSans-Oblique-56" transform="translate(0 0.015625)"/>
      <use xlink:href="#DejaVuSans-20" transform="translate(68.408203 0.015625)"/>
      <use xlink:href="#DejaVuSans-5b" transform="translate(100.195312 0.015625)"/>
      <use xlink:href="#DejaVuSans-56" transform="translate(139.208984 0.015625)"/>
      <use xlink:href="#DejaVuSans-5d" transform="translate(207.617188 0.015625)"/>
     </g>
    </g>
   </g>
   <g id="matplotlib.axis_2">
    <g id="ytick_1">
     <g id="line2d_8">
      <path d="M 80.67 235.542054 
L 437.76 235.542054 
" clip-path="url(#pa4c827c5d8)" style="fill: none; stroke: #b0b0b0; stroke-width: 0.8; stroke-linecap: square"/>
     </g>
     <g id="line2d_9">
      <defs>
       <path id="m3515a7060d" d="M 0 0 
L -3.5 0 
" style="stroke: #000000; stroke-width: 0.8"/>
      </defs>
      <g>
       <use xlink:href="#m3515a7060d" x="80.67" y="235.542054" style="stroke: #000000; stroke-width: 0.8"/>
      </g>
     </g>
     <g id="text_5">
      <!-- −1 -->
      <g transform="translate(36.814531 245.040101) scale(0.25 -0.25)">
       <use xlink:href="#DejaVuSans-2212"/>
       <use xlink:href="#DejaVuSans-31" x="83.789062"/>
      </g>
     </g>
    </g>
    <g id="ytick_2">
     <g id="line2d_10">
      <path d="M 80.67 187.659396 
L 437.76 187.659396 
" clip-path="url(#pa4c827c5d8)" style="fill: none; stroke: #b0b0b0; stroke-width: 0.8; stroke-linecap: square"/>
     </g>
     <g id="line2d_11">
      <g>
       <use xlink:href="#m3515a7060d" x="80.67" y="187.659396" style="stroke: #000000; stroke-width: 0.8"/>
      </g>
     </g>
     <g id="text_6">
      <!-- 0 -->
      <g transform="translate(57.76375 197.157443) scale(0.25 -0.25)">
       <use xlink:href="#DejaVuSans-30"/>
      </g>
     </g>
    </g>
    <g id="ytick_3">
     <g id="line2d_12">
      <path d="M 80.67 139.776738 
L 437.76 139.776738 
" clip-path="url(#pa4c827c5d8)" style="fill: none; stroke: #b0b0b0; stroke-width: 0.8; stroke-linecap: square"/>
     </g>
     <g id="line2d_13">
      <g>
       <use xlink:href="#m3515a7060d" x="80.67" y="139.776738" style="stroke: #000000; stroke-width: 0.8"/>
      </g>
     </g>
     <g id="text_7">
      <!-- 1 -->
      <g transform="translate(57.76375 149.274785) scale(0.25 -0.25)">
       <use xlink:href="#DejaVuSans-31"/>
      </g>
     </g>
    </g>
    <g id="ytick_4">
     <g id="line2d_14">
      <path d="M 80.67 91.89408 
L 437.76 91.89408 
" clip-path="url(#pa4c827c5d8)" style="fill: none; stroke: #b0b0b0; stroke-width: 0.8; stroke-linecap: square"/>
     </g>
     <g id="line2d_15">
      <g>
       <use xlink:href="#m3515a7060d" x="80.67" y="91.89408" style="stroke: #000000; stroke-width: 0.8"/>
      </g>
     </g>
     <g id="text_8">
      <!-- 2 -->
      <g transform="translate(57.76375 101.392127) scale(0.25 -0.25)">
       <use xlink:href="#DejaVuSans-32"/>
      </g>
     </g>
    </g>
    <g id="ytick_5">
     <g id="line2d_16">
      <path d="M 80.67 44.011421 
L 437.76 44.011421 
" clip-path="url(#pa4c827c5d8)" style="fill: none; stroke: #b0b0b0; stroke-width: 0.8; stroke-linecap: square"/>
     </g>
     <g id="line2d_17">
      <g>
       <use xlink:href="#m3515a7060d" x="80.67" y="44.011421" style="stroke: #000000; stroke-width: 0.8"/>
      </g>
     </g>
     <g id="text_9">
      <!-- 3 -->
      <g transform="translate(57.76375 53.509468) scale(0.25 -0.25)">
       <defs>
        <path id="DejaVuSans-33" d="M 2597 2516 
Q 3050 2419 3304 2112 
Q 3559 1806 3559 1356 
Q 3559 666 3084 287 
Q 2609 -91 1734 -91 
Q 1441 -91 1130 -33 
Q 819 25 488 141 
L 488 750 
Q 750 597 1062 519 
Q 1375 441 1716 441 
Q 2309 441 2620 675 
Q 2931 909 2931 1356 
Q 2931 1769 2642 2001 
Q 2353 2234 1838 2234 
L 1294 2234 
L 1294 2753 
L 1863 2753 
Q 2328 2753 2575 2939 
Q 2822 3125 2822 3475 
Q 2822 3834 2567 4026 
Q 2313 4219 1838 4219 
Q 1578 4219 1281 4162 
Q 984 4106 628 3988 
L 628 4550 
Q 988 4650 1302 4700 
Q 1616 4750 1894 4750 
Q 2613 4750 3031 4423 
Q 3450 4097 3450 3541 
Q 3450 3153 3228 2886 
Q 3006 2619 2597 2516 
z
" transform="scale(0.015625)"/>
       </defs>
       <use xlink:href="#DejaVuSans-33"/>
      </g>
     </g>
    </g>
    <g id="text_10">
     <!-- Corrente [$10^{-4}$ A] -->
     <g transform="translate(26.991406 264.78) rotate(-90) scale(0.28 -0.28)">
      <defs>
       <path id="DejaVuSans-43" d="M 4122 4306 
L 4122 3641 
Q 3803 3938 3442 4084 
Q 3081 4231 2675 4231 
Q 1875 4231 1450 3742 
Q 1025 3253 1025 2328 
Q 1025 1406 1450 917 
Q 1875 428 2675 428 
Q 3081 428 3442 575 
Q 3803 722 4122 1019 
L 4122 359 
Q 3791 134 3420 21 
Q 3050 -91 2638 -91 
Q 1578 -91 968 557 
Q 359 1206 359 2328 
Q 359 3453 968 4101 
Q 1578 4750 2638 4750 
Q 3056 4750 3426 4639 
Q 3797 4528 4122 4306 
z
" transform="scale(0.015625)"/>
       <path id="DejaVuSans-6f" d="M 1959 3097 
Q 1497 3097 1228 2736 
Q 959 2375 959 1747 
Q 959 1119 1226 758 
Q 1494 397 1959 397 
Q 2419 397 2687 759 
Q 2956 1122 2956 1747 
Q 2956 2369 2687 2733 
Q 2419 3097 1959 3097 
z
M 1959 3584 
Q 2709 3584 3137 3096 
Q 3566 2609 3566 1747 
Q 3566 888 3137 398 
Q 2709 -91 1959 -91 
Q 1206 -91 779 398 
Q 353 888 353 1747 
Q 353 2609 779 3096 
Q 1206 3584 1959 3584 
z
" transform="scale(0.015625)"/>
       <path id="DejaVuSans-72" d="M 2631 2963 
Q 2534 3019 2420 3045 
Q 2306 3072 2169 3072 
Q 1681 3072 1420 2755 
Q 1159 2438 1159 1844 
L 1159 0 
L 581 0 
L 581 3500 
L 1159 3500 
L 1159 2956 
Q 1341 3275 1631 3429 
Q 1922 3584 2338 3584 
Q 2397 3584 2469 3576 
Q 2541 3569 2628 3553 
L 2631 2963 
z
" transform="scale(0.015625)"/>
       <path id="DejaVuSans-65" d="M 3597 1894 
L 3597 1613 
L 953 1613 
Q 991 1019 1311 708 
Q 1631 397 2203 397 
Q 2534 397 2845 478 
Q 3156 559 3463 722 
L 3463 178 
Q 3153 47 2828 -22 
Q 2503 -91 2169 -91 
Q 1331 -91 842 396 
Q 353 884 353 1716 
Q 353 2575 817 3079 
Q 1281 3584 2069 3584 
Q 2775 3584 3186 3129 
Q 3597 2675 3597 1894 
z
M 3022 2063 
Q 3016 2534 2758 2815 
Q 2500 3097 2075 3097 
Q 1594 3097 1305 2825 
Q 1016 2553 972 2059 
L 3022 2063 
z
" transform="scale(0.015625)"/>
       <path id="DejaVuSans-6e" d="M 3513 2113 
L 3513 0 
L 2938 0 
L 2938 2094 
Q 2938 2591 2744 2837 
Q 2550 3084 2163 3084 
Q 1697 3084 1428 2787 
Q 1159 2491 1159 1978 
L 1159 0 
L 581 0 
L 581 3500 
L 1159 3500 
L 1159 2956 
Q 1366 3272 1645 3428 
Q 1925 3584 2291 3584 
Q 2894 3584 3203 3211 
Q 3513 2838 3513 2113 
z
" transform="scale(0.015625)"/>
       <path id="DejaVuSans-74" d="M 1172 4494 
L 1172 3500 
L 2356 3500 
L 2356 3053 
L 1172 3053 
L 1172 1153 
Q 1172 725 1289 603 
Q 1406 481 1766 481 
L 2356 481 
L 2356 0 
L 1766 0 
Q 1100 0 847 248 
Q 594 497 594 1153 
L 594 3053 
L 172 3053 
L 172 3500 
L 594 3500 
L 594 4494 
L 1172 4494 
z
" transform="scale(0.015625)"/>
       <path id="DejaVuSans-34" d="M 2419 4116 
L 825 1625 
L 2419 1625 
L 2419 4116 
z
M 2253 4666 
L 3047 4666 
L 3047 1625 
L 3713 1625 
L 3713 1100 
L 3047 1100 
L 3047 0 
L 2419 0 
L 2419 1100 
L 313 1100 
L 313 1709 
L 2253 4666 
z
" transform="scale(0.015625)"/>
       <path id="DejaVuSans-41" d="M 2188 4044 
L 1331 1722 
L 3047 1722 
L 2188 4044 
z
M 1831 4666 
L 2547 4666 
L 4325 0 
L 3669 0 
L 3244 1197 
L 1141 1197 
L 716 0 
L 50 0 
L 1831 4666 
z
" transform="scale(0.015625)"/>
      </defs>
      <use xlink:href="#DejaVuSans-43" transform="translate(0 0.684375)"/>
      <use xlink:href="#DejaVuSans-6f" transform="translate(69.824219 0.684375)"/>
      <use xlink:href="#DejaVuSans-72" transform="translate(131.005859 0.684375)"/>
      <use xlink:href="#DejaVuSans-72" transform="translate(172.119141 0.684375)"/>
      <use xlink:href="#DejaVuSans-65" transform="translate(213.232422 0.684375)"/>
      <use xlink:href="#DejaVuSans-6e" transform="translate(274.755859 0.684375)"/>
      <use xlink:href="#DejaVuSans-74" transform="translate(338.134766 0.684375)"/>
      <use xlink:href="#DejaVuSans-65" transform="translate(377.34375 0.684375)"/>
      <use xlink:href="#DejaVuSans-20" transform="translate(438.867188 0.684375)"/>
      <use xlink:href="#DejaVuSans-5b" transform="translate(470.654297 0.684375)"/>
      <use xlink:href="#DejaVuSans-31" transform="translate(509.667969 0.684375)"/>
      <use xlink:href="#DejaVuSans-30" transform="translate(573.291016 0.684375)"/>
      <use xlink:href="#DejaVuSans-2212" transform="translate(637.871094 38.965625) scale(0.7)"/>
      <use xlink:href="#DejaVuSans-34" transform="translate(696.523438 38.965625) scale(0.7)"/>
      <use xlink:href="#DejaVuSans-20" transform="translate(743.793945 0.684375)"/>
      <use xlink:href="#DejaVuSans-41" transform="translate(775.581055 0.684375)"/>
      <use xlink:href="#DejaVuSans-5d" transform="translate(843.989258 0.684375)"/>
     </g>
    </g>
   </g>
   <g id="LineCollection_1">
    <path d="M 29.346264 211.22059 
L 97.337825 211.22059 
" clip-path="url(#pa4c827c5d8)" style="fill: none; stroke: #bf00bf; stroke-width: 2.5"/>
    <path d="M 97.337825 206.959089 
L 165.329386 206.959089 
" clip-path="url(#pa4c827c5d8)" style="fill: none; stroke: #bf00bf; stroke-width: 2.5"/>
    <path d="M 165.329386 201.204182 
L 233.320947 201.204182 
" clip-path="url(#pa4c827c5d8)" style="fill: none; stroke: #bf00bf; stroke-width: 2.5"/>
    <path d="M 233.320947 193.356282 
L 301.312507 193.356282 
" clip-path="url(#pa4c827c5d8)" style="fill: none; stroke: #bf00bf; stroke-width: 2.5"/>
    <path d="M 301.312507 183.088931 
L 369.304068 183.088931 
" clip-path="url(#pa4c827c5d8)" style="fill: none; stroke: #bf00bf; stroke-width: 2.5"/>
    <path d="M 369.304068 169.390742 
L 437.295629 169.390742 
" clip-path="url(#pa4c827c5d8)" style="fill: none; stroke: #bf00bf; stroke-width: 2.5"/>
    <path d="M 437.295629 151.138277 
L 461.8 151.138277 
" clip-path="url(#pa4c827c5d8)" style="fill: none; stroke: #bf00bf; stroke-width: 2.5"/>
   </g>
   <g id="LineCollection_2">
    <path d="M 63.342044 211.220637 
L 63.342044 211.220543 
" clip-path="url(#pa4c827c5d8)" style="fill: none; stroke: #bf00bf; stroke-width: 2.5"/>
    <path d="M 131.333605 206.959139 
L 131.333605 206.959038 
" clip-path="url(#pa4c827c5d8)" style="fill: none; stroke: #bf00bf; stroke-width: 2.5"/>
    <path d="M 199.325166 201.204218 
L 199.325166 201.204146 
" clip-path="url(#pa4c827c5d8)" style="fill: none; stroke: #bf00bf; stroke-width: 2.5"/>
    <path d="M 267.316727 193.356317 
L 267.316727 193.356247 
" clip-path="url(#pa4c827c5d8)" style="fill: none; stroke: #bf00bf; stroke-width: 2.5"/>
    <path d="M 335.308288 183.088966 
L 335.308288 183.088896 
" clip-path="url(#pa4c827c5d8)" style="fill: none; stroke: #bf00bf; stroke-width: 2.5"/>
    <path d="M 403.299849 169.390776 
L 403.299849 169.390709 
" clip-path="url(#pa4c827c5d8)" style="fill: none; stroke: #bf00bf; stroke-width: 2.5"/>
    <path clip-path="url(#pa4c827c5d8)" style="fill: none; stroke: #bf00bf; stroke-width: 2.5"/>
   </g>
   <g id="LineCollection_3">
    <path d="M 29.346264 249.056049 
L 97.337825 249.056049 
" clip-path="url(#pa4c827c5d8)" style="fill: none; stroke: #00bfbf; stroke-width: 2.5"/>
    <path d="M 97.337825 238.824516 
L 165.329386 238.824516 
" clip-path="url(#pa4c827c5d8)" style="fill: none; stroke: #00bfbf; stroke-width: 2.5"/>
    <path d="M 165.329386 224.69907 
L 233.320947 224.69907 
" clip-path="url(#pa4c827c5d8)" style="fill: none; stroke: #00bfbf; stroke-width: 2.5"/>
    <path d="M 233.320947 205.827193 
L 301.312507 205.827193 
" clip-path="url(#pa4c827c5d8)" style="fill: none; stroke: #00bfbf; stroke-width: 2.5"/>
    <path d="M 301.312507 180.960337 
L 369.304068 180.960337 
" clip-path="url(#pa4c827c5d8)" style="fill: none; stroke: #00bfbf; stroke-width: 2.5"/>
    <path d="M 369.304068 147.701197 
L 437.295629 147.701197 
" clip-path="url(#pa4c827c5d8)" style="fill: none; stroke: #00bfbf; stroke-width: 2.5"/>
    <path d="M 437.295629 103.046032 
L 461.8 103.046032 
" clip-path="url(#pa4c827c5d8)" style="fill: none; stroke: #00bfbf; stroke-width: 2.5"/>
   </g>
   <g id="LineCollection_4">
    <path d="M 63.342044 249.056129 
L 63.342044 249.055969 
" clip-path="url(#pa4c827c5d8)" style="fill: none; stroke: #00bfbf; stroke-width: 2.5"/>
    <path d="M 131.333605 238.824574 
L 131.333605 238.824458 
" clip-path="url(#pa4c827c5d8)" style="fill: none; stroke: #00bfbf; stroke-width: 2.5"/>
    <path d="M 199.325166 224.699121 
L 199.325166 224.699019 
" clip-path="url(#pa4c827c5d8)" style="fill: none; stroke: #00bfbf; stroke-width: 2.5"/>
    <path d="M 267.316727 205.827243 
L 267.316727 205.827143 
" clip-path="url(#pa4c827c5d8)" style="fill: none; stroke: #00bfbf; stroke-width: 2.5"/>
    <path d="M 335.308288 180.960372 
L 335.308288 180.960303 
" clip-path="url(#pa4c827c5d8)" style="fill: none; stroke: #00bfbf; stroke-width: 2.5"/>
    <path d="M 403.299849 147.70124 
L 403.299849 147.701153 
" clip-path="url(#pa4c827c5d8)" style="fill: none; stroke: #00bfbf; stroke-width: 2.5"/>
    <path clip-path="url(#pa4c827c5d8)" style="fill: none; stroke: #00bfbf; stroke-width: 2.5"/>
   </g>
   <g id="LineCollection_5">
    <path d="M 29.346264 266.279369 
L 97.337825 266.279369 
" clip-path="url(#pa4c827c5d8)" style="fill: none; stroke: #008000; stroke-width: 2.5"/>
    <path d="M 97.337825 253.186814 
L 165.329386 253.186814 
" clip-path="url(#pa4c827c5d8)" style="fill: none; stroke: #008000; stroke-width: 2.5"/>
    <path d="M 165.329386 235.283411 
L 233.320947 235.283411 
" clip-path="url(#pa4c827c5d8)" style="fill: none; stroke: #008000; stroke-width: 2.5"/>
    <path d="M 233.320947 211.636828 
L 301.312507 211.636828 
" clip-path="url(#pa4c827c5d8)" style="fill: none; stroke: #008000; stroke-width: 2.5"/>
    <path d="M 301.312507 180.368571 
L 369.304068 180.368571 
" clip-path="url(#pa4c827c5d8)" style="fill: none; stroke: #008000; stroke-width: 2.5"/>
    <path d="M 369.304068 138.221835 
L 437.295629 138.221835 
" clip-path="url(#pa4c827c5d8)" style="fill: none; stroke: #008000; stroke-width: 2.5"/>
    <path d="M 437.295629 82.140593 
L 461.8 82.140593 
" clip-path="url(#pa4c827c5d8)" style="fill: none; stroke: #008000; stroke-width: 2.5"/>
   </g>
   <g id="LineCollection_6">
    <path d="M 63.342044 266.27946 
L 63.342044 266.279279 
" clip-path="url(#pa4c827c5d8)" style="fill: none; stroke: #008000; stroke-width: 2.5"/>
    <path d="M 131.333605 253.186893 
L 131.333605 253.186735 
" clip-path="url(#pa4c827c5d8)" style="fill: none; stroke: #008000; stroke-width: 2.5"/>
    <path d="M 199.325166 235.283502 
L 199.325166 235.283321 
" clip-path="url(#pa4c827c5d8)" style="fill: none; stroke: #008000; stroke-width: 2.5"/>
    <path d="M 267.316727 211.636927 
L 267.316727 211.636729 
" clip-path="url(#pa4c827c5d8)" style="fill: none; stroke: #008000; stroke-width: 2.5"/>
    <path d="M 335.308288 180.368648 
L 335.308288 180.368495 
" clip-path="url(#pa4c827c5d8)" style="fill: none; stroke: #008000; stroke-width: 2.5"/>
    <path d="M 403.299849 138.221902 
L 403.299849 138.221767 
" clip-path="url(#pa4c827c5d8)" style="fill: none; stroke: #008000; stroke-width: 2.5"/>
    <path clip-path="url(#pa4c827c5d8)" style="fill: none; stroke: #008000; stroke-width: 2.5"/>
   </g>
   <g id="LineCollection_7">
    <path d="M 29.346264 285.678396 
L 97.337825 285.678396 
" clip-path="url(#pa4c827c5d8)" style="fill: none; stroke: #ff0000; stroke-width: 2.5"/>
    <path d="M 97.337825 269.145936 
L 165.329386 269.145936 
" clip-path="url(#pa4c827c5d8)" style="fill: none; stroke: #ff0000; stroke-width: 2.5"/>
    <path d="M 165.329386 246.840499 
L 233.320947 246.840499 
" clip-path="url(#pa4c827c5d8)" style="fill: none; stroke: #ff0000; stroke-width: 2.5"/>
    <path d="M 233.320947 216.864072 
L 301.312507 216.864072 
" clip-path="url(#pa4c827c5d8)" style="fill: none; stroke: #ff0000; stroke-width: 2.5"/>
    <path d="M 301.312507 176.985952 
L 369.304068 176.985952 
" clip-path="url(#pa4c827c5d8)" style="fill: none; stroke: #ff0000; stroke-width: 2.5"/>
    <path d="M 369.304068 123.746572 
L 437.295629 123.746572 
" clip-path="url(#pa4c827c5d8)" style="fill: none; stroke: #ff0000; stroke-width: 2.5"/>
    <path d="M 437.295629 52.238471 
L 461.8 52.238471 
" clip-path="url(#pa4c827c5d8)" style="fill: none; stroke: #ff0000; stroke-width: 2.5"/>
   </g>
   <g id="LineCollection_8">
    <path d="M 63.342044 285.678676 
L 63.342044 285.678117 
" clip-path="url(#pa4c827c5d8)" style="fill: none; stroke: #ff0000; stroke-width: 2.5"/>
    <path d="M 131.333605 269.146233 
L 131.333605 269.14564 
" clip-path="url(#pa4c827c5d8)" style="fill: none; stroke: #ff0000; stroke-width: 2.5"/>
    <path d="M 199.325166 246.840779 
L 199.325166 246.840219 
" clip-path="url(#pa4c827c5d8)" style="fill: none; stroke: #ff0000; stroke-width: 2.5"/>
    <path d="M 267.316727 216.86432 
L 267.316727 216.863824 
" clip-path="url(#pa4c827c5d8)" style="fill: none; stroke: #ff0000; stroke-width: 2.5"/>
    <path d="M 335.308288 176.98616 
L 335.308288 176.985744 
" clip-path="url(#pa4c827c5d8)" style="fill: none; stroke: #ff0000; stroke-width: 2.5"/>
    <path d="M 403.299849 123.746776 
L 403.299849 123.746368 
" clip-path="url(#pa4c827c5d8)" style="fill: none; stroke: #ff0000; stroke-width: 2.5"/>
    <path clip-path="url(#pa4c827c5d8)" style="fill: none; stroke: #ff0000; stroke-width: 2.5"/>
   </g>
   <g id="LineCollection_9">
    <path d="M 29.346264 297.51893 
L 97.337825 297.51893 
" clip-path="url(#pa4c827c5d8)" style="fill: none; stroke: #0000ff; stroke-width: 2.5"/>
    <path d="M 97.337825 279.666609 
L 165.329386 279.666609 
" clip-path="url(#pa4c827c5d8)" style="fill: none; stroke: #0000ff; stroke-width: 2.5"/>
    <path d="M 165.329386 253.97921 
L 233.320947 253.97921 
" clip-path="url(#pa4c827c5d8)" style="fill: none; stroke: #0000ff; stroke-width: 2.5"/>
    <path d="M 233.320947 219.501566 
L 301.312507 219.501566 
" clip-path="url(#pa4c827c5d8)" style="fill: none; stroke: #0000ff; stroke-width: 2.5"/>
    <path d="M 301.312507 174.403824 
L 369.304068 174.403824 
" clip-path="url(#pa4c827c5d8)" style="fill: none; stroke: #0000ff; stroke-width: 2.5"/>
    <path d="M 369.304068 112.64481 
L 437.295629 112.64481 
" clip-path="url(#pa4c827c5d8)" style="fill: none; stroke: #0000ff; stroke-width: 2.5"/>
    <path d="M 437.295629 32.109899 
L 461.8 32.109899 
" clip-path="url(#pa4c827c5d8)" style="fill: none; stroke: #0000ff; stroke-width: 2.5"/>
   </g>
   <g id="LineCollection_10">
    <path d="M 63.342044 297.519193 
L 63.342044 297.518667 
" clip-path="url(#pa4c827c5d8)" style="fill: none; stroke: #0000ff; stroke-width: 2.5"/>
    <path d="M 131.333605 279.666697 
L 131.333605 279.66652 
" clip-path="url(#pa4c827c5d8)" style="fill: none; stroke: #0000ff; stroke-width: 2.5"/>
    <path d="M 199.325166 253.979291 
L 199.325166 253.979129 
" clip-path="url(#pa4c827c5d8)" style="fill: none; stroke: #0000ff; stroke-width: 2.5"/>
    <path d="M 267.316727 219.501633 
L 267.316727 219.501498 
" clip-path="url(#pa4c827c5d8)" style="fill: none; stroke: #0000ff; stroke-width: 2.5"/>
    <path d="M 335.308288 174.404006 
L 335.308288 174.403641 
" clip-path="url(#pa4c827c5d8)" style="fill: none; stroke: #0000ff; stroke-width: 2.5"/>
    <path d="M 403.299849 112.645005 
L 403.299849 112.644615 
" clip-path="url(#pa4c827c5d8)" style="fill: none; stroke: #0000ff; stroke-width: 2.5"/>
    <path clip-path="url(#pa4c827c5d8)" style="fill: none; stroke: #0000ff; stroke-width: 2.5"/>
   </g>
   <g id="line2d_18">
    <defs>
     <path id="me1a39d39c9" d="M 0 3.5 
C 0.928211 3.5 1.81853 3.131218 2.474874 2.474874 
C 3.131218 1.81853 3.5 0.928211 3.5 0 
C 3.5 -0.928211 3.131218 -1.81853 2.474874 -2.474874 
C 1.81853 -3.131218 0.928211 -3.5 0 -3.5 
C -0.928211 -3.5 -1.81853 -3.131218 -2.474874 -2.474874 
C -3.131218 -1.81853 -3.5 -0.928211 -3.5 0 
C -3.5 0.928211 -3.131218 1.81853 -2.474874 2.474874 
C -1.81853 3.131218 -0.928211 3.5 0 3.5 
z
" style="stroke: #bf00bf"/>
    </defs>
    <g clip-path="url(#pa4c827c5d8)">
     <use xlink:href="#me1a39d39c9" x="63.342044" y="211.22059" style="fill: #bf00bf; stroke: #bf00bf"/>
     <use xlink:href="#me1a39d39c9" x="131.333605" y="206.959089" style="fill: #bf00bf; stroke: #bf00bf"/>
     <use xlink:href="#me1a39d39c9" x="199.325166" y="201.204182" style="fill: #bf00bf; stroke: #bf00bf"/>
     <use xlink:href="#me1a39d39c9" x="267.316727" y="193.356282" style="fill: #bf00bf; stroke: #bf00bf"/>
     <use xlink:href="#me1a39d39c9" x="335.308288" y="183.088931" style="fill: #bf00bf; stroke: #bf00bf"/>
     <use xlink:href="#me1a39d39c9" x="403.299849" y="169.390742" style="fill: #bf00bf; stroke: #bf00bf"/>
     <use xlink:href="#me1a39d39c9" x="471.29141" y="151.138277" style="fill: #bf00bf; stroke: #bf00bf"/>
    </g>
   </g>
   <g id="line2d_19">
    <defs>
     <path id="m8945b4d085" d="M 0 3.5 
C 0.928211 3.5 1.81853 3.131218 2.474874 2.474874 
C 3.131218 1.81853 3.5 0.928211 3.5 0 
C 3.5 -0.928211 3.131218 -1.81853 2.474874 -2.474874 
C 1.81853 -3.131218 0.928211 -3.5 0 -3.5 
C -0.928211 -3.5 -1.81853 -3.131218 -2.474874 -2.474874 
C -3.131218 -1.81853 -3.5 -0.928211 -3.5 0 
C -3.5 0.928211 -3.131218 1.81853 -2.474874 2.474874 
C -1.81853 3.131218 -0.928211 3.5 0 3.5 
z
" style="stroke: #00bfbf"/>
    </defs>
    <g clip-path="url(#pa4c827c5d8)">
     <use xlink:href="#m8945b4d085" x="63.342044" y="249.056049" style="fill: #00bfbf; stroke: #00bfbf"/>
     <use xlink:href="#m8945b4d085" x="131.333605" y="238.824516" style="fill: #00bfbf; stroke: #00bfbf"/>
     <use xlink:href="#m8945b4d085" x="199.325166" y="224.69907" style="fill: #00bfbf; stroke: #00bfbf"/>
     <use xlink:href="#m8945b4d085" x="267.316727" y="205.827193" style="fill: #00bfbf; stroke: #00bfbf"/>
     <use xlink:href="#m8945b4d085" x="335.308288" y="180.960337" style="fill: #00bfbf; stroke: #00bfbf"/>
     <use xlink:href="#m8945b4d085" x="403.299849" y="147.701197" style="fill: #00bfbf; stroke: #00bfbf"/>
     <use xlink:href="#m8945b4d085" x="471.29141" y="103.046032" style="fill: #00bfbf; stroke: #00bfbf"/>
    </g>
   </g>
   <g id="line2d_20">
    <defs>
     <path id="md5dc1da0ae" d="M 0 3.5 
C 0.928211 3.5 1.81853 3.131218 2.474874 2.474874 
C 3.131218 1.81853 3.5 0.928211 3.5 0 
C 3.5 -0.928211 3.131218 -1.81853 2.474874 -2.474874 
C 1.81853 -3.131218 0.928211 -3.5 0 -3.5 
C -0.928211 -3.5 -1.81853 -3.131218 -2.474874 -2.474874 
C -3.131218 -1.81853 -3.5 -0.928211 -3.5 0 
C -3.5 0.928211 -3.131218 1.81853 -2.474874 2.474874 
C -1.81853 3.131218 -0.928211 3.5 0 3.5 
z
" style="stroke: #008000"/>
    </defs>
    <g clip-path="url(#pa4c827c5d8)">
     <use xlink:href="#md5dc1da0ae" x="63.342044" y="266.279369" style="fill: #008000; stroke: #008000"/>
     <use xlink:href="#md5dc1da0ae" x="131.333605" y="253.186814" style="fill: #008000; stroke: #008000"/>
     <use xlink:href="#md5dc1da0ae" x="199.325166" y="235.283411" style="fill: #008000; stroke: #008000"/>
     <use xlink:href="#md5dc1da0ae" x="267.316727" y="211.636828" style="fill: #008000; stroke: #008000"/>
     <use xlink:href="#md5dc1da0ae" x="335.308288" y="180.368571" style="fill: #008000; stroke: #008000"/>
     <use xlink:href="#md5dc1da0ae" x="403.299849" y="138.221835" style="fill: #008000; stroke: #008000"/>
     <use xlink:href="#md5dc1da0ae" x="471.29141" y="82.140593" style="fill: #008000; stroke: #008000"/>
    </g>
   </g>
   <g id="line2d_21">
    <defs>
     <path id="m855b86ab50" d="M 0 3.5 
C 0.928211 3.5 1.81853 3.131218 2.474874 2.474874 
C 3.131218 1.81853 3.5 0.928211 3.5 0 
C 3.5 -0.928211 3.131218 -1.81853 2.474874 -2.474874 
C 1.81853 -3.131218 0.928211 -3.5 0 -3.5 
C -0.928211 -3.5 -1.81853 -3.131218 -2.474874 -2.474874 
C -3.131218 -1.81853 -3.5 -0.928211 -3.5 0 
C -3.5 0.928211 -3.131218 1.81853 -2.474874 2.474874 
C -1.81853 3.131218 -0.928211 3.5 0 3.5 
z
" style="stroke: #ff0000"/>
    </defs>
    <g clip-path="url(#pa4c827c5d8)">
     <use xlink:href="#m855b86ab50" x="63.342044" y="285.678396" style="fill: #ff0000; stroke: #ff0000"/>
     <use xlink:href="#m855b86ab50" x="131.333605" y="269.145936" style="fill: #ff0000; stroke: #ff0000"/>
     <use xlink:href="#m855b86ab50" x="199.325166" y="246.840499" style="fill: #ff0000; stroke: #ff0000"/>
     <use xlink:href="#m855b86ab50" x="267.316727" y="216.864072" style="fill: #ff0000; stroke: #ff0000"/>
     <use xlink:href="#m855b86ab50" x="335.308288" y="176.985952" style="fill: #ff0000; stroke: #ff0000"/>
     <use xlink:href="#m855b86ab50" x="403.299849" y="123.746572" style="fill: #ff0000; stroke: #ff0000"/>
     <use xlink:href="#m855b86ab50" x="471.29141" y="52.238471" style="fill: #ff0000; stroke: #ff0000"/>
    </g>
   </g>
   <g id="line2d_22">
    <defs>
     <path id="m87a603f711" d="M 0 3.5 
C 0.928211 3.5 1.81853 3.131218 2.474874 2.474874 
C 3.131218 1.81853 3.5 0.928211 3.5 0 
C 3.5 -0.928211 3.131218 -1.81853 2.474874 -2.474874 
C 1.81853 -3.131218 0.928211 -3.5 0 -3.5 
C -0.928211 -3.5 -1.81853 -3.131218 -2.474874 -2.474874 
C -3.131218 -1.81853 -3.5 -0.928211 -3.5 0 
C -3.5 0.928211 -3.131218 1.81853 -2.474874 2.474874 
C -1.81853 3.131218 -0.928211 3.5 0 3.5 
z
" style="stroke: #0000ff"/>
    </defs>
    <g clip-path="url(#pa4c827c5d8)">
     <use xlink:href="#m87a603f711" x="63.342044" y="297.51893" style="fill: #0000ff; stroke: #0000ff"/>
     <use xlink:href="#m87a603f711" x="131.333605" y="279.666609" style="fill: #0000ff; stroke: #0000ff"/>
     <use xlink:href="#m87a603f711" x="199.325166" y="253.97921" style="fill: #0000ff; stroke: #0000ff"/>
     <use xlink:href="#m87a603f711" x="267.316727" y="219.501566" style="fill: #0000ff; stroke: #0000ff"/>
     <use xlink:href="#m87a603f711" x="335.308288" y="174.403824" style="fill: #0000ff; stroke: #0000ff"/>
     <use xlink:href="#m87a603f711" x="403.299849" y="112.64481" style="fill: #0000ff; stroke: #0000ff"/>
     <use xlink:href="#m87a603f711" x="471.29141" y="32.109899" style="fill: #0000ff; stroke: #0000ff"/>
    </g>
   </g>
   <g id="patch_3">
    <path d="M 80.67 281.04 
L 80.67 1 
" style="fill: none; stroke: #000000; stroke-width: 0.8; stroke-linejoin: miter; stroke-linecap: square"/>
   </g>
   <g id="patch_4">
    <path d="M 437.76 281.04 
L 437.76 1 
" style="fill: none; stroke: #000000; stroke-width: 0.8; stroke-linejoin: miter; stroke-linecap: square"/>
   </g>
   <g id="patch_5">
    <path d="M 80.67 281.04 
L 437.76 281.04 
" style="fill: none; stroke: #000000; stroke-width: 0.8; stroke-linejoin: miter; stroke-linecap: square"/>
   </g>
   <g id="patch_6">
    <path d="M 80.67 1 
L 437.76 1 
" style="fill: none; stroke: #000000; stroke-width: 0.8; stroke-linejoin: miter; stroke-linecap: square"/>
   </g>
   <g id="line2d_23">
    <path d="M 63.342044 211.22059 
L 131.333605 206.959089 
L 199.325166 201.204182 
L 267.316727 193.356282 
L 335.308288 183.088931 
L 403.299849 169.390742 
L 461.8 153.686264 
" clip-path="url(#pa4c827c5d8)" style="fill: none; stroke: #bf00bf; stroke-width: 3; stroke-linecap: square"/>
   </g>
   <g id="line2d_24">
    <path d="M 63.342044 249.056049 
L 131.333605 238.824516 
L 199.325166 224.69907 
L 267.316727 205.827193 
L 335.308288 180.960337 
L 403.299849 147.701197 
L 461.8 109.279754 
" clip-path="url(#pa4c827c5d8)" style="fill: none; stroke: #00bfbf; stroke-width: 3; stroke-linecap: square"/>
   </g>
   <g id="line2d_25">
    <path d="M 63.342044 266.279369 
L 131.333605 253.186814 
L 199.325166 235.283411 
L 267.316727 211.636828 
L 335.308288 180.368571 
L 403.299849 138.221835 
L 461.8 89.969359 
" clip-path="url(#pa4c827c5d8)" style="fill: none; stroke: #008000; stroke-width: 3; stroke-linecap: square"/>
   </g>
   <g id="line2d_26">
    <path d="M 63.342044 285.678396 
L 131.333605 269.145936 
L 199.325166 246.840499 
L 267.316727 216.864072 
L 335.308288 176.985952 
L 403.299849 123.746572 
L 461.8 62.220779 
" clip-path="url(#pa4c827c5d8)" style="fill: none; stroke: #ff0000; stroke-width: 3; stroke-linecap: square"/>
   </g>
   <g id="line2d_27">
    <path d="M 63.342044 297.51893 
L 131.333605 279.666609 
L 199.325166 253.97921 
L 267.316727 219.501566 
L 335.308288 174.403824 
L 403.299849 112.64481 
L 461.8 43.352322 
" clip-path="url(#pa4c827c5d8)" style="fill: none; stroke: #0000ff; stroke-width: 3; stroke-linecap: square"/>
   </g>
   <g id="text_11">
    <g id="patch_7">
     <path d="M 82.15545 34.534975 
L 125.210138 34.534975 
L 125.210138 4.9006 
L 82.15545 4.9006 
z
" style="fill: #ffffff; opacity: 0.85"/>
    </g>
    <!-- (b) -->
    <g transform="translate(82.45545 27.995913) scale(0.3 -0.3)">
     <defs>
      <path id="DejaVuSans-28" d="M 1984 4856 
Q 1566 4138 1362 3434 
Q 1159 2731 1159 2009 
Q 1159 1288 1364 580 
Q 1569 -128 1984 -844 
L 1484 -844 
Q 1016 -109 783 600 
Q 550 1309 550 2009 
Q 550 2706 781 3412 
Q 1013 4119 1484 4856 
L 1984 4856 
z
" transform="scale(0.015625)"/>
      <path id="DejaVuSans-62" d="M 3116 1747 
Q 3116 2381 2855 2742 
Q 2594 3103 2138 3103 
Q 1681 3103 1420 2742 
Q 1159 2381 1159 1747 
Q 1159 1113 1420 752 
Q 1681 391 2138 391 
Q 2594 391 2855 752 
Q 3116 1113 3116 1747 
z
M 1159 2969 
Q 1341 3281 1617 3432 
Q 1894 3584 2278 3584 
Q 2916 3584 3314 3078 
Q 3713 2572 3713 1747 
Q 3713 922 3314 415 
Q 2916 -91 2278 -91 
Q 1894 -91 1617 61 
Q 1341 213 1159 525 
L 1159 0 
L 581 0 
L 581 4863 
L 1159 4863 
L 1159 2969 
z
" transform="scale(0.015625)"/>
      <path id="DejaVuSans-29" d="M 513 4856 
L 1013 4856 
Q 1481 4119 1714 3412 
Q 1947 2706 1947 2009 
Q 1947 1309 1714 600 
Q 1481 -109 1013 -844 
L 513 -844 
Q 928 -128 1133 580 
Q 1338 1288 1338 2009 
Q 1338 2731 1133 3434 
Q 928 4138 513 4856 
z
" transform="scale(0.015625)"/>
     </defs>
     <use xlink:href="#DejaVuSans-28"/>
     <use xlink:href="#DejaVuSans-62" x="39.013672"/>
     <use xlink:href="#DejaVuSans-29" x="102.490234"/>
    </g>
   </g>
   <g id="PathCollection_1">
    <defs>
     <path id="mfe8e08f87b" d="M -9.354143 9.354143 
L 9.354143 -9.354143 
M -9.354143 -9.354143 
L 9.354143 9.354143 
" style="stroke: #000000; stroke-width: 8"/>
    </defs>
    <g clip-path="url(#pa4c827c5d8)">
     <use xlink:href="#mfe8e08f87b" x="305.042151" y="187.659396" style="stroke: #000000; stroke-width: 8"/>
    </g>
   </g>
   <g id="PathCollection_2">
    <g clip-path="url(#pa4c827c5d8)">
     <use xlink:href="#mfe8e08f87b" x="316.991559" y="187.659396" style="stroke: #000000; stroke-width: 8"/>
    </g>
   </g>
   <g id="PathCollection_3">
    <g clip-path="url(#pa4c827c5d8)">
     <use xlink:href="#mfe8e08f87b" x="319.454684" y="187.659396" style="stroke: #000000; stroke-width: 8"/>
    </g>
   </g>
   <g id="PathCollection_4">
    <g clip-path="url(#pa4c827c5d8)">
     <use xlink:href="#mfe8e08f87b" x="317.110236" y="187.659396" style="stroke: #000000; stroke-width: 8"/>
    </g>
   </g>
   <g id="PathCollection_5">
    <g clip-path="url(#pa4c827c5d8)">
     <use xlink:href="#mfe8e08f87b" x="315.323539" y="187.659396" style="stroke: #000000; stroke-width: 8"/>
    </g>
   </g>
   <g id="PathCollection_6">
    <g clip-path="url(#pa4c827c5d8)">
     <use xlink:href="#mfe8e08f87b" x="314.784434" y="187.659396" style="stroke: #000000; stroke-width: 8"/>
    </g>
   </g>
   <g id="PathCollection_7">
    <defs>
     <path id="m123ff9779d" d="M -7.905694 7.905694 
L 7.905694 -7.905694 
M -7.905694 -7.905694 
L 7.905694 7.905694 
" style="stroke: #bf00bf; stroke-width: 4"/>
    </defs>
    <g clip-path="url(#pa4c827c5d8)">
     <use xlink:href="#m123ff9779d" x="305.042151" y="187.659396" style="fill: #bf00bf; stroke: #bf00bf; stroke-width: 4"/>
    </g>
   </g>
   <g id="PathCollection_8">
    <defs>
     <path id="m79cb84ad61" d="M -7.905694 7.905694 
L 7.905694 -7.905694 
M -7.905694 -7.905694 
L 7.905694 7.905694 
" style="stroke: #00bfbf; stroke-width: 4"/>
    </defs>
    <g clip-path="url(#pa4c827c5d8)">
     <use xlink:href="#m79cb84ad61" x="316.991559" y="187.659396" style="fill: #00bfbf; stroke: #00bfbf; stroke-width: 4"/>
    </g>
   </g>
   <g id="PathCollection_9">
    <defs>
     <path id="m3a5019e53f" d="M -7.905694 7.905694 
L 7.905694 -7.905694 
M -7.905694 -7.905694 
L 7.905694 7.905694 
" style="stroke: #008000; stroke-width: 4"/>
    </defs>
    <g clip-path="url(#pa4c827c5d8)">
     <use xlink:href="#m3a5019e53f" x="319.454684" y="187.659396" style="fill: #008000; stroke: #008000; stroke-width: 4"/>
    </g>
   </g>
   <g id="PathCollection_10">
    <defs>
     <path id="m45cd0f3ce7" d="M -7.905694 7.905694 
L 7.905694 -7.905694 
M -7.905694 -7.905694 
L 7.905694 7.905694 
" style="stroke: #ff0000; stroke-width: 4"/>
    </defs>
    <g clip-path="url(#pa4c827c5d8)">
     <use xlink:href="#m45cd0f3ce7" x="317.110236" y="187.659396" style="fill: #ff0000; stroke: #ff0000; stroke-width: 4"/>
    </g>
   </g>
   <g id="PathCollection_11">
    <defs>
     <path id="m4f8093843a" d="M -7.905694 7.905694 
L 7.905694 -7.905694 
M -7.905694 -7.905694 
L 7.905694 7.905694 
" style="stroke: #0000ff; stroke-width: 4"/>
    </defs>
    <g clip-path="url(#pa4c827c5d8)">
     <use xlink:href="#m4f8093843a" x="315.323539" y="187.659396" style="fill: #0000ff; stroke: #0000ff; stroke-width: 4"/>
    </g>
   </g>
   <g id="legend_1">
    <g id="patch_8">
     <path d="M 150.425 106.675625 
L 368.005 106.675625 
Q 372.405 106.675625 372.405 102.275625 
L 372.405 16.4 
Q 372.405 12 368.005 12 
L 150.425 12 
Q 146.025 12 146.025 16.4 
L 146.025 102.275625 
Q 146.025 106.675625 150.425 106.675625 
z
" style="fill: #ffffff; opacity: 0.8; stroke: #cccccc; stroke-linejoin: miter"/>
    </g>
    <g id="line2d_28">
     <path d="M 150.425 25.416563 
L 158.125 25.416563 
L 165.825 25.416563 
" style="fill: none; stroke: #bf00bf; stroke-width: 3; stroke-linecap: square"/>
    </g>
    <g id="text_12">
     <!-- $I=$20% -->
     <g transform="translate(168.025 33.116563) scale(0.22 -0.22)">
      <defs>
       <path id="DejaVuSans-Oblique-49" d="M 1081 4666 
L 1716 4666 
L 806 0 
L 172 0 
L 1081 4666 
z
" transform="scale(0.015625)"/>
       <path id="DejaVuSans-3d" d="M 678 2906 
L 4684 2906 
L 4684 2381 
L 678 2381 
L 678 2906 
z
M 678 1631 
L 4684 1631 
L 4684 1100 
L 678 1100 
L 678 1631 
z
" transform="scale(0.015625)"/>
       <path id="DejaVuSans-25" d="M 4653 2053 
Q 4381 2053 4226 1822 
Q 4072 1591 4072 1178 
Q 4072 772 4226 539 
Q 4381 306 4653 306 
Q 4919 306 5073 539 
Q 5228 772 5228 1178 
Q 5228 1588 5073 1820 
Q 4919 2053 4653 2053 
z
M 4653 2450 
Q 5147 2450 5437 2106 
Q 5728 1763 5728 1178 
Q 5728 594 5436 251 
Q 5144 -91 4653 -91 
Q 4153 -91 3862 251 
Q 3572 594 3572 1178 
Q 3572 1766 3864 2108 
Q 4156 2450 4653 2450 
z
M 1428 4353 
Q 1159 4353 1004 4120 
Q 850 3888 850 3481 
Q 850 3069 1003 2837 
Q 1156 2606 1428 2606 
Q 1700 2606 1854 2837 
Q 2009 3069 2009 3481 
Q 2009 3884 1853 4118 
Q 1697 4353 1428 4353 
z
M 4250 4750 
L 4750 4750 
L 1831 -91 
L 1331 -91 
L 4250 4750 
z
M 1428 4750 
Q 1922 4750 2215 4408 
Q 2509 4066 2509 3481 
Q 2509 2891 2217 2550 
Q 1925 2209 1428 2209 
Q 931 2209 642 2551 
Q 353 2894 353 3481 
Q 353 4063 643 4406 
Q 934 4750 1428 4750 
z
" transform="scale(0.015625)"/>
      </defs>
      <use xlink:href="#DejaVuSans-Oblique-49" transform="translate(0 0.78125)"/>
      <use xlink:href="#DejaVuSans-3d" transform="translate(48.974609 0.78125)"/>
      <use xlink:href="#DejaVuSans-32" transform="translate(152.246094 0.78125)"/>
      <use xlink:href="#DejaVuSans-30" transform="translate(215.869141 0.78125)"/>
      <use xlink:href="#DejaVuSans-25" transform="translate(279.492188 0.78125)"/>
     </g>
    </g>
    <g id="line2d_29">
     <path d="M 150.425 57.708438 
L 158.125 57.708438 
L 165.825 57.708438 
" style="fill: none; stroke: #00bfbf; stroke-width: 3; stroke-linecap: square"/>
    </g>
    <g id="text_13">
     <!-- $I=$40% -->
     <g transform="translate(168.025 65.408438) scale(0.22 -0.22)">
      <use xlink:href="#DejaVuSans-Oblique-49" transform="translate(0 0.78125)"/>
      <use xlink:href="#DejaVuSans-3d" transform="translate(48.974609 0.78125)"/>
      <use xlink:href="#DejaVuSans-34" transform="translate(152.246094 0.78125)"/>
      <use xlink:href="#DejaVuSans-30" transform="translate(215.869141 0.78125)"/>
      <use xlink:href="#DejaVuSans-25" transform="translate(279.492188 0.78125)"/>
     </g>
    </g>
    <g id="line2d_30">
     <path d="M 150.425 90.000313 
L 158.125 90.000313 
L 165.825 90.000313 
" style="fill: none; stroke: #008000; stroke-width: 3; stroke-linecap: square"/>
    </g>
    <g id="text_14">
     <!-- $I=$60% -->
     <g transform="translate(168.025 97.700313) scale(0.22 -0.22)">
      <use xlink:href="#DejaVuSans-Oblique-49" transform="translate(0 0.78125)"/>
      <use xlink:href="#DejaVuSans-3d" transform="translate(48.974609 0.78125)"/>
      <use xlink:href="#DejaVuSans-36" transform="translate(152.246094 0.78125)"/>
      <use xlink:href="#DejaVuSans-30" transform="translate(215.869141 0.78125)"/>
      <use xlink:href="#DejaVuSans-25" transform="translate(279.492188 0.78125)"/>
     </g>
    </g>
    <g id="line2d_31">
     <path d="M 253.825 25.416563 
L 261.525 25.416563 
L 269.225 25.416563 
" style="fill: none; stroke: #ff0000; stroke-width: 3; stroke-linecap: square"/>
    </g>
    <g id="text_15">
     <!-- $I=$80% -->
     <g transform="translate(271.425 33.116563) scale(0.22 -0.22)">
      <defs>
       <path id="DejaVuSans-38" d="M 2034 2216 
Q 1584 2216 1326 1975 
Q 1069 1734 1069 1313 
Q 1069 891 1326 650 
Q 1584 409 2034 409 
Q 2484 409 2743 651 
Q 3003 894 3003 1313 
Q 3003 1734 2745 1975 
Q 2488 2216 2034 2216 
z
M 1403 2484 
Q 997 2584 770 2862 
Q 544 3141 544 3541 
Q 544 4100 942 4425 
Q 1341 4750 2034 4750 
Q 2731 4750 3128 4425 
Q 3525 4100 3525 3541 
Q 3525 3141 3298 2862 
Q 3072 2584 2669 2484 
Q 3125 2378 3379 2068 
Q 3634 1759 3634 1313 
Q 3634 634 3220 271 
Q 2806 -91 2034 -91 
Q 1263 -91 848 271 
Q 434 634 434 1313 
Q 434 1759 690 2068 
Q 947 2378 1403 2484 
z
M 1172 3481 
Q 1172 3119 1398 2916 
Q 1625 2713 2034 2713 
Q 2441 2713 2670 2916 
Q 2900 3119 2900 3481 
Q 2900 3844 2670 4047 
Q 2441 4250 2034 4250 
Q 1625 4250 1398 4047 
Q 1172 3844 1172 3481 
z
" transform="scale(0.015625)"/>
      </defs>
      <use xlink:href="#DejaVuSans-Oblique-49" transform="translate(0 0.78125)"/>
      <use xlink:href="#DejaVuSans-3d" transform="translate(48.974609 0.78125)"/>
      <use xlink:href="#DejaVuSans-38" transform="translate(152.246094 0.78125)"/>
      <use xlink:href="#DejaVuSans-30" transform="translate(215.869141 0.78125)"/>
      <use xlink:href="#DejaVuSans-25" transform="translate(279.492188 0.78125)"/>
     </g>
    </g>
    <g id="line2d_32">
     <path d="M 253.825 57.708438 
L 261.525 57.708438 
L 269.225 57.708438 
" style="fill: none; stroke: #0000ff; stroke-width: 3; stroke-linecap: square"/>
    </g>
    <g id="text_16">
     <!-- $I=$100% -->
     <g transform="translate(271.425 65.408438) scale(0.22 -0.22)">
      <use xlink:href="#DejaVuSans-Oblique-49" transform="translate(0 0.78125)"/>
      <use xlink:href="#DejaVuSans-3d" transform="translate(48.974609 0.78125)"/>
      <use xlink:href="#DejaVuSans-31" transform="translate(152.246094 0.78125)"/>
      <use xlink:href="#DejaVuSans-30" transform="translate(215.869141 0.78125)"/>
      <use xlink:href="#DejaVuSans-30" transform="translate(279.492188 0.78125)"/>
      <use xlink:href="#DejaVuSans-25" transform="translate(343.115234 0.78125)"/>
     </g>
    </g>
   </g>
  </g>
 </g>
 <defs>
  <clipPath id="pa4c827c5d8">
   <rect x="80.67" y="1" width="357.09" height="280.04"/>
  </clipPath>
 </defs>
</svg>
