<?xml version="1.0" encoding="utf-8" standalone="no"?>
<!DOCTYPE svg PUBLIC "-//W3C//DTD SVG 1.1//EN"
  "http://www.w3.org/Graphics/SVG/1.1/DTD/svg11.dtd">
<svg xmlns:xlink="http://www.w3.org/1999/xlink" width="460.8pt" height="345.6pt" viewBox="0 0 460.8 345.6" xmlns="http://www.w3.org/2000/svg" version="1.1">
 <metadata>
  <rdf:RDF xmlns:dc="http://purl.org/dc/elements/1.1/" xmlns:cc="http://creativecommons.org/ns#" xmlns:rdf="http://www.w3.org/1999/02/22-rdf-syntax-ns#">
   <cc:Work>
    <dc:type rdf:resource="http://purl.org/dc/dcmitype/StillImage"/>
    <dc:date>2024-03-24T16:38:13.584809</dc:date>
    <dc:format>image/svg+xml</dc:format>
    <dc:creator>
     <cc:Agent>
      <dc:title>Matplotlib v3.8.3, https://matplotlib.org/</dc:title>
     </cc:Agent>
    </dc:creator>
   </cc:Work>
  </rdf:RDF>
 </metadata>
 <defs>
  <style type="text/css">*{stroke-linejoin: round; stroke-linecap: butt}</style>
 </defs>
 <g id="figure_1">
  <g id="patch_1">
   <path d="M 0 345.6 
L 460.8 345.6 
L 460.8 0 
L 0 0 
z
" style="fill: #ffffff"/>
  </g>
  <g id="axes_1">
   <g id="patch_2">
    <path d="M 50.688 300.672 
L 451.584 300.672 
L 451.584 27.648 
L 50.688 27.648 
z
" style="fill: #ffffff"/>
   </g>
   <g id="matplotlib.axis_1">
    <g id="xtick_1">
     <g id="line2d_1">
      <path d="M 113.987368 300.672 
L 113.987368 27.648 
" clip-path="url(#pc6fc649d74)" style="fill: none; stroke: #b0b0b0; stroke-width: 0.8; stroke-linecap: square"/>
     </g>
     <g id="line2d_2">
      <defs>
       <path id="md2e99a6c08" d="M 0 0 
L 0 3.5 
" style="stroke: #000000; stroke-width: 0.8"/>
      </defs>
      <g>
       <use xlink:href="#md2e99a6c08" x="113.987368" y="300.672" style="stroke: #000000; stroke-width: 0.8"/>
      </g>
     </g>
     <g id="text_1">
      <!-- $\mathdefault{4}$ -->
      <g transform="translate(110.32925 318.049725) scale(0.15 -0.15)">
       <defs>
        <path id="CMR17-34" d="M 2150 4122 
C 2150 4256 2144 4256 2029 4256 
L 128 1254 
L 128 1088 
L 1779 1088 
L 1779 457 
C 1779 224 1766 160 1318 160 
L 1197 160 
L 1197 0 
C 1402 0 1747 0 1965 0 
C 2182 0 2528 0 2733 0 
L 2733 160 
L 2611 160 
C 2163 160 2150 224 2150 457 
L 2150 1088 
L 2803 1088 
L 2803 1254 
L 2150 1254 
L 2150 4122 
z
M 1798 3703 
L 1798 1254 
L 256 1254 
L 1798 3703 
z
" transform="scale(0.015625)"/>
       </defs>
       <use xlink:href="#CMR17-34" transform="scale(0.996264)"/>
      </g>
     </g>
    </g>
    <g id="xtick_2">
     <g id="line2d_3">
      <path d="M 198.386526 300.672 
L 198.386526 27.648 
" clip-path="url(#pc6fc649d74)" style="fill: none; stroke: #b0b0b0; stroke-width: 0.8; stroke-linecap: square"/>
     </g>
     <g id="line2d_4">
      <g>
       <use xlink:href="#md2e99a6c08" x="198.386526" y="300.672" style="stroke: #000000; stroke-width: 0.8"/>
      </g>
     </g>
     <g id="text_2">
      <!-- $\mathdefault{6}$ -->
      <g transform="translate(194.728407 318.049725) scale(0.15 -0.15)">
       <defs>
        <path id="CMR17-36" d="M 678 2176 
C 678 3690 1395 4032 1811 4032 
C 1946 4032 2272 4009 2400 3776 
C 2298 3776 2106 3776 2106 3553 
C 2106 3381 2246 3323 2336 3323 
C 2394 3323 2566 3348 2566 3560 
C 2566 3954 2246 4179 1805 4179 
C 1043 4179 243 3390 243 1984 
C 243 253 966 -128 1478 -128 
C 2099 -128 2688 427 2688 1283 
C 2688 2081 2170 2662 1517 2662 
C 1126 2662 838 2407 678 1960 
L 678 2176 
z
M 1478 25 
C 691 25 691 1200 691 1436 
C 691 1896 909 2560 1504 2560 
C 1613 2560 1926 2560 2138 2120 
C 2253 1870 2253 1609 2253 1289 
C 2253 944 2253 690 2118 434 
C 1978 171 1773 25 1478 25 
z
" transform="scale(0.015625)"/>
       </defs>
       <use xlink:href="#CMR17-36" transform="scale(0.996264)"/>
      </g>
     </g>
    </g>
    <g id="xtick_3">
     <g id="line2d_5">
      <path d="M 282.785684 300.672 
L 282.785684 27.648 
" clip-path="url(#pc6fc649d74)" style="fill: none; stroke: #b0b0b0; stroke-width: 0.8; stroke-linecap: square"/>
     </g>
     <g id="line2d_6">
      <g>
       <use xlink:href="#md2e99a6c08" x="282.785684" y="300.672" style="stroke: #000000; stroke-width: 0.8"/>
      </g>
     </g>
     <g id="text_3">
      <!-- $\mathdefault{8}$ -->
      <g transform="translate(279.127565 318.049725) scale(0.15 -0.15)">
       <defs>
        <path id="CMR17-38" d="M 1741 2264 
C 2144 2467 2554 2773 2554 3263 
C 2554 3841 1990 4179 1472 4179 
C 890 4179 378 3759 378 3180 
C 378 3021 416 2747 666 2505 
C 730 2442 998 2251 1171 2130 
C 883 1983 211 1634 211 934 
C 211 279 838 -128 1459 -128 
C 2144 -128 2720 362 2720 1010 
C 2720 1590 2330 1857 2074 2029 
L 1741 2264 
z
M 902 2822 
C 851 2854 595 3051 595 3351 
C 595 3739 998 4032 1459 4032 
C 1965 4032 2336 3676 2336 3262 
C 2336 2669 1670 2331 1638 2331 
C 1632 2331 1626 2331 1574 2370 
L 902 2822 
z
M 2080 1519 
C 2176 1449 2483 1240 2483 851 
C 2483 381 2010 25 1472 25 
C 890 25 448 438 448 940 
C 448 1443 838 1862 1280 2060 
L 2080 1519 
z
" transform="scale(0.015625)"/>
       </defs>
       <use xlink:href="#CMR17-38" transform="scale(0.996264)"/>
      </g>
     </g>
    </g>
    <g id="xtick_4">
     <g id="line2d_7">
      <path d="M 367.184842 300.672 
L 367.184842 27.648 
" clip-path="url(#pc6fc649d74)" style="fill: none; stroke: #b0b0b0; stroke-width: 0.8; stroke-linecap: square"/>
     </g>
     <g id="line2d_8">
      <g>
       <use xlink:href="#md2e99a6c08" x="367.184842" y="300.672" style="stroke: #000000; stroke-width: 0.8"/>
      </g>
     </g>
     <g id="text_4">
      <!-- $\mathdefault{10}$ -->
      <g transform="translate(359.868604 318.049725) scale(0.15 -0.15)">
       <defs>
        <path id="CMR17-31" d="M 1702 4058 
C 1702 4192 1696 4192 1606 4192 
C 1357 3916 979 3827 621 3827 
C 602 3827 570 3827 563 3808 
C 557 3795 557 3782 557 3648 
C 755 3648 1088 3686 1344 3839 
L 1344 461 
C 1344 236 1331 160 781 160 
L 589 160 
L 589 0 
C 896 0 1216 0 1523 0 
C 1830 0 2150 0 2458 0 
L 2458 160 
L 2266 160 
C 1715 160 1702 230 1702 458 
L 1702 4058 
z
" transform="scale(0.015625)"/>
        <path id="CMR17-30" d="M 2688 2025 
C 2688 2416 2682 3080 2413 3591 
C 2176 4039 1798 4198 1466 4198 
C 1158 4198 768 4058 525 3597 
C 269 3118 243 2524 243 2025 
C 243 1661 250 1106 448 619 
C 723 -39 1216 -128 1466 -128 
C 1760 -128 2208 -7 2470 600 
C 2662 1042 2688 1559 2688 2025 
z
M 1466 -26 
C 1056 -26 813 325 723 812 
C 653 1188 653 1738 653 2096 
C 653 2588 653 2997 736 3387 
C 858 3929 1216 4096 1466 4096 
C 1728 4096 2067 3923 2189 3400 
C 2272 3036 2278 2607 2278 2096 
C 2278 1680 2278 1169 2202 792 
C 2067 95 1690 -26 1466 -26 
z
" transform="scale(0.015625)"/>
       </defs>
       <use xlink:href="#CMR17-31" transform="scale(0.996264)"/>
       <use xlink:href="#CMR17-30" transform="translate(45.690477 0) scale(0.996264)"/>
      </g>
     </g>
    </g>
    <g id="xtick_5">
     <g id="line2d_9">
      <path d="M 451.584 300.672 
L 451.584 27.648 
" clip-path="url(#pc6fc649d74)" style="fill: none; stroke: #b0b0b0; stroke-width: 0.8; stroke-linecap: square"/>
     </g>
     <g id="line2d_10">
      <g>
       <use xlink:href="#md2e99a6c08" x="451.584" y="300.672" style="stroke: #000000; stroke-width: 0.8"/>
      </g>
     </g>
     <g id="text_5">
      <!-- $\mathdefault{12}$ -->
      <g transform="translate(444.267762 318.049725) scale(0.15 -0.15)">
       <defs>
        <path id="CMR17-32" d="M 2669 989 
L 2554 989 
C 2490 536 2438 459 2413 420 
C 2381 369 1920 369 1830 369 
L 602 369 
C 832 619 1280 1072 1824 1597 
C 2214 1967 2669 2402 2669 3035 
C 2669 3790 2067 4224 1395 4224 
C 691 4224 262 3604 262 3030 
C 262 2780 448 2748 525 2748 
C 589 2748 781 2787 781 3010 
C 781 3207 614 3264 525 3264 
C 486 3264 448 3258 422 3245 
C 544 3790 915 4058 1306 4058 
C 1862 4058 2227 3617 2227 3035 
C 2227 2479 1901 2000 1536 1584 
L 262 146 
L 262 0 
L 2515 0 
L 2669 989 
z
" transform="scale(0.015625)"/>
       </defs>
       <use xlink:href="#CMR17-31" transform="scale(0.996264)"/>
       <use xlink:href="#CMR17-32" transform="translate(45.690477 0) scale(0.996264)"/>
      </g>
     </g>
    </g>
    <g id="text_6">
     <!-- $\beta$ ($^{\circ}$) -->
     <g transform="translate(233.237885 338.388889) scale(0.18 -0.18)">
      <defs>
       <path id="CMMI12-c" d="M 3622 3701 
C 3622 4081 3296 4480 2714 4480 
C 1888 4480 1363 3477 1197 2816 
L 186 -1172 
C 173 -1223 211 -1236 243 -1236 
C 288 -1236 320 -1230 326 -1198 
L 774 586 
C 838 229 1190 -64 1568 -64 
C 2483 -64 3347 650 3347 1599 
C 3347 1841 3290 2083 3155 2287 
C 3078 2408 2982 2497 2880 2574 
C 3341 2815 3622 3200 3622 3701 
z
M 2509 2580 
C 2406 2542 2304 2529 2182 2529 
C 2093 2529 2010 2523 1894 2561 
C 1958 2606 2054 2618 2189 2618 
C 2304 2618 2419 2606 2509 2580 
z
M 3290 3758 
C 3290 3410 3117 2903 2701 2669 
C 2579 2718 2413 2752 2272 2752 
C 2138 2752 1754 2752 1754 2555 
C 1754 2389 2106 2389 2214 2389 
C 2381 2389 2528 2432 2682 2484 
C 2886 2318 2976 2101 2976 1783 
C 2976 1413 2874 1115 2752 841 
C 2541 369 2042 64 1600 64 
C 1133 64 890 432 890 864 
C 890 922 890 1005 915 1099 
L 1331 2771 
C 1542 3603 2080 4353 2701 4353 
C 3162 4353 3290 4036 3290 3758 
z
" transform="scale(0.015625)"/>
       <path id="CMR17-28" d="M 1958 -1561 
C 1958 -1555 1958 -1542 1939 -1523 
C 1645 -1224 858 -407 858 1581 
C 858 3569 1632 4379 1946 4697 
C 1946 4704 1958 4717 1958 4736 
C 1958 4755 1939 4768 1914 4768 
C 1843 4768 1299 4296 986 3594 
C 666 2887 576 2199 576 1588 
C 576 1128 621 351 1005 -471 
C 1312 -1135 1837 -1600 1914 -1600 
C 1946 -1600 1958 -1587 1958 -1561 
z
" transform="scale(0.015625)"/>
       <path id="CMSY10-e" d="M 2842 1600 
C 2842 2277 2272 2828 1600 2828 
C 909 2828 352 2264 352 1600 
C 352 930 909 372 1600 372 
C 2272 372 2842 923 2842 1600 
z
M 1600 628 
C 1043 628 608 1070 608 1600 
C 608 2130 1050 2572 1600 2572 
C 2131 2572 2586 2142 2586 1600 
C 2586 1058 2131 628 1600 628 
z
" transform="scale(0.015625)"/>
       <path id="CMR17-29" d="M 1683 1581 
C 1683 2040 1638 2817 1254 3639 
C 947 4303 422 4768 346 4768 
C 326 4768 301 4761 301 4729 
C 301 4717 307 4710 314 4697 
C 621 4378 1402 3568 1402 1584 
C 1402 -407 627 -1217 314 -1537 
C 307 -1549 301 -1556 301 -1568 
C 301 -1600 326 -1600 346 -1600 
C 416 -1600 960 -1128 1274 -426 
C 1594 281 1683 969 1683 1581 
z
" transform="scale(0.015625)"/>
      </defs>
      <use xlink:href="#CMMI12-c" transform="scale(0.996264)"/>
      <use xlink:href="#CMR17-28" transform="translate(90.669982 0) scale(0.996264)"/>
      <use xlink:href="#CMSY10-e" transform="translate(125.95075 36.153639) scale(0.697382)"/>
      <use xlink:href="#CMR17-29" transform="translate(161.318092 0) scale(0.996264)"/>
     </g>
    </g>
   </g>
   <g id="matplotlib.axis_2">
    <g id="ytick_1">
     <g id="line2d_11">
      <path d="M 50.688 300.672 
L 451.584 300.672 
" clip-path="url(#pc6fc649d74)" style="fill: none; stroke: #b0b0b0; stroke-width: 0.8; stroke-linecap: square"/>
     </g>
     <g id="line2d_12">
      <defs>
       <path id="mb5b977b7b9" d="M 0 0 
L -3.5 0 
" style="stroke: #000000; stroke-width: 0.8"/>
      </defs>
      <g>
       <use xlink:href="#mb5b977b7b9" x="50.688" y="300.672" style="stroke: #000000; stroke-width: 0.8"/>
      </g>
     </g>
     <g id="text_7">
      <!-- $\mathdefault{0.0}$ -->
      <g transform="translate(24.990948 305.860862) scale(0.15 -0.15)">
       <defs>
        <path id="CMMI12-3a" d="M 1178 307 
C 1178 492 1024 619 870 619 
C 685 619 557 466 557 313 
C 557 128 710 0 864 0 
C 1050 0 1178 153 1178 307 
z
" transform="scale(0.015625)"/>
       </defs>
       <use xlink:href="#CMR17-30" transform="scale(0.996264)"/>
       <use xlink:href="#CMMI12-3a" transform="translate(45.690477 0) scale(0.996264)"/>
       <use xlink:href="#CMR17-30" transform="translate(72.787654 0) scale(0.996264)"/>
      </g>
     </g>
    </g>
    <g id="ytick_2">
     <g id="line2d_13">
      <path d="M 50.688 246.0672 
L 451.584 246.0672 
" clip-path="url(#pc6fc649d74)" style="fill: none; stroke: #b0b0b0; stroke-width: 0.8; stroke-linecap: square"/>
     </g>
     <g id="line2d_14">
      <g>
       <use xlink:href="#mb5b977b7b9" x="50.688" y="246.0672" style="stroke: #000000; stroke-width: 0.8"/>
      </g>
     </g>
     <g id="text_8">
      <!-- $\mathdefault{0.5}$ -->
      <g transform="translate(24.990948 251.256062) scale(0.15 -0.15)">
       <defs>
        <path id="CMR17-35" d="M 730 3692 
C 794 3666 1056 3584 1325 3584 
C 1920 3584 2246 3911 2432 4100 
C 2432 4157 2432 4192 2394 4192 
C 2387 4192 2374 4192 2323 4163 
C 2099 4058 1837 3973 1517 3973 
C 1325 3973 1037 3999 723 4139 
C 653 4171 640 4171 634 4171 
C 602 4171 595 4164 595 4037 
L 595 2203 
C 595 2089 595 2057 659 2057 
C 691 2057 704 2070 736 2114 
C 941 2401 1222 2522 1542 2522 
C 1766 2522 2246 2382 2246 1289 
C 2246 1085 2246 715 2054 421 
C 1894 159 1645 25 1370 25 
C 947 25 518 320 403 814 
C 429 807 480 795 506 795 
C 589 795 749 840 749 1038 
C 749 1210 627 1280 506 1280 
C 358 1280 262 1190 262 1011 
C 262 454 704 -128 1382 -128 
C 2042 -128 2669 440 2669 1264 
C 2669 2030 2170 2624 1549 2624 
C 1222 2624 947 2503 730 2274 
L 730 3692 
z
" transform="scale(0.015625)"/>
       </defs>
       <use xlink:href="#CMR17-30" transform="scale(0.996264)"/>
       <use xlink:href="#CMMI12-3a" transform="translate(45.690477 0) scale(0.996264)"/>
       <use xlink:href="#CMR17-35" transform="translate(72.787654 0) scale(0.996264)"/>
      </g>
     </g>
    </g>
    <g id="ytick_3">
     <g id="line2d_15">
      <path d="M 50.688 191.4624 
L 451.584 191.4624 
" clip-path="url(#pc6fc649d74)" style="fill: none; stroke: #b0b0b0; stroke-width: 0.8; stroke-linecap: square"/>
     </g>
     <g id="line2d_16">
      <g>
       <use xlink:href="#mb5b977b7b9" x="50.688" y="191.4624" style="stroke: #000000; stroke-width: 0.8"/>
      </g>
     </g>
     <g id="text_9">
      <!-- $\mathdefault{1.0}$ -->
      <g transform="translate(24.990948 196.651262) scale(0.15 -0.15)">
       <use xlink:href="#CMR17-31" transform="scale(0.996264)"/>
       <use xlink:href="#CMMI12-3a" transform="translate(45.690477 0) scale(0.996264)"/>
       <use xlink:href="#CMR17-30" transform="translate(72.787654 0) scale(0.996264)"/>
      </g>
     </g>
    </g>
    <g id="ytick_4">
     <g id="line2d_17">
      <path d="M 50.688 136.8576 
L 451.584 136.8576 
" clip-path="url(#pc6fc649d74)" style="fill: none; stroke: #b0b0b0; stroke-width: 0.8; stroke-linecap: square"/>
     </g>
     <g id="line2d_18">
      <g>
       <use xlink:href="#mb5b977b7b9" x="50.688" y="136.8576" style="stroke: #000000; stroke-width: 0.8"/>
      </g>
     </g>
     <g id="text_10">
      <!-- $\mathdefault{1.5}$ -->
      <g transform="translate(24.990948 142.046462) scale(0.15 -0.15)">
       <use xlink:href="#CMR17-31" transform="scale(0.996264)"/>
       <use xlink:href="#CMMI12-3a" transform="translate(45.690477 0) scale(0.996264)"/>
       <use xlink:href="#CMR17-35" transform="translate(72.787654 0) scale(0.996264)"/>
      </g>
     </g>
    </g>
    <g id="ytick_5">
     <g id="line2d_19">
      <path d="M 50.688 82.2528 
L 451.584 82.2528 
" clip-path="url(#pc6fc649d74)" style="fill: none; stroke: #b0b0b0; stroke-width: 0.8; stroke-linecap: square"/>
     </g>
     <g id="line2d_20">
      <g>
       <use xlink:href="#mb5b977b7b9" x="50.688" y="82.2528" style="stroke: #000000; stroke-width: 0.8"/>
      </g>
     </g>
     <g id="text_11">
      <!-- $\mathdefault{2.0}$ -->
      <g transform="translate(24.990948 87.441662) scale(0.15 -0.15)">
       <use xlink:href="#CMR17-32" transform="scale(0.996264)"/>
       <use xlink:href="#CMMI12-3a" transform="translate(45.690477 0) scale(0.996264)"/>
       <use xlink:href="#CMR17-30" transform="translate(72.787654 0) scale(0.996264)"/>
      </g>
     </g>
    </g>
    <g id="ytick_6">
     <g id="line2d_21">
      <path d="M 50.688 27.648 
L 451.584 27.648 
" clip-path="url(#pc6fc649d74)" style="fill: none; stroke: #b0b0b0; stroke-width: 0.8; stroke-linecap: square"/>
     </g>
     <g id="line2d_22">
      <g>
       <use xlink:href="#mb5b977b7b9" x="50.688" y="27.648" style="stroke: #000000; stroke-width: 0.8"/>
      </g>
     </g>
     <g id="text_12">
      <!-- $\mathdefault{2.5}$ -->
      <g transform="translate(24.990948 32.836862) scale(0.15 -0.15)">
       <use xlink:href="#CMR17-32" transform="scale(0.996264)"/>
       <use xlink:href="#CMMI12-3a" transform="translate(45.690477 0) scale(0.996264)"/>
       <use xlink:href="#CMR17-35" transform="translate(72.787654 0) scale(0.996264)"/>
      </g>
     </g>
    </g>
    <g id="text_13">
     <!-- $I$ ($10^3$/s) -->
     <g transform="translate(16.522764 196.674864) rotate(-90) scale(0.18 -0.18)">
      <defs>
       <path id="CMMI12-49" d="M 2355 3880 
C 2413 4103 2426 4167 2893 4167 
C 3034 4167 3085 4167 3085 4288 
C 3085 4352 3014 4352 2995 4352 
C 2880 4352 2739 4352 2624 4352 
L 1837 4352 
C 1709 4352 1562 4352 1434 4352 
C 1382 4352 1312 4352 1312 4231 
C 1312 4167 1363 4167 1491 4167 
C 1888 4167 1888 4116 1888 4046 
C 1888 4002 1875 3963 1862 3906 
L 998 472 
C 941 249 928 185 461 185 
C 320 185 262 185 262 64 
C 262 0 326 0 358 0 
C 474 0 614 0 730 0 
L 1517 0 
C 1645 0 1786 0 1914 0 
C 1965 0 2042 0 2042 115 
C 2042 185 2003 185 1862 185 
C 1466 185 1466 236 1466 312 
C 1466 325 1466 357 1491 459 
L 2355 3880 
z
" transform="scale(0.015625)"/>
       <path id="CMR17-33" d="M 1414 2157 
C 1984 2157 2234 1662 2234 1090 
C 2234 320 1824 25 1453 25 
C 1114 25 563 194 390 693 
C 422 680 454 680 486 680 
C 640 680 755 782 755 948 
C 755 1133 614 1216 486 1216 
C 378 1216 211 1165 211 926 
C 211 335 787 -128 1466 -128 
C 2176 -128 2720 430 2720 1085 
C 2720 1707 2208 2157 1600 2227 
C 2086 2328 2554 2756 2554 3329 
C 2554 3820 2048 4179 1472 4179 
C 890 4179 378 3829 378 3329 
C 378 3110 544 3072 627 3072 
C 762 3072 877 3155 877 3321 
C 877 3486 762 3569 627 3569 
C 602 3569 570 3569 544 3557 
C 730 3959 1235 4032 1459 4032 
C 1683 4032 2106 3925 2106 3320 
C 2106 3143 2080 2828 1862 2550 
C 1670 2304 1453 2304 1242 2284 
C 1210 2284 1062 2269 1037 2269 
C 992 2263 966 2257 966 2208 
C 966 2163 973 2157 1101 2157 
L 1414 2157 
z
" transform="scale(0.015625)"/>
       <path id="CMR17-2f" d="M 2605 4545 
C 2637 4627 2637 4640 2637 4653 
C 2637 4729 2579 4768 2528 4768 
C 2451 4768 2426 4717 2400 4640 
L 326 -1377 
C 294 -1460 294 -1473 294 -1486 
C 294 -1562 352 -1600 403 -1600 
C 480 -1600 506 -1549 531 -1473 
L 2605 4545 
z
" transform="scale(0.015625)"/>
       <path id="CMR17-73" d="M 1978 2697 
C 1978 2813 1971 2819 1933 2819 
C 1907 2819 1901 2813 1824 2717 
C 1805 2691 1747 2626 1728 2601 
C 1523 2819 1235 2819 1126 2819 
C 416 2819 160 2447 160 2076 
C 160 1498 813 1365 998 1325 
C 1402 1243 1542 1217 1677 1101 
C 1760 1025 1901 884 1901 654 
C 1901 384 1747 38 1158 38 
C 602 38 403 460 288 1021 
C 269 1110 269 1117 218 1117 
C 166 1117 160 1110 160 983 
L 160 63 
C 160 -51 166 -58 205 -58 
C 237 -58 243 -51 275 0 
C 314 57 410 211 448 276 
C 576 103 800 -64 1158 -64 
C 1792 -64 2131 283 2131 784 
C 2131 1112 1958 1285 1875 1362 
C 1683 1561 1459 1606 1190 1657 
C 838 1735 390 1825 390 2217 
C 390 2383 480 2737 1126 2737 
C 1811 2737 1850 2094 1862 1888 
C 1869 1856 1901 1849 1920 1849 
C 1978 1849 1978 1869 1978 1978 
L 1978 2697 
z
" transform="scale(0.015625)"/>
      </defs>
      <use xlink:href="#CMMI12-49" transform="scale(0.996264)"/>
      <use xlink:href="#CMR17-28" transform="translate(80.93248 0) scale(0.996264)"/>
      <use xlink:href="#CMR17-31" transform="translate(116.213248 0) scale(0.996264)"/>
      <use xlink:href="#CMR17-30" transform="translate(161.903725 0) scale(0.996264)"/>
      <use xlink:href="#CMR17-33" transform="translate(207.594202 36.153639) scale(0.697382)"/>
      <use xlink:href="#CMR17-2f" transform="translate(240.075516 0) scale(0.996264)"/>
      <use xlink:href="#CMR17-73" transform="translate(285.765993 0) scale(0.996264)"/>
      <use xlink:href="#CMR17-29" transform="translate(321.567331 0) scale(0.996264)"/>
     </g>
    </g>
   </g>
   <g id="line2d_23">
    <path d="M 50.688 300.016742 
L 54.907958 300.016742 
L 59.127916 299.940296 
L 63.347874 299.940296 
L 67.567832 300.016742 
L 71.787789 299.87477 
L 76.007747 299.437932 
L 80.227705 298.192942 
L 84.447663 295.615596 
L 88.667621 282.728863 
L 92.887579 257.348552 
L 97.107537 228.735636 
L 101.327495 204.534789 
L 105.547453 189.900703 
L 109.767411 183.129708 
L 113.987368 174.938988 
L 118.207326 166.78103 
L 122.427284 165.437752 
L 126.647242 163.865134 
L 130.8672 163.613952 
L 135.087158 165.721697 
L 139.307116 165.503278 
L 143.527074 170.242975 
L 147.747032 170.679813 
L 151.966989 177.625544 
L 156.186947 179.667763 
L 160.406905 181.961165 
L 164.626863 186.657178 
L 168.846821 190.730696 
L 173.066779 197.250509 
L 177.286737 203.366246 
L 181.506695 205.517676 
L 185.726653 210.213688 
L 189.946611 218.688353 
L 194.166568 219.824133 
L 198.386526 224.443699 
L 202.606484 226.627891 
L 206.826442 220.042552 
L 211.0464 182.539976 
L 215.266358 153.162593 
L 219.486316 152.769439 
L 223.706274 200.930872 
L 227.926232 239.110548 
L 232.146189 243.009331 
L 236.366147 241.261978 
L 240.586105 216.984684 
L 244.806063 108.102712 
L 249.026021 33.512556 
L 253.245979 32.20204 
L 257.465937 135.689057 
L 261.685895 240.093435 
L 265.905853 250.402821 
L 270.125811 249.638354 
L 274.345768 253.5699 
L 278.565726 254.181473 
L 282.785684 253.242271 
L 287.005642 256.442112 
L 291.2256 256.660531 
L 295.445558 258.626304 
L 299.665516 260.919706 
L 303.885474 259.03038 
L 308.105432 261.979039 
L 312.325389 263.24587 
L 316.545347 264.49086 
L 320.765305 266.675052 
L 324.985263 267.395835 
L 329.205221 266.740577 
L 333.425179 267.505044 
L 337.645137 268.094776 
L 341.865095 272.353951 
L 346.085053 272.059085 
L 350.305011 271.917112 
L 354.524968 274.428933 
L 358.744926 274.570906 
L 362.964884 275.772211 
L 367.184842 274.352486 
L 371.4048 277.268383 
L 375.624758 277.224699 
L 379.844716 277.268383 
L 384.064674 277.082726 
L 388.284632 279.048499 
L 392.504589 278.316795 
L 396.724547 280.326252 
L 400.944505 280.282568 
L 405.164463 279.081262 
L 409.384421 280.326252 
L 413.604379 281.341901 
L 417.824337 281.920712 
L 422.044295 283.056492 
L 426.264253 283.165701 
L 430.484211 283.274911 
L 434.704168 281.997158 
L 438.924126 284.039378 
L 443.144084 285.055027 
L 447.364042 284.214113 
L 451.584 284.869371 
" clip-path="url(#pc6fc649d74)" style="fill: none; stroke: #0000ff; stroke-width: 1.5; stroke-linecap: square"/>
   </g>
   <g id="line2d_24">
    <path d="M 50.688 300.420818 
L 54.907958 300.202399 
L 59.127916 300.093189 
L 63.347874 300.267924 
L 67.567832 300.311608 
L 71.787789 300.344371 
L 76.007747 300.202399 
L 80.227705 300.377134 
L 84.447663 300.202399 
L 88.667621 300.235162 
L 92.887579 300.377134 
L 97.107537 300.016742 
L 101.327495 299.831086 
L 105.547453 299.98398 
L 109.767411 298.236626 
L 113.987368 291.902469 
L 118.207326 277.333908 
L 122.427284 259.7184 
L 126.647242 247.159296 
L 130.8672 234.895058 
L 135.087158 231.793505 
L 139.307116 225.612242 
L 143.527074 223.351603 
L 147.747032 221.899116 
L 151.966989 224.585672 
L 156.186947 221.680696 
L 160.406905 224.039624 
L 164.626863 225.645005 
L 168.846821 226.813548 
L 173.066779 228.451692 
L 177.286737 228.954056 
L 181.506695 231.651533 
L 185.726653 235.768735 
L 189.946611 236.784384 
L 194.166568 242.135654 
L 198.386526 243.555379 
L 202.606484 244.975104 
L 206.826442 239.623834 
L 211.0464 218.437171 
L 215.266358 201.69534 
L 219.486316 205.190047 
L 223.706274 231.869952 
L 227.926232 256.332902 
L 232.146189 258.189466 
L 236.366147 257.610655 
L 240.586105 246.394829 
L 244.806063 181.993928 
L 249.026021 131.50633 
L 253.245979 126.559135 
L 257.465937 199.183519 
L 261.685895 265.910584 
L 265.905853 270.63936 
L 270.125811 273.402363 
L 274.345768 275.149716 
L 278.565726 276.755098 
L 282.785684 277.519565 
L 287.005642 277.268383 
L 291.2256 276.678651 
L 295.445558 276.940754 
L 299.665516 277.377592 
L 303.885474 277.596012 
L 308.105432 278.502451 
L 312.325389 275.663002 
L 316.545347 276.285496 
L 320.765305 278.393242 
L 324.985263 280.610196 
L 329.205221 280.217042 
L 333.425179 279.343365 
L 337.645137 281.123482 
L 341.865095 281.887949 
L 346.085053 283.307674 
L 350.305011 281.920712 
L 354.524968 282.728863 
L 358.744926 283.668065 
L 362.964884 283.886484 
L 367.184842 285.055027 
L 371.4048 285.601075 
L 375.624758 285.895941 
L 379.844716 286.11436 
L 384.064674 286.660408 
L 388.284632 286.441989 
L 392.504589 285.961467 
L 396.724547 287.457638 
L 400.944505 286.91159 
L 405.164463 288.549734 
L 409.384421 288.112896 
L 413.604379 288.691707 
L 417.824337 289.64183 
L 422.044295 289.893012 
L 426.264253 289.565384 
L 430.484211 290.111432 
L 434.704168 291.094318 
L 438.924126 290.952346 
L 443.144084 290.482744 
L 447.364042 290.297088 
L 451.584 291.607603 
" clip-path="url(#pc6fc649d74)" style="fill: none; stroke: #ff0000; stroke-width: 1.5; stroke-linecap: square"/>
   </g>
   <g id="line2d_25">
    <path d="M 50.688 300.530028 
L 54.907958 300.377134 
L 59.127916 300.56279 
L 63.347874 300.595553 
L 67.567832 300.377134 
L 71.787789 300.453581 
L 76.007747 300.344371 
L 80.227705 300.311608 
L 84.447663 300.267924 
L 88.667621 300.420818 
L 92.887579 300.453581 
L 97.107537 300.453581 
L 101.327495 300.453581 
L 105.547453 300.202399 
L 109.767411 300.311608 
L 113.987368 300.530028 
L 118.207326 300.420818 
L 122.427284 300.267924 
L 126.647242 300.486344 
L 130.8672 300.267924 
L 135.087158 298.597018 
L 139.307116 295.178757 
L 143.527074 285.710285 
L 147.747032 277.879956 
L 151.966989 269.405292 
L 156.186947 264.27244 
L 160.406905 261.979039 
L 164.626863 257.610655 
L 168.846821 257.971046 
L 173.066779 258.047493 
L 177.286737 257.283026 
L 181.506695 258.003809 
L 185.726653 259.281562 
L 189.946611 262.415877 
L 194.166568 260.51563 
L 198.386526 261.76062 
L 202.606484 260.013266 
L 206.826442 258.080256 
L 211.0464 247.596134 
L 215.266358 242.572493 
L 219.486316 242.43052 
L 223.706274 256.256456 
L 227.926232 268.203986 
L 232.146189 270.016865 
L 236.366147 272.059085 
L 240.586105 265.8669 
L 244.806063 230.231808 
L 249.026021 201.837312 
L 253.245979 199.685883 
L 257.465937 241.589606 
L 261.685895 275.040507 
L 265.905853 278.578898 
L 270.125811 279.299681 
L 274.345768 281.090719 
L 278.565726 282.761626 
L 282.785684 282.543206 
L 287.005642 283.820959 
L 291.2256 285.710285 
L 295.445558 285.415419 
L 299.665516 285.786732 
L 303.885474 287.861714 
L 308.105432 288.95381 
L 312.325389 287.599611 
L 316.545347 289.718277 
L 320.765305 290.919583 
L 324.985263 290.515507 
L 329.205221 290.54827 
L 333.425179 291.421947 
L 337.645137 292.044442 
L 341.865095 291.749576 
L 346.085053 291.421947 
L 350.305011 293.027328 
L 354.524968 292.557727 
L 358.744926 290.985108 
L 362.964884 291.247212 
L 367.184842 292.044442 
L 371.4048 292.077204 
L 375.624758 290.65748 
L 379.844716 291.935232 
L 384.064674 292.699699 
L 388.284632 293.060091 
L 392.504589 292.885356 
L 396.724547 293.103775 
L 400.944505 293.136538 
L 405.164463 293.464166 
L 409.384421 293.322194 
L 413.604379 292.48128 
L 417.824337 292.732462 
L 422.044295 293.322194 
L 426.264253 293.606139 
L 430.484211 294.447053 
L 434.704168 293.212984 
L 438.924126 293.759032 
L 443.144084 294.119424 
L 447.364042 294.41429 
L 451.584 294.447053 
" clip-path="url(#pc6fc649d74)" style="fill: none; stroke: #008000; stroke-width: 1.5; stroke-linecap: square"/>
   </g>
   <g id="line2d_26">
    <path d="M 50.688 300.672 
L 54.907958 300.420818 
L 59.127916 300.486344 
L 63.347874 300.530028 
L 67.567832 300.639237 
L 71.787789 300.530028 
L 76.007747 300.56279 
L 80.227705 300.595553 
L 84.447663 300.56279 
L 88.667621 300.639237 
L 92.887579 300.486344 
L 97.107537 300.595553 
L 101.327495 300.56279 
L 105.547453 300.420818 
L 109.767411 300.530028 
L 113.987368 300.486344 
L 118.207326 300.56279 
L 122.427284 300.639237 
L 126.647242 300.530028 
L 130.8672 300.639237 
L 135.087158 300.530028 
L 139.307116 300.420818 
L 143.527074 300.639237 
L 147.747032 300.453581 
L 151.966989 300.56279 
L 156.186947 300.595553 
L 160.406905 300.377134 
L 164.626863 300.530028 
L 168.846821 299.110303 
L 173.066779 296.958874 
L 177.286737 293.245747 
L 181.506695 288.331315 
L 185.726653 286.769618 
L 189.946611 285.164237 
L 194.166568 283.056492 
L 198.386526 283.449646 
L 202.606484 280.064148 
L 206.826442 279.73652 
L 211.0464 277.333908 
L 215.266358 273.511572 
L 219.486316 275.226163 
L 223.706274 278.03285 
L 227.926232 280.500987 
L 232.146189 281.702292 
L 236.366147 280.719406 
L 240.586105 279.998623 
L 244.806063 271.403827 
L 249.026021 263.682708 
L 253.245979 263.726392 
L 257.465937 275.149716 
L 261.685895 284.476216 
L 265.905853 286.005151 
L 270.125811 285.895941 
L 274.345768 286.179886 
L 278.565726 287.894477 
L 282.785684 287.676058 
L 287.005642 288.298552 
L 291.2256 289.827487 
L 295.445558 290.515507 
L 299.665516 289.456174 
L 303.885474 290.43906 
L 308.105432 291.749576 
L 312.325389 292.262861 
L 316.545347 292.295624 
L 320.765305 292.153651 
L 324.985263 292.776146 
L 329.205221 293.496929 
L 333.425179 294.851128 
L 337.645137 295.178757 
L 341.865095 295.287967 
L 346.085053 295.943224 
L 350.305011 296.445588 
L 354.524968 296.926111 
L 358.744926 296.707692 
L 362.964884 296.958874 
L 367.184842 296.740454 
L 371.4048 297.14453 
L 375.624758 297.504922 
L 379.844716 297.646894 
L 384.064674 297.723341 
L 388.284632 298.487808 
L 392.504589 298.564255 
L 396.724547 298.455045 
L 400.944505 298.62978 
L 405.164463 298.706227 
L 409.384421 298.62978 
L 413.604379 298.345836 
L 417.824337 297.94176 
L 422.044295 297.581368 
L 426.264253 298.018207 
L 430.484211 298.018207 
L 434.704168 297.395712 
L 438.924126 298.236626 
L 443.144084 298.018207 
L 447.364042 297.723341 
L 451.584 297.94176 
" clip-path="url(#pc6fc649d74)" style="fill: none; stroke: #a52a2a; stroke-width: 1.5; stroke-linecap: square"/>
   </g>
   <g id="line2d_27">
    <path d="M 50.688 300.595553 
L 54.907958 300.530028 
L 59.127916 300.595553 
L 63.347874 300.595553 
L 67.567832 300.56279 
L 71.787789 300.639237 
L 76.007747 300.595553 
L 80.227705 300.639237 
L 84.447663 300.595553 
L 88.667621 300.56279 
L 92.887579 300.595553 
L 97.107537 300.595553 
L 101.327495 300.672 
L 105.547453 300.672 
L 109.767411 300.639237 
L 113.987368 300.639237 
L 118.207326 300.639237 
L 122.427284 300.672 
L 126.647242 300.639237 
L 130.8672 300.595553 
L 135.087158 300.595553 
L 139.307116 300.595553 
L 143.527074 300.672 
L 147.747032 300.639237 
L 151.966989 300.530028 
L 156.186947 300.56279 
L 160.406905 300.595553 
L 164.626863 300.595553 
L 168.846821 300.672 
L 173.066779 300.56279 
L 177.286737 300.639237 
L 181.506695 300.639237 
L 185.726653 300.672 
L 189.946611 300.595553 
L 194.166568 300.595553 
L 198.386526 300.639237 
L 202.606484 300.56279 
L 206.826442 300.595553 
L 211.0464 300.420818 
L 215.266358 300.344371 
L 219.486316 300.049505 
L 223.706274 298.957409 
L 227.926232 297.03532 
L 232.146189 296.227169 
L 236.366147 295.648358 
L 240.586105 294.632709 
L 244.806063 294.152187 
L 249.026021 294.010214 
L 253.245979 293.322194 
L 257.465937 293.868242 
L 261.685895 293.540613 
L 265.905853 293.573376 
L 270.125811 293.212984 
L 274.345768 293.354957 
L 278.565726 293.933768 
L 282.785684 294.479816 
L 287.005642 294.086661 
L 291.2256 293.901005 
L 295.445558 294.916654 
L 299.665516 294.41429 
L 303.885474 295.21152 
L 308.105432 295.429939 
L 312.325389 295.943224 
L 316.545347 295.943224 
L 320.765305 295.790331 
L 324.985263 296.085197 
L 329.205221 296.161644 
L 333.425179 296.336379 
L 337.645137 296.707692 
L 341.865095 296.882427 
L 346.085053 297.865313 
L 350.305011 297.614131 
L 354.524968 297.974523 
L 358.744926 297.537684 
L 362.964884 297.799788 
L 367.184842 298.192942 
L 371.4048 298.597018 
L 375.624758 298.597018 
L 379.844716 298.957409 
L 384.064674 298.8482 
L 388.284632 299.175828 
L 392.504589 299.503457 
L 396.724547 299.798323 
L 400.944505 299.579904 
L 405.164463 299.470694 
L 409.384421 299.285038 
L 413.604379 299.547141 
L 417.824337 299.721876 
L 422.044295 299.98398 
L 426.264253 299.798323 
L 430.484211 300.125952 
L 434.704168 300.158715 
L 438.924126 300.235162 
L 443.144084 300.202399 
L 447.364042 300.420818 
L 451.584 300.344371 
" clip-path="url(#pc6fc649d74)" style="fill: none; stroke: #800080; stroke-width: 1.5; stroke-linecap: square"/>
   </g>
   <g id="patch_3">
    <path d="M 50.688 300.672 
L 50.688 27.648 
" style="fill: none; stroke: #000000; stroke-width: 0.8; stroke-linejoin: miter; stroke-linecap: square"/>
   </g>
   <g id="patch_4">
    <path d="M 451.584 300.672 
L 451.584 27.648 
" style="fill: none; stroke: #000000; stroke-width: 0.8; stroke-linejoin: miter; stroke-linecap: square"/>
   </g>
   <g id="patch_5">
    <path d="M 50.688 300.672 
L 451.584 300.672 
" style="fill: none; stroke: #000000; stroke-width: 0.8; stroke-linejoin: miter; stroke-linecap: square"/>
   </g>
   <g id="patch_6">
    <path d="M 50.688 27.648 
L 451.584 27.648 
" style="fill: none; stroke: #000000; stroke-width: 0.8; stroke-linejoin: miter; stroke-linecap: square"/>
   </g>
   <g id="text_14">
    <!-- Coleta NaCl -->
    <g transform="translate(194.239985 21.648) scale(0.23 -0.23)">
     <defs>
      <path id="CMR17-43" d="M 3974 4289 
C 3974 4403 3968 4410 3930 4410 
C 3904 4410 3898 4403 3853 4327 
L 3571 3792 
C 3258 4187 2874 4416 2381 4416 
C 1286 4416 294 3456 294 2148 
C 294 826 1286 -128 2387 -128 
C 3366 -128 3974 730 3974 1461 
C 3974 1524 3974 1550 3917 1550 
C 3866 1550 3866 1531 3859 1474 
C 3808 585 3168 38 2477 38 
C 1824 38 781 495 781 2147 
C 781 3805 1843 4250 2464 4250 
C 3187 4250 3712 3628 3834 2745 
C 3846 2668 3846 2655 3904 2655 
C 3974 2655 3974 2668 3974 2783 
L 3974 4289 
z
" transform="scale(0.015625)"/>
      <path id="CMR17-6f" d="M 2758 1356 
C 2758 2176 2163 2816 1466 2816 
C 768 2816 173 2176 173 1356 
C 173 551 768 -64 1466 -64 
C 2163 -64 2758 551 2758 1356 
z
M 1466 51 
C 1165 51 909 230 762 480 
C 602 767 582 1126 582 1408 
C 582 1677 595 2010 762 2298 
C 890 2509 1139 2714 1466 2714 
C 1754 2714 1997 2554 2150 2330 
C 2349 2029 2349 1607 2349 1408 
C 2349 1158 2336 775 2163 467 
C 1984 173 1709 51 1466 51 
z
" transform="scale(0.015625)"/>
      <path id="CMR17-6c" d="M 979 4396 
L 218 4326 
L 218 4160 
C 595 4160 653 4122 653 3817 
L 653 426 
C 653 184 627 153 218 153 
L 218 -13 
C 371 0 653 0 813 0 
C 979 0 1261 0 1414 -13 
L 1414 153 
C 1005 153 979 178 979 426 
L 979 4396 
z
" transform="scale(0.015625)"/>
      <path id="CMR17-65" d="M 2438 1472 
C 2464 1498 2464 1511 2464 1576 
C 2464 2238 2118 2816 1389 2816 
C 710 2816 173 2169 173 1383 
C 173 551 781 -64 1459 -64 
C 2176 -64 2458 607 2458 740 
C 2458 784 2419 784 2406 784 
C 2362 784 2355 771 2330 696 
C 2189 265 1837 51 1504 51 
C 1229 51 954 203 781 480 
C 582 803 582 1176 582 1472 
L 2438 1472 
z
M 589 1568 
C 634 2505 1126 2714 1382 2714 
C 1818 2714 2112 2297 2118 1568 
L 589 1568 
z
" transform="scale(0.015625)"/>
      <path id="CMR17-74" d="M 966 2560 
L 1862 2560 
L 1862 2725 
L 966 2725 
L 966 3904 
L 851 3904 
C 838 3245 614 2668 70 2668 
L 70 2560 
L 627 2560 
L 627 771 
C 627 650 627 -64 1370 -64 
C 1747 -64 1965 306 1965 777 
L 1965 1140 
L 1850 1140 
L 1850 783 
C 1850 344 1677 51 1408 51 
C 1222 51 966 178 966 758 
L 966 2560 
z
" transform="scale(0.015625)"/>
      <path id="CMR17-61" d="M 2304 1653 
C 2304 2072 2304 2294 2035 2543 
C 1798 2752 1523 2816 1306 2816 
C 800 2816 435 2407 435 1971 
C 435 1728 627 1728 666 1728 
C 749 1728 896 1778 896 1954 
C 896 2112 774 2181 666 2181 
C 640 2181 608 2174 589 2168 
C 723 2592 1069 2714 1293 2714 
C 1613 2714 1965 2429 1965 1885 
L 1965 1600 
C 1587 1600 1133 1549 774 1357 
C 371 1133 256 813 256 570 
C 256 77 832 -64 1171 -64 
C 1523 -64 1850 139 1990 511 
C 2003 233 2182 -18 2464 -18 
C 2598 -18 2938 70 2938 567 
L 2938 920 
L 2822 920 
L 2822 562 
C 2822 178 2650 128 2566 128 
C 2304 128 2304 458 2304 738 
L 2304 1653 
z
M 1965 870 
C 1965 317 1568 38 1216 38 
C 896 38 646 275 646 570 
C 646 761 730 1100 1101 1305 
C 1408 1478 1760 1504 1965 1504 
L 1965 870 
z
" transform="scale(0.015625)"/>
      <path id="CMR17-4e" d="M 1312 4250 
C 1267 4320 1261 4320 1139 4320 
L 326 4320 
L 326 4160 
L 448 4160 
C 704 4160 819 4129 838 4122 
L 838 610 
C 838 451 838 153 326 153 
L 326 -13 
C 474 0 742 0 902 0 
C 1062 0 1331 0 1478 -13 
L 1478 153 
C 966 153 966 451 966 610 
L 966 4033 
C 1011 3995 1011 3982 1056 3919 
L 3430 76 
C 3475 0 3494 0 3526 0 
C 3590 0 3590 19 3590 139 
L 3590 3705 
C 3590 3863 3590 4160 4102 4160 
L 4102 4326 
C 3955 4320 3686 4320 3526 4320 
C 3366 4320 3098 4320 2950 4326 
L 2950 4160 
C 3462 4160 3462 3862 3462 3703 
L 3462 763 
L 1312 4250 
z
" transform="scale(0.015625)"/>
     </defs>
     <use xlink:href="#CMR17-43" transform="scale(0.996264)"/>
     <use xlink:href="#CMR17-6f" transform="translate(66.509881 0) scale(0.996264)"/>
     <use xlink:href="#CMR17-6c" transform="translate(112.200358 0) scale(0.996264)"/>
     <use xlink:href="#CMR17-65" transform="translate(137.071416 0) scale(0.996264)"/>
     <use xlink:href="#CMR17-74" transform="translate(177.557077 0) scale(0.996264)"/>
     <use xlink:href="#CMR17-61" transform="translate(212.837844 0) scale(0.996264)"/>
     <use xlink:href="#CMR17-4e" transform="translate(288.604288 0) scale(0.996264)"/>
     <use xlink:href="#CMR17-61" transform="translate(357.676718 0) scale(0.996264)"/>
     <use xlink:href="#CMR17-43" transform="translate(403.367195 0) scale(0.996264)"/>
     <use xlink:href="#CMR17-6c" transform="translate(469.877075 0) scale(0.996264)"/>
    </g>
   </g>
   <g id="legend_1">
    <g id="patch_7">
     <path d="M 349.277185 120.870979 
L 443.184 120.870979 
Q 445.584 120.870979 445.584 118.470979 
L 445.584 36.048 
Q 445.584 33.648 443.184 33.648 
L 349.277185 33.648 
Q 346.877185 33.648 346.877185 36.048 
L 346.877185 118.470979 
Q 346.877185 120.870979 349.277185 120.870979 
z
" style="fill: #ffffff; opacity: 0.8; stroke: #cccccc; stroke-linejoin: miter"/>
    </g>
    <g id="line2d_28">
     <path d="M 351.677185 42.648 
L 363.677185 42.648 
L 375.677185 42.648 
" style="fill: none; stroke: #0000ff; stroke-width: 1.5; stroke-linecap: square"/>
    </g>
    <g id="text_15">
     <!-- $U = 35$ kV -->
     <g transform="translate(385.277185 46.848) scale(0.12 -0.12)">
      <defs>
       <path id="CMMI12-55" d="M 3238 1474 
C 3014 581 2272 57 1670 57 
C 1210 57 896 363 896 891 
C 896 916 896 1107 966 1387 
L 1594 3887 
C 1651 4103 1664 4167 2118 4167 
C 2234 4167 2298 4167 2298 4282 
C 2298 4352 2240 4352 2202 4352 
C 2086 4352 1952 4352 1830 4352 
L 1075 4352 
C 954 4352 819 4352 698 4352 
C 653 4352 576 4352 576 4231 
C 576 4167 621 4167 742 4167 
C 1126 4167 1126 4116 1126 4046 
C 1126 4008 1082 3824 1050 3715 
L 493 1488 
C 474 1418 435 1246 435 1075 
C 435 374 941 -128 1638 -128 
C 2285 -128 3002 384 3328 1197 
C 3373 1305 3430 1530 3469 1702 
C 3533 1933 3667 2496 3712 2662 
L 3955 3623 
C 4038 3956 4090 4167 4653 4167 
C 4704 4173 4730 4224 4730 4282 
C 4730 4352 4672 4352 4646 4352 
C 4557 4352 4442 4352 4352 4352 
L 4051 4352 
C 3654 4352 3450 4352 3443 4352 
C 3405 4352 3328 4352 3328 4231 
C 3328 4167 3379 4167 3424 4167 
C 3808 4167 3834 4020 3834 3905 
C 3834 3848 3834 3828 3808 3739 
L 3238 1474 
z
" transform="scale(0.015625)"/>
       <path id="CMR17-3d" d="M 4115 2017 
C 4211 2017 4307 2017 4307 2125 
C 4307 2240 4198 2240 4090 2240 
L 512 2240 
C 403 2240 294 2240 294 2125 
C 294 2017 390 2017 486 2017 
L 4115 2017 
z
M 4090 896 
C 4198 896 4307 896 4307 1011 
C 4307 1119 4211 1119 4115 1119 
L 486 1119 
C 390 1119 294 1119 294 1011 
C 294 896 403 896 512 896 
L 4090 896 
z
" transform="scale(0.015625)"/>
       <path id="CMR17-6b" d="M 1670 1673 
C 1664 1686 1632 1724 1632 1743 
C 1632 1756 2086 2171 2144 2222 
C 2509 2528 2739 2560 2906 2560 
L 2906 2733 
C 2867 2733 2854 2733 2848 2720 
L 2534 2720 
C 2355 2720 2080 2720 1907 2733 
L 1907 2566 
C 1997 2559 2061 2508 2061 2419 
C 2061 2291 1933 2170 1926 2170 
L 960 1289 
L 960 4396 
L 198 4326 
L 198 4160 
C 576 4160 634 4122 634 3817 
L 634 426 
C 634 184 608 153 198 153 
L 198 -13 
C 352 0 634 0 794 0 
C 954 0 1235 0 1389 -13 
L 1389 153 
C 979 153 954 178 954 428 
L 954 1130 
L 1395 1532 
L 2042 574 
C 2118 459 2182 369 2182 286 
C 2182 172 2067 153 1990 153 
L 1990 -13 
C 2144 0 2419 0 2579 0 
C 2694 0 2931 0 3040 0 
L 3040 153 
C 2739 153 2669 210 2477 491 
L 1670 1673 
z
" transform="scale(0.015625)"/>
       <path id="CMR17-56" d="M 3776 3745 
C 3834 3886 3936 4160 4365 4160 
L 4365 4332 
C 4218 4319 4051 4319 3891 4319 
C 3738 4319 3475 4319 3328 4332 
L 3328 4160 
C 3648 4160 3661 3936 3661 3898 
C 3661 3827 3642 3783 3622 3732 
L 2362 446 
L 1043 3886 
C 1024 3931 1011 3963 1011 3994 
C 1011 4160 1267 4160 1402 4160 
L 1402 4319 
C 1197 4319 896 4319 685 4319 
C 518 4319 218 4319 64 4332 
L 64 4160 
C 435 4160 506 4135 582 3931 
L 2106 -26 
C 2138 -115 2144 -128 2214 -128 
C 2285 -128 2291 -115 2323 -26 
L 3776 3745 
z
" transform="scale(0.015625)"/>
      </defs>
      <use xlink:href="#CMMI12-55" transform="scale(0.996264)"/>
      <use xlink:href="#CMR17-3d" transform="translate(104.332782 0) scale(0.996264)"/>
      <use xlink:href="#CMR17-33" transform="translate(203.721579 0) scale(0.996264)"/>
      <use xlink:href="#CMR17-35" transform="translate(249.412056 0) scale(0.996264)"/>
      <use xlink:href="#CMR17-6b" transform="translate(325.178499 0) scale(0.996264)"/>
      <use xlink:href="#CMR17-56" transform="translate(373.471415 0) scale(0.996264)"/>
     </g>
    </g>
    <g id="line2d_29">
     <path d="M 351.677185 59.372596 
L 363.677185 59.372596 
L 375.677185 59.372596 
" style="fill: none; stroke: #ff0000; stroke-width: 1.5; stroke-linecap: square"/>
    </g>
    <g id="text_16">
     <!-- $U = 30$ kV -->
     <g transform="translate(385.277185 63.572596) scale(0.12 -0.12)">
      <use xlink:href="#CMMI12-55" transform="scale(0.996264)"/>
      <use xlink:href="#CMR17-3d" transform="translate(104.332782 0) scale(0.996264)"/>
      <use xlink:href="#CMR17-33" transform="translate(203.721579 0) scale(0.996264)"/>
      <use xlink:href="#CMR17-30" transform="translate(249.412056 0) scale(0.996264)"/>
      <use xlink:href="#CMR17-6b" transform="translate(325.178499 0) scale(0.996264)"/>
      <use xlink:href="#CMR17-56" transform="translate(373.471415 0) scale(0.996264)"/>
     </g>
    </g>
    <g id="line2d_30">
     <path d="M 351.677185 76.097192 
L 363.677185 76.097192 
L 375.677185 76.097192 
" style="fill: none; stroke: #008000; stroke-width: 1.5; stroke-linecap: square"/>
    </g>
    <g id="text_17">
     <!-- $U = 26$ kV -->
     <g transform="translate(385.277185 80.297192) scale(0.12 -0.12)">
      <use xlink:href="#CMMI12-55" transform="scale(0.996264)"/>
      <use xlink:href="#CMR17-3d" transform="translate(104.332782 0) scale(0.996264)"/>
      <use xlink:href="#CMR17-32" transform="translate(203.721579 0) scale(0.996264)"/>
      <use xlink:href="#CMR17-36" transform="translate(249.412056 0) scale(0.996264)"/>
      <use xlink:href="#CMR17-6b" transform="translate(325.178499 0) scale(0.996264)"/>
      <use xlink:href="#CMR17-56" transform="translate(373.471415 0) scale(0.996264)"/>
     </g>
    </g>
    <g id="line2d_31">
     <path d="M 351.677185 92.821787 
L 363.677185 92.821787 
L 375.677185 92.821787 
" style="fill: none; stroke: #a52a2a; stroke-width: 1.5; stroke-linecap: square"/>
    </g>
    <g id="text_18">
     <!-- $U = 22$ kV -->
     <g transform="translate(385.277185 97.021787) scale(0.12 -0.12)">
      <use xlink:href="#CMMI12-55" transform="scale(0.996264)"/>
      <use xlink:href="#CMR17-3d" transform="translate(104.332782 0) scale(0.996264)"/>
      <use xlink:href="#CMR17-32" transform="translate(203.721579 0) scale(0.996264)"/>
      <use xlink:href="#CMR17-32" transform="translate(249.412056 0) scale(0.996264)"/>
      <use xlink:href="#CMR17-6b" transform="translate(325.178499 0) scale(0.996264)"/>
      <use xlink:href="#CMR17-56" transform="translate(373.471415 0) scale(0.996264)"/>
     </g>
    </g>
    <g id="line2d_32">
     <path d="M 351.677185 109.546383 
L 363.677185 109.546383 
L 375.677185 109.546383 
" style="fill: none; stroke: #800080; stroke-width: 1.5; stroke-linecap: square"/>
    </g>
    <g id="text_19">
     <!-- $U = 18$ kV -->
     <g transform="translate(385.277185 113.746383) scale(0.12 -0.12)">
      <use xlink:href="#CMMI12-55" transform="scale(0.996264)"/>
      <use xlink:href="#CMR17-3d" transform="translate(104.332782 0) scale(0.996264)"/>
      <use xlink:href="#CMR17-31" transform="translate(203.721579 0) scale(0.996264)"/>
      <use xlink:href="#CMR17-38" transform="translate(249.412056 0) scale(0.996264)"/>
      <use xlink:href="#CMR17-6b" transform="translate(325.178499 0) scale(0.996264)"/>
      <use xlink:href="#CMR17-56" transform="translate(373.471415 0) scale(0.996264)"/>
     </g>
    </g>
   </g>
  </g>
 </g>
 <defs>
  <clipPath id="pc6fc649d74">
   <rect x="50.688" y="27.648" width="400.896" height="273.024"/>
  </clipPath>
 </defs>
</svg>
