<?xml version="1.0" encoding="utf-8" standalone="no"?>
<!DOCTYPE svg PUBLIC "-//W3C//DTD SVG 1.1//EN"
  "http://www.w3.org/Graphics/SVG/1.1/DTD/svg11.dtd">
<svg xmlns:xlink="http://www.w3.org/1999/xlink" width="460.8pt" height="345.6pt" viewBox="0 0 460.8 345.6" xmlns="http://www.w3.org/2000/svg" version="1.1">
 <metadata>
  <rdf:RDF xmlns:dc="http://purl.org/dc/elements/1.1/" xmlns:cc="http://creativecommons.org/ns#" xmlns:rdf="http://www.w3.org/1999/02/22-rdf-syntax-ns#">
   <cc:Work>
    <dc:type rdf:resource="http://purl.org/dc/dcmitype/StillImage"/>
    <dc:date>2024-03-26T16:23:55.392346</dc:date>
    <dc:format>image/svg+xml</dc:format>
    <dc:creator>
     <cc:Agent>
      <dc:title>Matplotlib v3.8.3, https://matplotlib.org/</dc:title>
     </cc:Agent>
    </dc:creator>
   </cc:Work>
  </rdf:RDF>
 </metadata>
 <defs>
  <style type="text/css">*{stroke-linejoin: round; stroke-linecap: butt}</style>
 </defs>
 <g id="figure_1">
  <g id="patch_1">
   <path d="M 0 345.6 
L 460.8 345.6 
L 460.8 0 
L 0 0 
z
" style="fill: #ffffff"/>
  </g>
  <g id="axes_1">
   <g id="patch_2">
    <path d="M 57.6 293.76 
L 414.72 293.76 
L 414.72 41.472 
L 57.6 41.472 
z
" style="fill: #ffffff"/>
   </g>
   <g id="matplotlib.axis_1">
    <g id="xtick_1">
     <g id="line2d_1">
      <path d="M 67.40518 293.76 
L 67.40518 41.472 
" clip-path="url(#p217f66cc04)" style="fill: none; stroke: #b0b0b0; stroke-width: 0.8; stroke-linecap: square"/>
     </g>
     <g id="line2d_2">
      <defs>
       <path id="ma37da9003e" d="M 0 0 
L 0 3.5 
" style="stroke: #000000; stroke-width: 0.8"/>
      </defs>
      <g>
       <use xlink:href="#ma37da9003e" x="67.40518" y="293.76" style="stroke: #000000; stroke-width: 0.8"/>
      </g>
     </g>
     <g id="text_1">
      <!-- $\mathdefault{10}$ -->
      <g transform="translate(60.088943 311.137725) scale(0.15 -0.15)">
       <defs>
        <path id="CMR17-31" d="M 1702 4058 
C 1702 4192 1696 4192 1606 4192 
C 1357 3916 979 3827 621 3827 
C 602 3827 570 3827 563 3808 
C 557 3795 557 3782 557 3648 
C 755 3648 1088 3686 1344 3839 
L 1344 461 
C 1344 236 1331 160 781 160 
L 589 160 
L 589 0 
C 896 0 1216 0 1523 0 
C 1830 0 2150 0 2458 0 
L 2458 160 
L 2266 160 
C 1715 160 1702 230 1702 458 
L 1702 4058 
z
" transform="scale(0.015625)"/>
        <path id="CMR17-30" d="M 2688 2025 
C 2688 2416 2682 3080 2413 3591 
C 2176 4039 1798 4198 1466 4198 
C 1158 4198 768 4058 525 3597 
C 269 3118 243 2524 243 2025 
C 243 1661 250 1106 448 619 
C 723 -39 1216 -128 1466 -128 
C 1760 -128 2208 -7 2470 600 
C 2662 1042 2688 1559 2688 2025 
z
M 1466 -26 
C 1056 -26 813 325 723 812 
C 653 1188 653 1738 653 2096 
C 653 2588 653 2997 736 3387 
C 858 3929 1216 4096 1466 4096 
C 1728 4096 2067 3923 2189 3400 
C 2272 3036 2278 2607 2278 2096 
C 2278 1680 2278 1169 2202 792 
C 2067 95 1690 -26 1466 -26 
z
" transform="scale(0.015625)"/>
       </defs>
       <use xlink:href="#CMR17-31" transform="scale(0.996264)"/>
       <use xlink:href="#CMR17-30" transform="translate(45.690477 0) scale(0.996264)"/>
      </g>
     </g>
    </g>
    <g id="xtick_2">
     <g id="line2d_3">
      <path d="M 119.715212 293.76 
L 119.715212 41.472 
" clip-path="url(#p217f66cc04)" style="fill: none; stroke: #b0b0b0; stroke-width: 0.8; stroke-linecap: square"/>
     </g>
     <g id="line2d_4">
      <g>
       <use xlink:href="#ma37da9003e" x="119.715212" y="293.76" style="stroke: #000000; stroke-width: 0.8"/>
      </g>
     </g>
     <g id="text_2">
      <!-- $\mathdefault{15}$ -->
      <g transform="translate(112.398975 311.137725) scale(0.15 -0.15)">
       <defs>
        <path id="CMR17-35" d="M 730 3692 
C 794 3666 1056 3584 1325 3584 
C 1920 3584 2246 3911 2432 4100 
C 2432 4157 2432 4192 2394 4192 
C 2387 4192 2374 4192 2323 4163 
C 2099 4058 1837 3973 1517 3973 
C 1325 3973 1037 3999 723 4139 
C 653 4171 640 4171 634 4171 
C 602 4171 595 4164 595 4037 
L 595 2203 
C 595 2089 595 2057 659 2057 
C 691 2057 704 2070 736 2114 
C 941 2401 1222 2522 1542 2522 
C 1766 2522 2246 2382 2246 1289 
C 2246 1085 2246 715 2054 421 
C 1894 159 1645 25 1370 25 
C 947 25 518 320 403 814 
C 429 807 480 795 506 795 
C 589 795 749 840 749 1038 
C 749 1210 627 1280 506 1280 
C 358 1280 262 1190 262 1011 
C 262 454 704 -128 1382 -128 
C 2042 -128 2669 440 2669 1264 
C 2669 2030 2170 2624 1549 2624 
C 1222 2624 947 2503 730 2274 
L 730 3692 
z
" transform="scale(0.015625)"/>
       </defs>
       <use xlink:href="#CMR17-31" transform="scale(0.996264)"/>
       <use xlink:href="#CMR17-35" transform="translate(45.690477 0) scale(0.996264)"/>
      </g>
     </g>
    </g>
    <g id="xtick_3">
     <g id="line2d_5">
      <path d="M 172.025244 293.76 
L 172.025244 41.472 
" clip-path="url(#p217f66cc04)" style="fill: none; stroke: #b0b0b0; stroke-width: 0.8; stroke-linecap: square"/>
     </g>
     <g id="line2d_6">
      <g>
       <use xlink:href="#ma37da9003e" x="172.025244" y="293.76" style="stroke: #000000; stroke-width: 0.8"/>
      </g>
     </g>
     <g id="text_3">
      <!-- $\mathdefault{20}$ -->
      <g transform="translate(164.709007 311.137725) scale(0.15 -0.15)">
       <defs>
        <path id="CMR17-32" d="M 2669 989 
L 2554 989 
C 2490 536 2438 459 2413 420 
C 2381 369 1920 369 1830 369 
L 602 369 
C 832 619 1280 1072 1824 1597 
C 2214 1967 2669 2402 2669 3035 
C 2669 3790 2067 4224 1395 4224 
C 691 4224 262 3604 262 3030 
C 262 2780 448 2748 525 2748 
C 589 2748 781 2787 781 3010 
C 781 3207 614 3264 525 3264 
C 486 3264 448 3258 422 3245 
C 544 3790 915 4058 1306 4058 
C 1862 4058 2227 3617 2227 3035 
C 2227 2479 1901 2000 1536 1584 
L 262 146 
L 262 0 
L 2515 0 
L 2669 989 
z
" transform="scale(0.015625)"/>
       </defs>
       <use xlink:href="#CMR17-32" transform="scale(0.996264)"/>
       <use xlink:href="#CMR17-30" transform="translate(45.690477 0) scale(0.996264)"/>
      </g>
     </g>
    </g>
    <g id="xtick_4">
     <g id="line2d_7">
      <path d="M 224.335276 293.76 
L 224.335276 41.472 
" clip-path="url(#p217f66cc04)" style="fill: none; stroke: #b0b0b0; stroke-width: 0.8; stroke-linecap: square"/>
     </g>
     <g id="line2d_8">
      <g>
       <use xlink:href="#ma37da9003e" x="224.335276" y="293.76" style="stroke: #000000; stroke-width: 0.8"/>
      </g>
     </g>
     <g id="text_4">
      <!-- $\mathdefault{25}$ -->
      <g transform="translate(217.019039 311.137725) scale(0.15 -0.15)">
       <use xlink:href="#CMR17-32" transform="scale(0.996264)"/>
       <use xlink:href="#CMR17-35" transform="translate(45.690477 0) scale(0.996264)"/>
      </g>
     </g>
    </g>
    <g id="xtick_5">
     <g id="line2d_9">
      <path d="M 276.645308 293.76 
L 276.645308 41.472 
" clip-path="url(#p217f66cc04)" style="fill: none; stroke: #b0b0b0; stroke-width: 0.8; stroke-linecap: square"/>
     </g>
     <g id="line2d_10">
      <g>
       <use xlink:href="#ma37da9003e" x="276.645308" y="293.76" style="stroke: #000000; stroke-width: 0.8"/>
      </g>
     </g>
     <g id="text_5">
      <!-- $\mathdefault{30}$ -->
      <g transform="translate(269.329071 311.137725) scale(0.15 -0.15)">
       <defs>
        <path id="CMR17-33" d="M 1414 2157 
C 1984 2157 2234 1662 2234 1090 
C 2234 320 1824 25 1453 25 
C 1114 25 563 194 390 693 
C 422 680 454 680 486 680 
C 640 680 755 782 755 948 
C 755 1133 614 1216 486 1216 
C 378 1216 211 1165 211 926 
C 211 335 787 -128 1466 -128 
C 2176 -128 2720 430 2720 1085 
C 2720 1707 2208 2157 1600 2227 
C 2086 2328 2554 2756 2554 3329 
C 2554 3820 2048 4179 1472 4179 
C 890 4179 378 3829 378 3329 
C 378 3110 544 3072 627 3072 
C 762 3072 877 3155 877 3321 
C 877 3486 762 3569 627 3569 
C 602 3569 570 3569 544 3557 
C 730 3959 1235 4032 1459 4032 
C 1683 4032 2106 3925 2106 3320 
C 2106 3143 2080 2828 1862 2550 
C 1670 2304 1453 2304 1242 2284 
C 1210 2284 1062 2269 1037 2269 
C 992 2263 966 2257 966 2208 
C 966 2163 973 2157 1101 2157 
L 1414 2157 
z
" transform="scale(0.015625)"/>
       </defs>
       <use xlink:href="#CMR17-33" transform="scale(0.996264)"/>
       <use xlink:href="#CMR17-30" transform="translate(45.690477 0) scale(0.996264)"/>
      </g>
     </g>
    </g>
    <g id="xtick_6">
     <g id="line2d_11">
      <path d="M 328.95534 293.76 
L 328.95534 41.472 
" clip-path="url(#p217f66cc04)" style="fill: none; stroke: #b0b0b0; stroke-width: 0.8; stroke-linecap: square"/>
     </g>
     <g id="line2d_12">
      <g>
       <use xlink:href="#ma37da9003e" x="328.95534" y="293.76" style="stroke: #000000; stroke-width: 0.8"/>
      </g>
     </g>
     <g id="text_6">
      <!-- $\mathdefault{35}$ -->
      <g transform="translate(321.639102 311.137725) scale(0.15 -0.15)">
       <use xlink:href="#CMR17-33" transform="scale(0.996264)"/>
       <use xlink:href="#CMR17-35" transform="translate(45.690477 0) scale(0.996264)"/>
      </g>
     </g>
    </g>
    <g id="xtick_7">
     <g id="line2d_13">
      <path d="M 381.265372 293.76 
L 381.265372 41.472 
" clip-path="url(#p217f66cc04)" style="fill: none; stroke: #b0b0b0; stroke-width: 0.8; stroke-linecap: square"/>
     </g>
     <g id="line2d_14">
      <g>
       <use xlink:href="#ma37da9003e" x="381.265372" y="293.76" style="stroke: #000000; stroke-width: 0.8"/>
      </g>
     </g>
     <g id="text_7">
      <!-- $\mathdefault{40}$ -->
      <g transform="translate(373.949134 311.137725) scale(0.15 -0.15)">
       <defs>
        <path id="CMR17-34" d="M 2150 4122 
C 2150 4256 2144 4256 2029 4256 
L 128 1254 
L 128 1088 
L 1779 1088 
L 1779 457 
C 1779 224 1766 160 1318 160 
L 1197 160 
L 1197 0 
C 1402 0 1747 0 1965 0 
C 2182 0 2528 0 2733 0 
L 2733 160 
L 2611 160 
C 2163 160 2150 224 2150 457 
L 2150 1088 
L 2803 1088 
L 2803 1254 
L 2150 1254 
L 2150 4122 
z
M 1798 3703 
L 1798 1254 
L 256 1254 
L 1798 3703 
z
" transform="scale(0.015625)"/>
       </defs>
       <use xlink:href="#CMR17-34" transform="scale(0.996264)"/>
       <use xlink:href="#CMR17-30" transform="translate(45.690477 0) scale(0.996264)"/>
      </g>
     </g>
    </g>
    <g id="text_8">
     <!-- $E$ (keV) -->
     <g transform="translate(206.105635 331.476889) scale(0.18 -0.18)">
      <defs>
       <path id="CMMI12-45" d="M 4448 1489 
C 4454 1508 4474 1554 4474 1579 
C 4474 1611 4448 1643 4410 1643 
C 4384 1643 4371 1637 4352 1617 
C 4339 1611 4339 1598 4282 1469 
C 3904 570 3629 185 2605 185 
L 1670 185 
C 1581 185 1568 185 1530 192 
C 1459 198 1453 211 1453 262 
C 1453 307 1466 345 1478 403 
L 1920 2176 
L 2554 2176 
C 3053 2176 3091 2066 3091 1874 
C 3091 1810 3091 1752 3046 1560 
C 3034 1534 3027 1508 3027 1489 
C 3027 1444 3059 1425 3098 1425 
C 3155 1425 3162 1469 3187 1559 
L 3552 3042 
C 3552 3073 3526 3105 3488 3105 
C 3430 3105 3424 3080 3398 2990 
C 3270 2501 3142 2361 2573 2361 
L 1965 2361 
L 2362 3930 
C 2419 4154 2432 4154 2694 4154 
L 3610 4154 
C 4397 4154 4557 3943 4557 3458 
C 4557 3451 4557 3273 4531 3062 
C 4525 3036 4518 2998 4518 2985 
C 4518 2934 4550 2915 4589 2915 
C 4634 2915 4659 2941 4672 3055 
L 4806 4174 
C 4806 4195 4819 4263 4819 4277 
C 4819 4352 4762 4352 4646 4352 
L 1523 4352 
C 1402 4352 1338 4352 1338 4229 
C 1338 4154 1382 4154 1491 4154 
C 1888 4154 1888 4114 1888 4052 
C 1888 4020 1882 3994 1862 3924 
L 998 473 
C 941 249 928 185 480 185 
C 358 185 294 185 294 70 
C 294 0 333 0 461 0 
L 3674 0 
C 3814 0 3821 6 3866 110 
L 4448 1489 
z
" transform="scale(0.015625)"/>
       <path id="CMR17-28" d="M 1958 -1561 
C 1958 -1555 1958 -1542 1939 -1523 
C 1645 -1224 858 -407 858 1581 
C 858 3569 1632 4379 1946 4697 
C 1946 4704 1958 4717 1958 4736 
C 1958 4755 1939 4768 1914 4768 
C 1843 4768 1299 4296 986 3594 
C 666 2887 576 2199 576 1588 
C 576 1128 621 351 1005 -471 
C 1312 -1135 1837 -1600 1914 -1600 
C 1946 -1600 1958 -1587 1958 -1561 
z
" transform="scale(0.015625)"/>
       <path id="CMR17-6b" d="M 1670 1673 
C 1664 1686 1632 1724 1632 1743 
C 1632 1756 2086 2171 2144 2222 
C 2509 2528 2739 2560 2906 2560 
L 2906 2733 
C 2867 2733 2854 2733 2848 2720 
L 2534 2720 
C 2355 2720 2080 2720 1907 2733 
L 1907 2566 
C 1997 2559 2061 2508 2061 2419 
C 2061 2291 1933 2170 1926 2170 
L 960 1289 
L 960 4396 
L 198 4326 
L 198 4160 
C 576 4160 634 4122 634 3817 
L 634 426 
C 634 184 608 153 198 153 
L 198 -13 
C 352 0 634 0 794 0 
C 954 0 1235 0 1389 -13 
L 1389 153 
C 979 153 954 178 954 428 
L 954 1130 
L 1395 1532 
L 2042 574 
C 2118 459 2182 369 2182 286 
C 2182 172 2067 153 1990 153 
L 1990 -13 
C 2144 0 2419 0 2579 0 
C 2694 0 2931 0 3040 0 
L 3040 153 
C 2739 153 2669 210 2477 491 
L 1670 1673 
z
" transform="scale(0.015625)"/>
       <path id="CMR17-65" d="M 2438 1472 
C 2464 1498 2464 1511 2464 1576 
C 2464 2238 2118 2816 1389 2816 
C 710 2816 173 2169 173 1383 
C 173 551 781 -64 1459 -64 
C 2176 -64 2458 607 2458 740 
C 2458 784 2419 784 2406 784 
C 2362 784 2355 771 2330 696 
C 2189 265 1837 51 1504 51 
C 1229 51 954 203 781 480 
C 582 803 582 1176 582 1472 
L 2438 1472 
z
M 589 1568 
C 634 2505 1126 2714 1382 2714 
C 1818 2714 2112 2297 2118 1568 
L 589 1568 
z
" transform="scale(0.015625)"/>
       <path id="CMR17-56" d="M 3776 3745 
C 3834 3886 3936 4160 4365 4160 
L 4365 4332 
C 4218 4319 4051 4319 3891 4319 
C 3738 4319 3475 4319 3328 4332 
L 3328 4160 
C 3648 4160 3661 3936 3661 3898 
C 3661 3827 3642 3783 3622 3732 
L 2362 446 
L 1043 3886 
C 1024 3931 1011 3963 1011 3994 
C 1011 4160 1267 4160 1402 4160 
L 1402 4319 
C 1197 4319 896 4319 685 4319 
C 518 4319 218 4319 64 4332 
L 64 4160 
C 435 4160 506 4135 582 3931 
L 2106 -26 
C 2138 -115 2144 -128 2214 -128 
C 2285 -128 2291 -115 2323 -26 
L 3776 3745 
z
" transform="scale(0.015625)"/>
       <path id="CMR17-29" d="M 1683 1581 
C 1683 2040 1638 2817 1254 3639 
C 947 4303 422 4768 346 4768 
C 326 4768 301 4761 301 4729 
C 301 4717 307 4710 314 4697 
C 621 4378 1402 3568 1402 1584 
C 1402 -407 627 -1217 314 -1537 
C 307 -1549 301 -1556 301 -1568 
C 301 -1600 326 -1600 346 -1600 
C 416 -1600 960 -1128 1274 -426 
C 1594 281 1683 969 1683 1581 
z
" transform="scale(0.015625)"/>
      </defs>
      <use xlink:href="#CMMI12-45" transform="scale(0.996264)"/>
      <use xlink:href="#CMR17-28" transform="translate(108.127603 0) scale(0.996264)"/>
      <use xlink:href="#CMR17-6b" transform="translate(143.40837 0) scale(0.996264)"/>
      <use xlink:href="#CMR17-65" transform="translate(189.098832 0) scale(0.996264)"/>
      <use xlink:href="#CMR17-56" transform="translate(229.584493 0) scale(0.996264)"/>
      <use xlink:href="#CMR17-29" transform="translate(298.656923 0) scale(0.996264)"/>
     </g>
    </g>
   </g>
   <g id="matplotlib.axis_2">
    <g id="ytick_1">
     <g id="line2d_15">
      <path d="M 57.6 293.76 
L 414.72 293.76 
" clip-path="url(#p217f66cc04)" style="fill: none; stroke: #b0b0b0; stroke-width: 0.8; stroke-linecap: square"/>
     </g>
     <g id="line2d_16">
      <defs>
       <path id="m9ab01cc77c" d="M 0 0 
L -3.5 0 
" style="stroke: #000000; stroke-width: 0.8"/>
      </defs>
      <g>
       <use xlink:href="#m9ab01cc77c" x="57.6" y="293.76" style="stroke: #000000; stroke-width: 0.8"/>
      </g>
     </g>
     <g id="text_9">
      <!-- $\mathdefault{0}$ -->
      <g transform="translate(43.283762 298.948862) scale(0.15 -0.15)">
       <use xlink:href="#CMR17-30" transform="scale(0.996264)"/>
      </g>
     </g>
    </g>
    <g id="ytick_2">
     <g id="line2d_17">
      <path d="M 57.6 251.712 
L 414.72 251.712 
" clip-path="url(#p217f66cc04)" style="fill: none; stroke: #b0b0b0; stroke-width: 0.8; stroke-linecap: square"/>
     </g>
     <g id="line2d_18">
      <g>
       <use xlink:href="#m9ab01cc77c" x="57.6" y="251.712" style="stroke: #000000; stroke-width: 0.8"/>
      </g>
     </g>
     <g id="text_10">
      <!-- $\mathdefault{1}$ -->
      <g transform="translate(43.283762 256.900862) scale(0.15 -0.15)">
       <use xlink:href="#CMR17-31" transform="scale(0.996264)"/>
      </g>
     </g>
    </g>
    <g id="ytick_3">
     <g id="line2d_19">
      <path d="M 57.6 209.664 
L 414.72 209.664 
" clip-path="url(#p217f66cc04)" style="fill: none; stroke: #b0b0b0; stroke-width: 0.8; stroke-linecap: square"/>
     </g>
     <g id="line2d_20">
      <g>
       <use xlink:href="#m9ab01cc77c" x="57.6" y="209.664" style="stroke: #000000; stroke-width: 0.8"/>
      </g>
     </g>
     <g id="text_11">
      <!-- $\mathdefault{2}$ -->
      <g transform="translate(43.283762 214.852862) scale(0.15 -0.15)">
       <use xlink:href="#CMR17-32" transform="scale(0.996264)"/>
      </g>
     </g>
    </g>
    <g id="ytick_4">
     <g id="line2d_21">
      <path d="M 57.6 167.616 
L 414.72 167.616 
" clip-path="url(#p217f66cc04)" style="fill: none; stroke: #b0b0b0; stroke-width: 0.8; stroke-linecap: square"/>
     </g>
     <g id="line2d_22">
      <g>
       <use xlink:href="#m9ab01cc77c" x="57.6" y="167.616" style="stroke: #000000; stroke-width: 0.8"/>
      </g>
     </g>
     <g id="text_12">
      <!-- $\mathdefault{3}$ -->
      <g transform="translate(43.283762 172.804862) scale(0.15 -0.15)">
       <use xlink:href="#CMR17-33" transform="scale(0.996264)"/>
      </g>
     </g>
    </g>
    <g id="ytick_5">
     <g id="line2d_23">
      <path d="M 57.6 125.568 
L 414.72 125.568 
" clip-path="url(#p217f66cc04)" style="fill: none; stroke: #b0b0b0; stroke-width: 0.8; stroke-linecap: square"/>
     </g>
     <g id="line2d_24">
      <g>
       <use xlink:href="#m9ab01cc77c" x="57.6" y="125.568" style="stroke: #000000; stroke-width: 0.8"/>
      </g>
     </g>
     <g id="text_13">
      <!-- $\mathdefault{4}$ -->
      <g transform="translate(43.283762 130.756862) scale(0.15 -0.15)">
       <use xlink:href="#CMR17-34" transform="scale(0.996264)"/>
      </g>
     </g>
    </g>
    <g id="ytick_6">
     <g id="line2d_25">
      <path d="M 57.6 83.52 
L 414.72 83.52 
" clip-path="url(#p217f66cc04)" style="fill: none; stroke: #b0b0b0; stroke-width: 0.8; stroke-linecap: square"/>
     </g>
     <g id="line2d_26">
      <g>
       <use xlink:href="#m9ab01cc77c" x="57.6" y="83.52" style="stroke: #000000; stroke-width: 0.8"/>
      </g>
     </g>
     <g id="text_14">
      <!-- $\mathdefault{5}$ -->
      <g transform="translate(43.283762 88.708862) scale(0.15 -0.15)">
       <use xlink:href="#CMR17-35" transform="scale(0.996264)"/>
      </g>
     </g>
    </g>
    <g id="ytick_7">
     <g id="line2d_27">
      <path d="M 57.6 41.472 
L 414.72 41.472 
" clip-path="url(#p217f66cc04)" style="fill: none; stroke: #b0b0b0; stroke-width: 0.8; stroke-linecap: square"/>
     </g>
     <g id="line2d_28">
      <g>
       <use xlink:href="#m9ab01cc77c" x="57.6" y="41.472" style="stroke: #000000; stroke-width: 0.8"/>
      </g>
     </g>
     <g id="text_15">
      <!-- $\mathdefault{6}$ -->
      <g transform="translate(43.283762 46.660862) scale(0.15 -0.15)">
       <defs>
        <path id="CMR17-36" d="M 678 2176 
C 678 3690 1395 4032 1811 4032 
C 1946 4032 2272 4009 2400 3776 
C 2298 3776 2106 3776 2106 3553 
C 2106 3381 2246 3323 2336 3323 
C 2394 3323 2566 3348 2566 3560 
C 2566 3954 2246 4179 1805 4179 
C 1043 4179 243 3390 243 1984 
C 243 253 966 -128 1478 -128 
C 2099 -128 2688 427 2688 1283 
C 2688 2081 2170 2662 1517 2662 
C 1126 2662 838 2407 678 1960 
L 678 2176 
z
M 1478 25 
C 691 25 691 1200 691 1436 
C 691 1896 909 2560 1504 2560 
C 1613 2560 1926 2560 2138 2120 
C 2253 1870 2253 1609 2253 1289 
C 2253 944 2253 690 2118 434 
C 1978 171 1773 25 1478 25 
z
" transform="scale(0.015625)"/>
       </defs>
       <use xlink:href="#CMR17-36" transform="scale(0.996264)"/>
      </g>
     </g>
    </g>
    <g id="text_16">
     <!-- $I$ ($10^2$/s) -->
     <g transform="translate(34.815578 200.130864) rotate(-90) scale(0.18 -0.18)">
      <defs>
       <path id="CMMI12-49" d="M 2355 3880 
C 2413 4103 2426 4167 2893 4167 
C 3034 4167 3085 4167 3085 4288 
C 3085 4352 3014 4352 2995 4352 
C 2880 4352 2739 4352 2624 4352 
L 1837 4352 
C 1709 4352 1562 4352 1434 4352 
C 1382 4352 1312 4352 1312 4231 
C 1312 4167 1363 4167 1491 4167 
C 1888 4167 1888 4116 1888 4046 
C 1888 4002 1875 3963 1862 3906 
L 998 472 
C 941 249 928 185 461 185 
C 320 185 262 185 262 64 
C 262 0 326 0 358 0 
C 474 0 614 0 730 0 
L 1517 0 
C 1645 0 1786 0 1914 0 
C 1965 0 2042 0 2042 115 
C 2042 185 2003 185 1862 185 
C 1466 185 1466 236 1466 312 
C 1466 325 1466 357 1491 459 
L 2355 3880 
z
" transform="scale(0.015625)"/>
       <path id="CMR17-2f" d="M 2605 4545 
C 2637 4627 2637 4640 2637 4653 
C 2637 4729 2579 4768 2528 4768 
C 2451 4768 2426 4717 2400 4640 
L 326 -1377 
C 294 -1460 294 -1473 294 -1486 
C 294 -1562 352 -1600 403 -1600 
C 480 -1600 506 -1549 531 -1473 
L 2605 4545 
z
" transform="scale(0.015625)"/>
       <path id="CMR17-73" d="M 1978 2697 
C 1978 2813 1971 2819 1933 2819 
C 1907 2819 1901 2813 1824 2717 
C 1805 2691 1747 2626 1728 2601 
C 1523 2819 1235 2819 1126 2819 
C 416 2819 160 2447 160 2076 
C 160 1498 813 1365 998 1325 
C 1402 1243 1542 1217 1677 1101 
C 1760 1025 1901 884 1901 654 
C 1901 384 1747 38 1158 38 
C 602 38 403 460 288 1021 
C 269 1110 269 1117 218 1117 
C 166 1117 160 1110 160 983 
L 160 63 
C 160 -51 166 -58 205 -58 
C 237 -58 243 -51 275 0 
C 314 57 410 211 448 276 
C 576 103 800 -64 1158 -64 
C 1792 -64 2131 283 2131 784 
C 2131 1112 1958 1285 1875 1362 
C 1683 1561 1459 1606 1190 1657 
C 838 1735 390 1825 390 2217 
C 390 2383 480 2737 1126 2737 
C 1811 2737 1850 2094 1862 1888 
C 1869 1856 1901 1849 1920 1849 
C 1978 1849 1978 1869 1978 1978 
L 1978 2697 
z
" transform="scale(0.015625)"/>
      </defs>
      <use xlink:href="#CMMI12-49" transform="scale(0.996264)"/>
      <use xlink:href="#CMR17-28" transform="translate(80.93248 0) scale(0.996264)"/>
      <use xlink:href="#CMR17-31" transform="translate(116.213248 0) scale(0.996264)"/>
      <use xlink:href="#CMR17-30" transform="translate(161.903725 0) scale(0.996264)"/>
      <use xlink:href="#CMR17-32" transform="translate(207.594202 36.153639) scale(0.697382)"/>
      <use xlink:href="#CMR17-2f" transform="translate(240.075516 0) scale(0.996264)"/>
      <use xlink:href="#CMR17-73" transform="translate(285.765993 0) scale(0.996264)"/>
      <use xlink:href="#CMR17-29" transform="translate(321.567331 0) scale(0.996264)"/>
     </g>
    </g>
   </g>
   <g id="line2d_29">
    <path d="M 414.72 268.825536 
L 397.349142 266.134464 
L 381.26544 262.097856 
L 366.330984 268.405056 
L 352.426887 258.565824 
L 339.450112 248.34816 
L 327.31092 215.55072 
L 315.930786 204.071616 
L 305.240705 178.128 
L 295.179791 168.583104 
L 285.694115 158.912064 
L 276.73574 148.147776 
L 268.261912 158.239296 
L 260.234378 144.783936 
L 252.618808 154.454976 
L 245.384303 154.454976 
L 238.502982 156.136896 
L 231.949617 153.445824 
L 225.701327 157.650624 
L 219.737312 155.84256 
L 214.038621 162.864576 
L 208.587949 170.853696 
L 203.369465 176.572224 
L 198.368659 180.2304 
L 193.572202 185.150016 
L 188.967834 186.411456 
L 184.544256 191.036736 
L 180.291037 190.195776 
L 176.198534 187.79904 
L 172.257819 170.012736 
L 168.460613 157.398336 
L 164.799228 159.080256 
L 161.266514 173.376576 
L 157.855818 204.61824 
L 154.560934 196.20864 
L 151.376072 160.88832 
L 148.295821 117.284544 
L 145.31512 81.123264 
L 142.429227 65.313216 
L 139.6337 132.169536 
L 136.924367 196.923456 
L 134.29731 209.790144 
L 131.748845 213.153984 
L 129.275506 217.65312 
L 126.874025 216.39168 
L 124.541324 226.609344 
L 122.274495 219.75552 
L 120.070796 222.993216 
L 117.92763 224.254656 
L 115.842544 227.450304 
L 113.813216 225.347904 
L 111.837444 222.572736 
L 109.913141 228.038976 
L 108.038328 231.234624 
L 106.211126 227.870784 
L 104.429749 221.43744 
L 102.6925 217.65312 
L 100.997765 218.367936 
L 99.344008 226.357056 
L 97.729764 215.9712 
L 96.153639 220.722624 
L 94.614303 221.311296 
L 93.110489 228.038976 
L 91.640985 228.038976 
L 90.204634 231.94944 
L 88.800331 232.664256 
L 87.427021 235.859904 
L 86.083692 229.552704 
L 84.769378 232.496064 
L 83.483152 239.0976 
L 82.224127 235.859904 
L 80.991454 239.51808 
L 79.784317 239.223744 
L 78.601935 236.448576 
L 77.443558 241.073856 
L 76.308466 241.2 
L 75.195967 234.766656 
L 74.105396 238.25664 
L 73.036115 243.72288 
L 71.98751 244.14336 
L 70.95899 234.598464 
L 69.949987 243.596736 
L 68.959954 238.67712 
L 67.988364 242.587584 
L 67.034708 230.814144 
L 66.098499 232.664256 
L 65.179265 231.10848 
L 64.27655 231.10848 
L 63.389917 237.121344 
L 62.518942 242.587584 
L 61.663217 243.008064 
L 60.822348 243.72288 
L 59.995954 245.4048 
L 59.183666 243.3024 
L 58.385129 244.437696 
L 57.6 246.371904 
" clip-path="url(#p217f66cc04)" style="fill: none; stroke: #0000ff; stroke-width: 1.5; stroke-linecap: square"/>
   </g>
   <g id="line2d_30">
    <path d="M 414.72 278.20224 
L 397.349142 279.589824 
L 381.26544 278.62272 
L 366.330984 278.076096 
L 352.426887 277.066944 
L 339.450112 277.78176 
L 327.31092 275.973696 
L 315.930786 273.871296 
L 305.240705 276.394176 
L 295.179791 270.339264 
L 285.694115 262.938816 
L 276.73574 250.744896 
L 268.261912 241.326144 
L 260.234378 231.402816 
L 252.618808 227.618496 
L 245.384303 221.311296 
L 238.502982 214.583616 
L 231.949617 216.686016 
L 225.701327 213.742656 
L 219.737312 215.004096 
L 214.038621 212.901696 
L 208.587949 216.81216 
L 203.369465 221.85792 
L 198.368659 218.199744 
L 193.572202 225.768384 
L 188.967834 224.80128 
L 184.544256 227.870784 
L 180.291037 225.936576 
L 176.198534 223.665984 
L 172.257819 213.153984 
L 168.460613 208.696896 
L 164.799228 216.517824 
L 161.266514 218.367936 
L 157.855818 234.598464 
L 154.560934 229.132224 
L 151.376072 216.39168 
L 148.295821 181.197504 
L 145.31512 168.330816 
L 142.429227 173.628864 
L 139.6337 206.846784 
L 136.924367 246.540096 
L 134.29731 252.006336 
L 131.748845 252.13248 
L 129.275506 256.463424 
L 126.874025 255.622464 
L 124.541324 254.361024 
L 122.274495 262.097856 
L 120.070796 252.55296 
L 117.92763 258.86016 
L 115.842544 255.9168 
L 113.813216 256.211136 
L 111.837444 257.052096 
L 109.913141 258.86016 
L 108.038328 254.65536 
L 106.211126 254.781504 
L 104.429749 252.13248 
L 102.6925 249.903936 
L 100.997765 244.14336 
L 99.344008 245.4048 
L 97.729764 248.222016 
L 96.153639 248.222016 
L 94.614303 249.062976 
L 93.110489 251.585856 
L 91.640985 252.97344 
L 90.204634 253.940544 
L 88.800331 252.006336 
L 87.427021 254.108736 
L 86.083692 256.042944 
L 84.769378 254.23488 
L 83.483152 255.201984 
L 82.224127 259.574976 
L 80.991454 255.790656 
L 79.784317 253.39392 
L 78.601935 259.28064 
L 77.443558 261.38304 
L 76.308466 266.00832 
L 75.195967 258.86016 
L 74.105396 262.224 
L 73.036115 266.554944 
L 71.98751 262.097856 
L 70.95899 266.4288 
L 69.949987 260.96256 
L 68.959954 261.256896 
L 67.988364 259.827264 
L 67.034708 260.1216 
L 66.098499 254.65536 
L 65.179265 255.49632 
L 64.27655 254.23488 
L 63.389917 259.28064 
L 62.518942 263.611584 
L 61.663217 264.74688 
L 60.822348 263.191104 
L 59.995954 263.191104 
L 59.183666 266.00832 
L 58.385129 263.48544 
L 57.6 265.58784 
" clip-path="url(#p217f66cc04)" style="fill: none; stroke: #ff0000; stroke-width: 1.5; stroke-linecap: square"/>
   </g>
   <g id="line2d_31">
    <path d="M 414.72 287.03232 
L 397.349142 285.897024 
L 381.26544 285.224256 
L 366.330984 286.737984 
L 352.426887 284.08896 
L 339.450112 286.19136 
L 327.31092 284.92992 
L 315.930786 283.794624 
L 305.240705 284.08896 
L 295.179791 284.803776 
L 285.694115 284.50944 
L 276.73574 284.08896 
L 268.261912 283.374144 
L 260.234378 280.010304 
L 252.618808 283.248 
L 245.384303 277.235136 
L 238.502982 272.31552 
L 231.949617 264.873024 
L 225.701327 260.1216 
L 219.737312 253.8144 
L 214.038621 257.052096 
L 208.587949 246.960576 
L 203.369465 250.744896 
L 198.368659 249.18912 
L 193.572202 248.053824 
L 188.967834 249.903936 
L 184.544256 248.34816 
L 180.291037 247.801536 
L 176.198534 247.92768 
L 172.257819 248.222016 
L 168.460613 245.82528 
L 164.799228 245.699136 
L 161.266514 246.792384 
L 157.855818 256.883904 
L 154.560934 258.145344 
L 151.376072 247.5072 
L 148.295821 239.0976 
L 145.31512 225.516096 
L 142.429227 227.198016 
L 139.6337 247.5072 
L 136.924367 258.986304 
L 134.29731 267.69024 
L 131.748845 268.11072 
L 129.275506 269.077824 
L 126.874025 269.246016 
L 124.541324 268.236864 
L 122.274495 273.871296 
L 120.070796 269.918784 
L 117.92763 274.544064 
L 115.842544 271.768896 
L 113.813216 272.736 
L 111.837444 273.57696 
L 109.913141 275.132736 
L 108.038328 275.25888 
L 106.211126 276.09984 
L 104.429749 270.507456 
L 102.6925 269.918784 
L 100.997765 268.657344 
L 99.344008 262.224 
L 97.729764 262.518336 
L 96.153639 265.461696 
L 94.614303 265.041216 
L 93.110489 269.37216 
L 91.640985 268.5312 
L 90.204634 270.759744 
L 88.800331 273.15648 
L 87.427021 270.6336 
L 86.083692 272.609856 
L 84.769378 269.918784 
L 83.483152 272.609856 
L 82.224127 272.31552 
L 80.991454 270.6336 
L 79.784317 272.021184 
L 78.601935 272.609856 
L 77.443558 275.805504 
L 76.308466 272.441664 
L 75.195967 274.712256 
L 74.105396 273.99744 
L 73.036115 276.9408 
L 71.98751 270.6336 
L 70.95899 275.553216 
L 69.949987 273.871296 
L 68.959954 275.805504 
L 67.988364 275.25888 
L 67.034708 275.553216 
L 66.098499 274.41792 
L 65.179265 270.6336 
L 64.27655 272.609856 
L 63.389917 275.132736 
L 62.518942 278.328384 
L 61.663217 276.394176 
L 60.822348 275.553216 
L 59.995954 276.814656 
L 59.183666 274.8384 
L 58.385129 274.712256 
L 57.6 277.235136 
" clip-path="url(#p217f66cc04)" style="fill: none; stroke: #008000; stroke-width: 1.5; stroke-linecap: square"/>
   </g>
   <g id="line2d_32">
    <path d="M 414.72 290.101824 
L 397.349142 289.849536 
L 381.26544 289.429056 
L 366.330984 289.260864 
L 352.426887 290.39616 
L 339.450112 289.681344 
L 327.31092 290.690496 
L 315.930786 289.97568 
L 305.240705 290.270016 
L 295.179791 288.71424 
L 285.694115 290.101824 
L 276.73574 288.419904 
L 268.261912 289.13472 
L 260.234378 289.260864 
L 252.618808 289.13472 
L 245.384303 287.87328 
L 238.502982 289.5552 
L 231.949617 289.5552 
L 225.701327 288.71424 
L 219.737312 288.29376 
L 214.038621 288.29376 
L 208.587949 286.19136 
L 203.369465 285.644736 
L 198.368659 283.66848 
L 193.572202 280.30464 
L 188.967834 277.78176 
L 184.544256 277.235136 
L 180.291037 277.066944 
L 176.198534 273.282624 
L 172.257819 275.132736 
L 168.460613 273.871296 
L 164.799228 271.05408 
L 161.266514 272.862144 
L 157.855818 276.225984 
L 154.560934 272.862144 
L 151.376072 271.180224 
L 148.295821 266.554944 
L 145.31512 266.00832 
L 142.429227 269.666496 
L 139.6337 273.282624 
L 136.924367 276.814656 
L 134.29731 277.78176 
L 131.748845 279.758016 
L 129.275506 280.72512 
L 126.874025 278.328384 
L 124.541324 280.010304 
L 122.274495 279.46368 
L 120.070796 281.439936 
L 117.92763 282.953664 
L 115.842544 282.40704 
L 113.813216 281.98656 
L 111.837444 284.50944 
L 109.913141 283.66848 
L 108.038328 282.533184 
L 106.211126 285.224256 
L 104.429749 280.178496 
L 102.6925 280.851264 
L 100.997765 278.328384 
L 99.344008 278.748864 
L 97.729764 279.169344 
L 96.153639 279.88416 
L 94.614303 281.439936 
L 93.110489 281.56608 
L 91.640985 278.917056 
L 90.204634 281.1456 
L 88.800331 282.112704 
L 87.427021 282.82752 
L 86.083692 284.08896 
L 84.769378 284.92992 
L 83.483152 285.3504 
L 82.224127 283.66848 
L 80.991454 282.701376 
L 79.784317 283.794624 
L 78.601935 285.897024 
L 77.443558 283.248 
L 76.308466 282.953664 
L 75.195967 284.383296 
L 74.105396 284.08896 
L 73.036115 286.737984 
L 71.98751 285.77088 
L 70.95899 285.224256 
L 69.949987 284.215104 
L 68.959954 285.224256 
L 67.988364 284.08896 
L 67.034708 283.121856 
L 66.098499 285.056064 
L 65.179265 284.383296 
L 64.27655 285.056064 
L 63.389917 285.644736 
L 62.518942 286.737984 
L 61.663217 286.906176 
L 60.822348 284.635584 
L 59.995954 284.215104 
L 59.183666 285.3504 
L 58.385129 284.635584 
L 57.6 287.578944 
" clip-path="url(#p217f66cc04)" style="fill: none; stroke: #a52a2a; stroke-width: 1.5; stroke-linecap: square"/>
   </g>
   <g id="line2d_33">
    <path d="M 414.72 292.624704 
L 397.349142 291.783744 
L 381.26544 292.372416 
L 366.330984 293.045184 
L 352.426887 292.91904 
L 339.450112 292.49856 
L 327.31092 292.07808 
L 315.930786 292.372416 
L 305.240705 292.372416 
L 295.179791 293.045184 
L 285.694115 292.372416 
L 276.73574 291.951936 
L 268.261912 292.07808 
L 260.234378 291.6576 
L 252.618808 292.624704 
L 245.384303 292.792896 
L 238.502982 291.531456 
L 231.949617 292.624704 
L 225.701327 292.372416 
L 219.737312 292.372416 
L 214.038621 291.363264 
L 208.587949 292.624704 
L 203.369465 292.49856 
L 198.368659 291.951936 
L 193.572202 292.07808 
L 188.967834 291.783744 
L 184.544256 292.49856 
L 180.291037 292.372416 
L 176.198534 292.07808 
L 172.257819 292.49856 
L 168.460613 291.531456 
L 164.799228 292.204224 
L 161.266514 289.97568 
L 157.855818 289.13472 
L 154.560934 288.71424 
L 151.376072 290.39616 
L 148.295821 286.737984 
L 145.31512 287.326656 
L 142.429227 289.429056 
L 139.6337 288.167616 
L 136.924367 288.29376 
L 134.29731 287.158464 
L 131.748845 287.87328 
L 129.275506 287.4528 
L 126.874025 288.167616 
L 124.541324 288.167616 
L 122.274495 287.747136 
L 120.070796 287.999424 
L 117.92763 287.747136 
L 115.842544 288.167616 
L 113.813216 290.39616 
L 111.837444 288.840384 
L 109.913141 288.588096 
L 108.038328 288.840384 
L 106.211126 288.167616 
L 104.429749 288.588096 
L 102.6925 287.747136 
L 100.997765 284.635584 
L 99.344008 285.644736 
L 97.729764 285.476544 
L 96.153639 283.66848 
L 94.614303 286.61184 
L 93.110489 285.476544 
L 91.640985 286.485696 
L 90.204634 287.578944 
L 88.800331 287.747136 
L 87.427021 289.849536 
L 86.083692 288.71424 
L 84.769378 289.429056 
L 83.483152 289.849536 
L 82.224127 288.419904 
L 80.991454 290.942784 
L 79.784317 289.429056 
L 78.601935 290.690496 
L 77.443558 290.81664 
L 76.308466 290.690496 
L 75.195967 291.531456 
L 74.105396 291.363264 
L 73.036115 290.522304 
L 71.98751 291.531456 
L 70.95899 291.23712 
L 69.949987 292.49856 
L 68.959954 291.363264 
L 67.988364 291.531456 
L 67.034708 291.6576 
L 66.098499 292.07808 
L 65.179265 293.045184 
L 64.27655 291.6576 
L 63.389917 291.951936 
L 62.518942 291.6576 
L 61.663217 291.531456 
L 60.822348 290.101824 
L 59.995954 291.783744 
L 59.183666 290.81664 
L 58.385129 291.783744 
L 57.6 291.363264 
" clip-path="url(#p217f66cc04)" style="fill: none; stroke: #800080; stroke-width: 1.5; stroke-linecap: square"/>
   </g>
   <g id="patch_3">
    <path d="M 57.6 293.76 
L 57.6 41.472 
" style="fill: none; stroke: #000000; stroke-width: 0.8; stroke-linejoin: miter; stroke-linecap: square"/>
   </g>
   <g id="patch_4">
    <path d="M 414.72 293.76 
L 414.72 41.472 
" style="fill: none; stroke: #000000; stroke-width: 0.8; stroke-linejoin: miter; stroke-linecap: square"/>
   </g>
   <g id="patch_5">
    <path d="M 57.6 293.76 
L 414.72 293.76 
" style="fill: none; stroke: #000000; stroke-width: 0.8; stroke-linejoin: miter; stroke-linecap: square"/>
   </g>
   <g id="patch_6">
    <path d="M 57.6 41.472 
L 414.72 41.472 
" style="fill: none; stroke: #000000; stroke-width: 0.8; stroke-linejoin: miter; stroke-linecap: square"/>
   </g>
   <g id="text_17">
    <!-- Intensidade vs. Energia (KBr) -->
    <g transform="translate(96.54531 35.472) scale(0.23 -0.23)">
     <defs>
      <path id="CMR17-49" d="M 1261 3905 
C 1261 4192 1338 4192 1798 4192 
L 1798 4352 
C 1594 4352 1267 4352 1050 4352 
C 832 4352 506 4352 301 4352 
L 301 4192 
C 762 4192 838 4192 838 3905 
L 838 447 
C 838 160 762 160 301 160 
L 301 0 
C 506 0 832 0 1050 0 
C 1267 0 1594 0 1798 0 
L 1798 160 
C 1338 160 1261 160 1261 447 
L 1261 3905 
z
" transform="scale(0.015625)"/>
      <path id="CMR17-6e" d="M 2656 1933 
C 2656 2259 2592 2790 1837 2790 
C 1331 2790 1069 2400 973 2144 
L 966 2144 
L 966 2790 
L 211 2720 
L 211 2554 
C 589 2554 646 2515 646 2208 
L 646 428 
C 646 184 621 153 211 153 
L 211 -13 
C 365 0 646 0 813 0 
C 979 0 1267 0 1421 -13 
L 1421 153 
C 1011 153 986 178 986 428 
L 986 1658 
C 986 2247 1344 2688 1792 2688 
C 2266 2688 2317 2266 2317 1958 
L 2317 428 
C 2317 184 2291 153 1882 153 
L 1882 -13 
C 2035 0 2317 0 2483 0 
C 2650 0 2938 0 3091 -13 
L 3091 153 
C 2682 153 2656 178 2656 428 
L 2656 1933 
z
" transform="scale(0.015625)"/>
      <path id="CMR17-74" d="M 966 2560 
L 1862 2560 
L 1862 2725 
L 966 2725 
L 966 3904 
L 851 3904 
C 838 3245 614 2668 70 2668 
L 70 2560 
L 627 2560 
L 627 771 
C 627 650 627 -64 1370 -64 
C 1747 -64 1965 306 1965 777 
L 1965 1140 
L 1850 1140 
L 1850 783 
C 1850 344 1677 51 1408 51 
C 1222 51 966 178 966 758 
L 966 2560 
z
" transform="scale(0.015625)"/>
      <path id="CMR17-69" d="M 992 3909 
C 992 4049 877 4170 730 4170 
C 589 4170 467 4056 467 3909 
C 467 3769 582 3648 730 3648 
C 870 3648 992 3763 992 3909 
z
M 243 2706 
L 243 2541 
C 602 2541 653 2502 653 2197 
L 653 427 
C 653 184 627 153 218 153 
L 218 -13 
C 371 0 646 0 806 0 
C 960 0 1222 0 1370 -13 
L 1370 153 
C 992 153 979 191 979 420 
L 979 2776 
L 243 2706 
z
" transform="scale(0.015625)"/>
      <path id="CMR17-64" d="M 1869 4326 
L 1869 4160 
C 2246 4160 2304 4122 2304 3820 
L 2304 2345 
C 2278 2377 2016 2790 1498 2790 
C 845 2790 211 2208 211 1364 
C 211 525 806 -64 1434 -64 
C 1978 -64 2259 337 2291 380 
L 2291 -63 
L 3066 -63 
L 3066 128 
C 2688 128 2630 166 2630 473 
L 2630 4396 
L 1869 4326 
z
M 2291 755 
C 2291 563 2176 390 2029 262 
C 1811 70 1594 38 1472 38 
C 1286 38 621 134 621 1356 
C 621 2612 1363 2688 1530 2688 
C 1824 2688 2061 2522 2208 2291 
C 2291 2157 2291 2138 2291 2023 
L 2291 755 
z
" transform="scale(0.015625)"/>
      <path id="CMR17-61" d="M 2304 1653 
C 2304 2072 2304 2294 2035 2543 
C 1798 2752 1523 2816 1306 2816 
C 800 2816 435 2407 435 1971 
C 435 1728 627 1728 666 1728 
C 749 1728 896 1778 896 1954 
C 896 2112 774 2181 666 2181 
C 640 2181 608 2174 589 2168 
C 723 2592 1069 2714 1293 2714 
C 1613 2714 1965 2429 1965 1885 
L 1965 1600 
C 1587 1600 1133 1549 774 1357 
C 371 1133 256 813 256 570 
C 256 77 832 -64 1171 -64 
C 1523 -64 1850 139 1990 511 
C 2003 233 2182 -18 2464 -18 
C 2598 -18 2938 70 2938 567 
L 2938 920 
L 2822 920 
L 2822 562 
C 2822 178 2650 128 2566 128 
C 2304 128 2304 458 2304 738 
L 2304 1653 
z
M 1965 870 
C 1965 317 1568 38 1216 38 
C 896 38 646 275 646 570 
C 646 761 730 1100 1101 1305 
C 1408 1478 1760 1504 1965 1504 
L 1965 870 
z
" transform="scale(0.015625)"/>
      <path id="CMR17-76" d="M 2502 2163 
C 2560 2304 2662 2560 3034 2560 
L 3034 2726 
C 2912 2726 2752 2726 2630 2726 
C 2496 2726 2285 2726 2157 2732 
L 2157 2566 
C 2317 2553 2406 2477 2406 2311 
C 2406 2253 2406 2240 2368 2151 
L 1664 377 
L 902 2286 
C 864 2369 864 2381 864 2407 
C 864 2560 1075 2560 1171 2560 
L 1171 2732 
C 1018 2726 736 2726 576 2726 
C 403 2726 205 2726 64 2732 
L 64 2560 
C 307 2560 442 2560 518 2362 
L 1446 44 
C 1485 -51 1491 -64 1549 -64 
C 1606 -64 1613 -51 1651 44 
L 2502 2163 
z
" transform="scale(0.015625)"/>
      <path id="CMR17-2e" d="M 1062 261 
C 1062 420 934 522 800 522 
C 672 522 538 420 538 261 
C 538 102 666 0 800 0 
C 928 0 1062 102 1062 261 
z
" transform="scale(0.015625)"/>
      <path id="CMR17-45" d="M 3885 1615 
L 3770 1615 
C 3629 676 3546 166 2419 166 
L 1530 166 
C 1274 166 1261 197 1261 414 
L 1261 2176 
L 1862 2176 
C 2464 2176 2522 1960 2522 1430 
L 2637 1430 
L 2637 3081 
L 2522 3081 
C 2522 2557 2464 2342 1862 2342 
L 1261 2342 
L 1261 3913 
C 1261 4128 1274 4160 1530 4160 
L 2406 4160 
C 3398 4160 3514 3769 3603 2929 
L 3718 2929 
L 3565 4325 
L 326 4325 
L 326 4160 
C 768 4160 838 4160 838 3874 
L 838 451 
C 838 166 768 166 326 166 
L 326 0 
L 3654 0 
L 3885 1615 
z
" transform="scale(0.015625)"/>
      <path id="CMR17-72" d="M 960 1497 
C 960 2112 1222 2688 1702 2688 
C 1747 2688 1792 2682 1837 2662 
C 1837 2662 1696 2617 1696 2452 
C 1696 2298 1818 2234 1914 2234 
C 1990 2234 2131 2279 2131 2458 
C 2131 2663 1926 2790 1709 2790 
C 1222 2790 1011 2317 947 2093 
L 941 2093 
L 941 2790 
L 198 2720 
L 198 2554 
C 576 2554 634 2515 634 2208 
L 634 428 
C 634 184 608 153 198 153 
L 198 -13 
C 352 0 646 0 813 0 
C 998 0 1325 0 1498 -13 
L 1498 153 
C 1037 153 960 153 960 440 
L 960 1497 
z
" transform="scale(0.015625)"/>
      <path id="CMR17-67" d="M 710 1164 
C 832 1068 1043 960 1299 960 
C 1805 960 2240 1357 2240 1888 
C 2240 2054 2189 2310 1997 2509 
C 2176 2692 2438 2752 2586 2752 
C 2611 2752 2650 2752 2682 2734 
C 2656 2728 2598 2703 2598 2605 
C 2598 2527 2656 2471 2739 2471 
C 2835 2471 2886 2533 2886 2614 
C 2886 2731 2790 2854 2586 2854 
C 2330 2854 2106 2738 1926 2580 
C 1734 2753 1504 2816 1299 2816 
C 794 2816 358 2419 358 1888 
C 358 1522 570 1292 634 1228 
C 442 1004 442 743 442 711 
C 442 545 506 302 723 168 
C 390 85 128 -169 128 -486 
C 128 -943 736 -1280 1466 -1280 
C 2170 -1280 2803 -956 2803 -479 
C 2803 384 1856 384 1363 384 
C 1216 384 954 384 922 391 
C 723 423 589 602 589 826 
C 589 883 589 1024 710 1164 
z
M 1299 1068 
C 736 1068 736 1760 736 1889 
C 736 2016 736 2708 1299 2708 
C 1862 2708 1862 2016 1862 1889 
C 1862 1760 1862 1068 1299 1068 
z
M 1466 -1171 
C 826 -1171 384 -835 384 -486 
C 384 -289 493 -105 634 -4 
C 794 104 858 104 1293 104 
C 1818 104 2547 104 2547 -486 
C 2547 -835 2106 -1171 1466 -1171 
z
" transform="scale(0.015625)"/>
      <path id="CMR17-4b" d="M 2362 2675 
L 3469 3782 
C 3699 4006 3942 4186 4301 4186 
L 4301 4352 
C 4173 4352 4013 4352 3885 4352 
C 3712 4352 3411 4352 3245 4358 
L 3245 4192 
C 3411 4180 3437 4065 3437 4019 
C 3437 3975 3411 3905 3386 3867 
L 1261 1738 
L 1261 3900 
C 1261 4186 1331 4186 1773 4186 
L 1773 4352 
C 1587 4352 1248 4352 1050 4352 
C 851 4352 512 4352 326 4352 
L 326 4186 
C 768 4186 838 4186 838 3899 
L 838 446 
C 838 160 768 160 326 160 
L 326 0 
C 512 0 851 0 1050 0 
C 1248 0 1587 0 1773 0 
L 1773 160 
C 1331 160 1261 160 1261 447 
L 1261 1579 
L 2080 2390 
L 3290 537 
C 3328 473 3373 390 3373 326 
C 3373 160 3194 160 3110 160 
L 3110 0 
C 3315 0 3610 0 3821 0 
C 3974 0 4237 0 4384 -6 
L 4384 160 
C 4077 160 3981 198 3789 493 
L 2362 2675 
z
" transform="scale(0.015625)"/>
      <path id="CMR17-42" d="M 333 4352 
L 333 4186 
C 774 4186 845 4186 845 3900 
L 845 452 
C 845 166 774 166 333 166 
L 333 0 
L 2534 0 
C 3354 0 3885 583 3885 1164 
C 3885 1741 3360 2233 2675 2233 
C 3290 2356 3718 2771 3718 3264 
C 3718 3802 3194 4352 2368 4352 
L 333 4352 
z
M 1248 2304 
L 1248 3937 
C 1248 4155 1261 4186 1517 4186 
L 2336 4186 
C 2970 4186 3251 3674 3251 3277 
C 3251 2791 2861 2304 2170 2304 
L 1248 2304 
z
M 1517 166 
C 1261 166 1248 197 1248 413 
L 1248 2202 
L 2432 2202 
C 3091 2202 3411 1625 3411 1162 
C 3411 699 3046 166 2349 166 
L 1517 166 
z
" transform="scale(0.015625)"/>
     </defs>
     <use xlink:href="#CMR17-49" transform="scale(0.996264)"/>
     <use xlink:href="#CMR17-6e" transform="translate(32.638409 0) scale(0.996264)"/>
     <use xlink:href="#CMR17-74" transform="translate(80.931325 0) scale(0.996264)"/>
     <use xlink:href="#CMR17-65" transform="translate(116.212093 0) scale(0.996264)"/>
     <use xlink:href="#CMR17-6e" transform="translate(156.697753 0) scale(0.996264)"/>
     <use xlink:href="#CMR17-73" transform="translate(207.593123 0) scale(0.996264)"/>
     <use xlink:href="#CMR17-69" transform="translate(243.394461 0) scale(0.996264)"/>
     <use xlink:href="#CMR17-64" transform="translate(268.265519 0) scale(0.996264)"/>
     <use xlink:href="#CMR17-61" transform="translate(319.160889 0) scale(0.996264)"/>
     <use xlink:href="#CMR17-64" transform="translate(364.851366 0) scale(0.996264)"/>
     <use xlink:href="#CMR17-65" transform="translate(415.746736 0) scale(0.996264)"/>
     <use xlink:href="#CMR17-76" transform="translate(486.308363 0) scale(0.996264)"/>
     <use xlink:href="#CMR17-73" transform="translate(534.601279 0) scale(0.996264)"/>
     <use xlink:href="#CMR17-2e" transform="translate(570.402616 0) scale(0.996264)"/>
     <use xlink:href="#CMR17-45" transform="translate(635.759335 0) scale(0.996264)"/>
     <use xlink:href="#CMR17-6e" transform="translate(698.345636 0) scale(0.996264)"/>
     <use xlink:href="#CMR17-65" transform="translate(749.241005 0) scale(0.996264)"/>
     <use xlink:href="#CMR17-72" transform="translate(789.726666 0) scale(0.996264)"/>
     <use xlink:href="#CMR17-67" transform="translate(825.007434 0) scale(0.996264)"/>
     <use xlink:href="#CMR17-69" transform="translate(870.697911 0) scale(0.996264)"/>
     <use xlink:href="#CMR17-61" transform="translate(895.568969 0) scale(0.996264)"/>
     <use xlink:href="#CMR17-28" transform="translate(971.335413 0) scale(0.996264)"/>
     <use xlink:href="#CMR17-4b" transform="translate(1006.616181 0) scale(0.996264)"/>
     <use xlink:href="#CMR17-42" transform="translate(1078.290958 0) scale(0.996264)"/>
     <use xlink:href="#CMR17-72" transform="translate(1143.479712 0) scale(0.996264)"/>
     <use xlink:href="#CMR17-29" transform="translate(1178.76048 0) scale(0.996264)"/>
    </g>
   </g>
   <g id="legend_1">
    <g id="patch_7">
     <path d="M 312.413185 134.694979 
L 406.32 134.694979 
Q 408.72 134.694979 408.72 132.294979 
L 408.72 49.872 
Q 408.72 47.472 406.32 47.472 
L 312.413185 47.472 
Q 310.013185 47.472 310.013185 49.872 
L 310.013185 132.294979 
Q 310.013185 134.694979 312.413185 134.694979 
z
" style="fill: #ffffff; opacity: 0.8; stroke: #cccccc; stroke-linejoin: miter"/>
    </g>
    <g id="line2d_34">
     <path d="M 314.813185 56.472 
L 326.813185 56.472 
L 338.813185 56.472 
" style="fill: none; stroke: #0000ff; stroke-width: 1.5; stroke-linecap: square"/>
    </g>
    <g id="text_18">
     <!-- $U = 35$ kV -->
     <g transform="translate(348.413185 60.672) scale(0.12 -0.12)">
      <defs>
       <path id="CMMI12-55" d="M 3238 1474 
C 3014 581 2272 57 1670 57 
C 1210 57 896 363 896 891 
C 896 916 896 1107 966 1387 
L 1594 3887 
C 1651 4103 1664 4167 2118 4167 
C 2234 4167 2298 4167 2298 4282 
C 2298 4352 2240 4352 2202 4352 
C 2086 4352 1952 4352 1830 4352 
L 1075 4352 
C 954 4352 819 4352 698 4352 
C 653 4352 576 4352 576 4231 
C 576 4167 621 4167 742 4167 
C 1126 4167 1126 4116 1126 4046 
C 1126 4008 1082 3824 1050 3715 
L 493 1488 
C 474 1418 435 1246 435 1075 
C 435 374 941 -128 1638 -128 
C 2285 -128 3002 384 3328 1197 
C 3373 1305 3430 1530 3469 1702 
C 3533 1933 3667 2496 3712 2662 
L 3955 3623 
C 4038 3956 4090 4167 4653 4167 
C 4704 4173 4730 4224 4730 4282 
C 4730 4352 4672 4352 4646 4352 
C 4557 4352 4442 4352 4352 4352 
L 4051 4352 
C 3654 4352 3450 4352 3443 4352 
C 3405 4352 3328 4352 3328 4231 
C 3328 4167 3379 4167 3424 4167 
C 3808 4167 3834 4020 3834 3905 
C 3834 3848 3834 3828 3808 3739 
L 3238 1474 
z
" transform="scale(0.015625)"/>
       <path id="CMR17-3d" d="M 4115 2017 
C 4211 2017 4307 2017 4307 2125 
C 4307 2240 4198 2240 4090 2240 
L 512 2240 
C 403 2240 294 2240 294 2125 
C 294 2017 390 2017 486 2017 
L 4115 2017 
z
M 4090 896 
C 4198 896 4307 896 4307 1011 
C 4307 1119 4211 1119 4115 1119 
L 486 1119 
C 390 1119 294 1119 294 1011 
C 294 896 403 896 512 896 
L 4090 896 
z
" transform="scale(0.015625)"/>
      </defs>
      <use xlink:href="#CMMI12-55" transform="scale(0.996264)"/>
      <use xlink:href="#CMR17-3d" transform="translate(104.332782 0) scale(0.996264)"/>
      <use xlink:href="#CMR17-33" transform="translate(203.721579 0) scale(0.996264)"/>
      <use xlink:href="#CMR17-35" transform="translate(249.412056 0) scale(0.996264)"/>
      <use xlink:href="#CMR17-6b" transform="translate(325.178499 0) scale(0.996264)"/>
      <use xlink:href="#CMR17-56" transform="translate(373.471415 0) scale(0.996264)"/>
     </g>
    </g>
    <g id="line2d_35">
     <path d="M 314.813185 73.196596 
L 326.813185 73.196596 
L 338.813185 73.196596 
" style="fill: none; stroke: #ff0000; stroke-width: 1.5; stroke-linecap: square"/>
    </g>
    <g id="text_19">
     <!-- $U = 30$ kV -->
     <g transform="translate(348.413185 77.396596) scale(0.12 -0.12)">
      <use xlink:href="#CMMI12-55" transform="scale(0.996264)"/>
      <use xlink:href="#CMR17-3d" transform="translate(104.332782 0) scale(0.996264)"/>
      <use xlink:href="#CMR17-33" transform="translate(203.721579 0) scale(0.996264)"/>
      <use xlink:href="#CMR17-30" transform="translate(249.412056 0) scale(0.996264)"/>
      <use xlink:href="#CMR17-6b" transform="translate(325.178499 0) scale(0.996264)"/>
      <use xlink:href="#CMR17-56" transform="translate(373.471415 0) scale(0.996264)"/>
     </g>
    </g>
    <g id="line2d_36">
     <path d="M 314.813185 89.921192 
L 326.813185 89.921192 
L 338.813185 89.921192 
" style="fill: none; stroke: #008000; stroke-width: 1.5; stroke-linecap: square"/>
    </g>
    <g id="text_20">
     <!-- $U = 26$ kV -->
     <g transform="translate(348.413185 94.121192) scale(0.12 -0.12)">
      <use xlink:href="#CMMI12-55" transform="scale(0.996264)"/>
      <use xlink:href="#CMR17-3d" transform="translate(104.332782 0) scale(0.996264)"/>
      <use xlink:href="#CMR17-32" transform="translate(203.721579 0) scale(0.996264)"/>
      <use xlink:href="#CMR17-36" transform="translate(249.412056 0) scale(0.996264)"/>
      <use xlink:href="#CMR17-6b" transform="translate(325.178499 0) scale(0.996264)"/>
      <use xlink:href="#CMR17-56" transform="translate(373.471415 0) scale(0.996264)"/>
     </g>
    </g>
    <g id="line2d_37">
     <path d="M 314.813185 106.645787 
L 326.813185 106.645787 
L 338.813185 106.645787 
" style="fill: none; stroke: #a52a2a; stroke-width: 1.5; stroke-linecap: square"/>
    </g>
    <g id="text_21">
     <!-- $U = 22$ kV -->
     <g transform="translate(348.413185 110.845787) scale(0.12 -0.12)">
      <use xlink:href="#CMMI12-55" transform="scale(0.996264)"/>
      <use xlink:href="#CMR17-3d" transform="translate(104.332782 0) scale(0.996264)"/>
      <use xlink:href="#CMR17-32" transform="translate(203.721579 0) scale(0.996264)"/>
      <use xlink:href="#CMR17-32" transform="translate(249.412056 0) scale(0.996264)"/>
      <use xlink:href="#CMR17-6b" transform="translate(325.178499 0) scale(0.996264)"/>
      <use xlink:href="#CMR17-56" transform="translate(373.471415 0) scale(0.996264)"/>
     </g>
    </g>
    <g id="line2d_38">
     <path d="M 314.813185 123.370383 
L 326.813185 123.370383 
L 338.813185 123.370383 
" style="fill: none; stroke: #800080; stroke-width: 1.5; stroke-linecap: square"/>
    </g>
    <g id="text_22">
     <!-- $U = 18$ kV -->
     <g transform="translate(348.413185 127.570383) scale(0.12 -0.12)">
      <defs>
       <path id="CMR17-38" d="M 1741 2264 
C 2144 2467 2554 2773 2554 3263 
C 2554 3841 1990 4179 1472 4179 
C 890 4179 378 3759 378 3180 
C 378 3021 416 2747 666 2505 
C 730 2442 998 2251 1171 2130 
C 883 1983 211 1634 211 934 
C 211 279 838 -128 1459 -128 
C 2144 -128 2720 362 2720 1010 
C 2720 1590 2330 1857 2074 2029 
L 1741 2264 
z
M 902 2822 
C 851 2854 595 3051 595 3351 
C 595 3739 998 4032 1459 4032 
C 1965 4032 2336 3676 2336 3262 
C 2336 2669 1670 2331 1638 2331 
C 1632 2331 1626 2331 1574 2370 
L 902 2822 
z
M 2080 1519 
C 2176 1449 2483 1240 2483 851 
C 2483 381 2010 25 1472 25 
C 890 25 448 438 448 940 
C 448 1443 838 1862 1280 2060 
L 2080 1519 
z
" transform="scale(0.015625)"/>
      </defs>
      <use xlink:href="#CMMI12-55" transform="scale(0.996264)"/>
      <use xlink:href="#CMR17-3d" transform="translate(104.332782 0) scale(0.996264)"/>
      <use xlink:href="#CMR17-31" transform="translate(203.721579 0) scale(0.996264)"/>
      <use xlink:href="#CMR17-38" transform="translate(249.412056 0) scale(0.996264)"/>
      <use xlink:href="#CMR17-6b" transform="translate(325.178499 0) scale(0.996264)"/>
      <use xlink:href="#CMR17-56" transform="translate(373.471415 0) scale(0.996264)"/>
     </g>
    </g>
   </g>
  </g>
 </g>
 <defs>
  <clipPath id="p217f66cc04">
   <rect x="57.6" y="41.472" width="357.12" height="252.288"/>
  </clipPath>
 </defs>
</svg>
