<?xml version="1.0" encoding="utf-8" standalone="no"?>
<!DOCTYPE svg PUBLIC "-//W3C//DTD SVG 1.1//EN"
  "http://www.w3.org/Graphics/SVG/1.1/DTD/svg11.dtd">
<svg xmlns:xlink="http://www.w3.org/1999/xlink" width="460.8pt" height="345.6pt" viewBox="0 0 460.8 345.6" xmlns="http://www.w3.org/2000/svg" version="1.1">
 <metadata>
  <rdf:RDF xmlns:dc="http://purl.org/dc/elements/1.1/" xmlns:cc="http://creativecommons.org/ns#" xmlns:rdf="http://www.w3.org/1999/02/22-rdf-syntax-ns#">
   <cc:Work>
    <dc:type rdf:resource="http://purl.org/dc/dcmitype/StillImage"/>
    <dc:date>2024-03-25T16:48:45.831249</dc:date>
    <dc:format>image/svg+xml</dc:format>
    <dc:creator>
     <cc:Agent>
      <dc:title>Matplotlib v3.8.3, https://matplotlib.org/</dc:title>
     </cc:Agent>
    </dc:creator>
   </cc:Work>
  </rdf:RDF>
 </metadata>
 <defs>
  <style type="text/css">*{stroke-linejoin: round; stroke-linecap: butt}</style>
 </defs>
 <g id="figure_1">
  <g id="patch_1">
   <path d="M 0 345.6 
L 460.8 345.6 
L 460.8 0 
L 0 0 
z
" style="fill: #ffffff"/>
  </g>
  <g id="axes_1">
   <g id="patch_2">
    <path d="M 57.6 293.76 
L 414.72 293.76 
L 414.72 41.472 
L 57.6 41.472 
z
" style="fill: #ffffff"/>
   </g>
   <g id="matplotlib.axis_1">
    <g id="xtick_1">
     <g id="line2d_1">
      <path d="M 97.296627 293.76 
L 97.296627 41.472 
" clip-path="url(#p5b4ab29c0c)" style="fill: none; stroke: #b0b0b0; stroke-width: 0.8; stroke-linecap: square"/>
     </g>
     <g id="line2d_2">
      <defs>
       <path id="mfa25e6d93a" d="M 0 0 
L 0 3.5 
" style="stroke: #000000; stroke-width: 0.8"/>
      </defs>
      <g>
       <use xlink:href="#mfa25e6d93a" x="97.296627" y="293.76" style="stroke: #000000; stroke-width: 0.8"/>
      </g>
     </g>
     <g id="text_1">
      <!-- $\mathdefault{15}$ -->
      <g transform="translate(89.980389 311.137725) scale(0.15 -0.15)">
       <defs>
        <path id="CMR17-31" d="M 1702 4058 
C 1702 4192 1696 4192 1606 4192 
C 1357 3916 979 3827 621 3827 
C 602 3827 570 3827 563 3808 
C 557 3795 557 3782 557 3648 
C 755 3648 1088 3686 1344 3839 
L 1344 461 
C 1344 236 1331 160 781 160 
L 589 160 
L 589 0 
C 896 0 1216 0 1523 0 
C 1830 0 2150 0 2458 0 
L 2458 160 
L 2266 160 
C 1715 160 1702 230 1702 458 
L 1702 4058 
z
" transform="scale(0.015625)"/>
        <path id="CMR17-35" d="M 730 3692 
C 794 3666 1056 3584 1325 3584 
C 1920 3584 2246 3911 2432 4100 
C 2432 4157 2432 4192 2394 4192 
C 2387 4192 2374 4192 2323 4163 
C 2099 4058 1837 3973 1517 3973 
C 1325 3973 1037 3999 723 4139 
C 653 4171 640 4171 634 4171 
C 602 4171 595 4164 595 4037 
L 595 2203 
C 595 2089 595 2057 659 2057 
C 691 2057 704 2070 736 2114 
C 941 2401 1222 2522 1542 2522 
C 1766 2522 2246 2382 2246 1289 
C 2246 1085 2246 715 2054 421 
C 1894 159 1645 25 1370 25 
C 947 25 518 320 403 814 
C 429 807 480 795 506 795 
C 589 795 749 840 749 1038 
C 749 1210 627 1280 506 1280 
C 358 1280 262 1190 262 1011 
C 262 454 704 -128 1382 -128 
C 2042 -128 2669 440 2669 1264 
C 2669 2030 2170 2624 1549 2624 
C 1222 2624 947 2503 730 2274 
L 730 3692 
z
" transform="scale(0.015625)"/>
       </defs>
       <use xlink:href="#CMR17-31" transform="scale(0.996264)"/>
       <use xlink:href="#CMR17-35" transform="translate(45.690477 0) scale(0.996264)"/>
      </g>
     </g>
    </g>
    <g id="xtick_2">
     <g id="line2d_3">
      <path d="M 142.133798 293.76 
L 142.133798 41.472 
" clip-path="url(#p5b4ab29c0c)" style="fill: none; stroke: #b0b0b0; stroke-width: 0.8; stroke-linecap: square"/>
     </g>
     <g id="line2d_4">
      <g>
       <use xlink:href="#mfa25e6d93a" x="142.133798" y="293.76" style="stroke: #000000; stroke-width: 0.8"/>
      </g>
     </g>
     <g id="text_2">
      <!-- $\mathdefault{20}$ -->
      <g transform="translate(134.81756 311.137725) scale(0.15 -0.15)">
       <defs>
        <path id="CMR17-32" d="M 2669 989 
L 2554 989 
C 2490 536 2438 459 2413 420 
C 2381 369 1920 369 1830 369 
L 602 369 
C 832 619 1280 1072 1824 1597 
C 2214 1967 2669 2402 2669 3035 
C 2669 3790 2067 4224 1395 4224 
C 691 4224 262 3604 262 3030 
C 262 2780 448 2748 525 2748 
C 589 2748 781 2787 781 3010 
C 781 3207 614 3264 525 3264 
C 486 3264 448 3258 422 3245 
C 544 3790 915 4058 1306 4058 
C 1862 4058 2227 3617 2227 3035 
C 2227 2479 1901 2000 1536 1584 
L 262 146 
L 262 0 
L 2515 0 
L 2669 989 
z
" transform="scale(0.015625)"/>
        <path id="CMR17-30" d="M 2688 2025 
C 2688 2416 2682 3080 2413 3591 
C 2176 4039 1798 4198 1466 4198 
C 1158 4198 768 4058 525 3597 
C 269 3118 243 2524 243 2025 
C 243 1661 250 1106 448 619 
C 723 -39 1216 -128 1466 -128 
C 1760 -128 2208 -7 2470 600 
C 2662 1042 2688 1559 2688 2025 
z
M 1466 -26 
C 1056 -26 813 325 723 812 
C 653 1188 653 1738 653 2096 
C 653 2588 653 2997 736 3387 
C 858 3929 1216 4096 1466 4096 
C 1728 4096 2067 3923 2189 3400 
C 2272 3036 2278 2607 2278 2096 
C 2278 1680 2278 1169 2202 792 
C 2067 95 1690 -26 1466 -26 
z
" transform="scale(0.015625)"/>
       </defs>
       <use xlink:href="#CMR17-32" transform="scale(0.996264)"/>
       <use xlink:href="#CMR17-30" transform="translate(45.690477 0) scale(0.996264)"/>
      </g>
     </g>
    </g>
    <g id="xtick_3">
     <g id="line2d_5">
      <path d="M 186.970968 293.76 
L 186.970968 41.472 
" clip-path="url(#p5b4ab29c0c)" style="fill: none; stroke: #b0b0b0; stroke-width: 0.8; stroke-linecap: square"/>
     </g>
     <g id="line2d_6">
      <g>
       <use xlink:href="#mfa25e6d93a" x="186.970968" y="293.76" style="stroke: #000000; stroke-width: 0.8"/>
      </g>
     </g>
     <g id="text_3">
      <!-- $\mathdefault{25}$ -->
      <g transform="translate(179.65473 311.137725) scale(0.15 -0.15)">
       <use xlink:href="#CMR17-32" transform="scale(0.996264)"/>
       <use xlink:href="#CMR17-35" transform="translate(45.690477 0) scale(0.996264)"/>
      </g>
     </g>
    </g>
    <g id="xtick_4">
     <g id="line2d_7">
      <path d="M 231.808138 293.76 
L 231.808138 41.472 
" clip-path="url(#p5b4ab29c0c)" style="fill: none; stroke: #b0b0b0; stroke-width: 0.8; stroke-linecap: square"/>
     </g>
     <g id="line2d_8">
      <g>
       <use xlink:href="#mfa25e6d93a" x="231.808138" y="293.76" style="stroke: #000000; stroke-width: 0.8"/>
      </g>
     </g>
     <g id="text_4">
      <!-- $\mathdefault{30}$ -->
      <g transform="translate(224.4919 311.137725) scale(0.15 -0.15)">
       <defs>
        <path id="CMR17-33" d="M 1414 2157 
C 1984 2157 2234 1662 2234 1090 
C 2234 320 1824 25 1453 25 
C 1114 25 563 194 390 693 
C 422 680 454 680 486 680 
C 640 680 755 782 755 948 
C 755 1133 614 1216 486 1216 
C 378 1216 211 1165 211 926 
C 211 335 787 -128 1466 -128 
C 2176 -128 2720 430 2720 1085 
C 2720 1707 2208 2157 1600 2227 
C 2086 2328 2554 2756 2554 3329 
C 2554 3820 2048 4179 1472 4179 
C 890 4179 378 3829 378 3329 
C 378 3110 544 3072 627 3072 
C 762 3072 877 3155 877 3321 
C 877 3486 762 3569 627 3569 
C 602 3569 570 3569 544 3557 
C 730 3959 1235 4032 1459 4032 
C 1683 4032 2106 3925 2106 3320 
C 2106 3143 2080 2828 1862 2550 
C 1670 2304 1453 2304 1242 2284 
C 1210 2284 1062 2269 1037 2269 
C 992 2263 966 2257 966 2208 
C 966 2163 973 2157 1101 2157 
L 1414 2157 
z
" transform="scale(0.015625)"/>
       </defs>
       <use xlink:href="#CMR17-33" transform="scale(0.996264)"/>
       <use xlink:href="#CMR17-30" transform="translate(45.690477 0) scale(0.996264)"/>
      </g>
     </g>
    </g>
    <g id="xtick_5">
     <g id="line2d_9">
      <path d="M 276.645308 293.76 
L 276.645308 41.472 
" clip-path="url(#p5b4ab29c0c)" style="fill: none; stroke: #b0b0b0; stroke-width: 0.8; stroke-linecap: square"/>
     </g>
     <g id="line2d_10">
      <g>
       <use xlink:href="#mfa25e6d93a" x="276.645308" y="293.76" style="stroke: #000000; stroke-width: 0.8"/>
      </g>
     </g>
     <g id="text_5">
      <!-- $\mathdefault{35}$ -->
      <g transform="translate(269.329071 311.137725) scale(0.15 -0.15)">
       <use xlink:href="#CMR17-33" transform="scale(0.996264)"/>
       <use xlink:href="#CMR17-35" transform="translate(45.690477 0) scale(0.996264)"/>
      </g>
     </g>
    </g>
    <g id="xtick_6">
     <g id="line2d_11">
      <path d="M 321.482479 293.76 
L 321.482479 41.472 
" clip-path="url(#p5b4ab29c0c)" style="fill: none; stroke: #b0b0b0; stroke-width: 0.8; stroke-linecap: square"/>
     </g>
     <g id="line2d_12">
      <g>
       <use xlink:href="#mfa25e6d93a" x="321.482479" y="293.76" style="stroke: #000000; stroke-width: 0.8"/>
      </g>
     </g>
     <g id="text_6">
      <!-- $\mathdefault{40}$ -->
      <g transform="translate(314.166241 311.137725) scale(0.15 -0.15)">
       <defs>
        <path id="CMR17-34" d="M 2150 4122 
C 2150 4256 2144 4256 2029 4256 
L 128 1254 
L 128 1088 
L 1779 1088 
L 1779 457 
C 1779 224 1766 160 1318 160 
L 1197 160 
L 1197 0 
C 1402 0 1747 0 1965 0 
C 2182 0 2528 0 2733 0 
L 2733 160 
L 2611 160 
C 2163 160 2150 224 2150 457 
L 2150 1088 
L 2803 1088 
L 2803 1254 
L 2150 1254 
L 2150 4122 
z
M 1798 3703 
L 1798 1254 
L 256 1254 
L 1798 3703 
z
" transform="scale(0.015625)"/>
       </defs>
       <use xlink:href="#CMR17-34" transform="scale(0.996264)"/>
       <use xlink:href="#CMR17-30" transform="translate(45.690477 0) scale(0.996264)"/>
      </g>
     </g>
    </g>
    <g id="xtick_7">
     <g id="line2d_13">
      <path d="M 366.319649 293.76 
L 366.319649 41.472 
" clip-path="url(#p5b4ab29c0c)" style="fill: none; stroke: #b0b0b0; stroke-width: 0.8; stroke-linecap: square"/>
     </g>
     <g id="line2d_14">
      <g>
       <use xlink:href="#mfa25e6d93a" x="366.319649" y="293.76" style="stroke: #000000; stroke-width: 0.8"/>
      </g>
     </g>
     <g id="text_7">
      <!-- $\mathdefault{45}$ -->
      <g transform="translate(359.003411 311.137725) scale(0.15 -0.15)">
       <use xlink:href="#CMR17-34" transform="scale(0.996264)"/>
       <use xlink:href="#CMR17-35" transform="translate(45.690477 0) scale(0.996264)"/>
      </g>
     </g>
    </g>
    <g id="xtick_8">
     <g id="line2d_15">
      <path d="M 411.156819 293.76 
L 411.156819 41.472 
" clip-path="url(#p5b4ab29c0c)" style="fill: none; stroke: #b0b0b0; stroke-width: 0.8; stroke-linecap: square"/>
     </g>
     <g id="line2d_16">
      <g>
       <use xlink:href="#mfa25e6d93a" x="411.156819" y="293.76" style="stroke: #000000; stroke-width: 0.8"/>
      </g>
     </g>
     <g id="text_8">
      <!-- $\mathdefault{50}$ -->
      <g transform="translate(403.840581 311.137725) scale(0.15 -0.15)">
       <use xlink:href="#CMR17-35" transform="scale(0.996264)"/>
       <use xlink:href="#CMR17-30" transform="translate(45.690477 0) scale(0.996264)"/>
      </g>
     </g>
    </g>
    <g id="text_9">
     <!-- $E$ (keV) -->
     <g transform="translate(206.105635 331.476889) scale(0.18 -0.18)">
      <defs>
       <path id="CMMI12-45" d="M 4448 1489 
C 4454 1508 4474 1554 4474 1579 
C 4474 1611 4448 1643 4410 1643 
C 4384 1643 4371 1637 4352 1617 
C 4339 1611 4339 1598 4282 1469 
C 3904 570 3629 185 2605 185 
L 1670 185 
C 1581 185 1568 185 1530 192 
C 1459 198 1453 211 1453 262 
C 1453 307 1466 345 1478 403 
L 1920 2176 
L 2554 2176 
C 3053 2176 3091 2066 3091 1874 
C 3091 1810 3091 1752 3046 1560 
C 3034 1534 3027 1508 3027 1489 
C 3027 1444 3059 1425 3098 1425 
C 3155 1425 3162 1469 3187 1559 
L 3552 3042 
C 3552 3073 3526 3105 3488 3105 
C 3430 3105 3424 3080 3398 2990 
C 3270 2501 3142 2361 2573 2361 
L 1965 2361 
L 2362 3930 
C 2419 4154 2432 4154 2694 4154 
L 3610 4154 
C 4397 4154 4557 3943 4557 3458 
C 4557 3451 4557 3273 4531 3062 
C 4525 3036 4518 2998 4518 2985 
C 4518 2934 4550 2915 4589 2915 
C 4634 2915 4659 2941 4672 3055 
L 4806 4174 
C 4806 4195 4819 4263 4819 4277 
C 4819 4352 4762 4352 4646 4352 
L 1523 4352 
C 1402 4352 1338 4352 1338 4229 
C 1338 4154 1382 4154 1491 4154 
C 1888 4154 1888 4114 1888 4052 
C 1888 4020 1882 3994 1862 3924 
L 998 473 
C 941 249 928 185 480 185 
C 358 185 294 185 294 70 
C 294 0 333 0 461 0 
L 3674 0 
C 3814 0 3821 6 3866 110 
L 4448 1489 
z
" transform="scale(0.015625)"/>
       <path id="CMR17-28" d="M 1958 -1561 
C 1958 -1555 1958 -1542 1939 -1523 
C 1645 -1224 858 -407 858 1581 
C 858 3569 1632 4379 1946 4697 
C 1946 4704 1958 4717 1958 4736 
C 1958 4755 1939 4768 1914 4768 
C 1843 4768 1299 4296 986 3594 
C 666 2887 576 2199 576 1588 
C 576 1128 621 351 1005 -471 
C 1312 -1135 1837 -1600 1914 -1600 
C 1946 -1600 1958 -1587 1958 -1561 
z
" transform="scale(0.015625)"/>
       <path id="CMR17-6b" d="M 1670 1673 
C 1664 1686 1632 1724 1632 1743 
C 1632 1756 2086 2171 2144 2222 
C 2509 2528 2739 2560 2906 2560 
L 2906 2733 
C 2867 2733 2854 2733 2848 2720 
L 2534 2720 
C 2355 2720 2080 2720 1907 2733 
L 1907 2566 
C 1997 2559 2061 2508 2061 2419 
C 2061 2291 1933 2170 1926 2170 
L 960 1289 
L 960 4396 
L 198 4326 
L 198 4160 
C 576 4160 634 4122 634 3817 
L 634 426 
C 634 184 608 153 198 153 
L 198 -13 
C 352 0 634 0 794 0 
C 954 0 1235 0 1389 -13 
L 1389 153 
C 979 153 954 178 954 428 
L 954 1130 
L 1395 1532 
L 2042 574 
C 2118 459 2182 369 2182 286 
C 2182 172 2067 153 1990 153 
L 1990 -13 
C 2144 0 2419 0 2579 0 
C 2694 0 2931 0 3040 0 
L 3040 153 
C 2739 153 2669 210 2477 491 
L 1670 1673 
z
" transform="scale(0.015625)"/>
       <path id="CMR17-65" d="M 2438 1472 
C 2464 1498 2464 1511 2464 1576 
C 2464 2238 2118 2816 1389 2816 
C 710 2816 173 2169 173 1383 
C 173 551 781 -64 1459 -64 
C 2176 -64 2458 607 2458 740 
C 2458 784 2419 784 2406 784 
C 2362 784 2355 771 2330 696 
C 2189 265 1837 51 1504 51 
C 1229 51 954 203 781 480 
C 582 803 582 1176 582 1472 
L 2438 1472 
z
M 589 1568 
C 634 2505 1126 2714 1382 2714 
C 1818 2714 2112 2297 2118 1568 
L 589 1568 
z
" transform="scale(0.015625)"/>
       <path id="CMR17-56" d="M 3776 3745 
C 3834 3886 3936 4160 4365 4160 
L 4365 4332 
C 4218 4319 4051 4319 3891 4319 
C 3738 4319 3475 4319 3328 4332 
L 3328 4160 
C 3648 4160 3661 3936 3661 3898 
C 3661 3827 3642 3783 3622 3732 
L 2362 446 
L 1043 3886 
C 1024 3931 1011 3963 1011 3994 
C 1011 4160 1267 4160 1402 4160 
L 1402 4319 
C 1197 4319 896 4319 685 4319 
C 518 4319 218 4319 64 4332 
L 64 4160 
C 435 4160 506 4135 582 3931 
L 2106 -26 
C 2138 -115 2144 -128 2214 -128 
C 2285 -128 2291 -115 2323 -26 
L 3776 3745 
z
" transform="scale(0.015625)"/>
       <path id="CMR17-29" d="M 1683 1581 
C 1683 2040 1638 2817 1254 3639 
C 947 4303 422 4768 346 4768 
C 326 4768 301 4761 301 4729 
C 301 4717 307 4710 314 4697 
C 621 4378 1402 3568 1402 1584 
C 1402 -407 627 -1217 314 -1537 
C 307 -1549 301 -1556 301 -1568 
C 301 -1600 326 -1600 346 -1600 
C 416 -1600 960 -1128 1274 -426 
C 1594 281 1683 969 1683 1581 
z
" transform="scale(0.015625)"/>
      </defs>
      <use xlink:href="#CMMI12-45" transform="scale(0.996264)"/>
      <use xlink:href="#CMR17-28" transform="translate(108.127603 0) scale(0.996264)"/>
      <use xlink:href="#CMR17-6b" transform="translate(143.40837 0) scale(0.996264)"/>
      <use xlink:href="#CMR17-65" transform="translate(189.098832 0) scale(0.996264)"/>
      <use xlink:href="#CMR17-56" transform="translate(229.584493 0) scale(0.996264)"/>
      <use xlink:href="#CMR17-29" transform="translate(298.656923 0) scale(0.996264)"/>
     </g>
    </g>
   </g>
   <g id="matplotlib.axis_2">
    <g id="ytick_1">
     <g id="line2d_17">
      <path d="M 57.6 293.76 
L 414.72 293.76 
" clip-path="url(#p5b4ab29c0c)" style="fill: none; stroke: #b0b0b0; stroke-width: 0.8; stroke-linecap: square"/>
     </g>
     <g id="line2d_18">
      <defs>
       <path id="m56c04a6892" d="M 0 0 
L -3.5 0 
" style="stroke: #000000; stroke-width: 0.8"/>
      </defs>
      <g>
       <use xlink:href="#m56c04a6892" x="57.6" y="293.76" style="stroke: #000000; stroke-width: 0.8"/>
      </g>
     </g>
     <g id="text_10">
      <!-- $\mathdefault{0.0}$ -->
      <g transform="translate(31.902948 298.948862) scale(0.15 -0.15)">
       <defs>
        <path id="CMMI12-3a" d="M 1178 307 
C 1178 492 1024 619 870 619 
C 685 619 557 466 557 313 
C 557 128 710 0 864 0 
C 1050 0 1178 153 1178 307 
z
" transform="scale(0.015625)"/>
       </defs>
       <use xlink:href="#CMR17-30" transform="scale(0.996264)"/>
       <use xlink:href="#CMMI12-3a" transform="translate(45.690477 0) scale(0.996264)"/>
       <use xlink:href="#CMR17-30" transform="translate(72.787654 0) scale(0.996264)"/>
      </g>
     </g>
    </g>
    <g id="ytick_2">
     <g id="line2d_19">
      <path d="M 57.6 243.3024 
L 414.72 243.3024 
" clip-path="url(#p5b4ab29c0c)" style="fill: none; stroke: #b0b0b0; stroke-width: 0.8; stroke-linecap: square"/>
     </g>
     <g id="line2d_20">
      <g>
       <use xlink:href="#m56c04a6892" x="57.6" y="243.3024" style="stroke: #000000; stroke-width: 0.8"/>
      </g>
     </g>
     <g id="text_11">
      <!-- $\mathdefault{0.5}$ -->
      <g transform="translate(31.902948 248.491262) scale(0.15 -0.15)">
       <use xlink:href="#CMR17-30" transform="scale(0.996264)"/>
       <use xlink:href="#CMMI12-3a" transform="translate(45.690477 0) scale(0.996264)"/>
       <use xlink:href="#CMR17-35" transform="translate(72.787654 0) scale(0.996264)"/>
      </g>
     </g>
    </g>
    <g id="ytick_3">
     <g id="line2d_21">
      <path d="M 57.6 192.8448 
L 414.72 192.8448 
" clip-path="url(#p5b4ab29c0c)" style="fill: none; stroke: #b0b0b0; stroke-width: 0.8; stroke-linecap: square"/>
     </g>
     <g id="line2d_22">
      <g>
       <use xlink:href="#m56c04a6892" x="57.6" y="192.8448" style="stroke: #000000; stroke-width: 0.8"/>
      </g>
     </g>
     <g id="text_12">
      <!-- $\mathdefault{1.0}$ -->
      <g transform="translate(31.902948 198.033662) scale(0.15 -0.15)">
       <use xlink:href="#CMR17-31" transform="scale(0.996264)"/>
       <use xlink:href="#CMMI12-3a" transform="translate(45.690477 0) scale(0.996264)"/>
       <use xlink:href="#CMR17-30" transform="translate(72.787654 0) scale(0.996264)"/>
      </g>
     </g>
    </g>
    <g id="ytick_4">
     <g id="line2d_23">
      <path d="M 57.6 142.3872 
L 414.72 142.3872 
" clip-path="url(#p5b4ab29c0c)" style="fill: none; stroke: #b0b0b0; stroke-width: 0.8; stroke-linecap: square"/>
     </g>
     <g id="line2d_24">
      <g>
       <use xlink:href="#m56c04a6892" x="57.6" y="142.3872" style="stroke: #000000; stroke-width: 0.8"/>
      </g>
     </g>
     <g id="text_13">
      <!-- $\mathdefault{1.5}$ -->
      <g transform="translate(31.902948 147.576062) scale(0.15 -0.15)">
       <use xlink:href="#CMR17-31" transform="scale(0.996264)"/>
       <use xlink:href="#CMMI12-3a" transform="translate(45.690477 0) scale(0.996264)"/>
       <use xlink:href="#CMR17-35" transform="translate(72.787654 0) scale(0.996264)"/>
      </g>
     </g>
    </g>
    <g id="ytick_5">
     <g id="line2d_25">
      <path d="M 57.6 91.9296 
L 414.72 91.9296 
" clip-path="url(#p5b4ab29c0c)" style="fill: none; stroke: #b0b0b0; stroke-width: 0.8; stroke-linecap: square"/>
     </g>
     <g id="line2d_26">
      <g>
       <use xlink:href="#m56c04a6892" x="57.6" y="91.9296" style="stroke: #000000; stroke-width: 0.8"/>
      </g>
     </g>
     <g id="text_14">
      <!-- $\mathdefault{2.0}$ -->
      <g transform="translate(31.902948 97.118462) scale(0.15 -0.15)">
       <use xlink:href="#CMR17-32" transform="scale(0.996264)"/>
       <use xlink:href="#CMMI12-3a" transform="translate(45.690477 0) scale(0.996264)"/>
       <use xlink:href="#CMR17-30" transform="translate(72.787654 0) scale(0.996264)"/>
      </g>
     </g>
    </g>
    <g id="ytick_6">
     <g id="line2d_27">
      <path d="M 57.6 41.472 
L 414.72 41.472 
" clip-path="url(#p5b4ab29c0c)" style="fill: none; stroke: #b0b0b0; stroke-width: 0.8; stroke-linecap: square"/>
     </g>
     <g id="line2d_28">
      <g>
       <use xlink:href="#m56c04a6892" x="57.6" y="41.472" style="stroke: #000000; stroke-width: 0.8"/>
      </g>
     </g>
     <g id="text_15">
      <!-- $\mathdefault{2.5}$ -->
      <g transform="translate(31.902948 46.660862) scale(0.15 -0.15)">
       <use xlink:href="#CMR17-32" transform="scale(0.996264)"/>
       <use xlink:href="#CMMI12-3a" transform="translate(45.690477 0) scale(0.996264)"/>
       <use xlink:href="#CMR17-35" transform="translate(72.787654 0) scale(0.996264)"/>
      </g>
     </g>
    </g>
    <g id="text_16">
     <!-- $I$ ($10^3$/s) -->
     <g transform="translate(23.434764 200.130864) rotate(-90) scale(0.18 -0.18)">
      <defs>
       <path id="CMMI12-49" d="M 2355 3880 
C 2413 4103 2426 4167 2893 4167 
C 3034 4167 3085 4167 3085 4288 
C 3085 4352 3014 4352 2995 4352 
C 2880 4352 2739 4352 2624 4352 
L 1837 4352 
C 1709 4352 1562 4352 1434 4352 
C 1382 4352 1312 4352 1312 4231 
C 1312 4167 1363 4167 1491 4167 
C 1888 4167 1888 4116 1888 4046 
C 1888 4002 1875 3963 1862 3906 
L 998 472 
C 941 249 928 185 461 185 
C 320 185 262 185 262 64 
C 262 0 326 0 358 0 
C 474 0 614 0 730 0 
L 1517 0 
C 1645 0 1786 0 1914 0 
C 1965 0 2042 0 2042 115 
C 2042 185 2003 185 1862 185 
C 1466 185 1466 236 1466 312 
C 1466 325 1466 357 1491 459 
L 2355 3880 
z
" transform="scale(0.015625)"/>
       <path id="CMR17-2f" d="M 2605 4545 
C 2637 4627 2637 4640 2637 4653 
C 2637 4729 2579 4768 2528 4768 
C 2451 4768 2426 4717 2400 4640 
L 326 -1377 
C 294 -1460 294 -1473 294 -1486 
C 294 -1562 352 -1600 403 -1600 
C 480 -1600 506 -1549 531 -1473 
L 2605 4545 
z
" transform="scale(0.015625)"/>
       <path id="CMR17-73" d="M 1978 2697 
C 1978 2813 1971 2819 1933 2819 
C 1907 2819 1901 2813 1824 2717 
C 1805 2691 1747 2626 1728 2601 
C 1523 2819 1235 2819 1126 2819 
C 416 2819 160 2447 160 2076 
C 160 1498 813 1365 998 1325 
C 1402 1243 1542 1217 1677 1101 
C 1760 1025 1901 884 1901 654 
C 1901 384 1747 38 1158 38 
C 602 38 403 460 288 1021 
C 269 1110 269 1117 218 1117 
C 166 1117 160 1110 160 983 
L 160 63 
C 160 -51 166 -58 205 -58 
C 237 -58 243 -51 275 0 
C 314 57 410 211 448 276 
C 576 103 800 -64 1158 -64 
C 1792 -64 2131 283 2131 784 
C 2131 1112 1958 1285 1875 1362 
C 1683 1561 1459 1606 1190 1657 
C 838 1735 390 1825 390 2217 
C 390 2383 480 2737 1126 2737 
C 1811 2737 1850 2094 1862 1888 
C 1869 1856 1901 1849 1920 1849 
C 1978 1849 1978 1869 1978 1978 
L 1978 2697 
z
" transform="scale(0.015625)"/>
      </defs>
      <use xlink:href="#CMMI12-49" transform="scale(0.996264)"/>
      <use xlink:href="#CMR17-28" transform="translate(80.93248 0) scale(0.996264)"/>
      <use xlink:href="#CMR17-31" transform="translate(116.213248 0) scale(0.996264)"/>
      <use xlink:href="#CMR17-30" transform="translate(161.903725 0) scale(0.996264)"/>
      <use xlink:href="#CMR17-33" transform="translate(207.594202 36.153639) scale(0.697382)"/>
      <use xlink:href="#CMR17-2f" transform="translate(240.075516 0) scale(0.996264)"/>
      <use xlink:href="#CMR17-73" transform="translate(285.765993 0) scale(0.996264)"/>
      <use xlink:href="#CMR17-29" transform="translate(321.567331 0) scale(0.996264)"/>
     </g>
    </g>
   </g>
   <g id="line2d_29">
    <path d="M 414.72 293.154509 
L 397.349142 293.154509 
L 381.26544 293.083868 
L 366.330984 293.083868 
L 352.426887 293.154509 
L 339.450112 293.023319 
L 327.31092 292.619658 
L 315.930786 291.469225 
L 305.240705 289.087626 
L 295.179791 277.179633 
L 285.694115 253.72694 
L 276.73574 227.287158 
L 268.261912 204.924349 
L 260.234378 191.401713 
L 252.618808 185.14497 
L 245.384303 177.57633 
L 238.502982 170.037965 
L 231.949617 168.796708 
L 225.701327 167.343529 
L 219.737312 167.111424 
L 214.038621 169.059087 
L 208.587949 168.857257 
L 203.369465 173.236977 
L 198.368659 173.640637 
L 193.572202 180.058844 
L 188.967834 181.945958 
L 184.544256 184.065178 
L 180.291037 188.404531 
L 176.198534 192.168668 
L 172.257819 198.193306 
L 168.460613 203.844557 
L 164.799228 205.832586 
L 161.266514 210.17194 
L 157.855818 218.002959 
L 154.560934 219.052477 
L 151.376072 223.32119 
L 148.295821 225.339494 
L 145.31512 219.254308 
L 142.429227 184.600028 
L 139.6337 157.453839 
L 136.924367 157.090545 
L 134.29731 201.594148 
L 131.748845 236.874102 
L 129.275506 240.476774 
L 126.874025 238.862131 
L 124.541324 216.428682 
L 122.274495 115.816228 
L 120.070796 46.891146 
L 117.92763 45.680164 
L 115.842544 141.307407 
L 113.813216 237.782339 
L 111.837444 247.308733 
L 109.913141 246.602327 
L 108.038328 250.235274 
L 106.211126 250.800399 
L 104.429749 249.932529 
L 102.6925 252.889344 
L 100.997765 253.091174 
L 99.344008 254.907648 
L 97.729764 257.026867 
L 96.153639 255.281034 
L 94.614303 258.005745 
L 93.110489 259.176361 
L 91.640985 260.326794 
L 90.204634 262.345098 
L 88.800331 263.011139 
L 87.427021 262.405647 
L 86.083692 263.112054 
L 84.769378 263.656996 
L 83.483152 267.592689 
L 82.224127 267.320218 
L 80.991454 267.189028 
L 79.784317 269.510077 
L 78.601935 269.641267 
L 77.443558 270.751334 
L 76.308466 269.439437 
L 75.195967 272.133873 
L 74.105396 272.093507 
L 73.036115 272.133873 
L 71.98751 271.962317 
L 70.95899 273.77879 
L 69.949987 273.102659 
L 68.959954 274.959498 
L 67.988364 274.919132 
L 67.034708 273.809065 
L 66.098499 274.959498 
L 65.179265 275.89801 
L 64.27655 276.43286 
L 63.389917 277.482378 
L 62.518942 277.583293 
L 61.663217 277.684209 
L 60.822348 276.503501 
L 59.995954 278.390615 
L 59.183666 279.329126 
L 58.385129 278.552079 
L 57.6 279.157571 
" clip-path="url(#p5b4ab29c0c)" style="fill: none; stroke: #0000ff; stroke-width: 1.5; stroke-linecap: square"/>
   </g>
   <g id="line2d_30">
    <path d="M 414.72 293.527895 
L 397.349142 293.326065 
L 381.26544 293.225149 
L 366.330984 293.386614 
L 352.426887 293.42698 
L 339.450112 293.457254 
L 327.31092 293.326065 
L 315.930786 293.487529 
L 305.240705 293.326065 
L 295.179791 293.356339 
L 285.694115 293.487529 
L 276.73574 293.154509 
L 268.261912 292.982953 
L 260.234378 293.124234 
L 252.618808 291.509591 
L 245.384303 285.656509 
L 238.502982 272.194422 
L 231.949617 255.9168 
L 225.701327 244.311552 
L 219.737312 232.978775 
L 214.038621 230.112783 
L 208.587949 224.400983 
L 203.369465 222.312038 
L 198.368659 220.969866 
L 193.572202 223.45238 
L 188.967834 220.768036 
L 184.544256 222.947804 
L 180.291037 224.431258 
L 176.198534 225.51105 
L 172.257819 227.024778 
L 168.460613 227.488988 
L 164.799228 229.981594 
L 161.266514 233.786097 
L 157.855818 234.724608 
L 154.560934 239.669453 
L 151.376072 240.98135 
L 148.295821 242.293248 
L 145.31512 237.348403 
L 142.429227 217.770854 
L 139.6337 202.300554 
L 136.924367 205.529841 
L 134.29731 230.183424 
L 131.748845 252.788429 
L 129.275506 254.503987 
L 126.874025 253.969137 
L 124.541324 243.605146 
L 122.274495 184.095452 
L 120.070796 137.442355 
L 117.92763 132.870897 
L 115.842544 199.979505 
L 113.813216 261.638692 
L 111.837444 266.00832 
L 109.913141 268.561475 
L 108.038328 270.176118 
L 106.211126 271.659571 
L 104.429749 272.365978 
L 102.6925 272.133873 
L 100.997765 271.588931 
L 99.344008 271.831127 
L 97.729764 272.234788 
L 96.153639 272.436618 
L 94.614303 273.274214 
L 93.110489 270.650419 
L 91.640985 271.225636 
L 90.204634 273.173299 
L 88.800331 275.221878 
L 87.427021 274.858583 
L 86.083692 274.051261 
L 84.769378 275.696179 
L 83.483152 276.402586 
L 82.224127 277.714483 
L 80.991454 276.43286 
L 79.784317 277.179633 
L 78.601935 278.047503 
L 77.443558 278.249334 
L 76.308466 279.329126 
L 75.195967 279.833702 
L 74.105396 280.106173 
L 73.036115 280.308004 
L 71.98751 280.81258 
L 70.95899 280.610749 
L 69.949987 280.166723 
L 68.959954 281.549261 
L 67.988364 281.044685 
L 67.034708 282.558413 
L 66.098499 282.154752 
L 65.179265 282.689603 
L 64.27655 283.567565 
L 63.389917 283.79967 
L 62.518942 283.496924 
L 61.663217 284.0015 
L 60.822348 284.909737 
L 59.995954 284.778547 
L 59.183666 284.344612 
L 58.385129 284.173056 
L 57.6 285.384038 
" clip-path="url(#p5b4ab29c0c)" style="fill: none; stroke: #ff0000; stroke-width: 1.5; stroke-linecap: square"/>
   </g>
   <g id="line2d_31">
    <path d="M 414.72 293.62881 
L 397.349142 293.487529 
L 381.26544 293.659085 
L 366.330984 293.689359 
L 352.426887 293.487529 
L 339.450112 293.55817 
L 327.31092 293.457254 
L 315.930786 293.42698 
L 305.240705 293.386614 
L 295.179791 293.527895 
L 285.694115 293.55817 
L 276.73574 293.55817 
L 268.261912 293.55817 
L 260.234378 293.326065 
L 252.618808 293.42698 
L 245.384303 293.62881 
L 238.502982 293.527895 
L 231.949617 293.386614 
L 225.701327 293.588444 
L 219.737312 293.386614 
L 214.038621 291.842611 
L 208.587949 288.683965 
L 203.369465 279.934618 
L 198.368659 272.698998 
L 193.572202 264.867978 
L 188.967834 260.124964 
L 184.544256 258.005745 
L 180.291037 253.969137 
L 176.198534 254.302157 
L 172.257819 254.372797 
L 168.460613 253.666391 
L 164.799228 254.332431 
L 161.266514 255.513139 
L 157.855818 258.409405 
L 154.560934 256.653481 
L 151.376072 257.803914 
L 148.295821 256.189271 
L 145.31512 254.403072 
L 142.429227 244.715213 
L 139.6337 240.073114 
L 136.924367 239.941924 
L 134.29731 252.717788 
L 131.748845 263.757911 
L 129.275506 265.433103 
L 126.874025 267.320218 
L 124.541324 261.598326 
L 122.274495 228.669696 
L 120.070796 202.431744 
L 117.92763 200.443715 
L 115.842544 239.164877 
L 113.813216 270.075203 
L 111.837444 273.344855 
L 109.913141 274.010895 
L 108.038328 275.665905 
L 106.211126 277.209907 
L 104.429749 277.008077 
L 102.6925 278.188785 
L 100.997765 279.934618 
L 99.344008 279.662147 
L 97.729764 280.005258 
L 96.153639 281.922647 
L 94.614303 282.931799 
L 93.110489 281.680451 
L 91.640985 283.638205 
L 90.204634 284.748273 
L 88.800331 284.374886 
L 87.427021 284.405161 
L 86.083692 285.212483 
L 84.769378 285.787699 
L 83.483152 285.515228 
L 82.224127 285.212483 
L 80.991454 286.695936 
L 79.784317 286.262001 
L 78.601935 284.808822 
L 77.443558 285.051018 
L 76.308466 285.787699 
L 75.195967 285.817974 
L 74.105396 284.506076 
L 73.036115 285.686784 
L 71.98751 286.39319 
L 70.95899 286.726211 
L 69.949987 286.564746 
L 68.959954 286.766577 
L 67.988364 286.796851 
L 67.034708 287.099597 
L 66.098499 286.968407 
L 65.179265 286.19136 
L 64.27655 286.423465 
L 63.389917 286.968407 
L 62.518942 287.230787 
L 61.663217 288.007834 
L 60.822348 286.867492 
L 59.995954 287.372068 
L 59.183666 287.705088 
L 58.385129 287.977559 
L 57.6 288.007834 
" clip-path="url(#p5b4ab29c0c)" style="fill: none; stroke: #008000; stroke-width: 1.5; stroke-linecap: square"/>
   </g>
   <g id="line2d_32">
    <path d="M 414.72 293.76 
L 397.349142 293.527895 
L 381.26544 293.588444 
L 366.330984 293.62881 
L 352.426887 293.729725 
L 339.450112 293.62881 
L 327.31092 293.659085 
L 315.930786 293.689359 
L 305.240705 293.659085 
L 295.179791 293.729725 
L 285.694115 293.588444 
L 276.73574 293.689359 
L 268.261912 293.659085 
L 260.234378 293.527895 
L 252.618808 293.62881 
L 245.384303 293.588444 
L 238.502982 293.659085 
L 231.949617 293.729725 
L 225.701327 293.62881 
L 219.737312 293.729725 
L 214.038621 293.62881 
L 208.587949 293.527895 
L 203.369465 293.729725 
L 198.368659 293.55817 
L 193.572202 293.659085 
L 188.967834 293.689359 
L 184.544256 293.487529 
L 180.291037 293.62881 
L 176.198534 292.316913 
L 172.257819 290.328883 
L 168.460613 286.897766 
L 164.799228 282.356582 
L 161.266514 280.913495 
L 157.855818 279.430042 
L 154.560934 277.482378 
L 151.376072 277.845673 
L 148.295821 274.717302 
L 145.31512 274.414556 
L 142.429227 272.194422 
L 139.6337 268.66239 
L 136.924367 270.246758 
L 134.29731 272.840279 
L 131.748845 275.120963 
L 129.275506 276.23103 
L 126.874025 275.322793 
L 124.541324 274.656753 
L 122.274495 266.714726 
L 120.070796 259.580022 
L 117.92763 259.620388 
L 115.842544 270.176118 
L 113.813216 278.794276 
L 111.837444 280.207089 
L 109.913141 280.106173 
L 108.038328 280.368553 
L 106.211126 281.952922 
L 104.429749 281.751091 
L 102.6925 282.326308 
L 100.997765 283.739121 
L 99.344008 284.374886 
L 97.729764 283.396009 
L 96.153639 284.304246 
L 94.614303 285.515228 
L 93.110489 285.98953 
L 91.640985 286.019804 
L 90.204634 285.888614 
L 88.800331 286.463831 
L 87.427021 287.129871 
L 86.083692 288.38122 
L 84.769378 288.683965 
L 83.483152 288.784881 
L 82.224127 289.390372 
L 80.991454 289.854582 
L 79.784317 290.298609 
L 78.601935 290.096778 
L 77.443558 290.328883 
L 76.308466 290.127053 
L 75.195967 290.500439 
L 74.105396 290.833459 
L 73.036115 290.964649 
L 71.98751 291.03529 
L 70.95899 291.741696 
L 69.949987 291.812337 
L 68.959954 291.711421 
L 67.988364 291.872886 
L 67.034708 291.943526 
L 66.098499 291.872886 
L 65.179265 291.610506 
L 64.27655 291.23712 
L 63.389917 290.9041 
L 62.518942 291.307761 
L 61.663217 291.307761 
L 60.822348 290.732544 
L 59.995954 291.509591 
L 59.183666 291.307761 
L 58.385129 291.03529 
L 57.6 291.23712 
" clip-path="url(#p5b4ab29c0c)" style="fill: none; stroke: #a52a2a; stroke-width: 1.5; stroke-linecap: square"/>
   </g>
   <g id="line2d_33">
    <path d="M 414.72 293.689359 
L 397.349142 293.62881 
L 381.26544 293.689359 
L 366.330984 293.689359 
L 352.426887 293.659085 
L 339.450112 293.729725 
L 327.31092 293.689359 
L 315.930786 293.729725 
L 305.240705 293.689359 
L 295.179791 293.659085 
L 285.694115 293.689359 
L 276.73574 293.689359 
L 268.261912 293.76 
L 260.234378 293.76 
L 252.618808 293.729725 
L 245.384303 293.729725 
L 238.502982 293.729725 
L 231.949617 293.76 
L 225.701327 293.729725 
L 219.737312 293.689359 
L 214.038621 293.689359 
L 208.587949 293.689359 
L 203.369465 293.76 
L 198.368659 293.729725 
L 193.572202 293.62881 
L 188.967834 293.659085 
L 184.544256 293.689359 
L 180.291037 293.689359 
L 176.198534 293.76 
L 172.257819 293.659085 
L 168.460613 293.729725 
L 164.799228 293.729725 
L 161.266514 293.76 
L 157.855818 293.689359 
L 154.560934 293.689359 
L 151.376072 293.729725 
L 148.295821 293.659085 
L 145.31512 293.689359 
L 142.429227 293.527895 
L 139.6337 293.457254 
L 136.924367 293.184783 
L 134.29731 292.175631 
L 131.748845 290.399524 
L 129.275506 289.652751 
L 126.874025 289.117901 
L 124.541324 288.179389 
L 122.274495 287.735363 
L 120.070796 287.604173 
L 117.92763 286.968407 
L 115.842544 287.472983 
L 113.813216 287.170237 
L 111.837444 287.200512 
L 109.913141 286.867492 
L 108.038328 286.998682 
L 106.211126 287.533532 
L 104.429749 288.038108 
L 102.6925 287.674813 
L 100.997765 287.503258 
L 99.344008 288.441769 
L 97.729764 287.977559 
L 96.153639 288.71424 
L 94.614303 288.91607 
L 93.110489 289.390372 
L 91.640985 289.390372 
L 90.204634 289.249091 
L 88.800331 289.521562 
L 87.427021 289.592202 
L 86.083692 289.753667 
L 84.769378 290.096778 
L 83.483152 290.258243 
L 82.224127 291.166479 
L 80.991454 290.934374 
L 79.784317 291.267395 
L 78.601935 290.863734 
L 77.443558 291.10593 
L 76.308466 291.469225 
L 75.195967 291.842611 
L 74.105396 291.842611 
L 73.036115 292.175631 
L 71.98751 292.074716 
L 70.95899 292.377462 
L 69.949987 292.680207 
L 68.959954 292.952678 
L 67.988364 292.750848 
L 67.034708 292.649933 
L 66.098499 292.478377 
L 65.179265 292.720573 
L 64.27655 292.882038 
L 63.389917 293.124234 
L 62.518942 292.952678 
L 61.663217 293.255424 
L 60.822348 293.285699 
L 59.995954 293.356339 
L 59.183666 293.326065 
L 58.385129 293.527895 
L 57.6 293.457254 
" clip-path="url(#p5b4ab29c0c)" style="fill: none; stroke: #800080; stroke-width: 1.5; stroke-linecap: square"/>
   </g>
   <g id="patch_3">
    <path d="M 57.6 293.76 
L 57.6 41.472 
" style="fill: none; stroke: #000000; stroke-width: 0.8; stroke-linejoin: miter; stroke-linecap: square"/>
   </g>
   <g id="patch_4">
    <path d="M 414.72 293.76 
L 414.72 41.472 
" style="fill: none; stroke: #000000; stroke-width: 0.8; stroke-linejoin: miter; stroke-linecap: square"/>
   </g>
   <g id="patch_5">
    <path d="M 57.6 293.76 
L 414.72 293.76 
" style="fill: none; stroke: #000000; stroke-width: 0.8; stroke-linejoin: miter; stroke-linecap: square"/>
   </g>
   <g id="patch_6">
    <path d="M 57.6 41.472 
L 414.72 41.472 
" style="fill: none; stroke: #000000; stroke-width: 0.8; stroke-linejoin: miter; stroke-linecap: square"/>
   </g>
   <g id="text_17">
    <!-- Intensidade vs. Energia (NaCl) -->
    <g transform="translate(92.635366 35.472) scale(0.23 -0.23)">
     <defs>
      <path id="CMR17-49" d="M 1261 3905 
C 1261 4192 1338 4192 1798 4192 
L 1798 4352 
C 1594 4352 1267 4352 1050 4352 
C 832 4352 506 4352 301 4352 
L 301 4192 
C 762 4192 838 4192 838 3905 
L 838 447 
C 838 160 762 160 301 160 
L 301 0 
C 506 0 832 0 1050 0 
C 1267 0 1594 0 1798 0 
L 1798 160 
C 1338 160 1261 160 1261 447 
L 1261 3905 
z
" transform="scale(0.015625)"/>
      <path id="CMR17-6e" d="M 2656 1933 
C 2656 2259 2592 2790 1837 2790 
C 1331 2790 1069 2400 973 2144 
L 966 2144 
L 966 2790 
L 211 2720 
L 211 2554 
C 589 2554 646 2515 646 2208 
L 646 428 
C 646 184 621 153 211 153 
L 211 -13 
C 365 0 646 0 813 0 
C 979 0 1267 0 1421 -13 
L 1421 153 
C 1011 153 986 178 986 428 
L 986 1658 
C 986 2247 1344 2688 1792 2688 
C 2266 2688 2317 2266 2317 1958 
L 2317 428 
C 2317 184 2291 153 1882 153 
L 1882 -13 
C 2035 0 2317 0 2483 0 
C 2650 0 2938 0 3091 -13 
L 3091 153 
C 2682 153 2656 178 2656 428 
L 2656 1933 
z
" transform="scale(0.015625)"/>
      <path id="CMR17-74" d="M 966 2560 
L 1862 2560 
L 1862 2725 
L 966 2725 
L 966 3904 
L 851 3904 
C 838 3245 614 2668 70 2668 
L 70 2560 
L 627 2560 
L 627 771 
C 627 650 627 -64 1370 -64 
C 1747 -64 1965 306 1965 777 
L 1965 1140 
L 1850 1140 
L 1850 783 
C 1850 344 1677 51 1408 51 
C 1222 51 966 178 966 758 
L 966 2560 
z
" transform="scale(0.015625)"/>
      <path id="CMR17-69" d="M 992 3909 
C 992 4049 877 4170 730 4170 
C 589 4170 467 4056 467 3909 
C 467 3769 582 3648 730 3648 
C 870 3648 992 3763 992 3909 
z
M 243 2706 
L 243 2541 
C 602 2541 653 2502 653 2197 
L 653 427 
C 653 184 627 153 218 153 
L 218 -13 
C 371 0 646 0 806 0 
C 960 0 1222 0 1370 -13 
L 1370 153 
C 992 153 979 191 979 420 
L 979 2776 
L 243 2706 
z
" transform="scale(0.015625)"/>
      <path id="CMR17-64" d="M 1869 4326 
L 1869 4160 
C 2246 4160 2304 4122 2304 3820 
L 2304 2345 
C 2278 2377 2016 2790 1498 2790 
C 845 2790 211 2208 211 1364 
C 211 525 806 -64 1434 -64 
C 1978 -64 2259 337 2291 380 
L 2291 -63 
L 3066 -63 
L 3066 128 
C 2688 128 2630 166 2630 473 
L 2630 4396 
L 1869 4326 
z
M 2291 755 
C 2291 563 2176 390 2029 262 
C 1811 70 1594 38 1472 38 
C 1286 38 621 134 621 1356 
C 621 2612 1363 2688 1530 2688 
C 1824 2688 2061 2522 2208 2291 
C 2291 2157 2291 2138 2291 2023 
L 2291 755 
z
" transform="scale(0.015625)"/>
      <path id="CMR17-61" d="M 2304 1653 
C 2304 2072 2304 2294 2035 2543 
C 1798 2752 1523 2816 1306 2816 
C 800 2816 435 2407 435 1971 
C 435 1728 627 1728 666 1728 
C 749 1728 896 1778 896 1954 
C 896 2112 774 2181 666 2181 
C 640 2181 608 2174 589 2168 
C 723 2592 1069 2714 1293 2714 
C 1613 2714 1965 2429 1965 1885 
L 1965 1600 
C 1587 1600 1133 1549 774 1357 
C 371 1133 256 813 256 570 
C 256 77 832 -64 1171 -64 
C 1523 -64 1850 139 1990 511 
C 2003 233 2182 -18 2464 -18 
C 2598 -18 2938 70 2938 567 
L 2938 920 
L 2822 920 
L 2822 562 
C 2822 178 2650 128 2566 128 
C 2304 128 2304 458 2304 738 
L 2304 1653 
z
M 1965 870 
C 1965 317 1568 38 1216 38 
C 896 38 646 275 646 570 
C 646 761 730 1100 1101 1305 
C 1408 1478 1760 1504 1965 1504 
L 1965 870 
z
" transform="scale(0.015625)"/>
      <path id="CMR17-76" d="M 2502 2163 
C 2560 2304 2662 2560 3034 2560 
L 3034 2726 
C 2912 2726 2752 2726 2630 2726 
C 2496 2726 2285 2726 2157 2732 
L 2157 2566 
C 2317 2553 2406 2477 2406 2311 
C 2406 2253 2406 2240 2368 2151 
L 1664 377 
L 902 2286 
C 864 2369 864 2381 864 2407 
C 864 2560 1075 2560 1171 2560 
L 1171 2732 
C 1018 2726 736 2726 576 2726 
C 403 2726 205 2726 64 2732 
L 64 2560 
C 307 2560 442 2560 518 2362 
L 1446 44 
C 1485 -51 1491 -64 1549 -64 
C 1606 -64 1613 -51 1651 44 
L 2502 2163 
z
" transform="scale(0.015625)"/>
      <path id="CMR17-2e" d="M 1062 261 
C 1062 420 934 522 800 522 
C 672 522 538 420 538 261 
C 538 102 666 0 800 0 
C 928 0 1062 102 1062 261 
z
" transform="scale(0.015625)"/>
      <path id="CMR17-45" d="M 3885 1615 
L 3770 1615 
C 3629 676 3546 166 2419 166 
L 1530 166 
C 1274 166 1261 197 1261 414 
L 1261 2176 
L 1862 2176 
C 2464 2176 2522 1960 2522 1430 
L 2637 1430 
L 2637 3081 
L 2522 3081 
C 2522 2557 2464 2342 1862 2342 
L 1261 2342 
L 1261 3913 
C 1261 4128 1274 4160 1530 4160 
L 2406 4160 
C 3398 4160 3514 3769 3603 2929 
L 3718 2929 
L 3565 4325 
L 326 4325 
L 326 4160 
C 768 4160 838 4160 838 3874 
L 838 451 
C 838 166 768 166 326 166 
L 326 0 
L 3654 0 
L 3885 1615 
z
" transform="scale(0.015625)"/>
      <path id="CMR17-72" d="M 960 1497 
C 960 2112 1222 2688 1702 2688 
C 1747 2688 1792 2682 1837 2662 
C 1837 2662 1696 2617 1696 2452 
C 1696 2298 1818 2234 1914 2234 
C 1990 2234 2131 2279 2131 2458 
C 2131 2663 1926 2790 1709 2790 
C 1222 2790 1011 2317 947 2093 
L 941 2093 
L 941 2790 
L 198 2720 
L 198 2554 
C 576 2554 634 2515 634 2208 
L 634 428 
C 634 184 608 153 198 153 
L 198 -13 
C 352 0 646 0 813 0 
C 998 0 1325 0 1498 -13 
L 1498 153 
C 1037 153 960 153 960 440 
L 960 1497 
z
" transform="scale(0.015625)"/>
      <path id="CMR17-67" d="M 710 1164 
C 832 1068 1043 960 1299 960 
C 1805 960 2240 1357 2240 1888 
C 2240 2054 2189 2310 1997 2509 
C 2176 2692 2438 2752 2586 2752 
C 2611 2752 2650 2752 2682 2734 
C 2656 2728 2598 2703 2598 2605 
C 2598 2527 2656 2471 2739 2471 
C 2835 2471 2886 2533 2886 2614 
C 2886 2731 2790 2854 2586 2854 
C 2330 2854 2106 2738 1926 2580 
C 1734 2753 1504 2816 1299 2816 
C 794 2816 358 2419 358 1888 
C 358 1522 570 1292 634 1228 
C 442 1004 442 743 442 711 
C 442 545 506 302 723 168 
C 390 85 128 -169 128 -486 
C 128 -943 736 -1280 1466 -1280 
C 2170 -1280 2803 -956 2803 -479 
C 2803 384 1856 384 1363 384 
C 1216 384 954 384 922 391 
C 723 423 589 602 589 826 
C 589 883 589 1024 710 1164 
z
M 1299 1068 
C 736 1068 736 1760 736 1889 
C 736 2016 736 2708 1299 2708 
C 1862 2708 1862 2016 1862 1889 
C 1862 1760 1862 1068 1299 1068 
z
M 1466 -1171 
C 826 -1171 384 -835 384 -486 
C 384 -289 493 -105 634 -4 
C 794 104 858 104 1293 104 
C 1818 104 2547 104 2547 -486 
C 2547 -835 2106 -1171 1466 -1171 
z
" transform="scale(0.015625)"/>
      <path id="CMR17-4e" d="M 1312 4250 
C 1267 4320 1261 4320 1139 4320 
L 326 4320 
L 326 4160 
L 448 4160 
C 704 4160 819 4129 838 4122 
L 838 610 
C 838 451 838 153 326 153 
L 326 -13 
C 474 0 742 0 902 0 
C 1062 0 1331 0 1478 -13 
L 1478 153 
C 966 153 966 451 966 610 
L 966 4033 
C 1011 3995 1011 3982 1056 3919 
L 3430 76 
C 3475 0 3494 0 3526 0 
C 3590 0 3590 19 3590 139 
L 3590 3705 
C 3590 3863 3590 4160 4102 4160 
L 4102 4326 
C 3955 4320 3686 4320 3526 4320 
C 3366 4320 3098 4320 2950 4326 
L 2950 4160 
C 3462 4160 3462 3862 3462 3703 
L 3462 763 
L 1312 4250 
z
" transform="scale(0.015625)"/>
      <path id="CMR17-43" d="M 3974 4289 
C 3974 4403 3968 4410 3930 4410 
C 3904 4410 3898 4403 3853 4327 
L 3571 3792 
C 3258 4187 2874 4416 2381 4416 
C 1286 4416 294 3456 294 2148 
C 294 826 1286 -128 2387 -128 
C 3366 -128 3974 730 3974 1461 
C 3974 1524 3974 1550 3917 1550 
C 3866 1550 3866 1531 3859 1474 
C 3808 585 3168 38 2477 38 
C 1824 38 781 495 781 2147 
C 781 3805 1843 4250 2464 4250 
C 3187 4250 3712 3628 3834 2745 
C 3846 2668 3846 2655 3904 2655 
C 3974 2655 3974 2668 3974 2783 
L 3974 4289 
z
" transform="scale(0.015625)"/>
      <path id="CMR17-6c" d="M 979 4396 
L 218 4326 
L 218 4160 
C 595 4160 653 4122 653 3817 
L 653 426 
C 653 184 627 153 218 153 
L 218 -13 
C 371 0 653 0 813 0 
C 979 0 1261 0 1414 -13 
L 1414 153 
C 1005 153 979 178 979 426 
L 979 4396 
z
" transform="scale(0.015625)"/>
     </defs>
     <use xlink:href="#CMR17-49" transform="scale(0.996264)"/>
     <use xlink:href="#CMR17-6e" transform="translate(32.638409 0) scale(0.996264)"/>
     <use xlink:href="#CMR17-74" transform="translate(80.931325 0) scale(0.996264)"/>
     <use xlink:href="#CMR17-65" transform="translate(116.212093 0) scale(0.996264)"/>
     <use xlink:href="#CMR17-6e" transform="translate(156.697753 0) scale(0.996264)"/>
     <use xlink:href="#CMR17-73" transform="translate(207.593123 0) scale(0.996264)"/>
     <use xlink:href="#CMR17-69" transform="translate(243.394461 0) scale(0.996264)"/>
     <use xlink:href="#CMR17-64" transform="translate(268.265519 0) scale(0.996264)"/>
     <use xlink:href="#CMR17-61" transform="translate(319.160889 0) scale(0.996264)"/>
     <use xlink:href="#CMR17-64" transform="translate(364.851366 0) scale(0.996264)"/>
     <use xlink:href="#CMR17-65" transform="translate(415.746736 0) scale(0.996264)"/>
     <use xlink:href="#CMR17-76" transform="translate(486.308363 0) scale(0.996264)"/>
     <use xlink:href="#CMR17-73" transform="translate(534.601279 0) scale(0.996264)"/>
     <use xlink:href="#CMR17-2e" transform="translate(570.402616 0) scale(0.996264)"/>
     <use xlink:href="#CMR17-45" transform="translate(635.759335 0) scale(0.996264)"/>
     <use xlink:href="#CMR17-6e" transform="translate(698.345636 0) scale(0.996264)"/>
     <use xlink:href="#CMR17-65" transform="translate(749.241005 0) scale(0.996264)"/>
     <use xlink:href="#CMR17-72" transform="translate(789.726666 0) scale(0.996264)"/>
     <use xlink:href="#CMR17-67" transform="translate(825.007434 0) scale(0.996264)"/>
     <use xlink:href="#CMR17-69" transform="translate(870.697911 0) scale(0.996264)"/>
     <use xlink:href="#CMR17-61" transform="translate(895.568969 0) scale(0.996264)"/>
     <use xlink:href="#CMR17-28" transform="translate(971.335413 0) scale(0.996264)"/>
     <use xlink:href="#CMR17-4e" transform="translate(1006.616181 0) scale(0.996264)"/>
     <use xlink:href="#CMR17-61" transform="translate(1075.68861 0) scale(0.996264)"/>
     <use xlink:href="#CMR17-43" transform="translate(1121.379087 0) scale(0.996264)"/>
     <use xlink:href="#CMR17-6c" transform="translate(1187.888968 0) scale(0.996264)"/>
     <use xlink:href="#CMR17-29" transform="translate(1212.760026 0) scale(0.996264)"/>
    </g>
   </g>
   <g id="legend_1">
    <g id="patch_7">
     <path d="M 312.413185 134.694979 
L 406.32 134.694979 
Q 408.72 134.694979 408.72 132.294979 
L 408.72 49.872 
Q 408.72 47.472 406.32 47.472 
L 312.413185 47.472 
Q 310.013185 47.472 310.013185 49.872 
L 310.013185 132.294979 
Q 310.013185 134.694979 312.413185 134.694979 
z
" style="fill: #ffffff; opacity: 0.8; stroke: #cccccc; stroke-linejoin: miter"/>
    </g>
    <g id="line2d_34">
     <path d="M 314.813185 56.472 
L 326.813185 56.472 
L 338.813185 56.472 
" style="fill: none; stroke: #0000ff; stroke-width: 1.5; stroke-linecap: square"/>
    </g>
    <g id="text_18">
     <!-- $U = 35$ kV -->
     <g transform="translate(348.413185 60.672) scale(0.12 -0.12)">
      <defs>
       <path id="CMMI12-55" d="M 3238 1474 
C 3014 581 2272 57 1670 57 
C 1210 57 896 363 896 891 
C 896 916 896 1107 966 1387 
L 1594 3887 
C 1651 4103 1664 4167 2118 4167 
C 2234 4167 2298 4167 2298 4282 
C 2298 4352 2240 4352 2202 4352 
C 2086 4352 1952 4352 1830 4352 
L 1075 4352 
C 954 4352 819 4352 698 4352 
C 653 4352 576 4352 576 4231 
C 576 4167 621 4167 742 4167 
C 1126 4167 1126 4116 1126 4046 
C 1126 4008 1082 3824 1050 3715 
L 493 1488 
C 474 1418 435 1246 435 1075 
C 435 374 941 -128 1638 -128 
C 2285 -128 3002 384 3328 1197 
C 3373 1305 3430 1530 3469 1702 
C 3533 1933 3667 2496 3712 2662 
L 3955 3623 
C 4038 3956 4090 4167 4653 4167 
C 4704 4173 4730 4224 4730 4282 
C 4730 4352 4672 4352 4646 4352 
C 4557 4352 4442 4352 4352 4352 
L 4051 4352 
C 3654 4352 3450 4352 3443 4352 
C 3405 4352 3328 4352 3328 4231 
C 3328 4167 3379 4167 3424 4167 
C 3808 4167 3834 4020 3834 3905 
C 3834 3848 3834 3828 3808 3739 
L 3238 1474 
z
" transform="scale(0.015625)"/>
       <path id="CMR17-3d" d="M 4115 2017 
C 4211 2017 4307 2017 4307 2125 
C 4307 2240 4198 2240 4090 2240 
L 512 2240 
C 403 2240 294 2240 294 2125 
C 294 2017 390 2017 486 2017 
L 4115 2017 
z
M 4090 896 
C 4198 896 4307 896 4307 1011 
C 4307 1119 4211 1119 4115 1119 
L 486 1119 
C 390 1119 294 1119 294 1011 
C 294 896 403 896 512 896 
L 4090 896 
z
" transform="scale(0.015625)"/>
      </defs>
      <use xlink:href="#CMMI12-55" transform="scale(0.996264)"/>
      <use xlink:href="#CMR17-3d" transform="translate(104.332782 0) scale(0.996264)"/>
      <use xlink:href="#CMR17-33" transform="translate(203.721579 0) scale(0.996264)"/>
      <use xlink:href="#CMR17-35" transform="translate(249.412056 0) scale(0.996264)"/>
      <use xlink:href="#CMR17-6b" transform="translate(325.178499 0) scale(0.996264)"/>
      <use xlink:href="#CMR17-56" transform="translate(373.471415 0) scale(0.996264)"/>
     </g>
    </g>
    <g id="line2d_35">
     <path d="M 314.813185 73.196596 
L 326.813185 73.196596 
L 338.813185 73.196596 
" style="fill: none; stroke: #ff0000; stroke-width: 1.5; stroke-linecap: square"/>
    </g>
    <g id="text_19">
     <!-- $U = 30$ kV -->
     <g transform="translate(348.413185 77.396596) scale(0.12 -0.12)">
      <use xlink:href="#CMMI12-55" transform="scale(0.996264)"/>
      <use xlink:href="#CMR17-3d" transform="translate(104.332782 0) scale(0.996264)"/>
      <use xlink:href="#CMR17-33" transform="translate(203.721579 0) scale(0.996264)"/>
      <use xlink:href="#CMR17-30" transform="translate(249.412056 0) scale(0.996264)"/>
      <use xlink:href="#CMR17-6b" transform="translate(325.178499 0) scale(0.996264)"/>
      <use xlink:href="#CMR17-56" transform="translate(373.471415 0) scale(0.996264)"/>
     </g>
    </g>
    <g id="line2d_36">
     <path d="M 314.813185 89.921192 
L 326.813185 89.921192 
L 338.813185 89.921192 
" style="fill: none; stroke: #008000; stroke-width: 1.5; stroke-linecap: square"/>
    </g>
    <g id="text_20">
     <!-- $U = 26$ kV -->
     <g transform="translate(348.413185 94.121192) scale(0.12 -0.12)">
      <defs>
       <path id="CMR17-36" d="M 678 2176 
C 678 3690 1395 4032 1811 4032 
C 1946 4032 2272 4009 2400 3776 
C 2298 3776 2106 3776 2106 3553 
C 2106 3381 2246 3323 2336 3323 
C 2394 3323 2566 3348 2566 3560 
C 2566 3954 2246 4179 1805 4179 
C 1043 4179 243 3390 243 1984 
C 243 253 966 -128 1478 -128 
C 2099 -128 2688 427 2688 1283 
C 2688 2081 2170 2662 1517 2662 
C 1126 2662 838 2407 678 1960 
L 678 2176 
z
M 1478 25 
C 691 25 691 1200 691 1436 
C 691 1896 909 2560 1504 2560 
C 1613 2560 1926 2560 2138 2120 
C 2253 1870 2253 1609 2253 1289 
C 2253 944 2253 690 2118 434 
C 1978 171 1773 25 1478 25 
z
" transform="scale(0.015625)"/>
      </defs>
      <use xlink:href="#CMMI12-55" transform="scale(0.996264)"/>
      <use xlink:href="#CMR17-3d" transform="translate(104.332782 0) scale(0.996264)"/>
      <use xlink:href="#CMR17-32" transform="translate(203.721579 0) scale(0.996264)"/>
      <use xlink:href="#CMR17-36" transform="translate(249.412056 0) scale(0.996264)"/>
      <use xlink:href="#CMR17-6b" transform="translate(325.178499 0) scale(0.996264)"/>
      <use xlink:href="#CMR17-56" transform="translate(373.471415 0) scale(0.996264)"/>
     </g>
    </g>
    <g id="line2d_37">
     <path d="M 314.813185 106.645787 
L 326.813185 106.645787 
L 338.813185 106.645787 
" style="fill: none; stroke: #a52a2a; stroke-width: 1.5; stroke-linecap: square"/>
    </g>
    <g id="text_21">
     <!-- $U = 22$ kV -->
     <g transform="translate(348.413185 110.845787) scale(0.12 -0.12)">
      <use xlink:href="#CMMI12-55" transform="scale(0.996264)"/>
      <use xlink:href="#CMR17-3d" transform="translate(104.332782 0) scale(0.996264)"/>
      <use xlink:href="#CMR17-32" transform="translate(203.721579 0) scale(0.996264)"/>
      <use xlink:href="#CMR17-32" transform="translate(249.412056 0) scale(0.996264)"/>
      <use xlink:href="#CMR17-6b" transform="translate(325.178499 0) scale(0.996264)"/>
      <use xlink:href="#CMR17-56" transform="translate(373.471415 0) scale(0.996264)"/>
     </g>
    </g>
    <g id="line2d_38">
     <path d="M 314.813185 123.370383 
L 326.813185 123.370383 
L 338.813185 123.370383 
" style="fill: none; stroke: #800080; stroke-width: 1.5; stroke-linecap: square"/>
    </g>
    <g id="text_22">
     <!-- $U = 18$ kV -->
     <g transform="translate(348.413185 127.570383) scale(0.12 -0.12)">
      <defs>
       <path id="CMR17-38" d="M 1741 2264 
C 2144 2467 2554 2773 2554 3263 
C 2554 3841 1990 4179 1472 4179 
C 890 4179 378 3759 378 3180 
C 378 3021 416 2747 666 2505 
C 730 2442 998 2251 1171 2130 
C 883 1983 211 1634 211 934 
C 211 279 838 -128 1459 -128 
C 2144 -128 2720 362 2720 1010 
C 2720 1590 2330 1857 2074 2029 
L 1741 2264 
z
M 902 2822 
C 851 2854 595 3051 595 3351 
C 595 3739 998 4032 1459 4032 
C 1965 4032 2336 3676 2336 3262 
C 2336 2669 1670 2331 1638 2331 
C 1632 2331 1626 2331 1574 2370 
L 902 2822 
z
M 2080 1519 
C 2176 1449 2483 1240 2483 851 
C 2483 381 2010 25 1472 25 
C 890 25 448 438 448 940 
C 448 1443 838 1862 1280 2060 
L 2080 1519 
z
" transform="scale(0.015625)"/>
      </defs>
      <use xlink:href="#CMMI12-55" transform="scale(0.996264)"/>
      <use xlink:href="#CMR17-3d" transform="translate(104.332782 0) scale(0.996264)"/>
      <use xlink:href="#CMR17-31" transform="translate(203.721579 0) scale(0.996264)"/>
      <use xlink:href="#CMR17-38" transform="translate(249.412056 0) scale(0.996264)"/>
      <use xlink:href="#CMR17-6b" transform="translate(325.178499 0) scale(0.996264)"/>
      <use xlink:href="#CMR17-56" transform="translate(373.471415 0) scale(0.996264)"/>
     </g>
    </g>
   </g>
  </g>
 </g>
 <defs>
  <clipPath id="p5b4ab29c0c">
   <rect x="57.6" y="41.472" width="357.12" height="252.288"/>
  </clipPath>
 </defs>
</svg>
