<?xml version="1.0" encoding="utf-8" standalone="no"?>
<!DOCTYPE svg PUBLIC "-//W3C//DTD SVG 1.1//EN"
  "http://www.w3.org/Graphics/SVG/1.1/DTD/svg11.dtd">
<svg xmlns:xlink="http://www.w3.org/1999/xlink" width="460.8pt" height="345.6pt" viewBox="0 0 460.8 345.6" xmlns="http://www.w3.org/2000/svg" version="1.1">
 <metadata>
  <rdf:RDF xmlns:dc="http://purl.org/dc/elements/1.1/" xmlns:cc="http://creativecommons.org/ns#" xmlns:rdf="http://www.w3.org/1999/02/22-rdf-syntax-ns#">
   <cc:Work>
    <dc:type rdf:resource="http://purl.org/dc/dcmitype/StillImage"/>
    <dc:date>2024-03-27T00:32:48.398997</dc:date>
    <dc:format>image/svg+xml</dc:format>
    <dc:creator>
     <cc:Agent>
      <dc:title>Matplotlib v3.8.3, https://matplotlib.org/</dc:title>
     </cc:Agent>
    </dc:creator>
   </cc:Work>
  </rdf:RDF>
 </metadata>
 <defs>
  <style type="text/css">*{stroke-linejoin: round; stroke-linecap: butt}</style>
 </defs>
 <g id="figure_1">
  <g id="patch_1">
   <path d="M 0 345.6 
L 460.8 345.6 
L 460.8 0 
L 0 0 
z
" style="fill: #ffffff"/>
  </g>
  <g id="axes_1">
   <g id="patch_2">
    <path d="M 50.688 300.672 
L 451.584 300.672 
L 451.584 27.648 
L 50.688 27.648 
z
" style="fill: #ffffff"/>
   </g>
   <g id="matplotlib.axis_1">
    <g id="xtick_1">
     <g id="line2d_1">
      <path d="M 113.987368 300.672 
L 113.987368 27.648 
" clip-path="url(#pa3f8fe94c3)" style="fill: none; stroke: #b0b0b0; stroke-width: 0.8; stroke-linecap: square"/>
     </g>
     <g id="line2d_2">
      <defs>
       <path id="ma4ac8e7511" d="M 0 0 
L 0 3.5 
" style="stroke: #000000; stroke-width: 0.8"/>
      </defs>
      <g>
       <use xlink:href="#ma4ac8e7511" x="113.987368" y="300.672" style="stroke: #000000; stroke-width: 0.8"/>
      </g>
     </g>
     <g id="text_1">
      <!-- $\mathdefault{4}$ -->
      <g transform="translate(110.32925 318.049725) scale(0.15 -0.15)">
       <defs>
        <path id="CMR17-34" d="M 2150 4122 
C 2150 4256 2144 4256 2029 4256 
L 128 1254 
L 128 1088 
L 1779 1088 
L 1779 457 
C 1779 224 1766 160 1318 160 
L 1197 160 
L 1197 0 
C 1402 0 1747 0 1965 0 
C 2182 0 2528 0 2733 0 
L 2733 160 
L 2611 160 
C 2163 160 2150 224 2150 457 
L 2150 1088 
L 2803 1088 
L 2803 1254 
L 2150 1254 
L 2150 4122 
z
M 1798 3703 
L 1798 1254 
L 256 1254 
L 1798 3703 
z
" transform="scale(0.015625)"/>
       </defs>
       <use xlink:href="#CMR17-34" transform="scale(0.996264)"/>
      </g>
     </g>
    </g>
    <g id="xtick_2">
     <g id="line2d_3">
      <path d="M 198.386526 300.672 
L 198.386526 27.648 
" clip-path="url(#pa3f8fe94c3)" style="fill: none; stroke: #b0b0b0; stroke-width: 0.8; stroke-linecap: square"/>
     </g>
     <g id="line2d_4">
      <g>
       <use xlink:href="#ma4ac8e7511" x="198.386526" y="300.672" style="stroke: #000000; stroke-width: 0.8"/>
      </g>
     </g>
     <g id="text_2">
      <!-- $\mathdefault{6}$ -->
      <g transform="translate(194.728407 318.049725) scale(0.15 -0.15)">
       <defs>
        <path id="CMR17-36" d="M 678 2176 
C 678 3690 1395 4032 1811 4032 
C 1946 4032 2272 4009 2400 3776 
C 2298 3776 2106 3776 2106 3553 
C 2106 3381 2246 3323 2336 3323 
C 2394 3323 2566 3348 2566 3560 
C 2566 3954 2246 4179 1805 4179 
C 1043 4179 243 3390 243 1984 
C 243 253 966 -128 1478 -128 
C 2099 -128 2688 427 2688 1283 
C 2688 2081 2170 2662 1517 2662 
C 1126 2662 838 2407 678 1960 
L 678 2176 
z
M 1478 25 
C 691 25 691 1200 691 1436 
C 691 1896 909 2560 1504 2560 
C 1613 2560 1926 2560 2138 2120 
C 2253 1870 2253 1609 2253 1289 
C 2253 944 2253 690 2118 434 
C 1978 171 1773 25 1478 25 
z
" transform="scale(0.015625)"/>
       </defs>
       <use xlink:href="#CMR17-36" transform="scale(0.996264)"/>
      </g>
     </g>
    </g>
    <g id="xtick_3">
     <g id="line2d_5">
      <path d="M 282.785684 300.672 
L 282.785684 27.648 
" clip-path="url(#pa3f8fe94c3)" style="fill: none; stroke: #b0b0b0; stroke-width: 0.8; stroke-linecap: square"/>
     </g>
     <g id="line2d_6">
      <g>
       <use xlink:href="#ma4ac8e7511" x="282.785684" y="300.672" style="stroke: #000000; stroke-width: 0.8"/>
      </g>
     </g>
     <g id="text_3">
      <!-- $\mathdefault{8}$ -->
      <g transform="translate(279.127565 318.049725) scale(0.15 -0.15)">
       <defs>
        <path id="CMR17-38" d="M 1741 2264 
C 2144 2467 2554 2773 2554 3263 
C 2554 3841 1990 4179 1472 4179 
C 890 4179 378 3759 378 3180 
C 378 3021 416 2747 666 2505 
C 730 2442 998 2251 1171 2130 
C 883 1983 211 1634 211 934 
C 211 279 838 -128 1459 -128 
C 2144 -128 2720 362 2720 1010 
C 2720 1590 2330 1857 2074 2029 
L 1741 2264 
z
M 902 2822 
C 851 2854 595 3051 595 3351 
C 595 3739 998 4032 1459 4032 
C 1965 4032 2336 3676 2336 3262 
C 2336 2669 1670 2331 1638 2331 
C 1632 2331 1626 2331 1574 2370 
L 902 2822 
z
M 2080 1519 
C 2176 1449 2483 1240 2483 851 
C 2483 381 2010 25 1472 25 
C 890 25 448 438 448 940 
C 448 1443 838 1862 1280 2060 
L 2080 1519 
z
" transform="scale(0.015625)"/>
       </defs>
       <use xlink:href="#CMR17-38" transform="scale(0.996264)"/>
      </g>
     </g>
    </g>
    <g id="xtick_4">
     <g id="line2d_7">
      <path d="M 367.184842 300.672 
L 367.184842 27.648 
" clip-path="url(#pa3f8fe94c3)" style="fill: none; stroke: #b0b0b0; stroke-width: 0.8; stroke-linecap: square"/>
     </g>
     <g id="line2d_8">
      <g>
       <use xlink:href="#ma4ac8e7511" x="367.184842" y="300.672" style="stroke: #000000; stroke-width: 0.8"/>
      </g>
     </g>
     <g id="text_4">
      <!-- $\mathdefault{10}$ -->
      <g transform="translate(359.868604 318.049725) scale(0.15 -0.15)">
       <defs>
        <path id="CMR17-31" d="M 1702 4058 
C 1702 4192 1696 4192 1606 4192 
C 1357 3916 979 3827 621 3827 
C 602 3827 570 3827 563 3808 
C 557 3795 557 3782 557 3648 
C 755 3648 1088 3686 1344 3839 
L 1344 461 
C 1344 236 1331 160 781 160 
L 589 160 
L 589 0 
C 896 0 1216 0 1523 0 
C 1830 0 2150 0 2458 0 
L 2458 160 
L 2266 160 
C 1715 160 1702 230 1702 458 
L 1702 4058 
z
" transform="scale(0.015625)"/>
        <path id="CMR17-30" d="M 2688 2025 
C 2688 2416 2682 3080 2413 3591 
C 2176 4039 1798 4198 1466 4198 
C 1158 4198 768 4058 525 3597 
C 269 3118 243 2524 243 2025 
C 243 1661 250 1106 448 619 
C 723 -39 1216 -128 1466 -128 
C 1760 -128 2208 -7 2470 600 
C 2662 1042 2688 1559 2688 2025 
z
M 1466 -26 
C 1056 -26 813 325 723 812 
C 653 1188 653 1738 653 2096 
C 653 2588 653 2997 736 3387 
C 858 3929 1216 4096 1466 4096 
C 1728 4096 2067 3923 2189 3400 
C 2272 3036 2278 2607 2278 2096 
C 2278 1680 2278 1169 2202 792 
C 2067 95 1690 -26 1466 -26 
z
" transform="scale(0.015625)"/>
       </defs>
       <use xlink:href="#CMR17-31" transform="scale(0.996264)"/>
       <use xlink:href="#CMR17-30" transform="translate(45.690477 0) scale(0.996264)"/>
      </g>
     </g>
    </g>
    <g id="xtick_5">
     <g id="line2d_9">
      <path d="M 451.584 300.672 
L 451.584 27.648 
" clip-path="url(#pa3f8fe94c3)" style="fill: none; stroke: #b0b0b0; stroke-width: 0.8; stroke-linecap: square"/>
     </g>
     <g id="line2d_10">
      <g>
       <use xlink:href="#ma4ac8e7511" x="451.584" y="300.672" style="stroke: #000000; stroke-width: 0.8"/>
      </g>
     </g>
     <g id="text_5">
      <!-- $\mathdefault{12}$ -->
      <g transform="translate(444.267762 318.049725) scale(0.15 -0.15)">
       <defs>
        <path id="CMR17-32" d="M 2669 989 
L 2554 989 
C 2490 536 2438 459 2413 420 
C 2381 369 1920 369 1830 369 
L 602 369 
C 832 619 1280 1072 1824 1597 
C 2214 1967 2669 2402 2669 3035 
C 2669 3790 2067 4224 1395 4224 
C 691 4224 262 3604 262 3030 
C 262 2780 448 2748 525 2748 
C 589 2748 781 2787 781 3010 
C 781 3207 614 3264 525 3264 
C 486 3264 448 3258 422 3245 
C 544 3790 915 4058 1306 4058 
C 1862 4058 2227 3617 2227 3035 
C 2227 2479 1901 2000 1536 1584 
L 262 146 
L 262 0 
L 2515 0 
L 2669 989 
z
" transform="scale(0.015625)"/>
       </defs>
       <use xlink:href="#CMR17-31" transform="scale(0.996264)"/>
       <use xlink:href="#CMR17-32" transform="translate(45.690477 0) scale(0.996264)"/>
      </g>
     </g>
    </g>
    <g id="text_6">
     <!-- $\beta$ ($^{\circ}$) -->
     <g transform="translate(233.237885 338.388889) scale(0.18 -0.18)">
      <defs>
       <path id="CMMI12-c" d="M 3622 3701 
C 3622 4081 3296 4480 2714 4480 
C 1888 4480 1363 3477 1197 2816 
L 186 -1172 
C 173 -1223 211 -1236 243 -1236 
C 288 -1236 320 -1230 326 -1198 
L 774 586 
C 838 229 1190 -64 1568 -64 
C 2483 -64 3347 650 3347 1599 
C 3347 1841 3290 2083 3155 2287 
C 3078 2408 2982 2497 2880 2574 
C 3341 2815 3622 3200 3622 3701 
z
M 2509 2580 
C 2406 2542 2304 2529 2182 2529 
C 2093 2529 2010 2523 1894 2561 
C 1958 2606 2054 2618 2189 2618 
C 2304 2618 2419 2606 2509 2580 
z
M 3290 3758 
C 3290 3410 3117 2903 2701 2669 
C 2579 2718 2413 2752 2272 2752 
C 2138 2752 1754 2752 1754 2555 
C 1754 2389 2106 2389 2214 2389 
C 2381 2389 2528 2432 2682 2484 
C 2886 2318 2976 2101 2976 1783 
C 2976 1413 2874 1115 2752 841 
C 2541 369 2042 64 1600 64 
C 1133 64 890 432 890 864 
C 890 922 890 1005 915 1099 
L 1331 2771 
C 1542 3603 2080 4353 2701 4353 
C 3162 4353 3290 4036 3290 3758 
z
" transform="scale(0.015625)"/>
       <path id="CMR17-28" d="M 1958 -1561 
C 1958 -1555 1958 -1542 1939 -1523 
C 1645 -1224 858 -407 858 1581 
C 858 3569 1632 4379 1946 4697 
C 1946 4704 1958 4717 1958 4736 
C 1958 4755 1939 4768 1914 4768 
C 1843 4768 1299 4296 986 3594 
C 666 2887 576 2199 576 1588 
C 576 1128 621 351 1005 -471 
C 1312 -1135 1837 -1600 1914 -1600 
C 1946 -1600 1958 -1587 1958 -1561 
z
" transform="scale(0.015625)"/>
       <path id="CMSY10-e" d="M 2842 1600 
C 2842 2277 2272 2828 1600 2828 
C 909 2828 352 2264 352 1600 
C 352 930 909 372 1600 372 
C 2272 372 2842 923 2842 1600 
z
M 1600 628 
C 1043 628 608 1070 608 1600 
C 608 2130 1050 2572 1600 2572 
C 2131 2572 2586 2142 2586 1600 
C 2586 1058 2131 628 1600 628 
z
" transform="scale(0.015625)"/>
       <path id="CMR17-29" d="M 1683 1581 
C 1683 2040 1638 2817 1254 3639 
C 947 4303 422 4768 346 4768 
C 326 4768 301 4761 301 4729 
C 301 4717 307 4710 314 4697 
C 621 4378 1402 3568 1402 1584 
C 1402 -407 627 -1217 314 -1537 
C 307 -1549 301 -1556 301 -1568 
C 301 -1600 326 -1600 346 -1600 
C 416 -1600 960 -1128 1274 -426 
C 1594 281 1683 969 1683 1581 
z
" transform="scale(0.015625)"/>
      </defs>
      <use xlink:href="#CMMI12-c" transform="scale(0.996264)"/>
      <use xlink:href="#CMR17-28" transform="translate(90.669982 0) scale(0.996264)"/>
      <use xlink:href="#CMSY10-e" transform="translate(125.95075 36.153639) scale(0.697382)"/>
      <use xlink:href="#CMR17-29" transform="translate(161.318092 0) scale(0.996264)"/>
     </g>
    </g>
   </g>
   <g id="matplotlib.axis_2">
    <g id="ytick_1">
     <g id="line2d_11">
      <path d="M 50.688 300.672 
L 451.584 300.672 
" clip-path="url(#pa3f8fe94c3)" style="fill: none; stroke: #b0b0b0; stroke-width: 0.8; stroke-linecap: square"/>
     </g>
     <g id="line2d_12">
      <defs>
       <path id="mb993efc834" d="M 0 0 
L -3.5 0 
" style="stroke: #000000; stroke-width: 0.8"/>
      </defs>
      <g>
       <use xlink:href="#mb993efc834" x="50.688" y="300.672" style="stroke: #000000; stroke-width: 0.8"/>
      </g>
     </g>
     <g id="text_7">
      <!-- $\mathdefault{0}$ -->
      <g transform="translate(36.371762 305.860862) scale(0.15 -0.15)">
       <use xlink:href="#CMR17-30" transform="scale(0.996264)"/>
      </g>
     </g>
    </g>
    <g id="ytick_2">
     <g id="line2d_13">
      <path d="M 50.688 255.168 
L 451.584 255.168 
" clip-path="url(#pa3f8fe94c3)" style="fill: none; stroke: #b0b0b0; stroke-width: 0.8; stroke-linecap: square"/>
     </g>
     <g id="line2d_14">
      <g>
       <use xlink:href="#mb993efc834" x="50.688" y="255.168" style="stroke: #000000; stroke-width: 0.8"/>
      </g>
     </g>
     <g id="text_8">
      <!-- $\mathdefault{1}$ -->
      <g transform="translate(36.371762 260.356862) scale(0.15 -0.15)">
       <use xlink:href="#CMR17-31" transform="scale(0.996264)"/>
      </g>
     </g>
    </g>
    <g id="ytick_3">
     <g id="line2d_15">
      <path d="M 50.688 209.664 
L 451.584 209.664 
" clip-path="url(#pa3f8fe94c3)" style="fill: none; stroke: #b0b0b0; stroke-width: 0.8; stroke-linecap: square"/>
     </g>
     <g id="line2d_16">
      <g>
       <use xlink:href="#mb993efc834" x="50.688" y="209.664" style="stroke: #000000; stroke-width: 0.8"/>
      </g>
     </g>
     <g id="text_9">
      <!-- $\mathdefault{2}$ -->
      <g transform="translate(36.371762 214.852862) scale(0.15 -0.15)">
       <use xlink:href="#CMR17-32" transform="scale(0.996264)"/>
      </g>
     </g>
    </g>
    <g id="ytick_4">
     <g id="line2d_17">
      <path d="M 50.688 164.16 
L 451.584 164.16 
" clip-path="url(#pa3f8fe94c3)" style="fill: none; stroke: #b0b0b0; stroke-width: 0.8; stroke-linecap: square"/>
     </g>
     <g id="line2d_18">
      <g>
       <use xlink:href="#mb993efc834" x="50.688" y="164.16" style="stroke: #000000; stroke-width: 0.8"/>
      </g>
     </g>
     <g id="text_10">
      <!-- $\mathdefault{3}$ -->
      <g transform="translate(36.371762 169.348862) scale(0.15 -0.15)">
       <defs>
        <path id="CMR17-33" d="M 1414 2157 
C 1984 2157 2234 1662 2234 1090 
C 2234 320 1824 25 1453 25 
C 1114 25 563 194 390 693 
C 422 680 454 680 486 680 
C 640 680 755 782 755 948 
C 755 1133 614 1216 486 1216 
C 378 1216 211 1165 211 926 
C 211 335 787 -128 1466 -128 
C 2176 -128 2720 430 2720 1085 
C 2720 1707 2208 2157 1600 2227 
C 2086 2328 2554 2756 2554 3329 
C 2554 3820 2048 4179 1472 4179 
C 890 4179 378 3829 378 3329 
C 378 3110 544 3072 627 3072 
C 762 3072 877 3155 877 3321 
C 877 3486 762 3569 627 3569 
C 602 3569 570 3569 544 3557 
C 730 3959 1235 4032 1459 4032 
C 1683 4032 2106 3925 2106 3320 
C 2106 3143 2080 2828 1862 2550 
C 1670 2304 1453 2304 1242 2284 
C 1210 2284 1062 2269 1037 2269 
C 992 2263 966 2257 966 2208 
C 966 2163 973 2157 1101 2157 
L 1414 2157 
z
" transform="scale(0.015625)"/>
       </defs>
       <use xlink:href="#CMR17-33" transform="scale(0.996264)"/>
      </g>
     </g>
    </g>
    <g id="ytick_5">
     <g id="line2d_19">
      <path d="M 50.688 118.656 
L 451.584 118.656 
" clip-path="url(#pa3f8fe94c3)" style="fill: none; stroke: #b0b0b0; stroke-width: 0.8; stroke-linecap: square"/>
     </g>
     <g id="line2d_20">
      <g>
       <use xlink:href="#mb993efc834" x="50.688" y="118.656" style="stroke: #000000; stroke-width: 0.8"/>
      </g>
     </g>
     <g id="text_11">
      <!-- $\mathdefault{4}$ -->
      <g transform="translate(36.371762 123.844862) scale(0.15 -0.15)">
       <use xlink:href="#CMR17-34" transform="scale(0.996264)"/>
      </g>
     </g>
    </g>
    <g id="ytick_6">
     <g id="line2d_21">
      <path d="M 50.688 73.152 
L 451.584 73.152 
" clip-path="url(#pa3f8fe94c3)" style="fill: none; stroke: #b0b0b0; stroke-width: 0.8; stroke-linecap: square"/>
     </g>
     <g id="line2d_22">
      <g>
       <use xlink:href="#mb993efc834" x="50.688" y="73.152" style="stroke: #000000; stroke-width: 0.8"/>
      </g>
     </g>
     <g id="text_12">
      <!-- $\mathdefault{5}$ -->
      <g transform="translate(36.371762 78.340862) scale(0.15 -0.15)">
       <defs>
        <path id="CMR17-35" d="M 730 3692 
C 794 3666 1056 3584 1325 3584 
C 1920 3584 2246 3911 2432 4100 
C 2432 4157 2432 4192 2394 4192 
C 2387 4192 2374 4192 2323 4163 
C 2099 4058 1837 3973 1517 3973 
C 1325 3973 1037 3999 723 4139 
C 653 4171 640 4171 634 4171 
C 602 4171 595 4164 595 4037 
L 595 2203 
C 595 2089 595 2057 659 2057 
C 691 2057 704 2070 736 2114 
C 941 2401 1222 2522 1542 2522 
C 1766 2522 2246 2382 2246 1289 
C 2246 1085 2246 715 2054 421 
C 1894 159 1645 25 1370 25 
C 947 25 518 320 403 814 
C 429 807 480 795 506 795 
C 589 795 749 840 749 1038 
C 749 1210 627 1280 506 1280 
C 358 1280 262 1190 262 1011 
C 262 454 704 -128 1382 -128 
C 2042 -128 2669 440 2669 1264 
C 2669 2030 2170 2624 1549 2624 
C 1222 2624 947 2503 730 2274 
L 730 3692 
z
" transform="scale(0.015625)"/>
       </defs>
       <use xlink:href="#CMR17-35" transform="scale(0.996264)"/>
      </g>
     </g>
    </g>
    <g id="ytick_7">
     <g id="line2d_23">
      <path d="M 50.688 27.648 
L 451.584 27.648 
" clip-path="url(#pa3f8fe94c3)" style="fill: none; stroke: #b0b0b0; stroke-width: 0.8; stroke-linecap: square"/>
     </g>
     <g id="line2d_24">
      <g>
       <use xlink:href="#mb993efc834" x="50.688" y="27.648" style="stroke: #000000; stroke-width: 0.8"/>
      </g>
     </g>
     <g id="text_13">
      <!-- $\mathdefault{6}$ -->
      <g transform="translate(36.371762 32.836862) scale(0.15 -0.15)">
       <use xlink:href="#CMR17-36" transform="scale(0.996264)"/>
      </g>
     </g>
    </g>
    <g id="text_14">
     <!-- $I$ ($10^2$/s) -->
     <g transform="translate(27.903578 196.674864) rotate(-90) scale(0.18 -0.18)">
      <defs>
       <path id="CMMI12-49" d="M 2355 3880 
C 2413 4103 2426 4167 2893 4167 
C 3034 4167 3085 4167 3085 4288 
C 3085 4352 3014 4352 2995 4352 
C 2880 4352 2739 4352 2624 4352 
L 1837 4352 
C 1709 4352 1562 4352 1434 4352 
C 1382 4352 1312 4352 1312 4231 
C 1312 4167 1363 4167 1491 4167 
C 1888 4167 1888 4116 1888 4046 
C 1888 4002 1875 3963 1862 3906 
L 998 472 
C 941 249 928 185 461 185 
C 320 185 262 185 262 64 
C 262 0 326 0 358 0 
C 474 0 614 0 730 0 
L 1517 0 
C 1645 0 1786 0 1914 0 
C 1965 0 2042 0 2042 115 
C 2042 185 2003 185 1862 185 
C 1466 185 1466 236 1466 312 
C 1466 325 1466 357 1491 459 
L 2355 3880 
z
" transform="scale(0.015625)"/>
       <path id="CMR17-2f" d="M 2605 4545 
C 2637 4627 2637 4640 2637 4653 
C 2637 4729 2579 4768 2528 4768 
C 2451 4768 2426 4717 2400 4640 
L 326 -1377 
C 294 -1460 294 -1473 294 -1486 
C 294 -1562 352 -1600 403 -1600 
C 480 -1600 506 -1549 531 -1473 
L 2605 4545 
z
" transform="scale(0.015625)"/>
       <path id="CMR17-73" d="M 1978 2697 
C 1978 2813 1971 2819 1933 2819 
C 1907 2819 1901 2813 1824 2717 
C 1805 2691 1747 2626 1728 2601 
C 1523 2819 1235 2819 1126 2819 
C 416 2819 160 2447 160 2076 
C 160 1498 813 1365 998 1325 
C 1402 1243 1542 1217 1677 1101 
C 1760 1025 1901 884 1901 654 
C 1901 384 1747 38 1158 38 
C 602 38 403 460 288 1021 
C 269 1110 269 1117 218 1117 
C 166 1117 160 1110 160 983 
L 160 63 
C 160 -51 166 -58 205 -58 
C 237 -58 243 -51 275 0 
C 314 57 410 211 448 276 
C 576 103 800 -64 1158 -64 
C 1792 -64 2131 283 2131 784 
C 2131 1112 1958 1285 1875 1362 
C 1683 1561 1459 1606 1190 1657 
C 838 1735 390 1825 390 2217 
C 390 2383 480 2737 1126 2737 
C 1811 2737 1850 2094 1862 1888 
C 1869 1856 1901 1849 1920 1849 
C 1978 1849 1978 1869 1978 1978 
L 1978 2697 
z
" transform="scale(0.015625)"/>
      </defs>
      <use xlink:href="#CMMI12-49" transform="scale(0.996264)"/>
      <use xlink:href="#CMR17-28" transform="translate(80.93248 0) scale(0.996264)"/>
      <use xlink:href="#CMR17-31" transform="translate(116.213248 0) scale(0.996264)"/>
      <use xlink:href="#CMR17-30" transform="translate(161.903725 0) scale(0.996264)"/>
      <use xlink:href="#CMR17-32" transform="translate(207.594202 36.153639) scale(0.697382)"/>
      <use xlink:href="#CMR17-2f" transform="translate(240.075516 0) scale(0.996264)"/>
      <use xlink:href="#CMR17-73" transform="translate(285.765993 0) scale(0.996264)"/>
      <use xlink:href="#CMR17-29" transform="translate(321.567331 0) scale(0.996264)"/>
     </g>
    </g>
   </g>
   <g id="line2d_25">
    <path d="M 50.688 273.688128 
L 54.907958 270.775872 
L 59.127916 266.407488 
L 63.347874 273.233088 
L 67.567832 262.585152 
L 71.787789 251.52768 
L 76.007747 216.03456 
L 80.227705 203.611968 
L 84.447663 175.536 
L 88.667621 165.206592 
L 92.887579 154.740672 
L 97.107537 143.091648 
L 101.327495 154.012608 
L 105.547453 139.451328 
L 109.767411 149.917248 
L 113.987368 149.917248 
L 118.207326 151.737408 
L 122.427284 148.825152 
L 126.647242 153.375552 
L 130.8672 151.41888 
L 135.087158 159.018048 
L 139.307116 167.663808 
L 143.527074 173.852352 
L 147.747032 177.8112 
L 151.966989 183.135168 
L 156.186947 184.500288 
L 160.406905 189.505728 
L 164.626863 188.595648 
L 168.846821 186.00192 
L 173.066779 166.753728 
L 177.286737 153.102528 
L 181.506695 154.922688 
L 185.726653 170.394048 
L 189.946611 204.20352 
L 194.166568 195.10272 
L 198.386526 156.87936 
L 202.606484 109.691712 
L 206.826442 70.558272 
L 211.0464 53.448768 
L 215.266358 125.800128 
L 219.486316 195.876288 
L 223.706274 209.800512 
L 227.926232 213.440832 
L 232.146189 218.30976 
L 236.366147 216.94464 
L 240.586105 228.002112 
L 244.806063 220.58496 
L 249.026021 224.088768 
L 253.245979 225.453888 
L 257.465937 228.912192 
L 261.685895 226.636992 
L 265.905853 223.633728 
L 270.125811 229.549248 
L 274.345768 233.007552 
L 278.565726 229.367232 
L 282.785684 222.40512 
L 287.005642 218.30976 
L 291.2256 219.083328 
L 295.445558 227.729088 
L 299.665516 216.4896 
L 303.885474 221.631552 
L 308.105432 222.268608 
L 312.325389 229.549248 
L 316.545347 229.549248 
L 320.765305 233.78112 
L 324.985263 234.554688 
L 329.205221 238.012992 
L 333.425179 231.187392 
L 337.645137 234.372672 
L 341.865095 241.5168 
L 346.085053 238.012992 
L 350.305011 241.97184 
L 354.524968 241.653312 
L 358.744926 238.650048 
L 362.964884 243.655488 
L 367.184842 243.792 
L 371.4048 236.829888 
L 375.624758 240.60672 
L 379.844716 246.52224 
L 384.064674 246.97728 
L 388.284632 236.647872 
L 392.504589 246.385728 
L 396.724547 241.06176 
L 400.944505 245.293632 
L 405.164463 232.552512 
L 409.384421 234.554688 
L 413.604379 232.87104 
L 417.824337 232.87104 
L 422.044295 239.378112 
L 426.264253 245.293632 
L 430.484211 245.748672 
L 434.704168 246.52224 
L 438.924126 248.3424 
L 443.144084 246.0672 
L 447.364042 247.295808 
L 451.584 249.388992 
" clip-path="url(#pa3f8fe94c3)" style="fill: none; stroke: #0000ff; stroke-width: 1.5; stroke-linecap: square"/>
   </g>
   <g id="line2d_26">
    <path d="M 50.688 283.83552 
L 54.907958 285.337152 
L 59.127916 284.29056 
L 63.347874 283.699008 
L 67.567832 282.606912 
L 71.787789 283.38048 
L 76.007747 281.423808 
L 80.227705 279.148608 
L 84.447663 281.878848 
L 88.667621 275.326272 
L 92.887579 267.317568 
L 97.107537 254.121408 
L 101.327495 243.928512 
L 105.547453 233.189568 
L 109.767411 229.094208 
L 113.987368 222.268608 
L 118.207326 214.987968 
L 122.427284 217.263168 
L 126.647242 214.077888 
L 130.8672 215.443008 
L 135.087158 213.167808 
L 139.307116 217.39968 
L 143.527074 222.86016 
L 147.747032 218.901312 
L 151.966989 227.092032 
L 156.186947 226.04544 
L 160.406905 229.367232 
L 164.626863 227.274048 
L 168.846821 224.816832 
L 173.066779 213.440832 
L 177.286737 208.617408 
L 181.506695 217.081152 
L 185.726653 219.083328 
L 189.946611 236.647872 
L 194.166568 230.732352 
L 198.386526 216.94464 
L 202.606484 178.857792 
L 206.826442 164.933568 
L 211.0464 170.667072 
L 215.266358 206.615232 
L 219.486316 249.571008 
L 223.706274 255.486528 
L 227.926232 255.62304 
L 232.146189 260.309952 
L 236.366147 259.399872 
L 240.586105 258.034752 
L 244.806063 266.407488 
L 249.026021 256.07808 
L 253.245979 262.90368 
L 257.465937 259.7184 
L 261.685895 260.036928 
L 265.905853 260.947008 
L 270.125811 262.90368 
L 274.345768 258.35328 
L 278.565726 258.489792 
L 282.785684 255.62304 
L 287.005642 253.211328 
L 291.2256 246.97728 
L 295.445558 248.3424 
L 299.665516 251.391168 
L 303.885474 251.391168 
L 308.105432 252.301248 
L 312.325389 255.031488 
L 316.545347 256.53312 
L 320.765305 257.579712 
L 324.985263 255.486528 
L 329.205221 257.761728 
L 333.425179 259.854912 
L 337.645137 257.89824 
L 341.865095 258.944832 
L 346.085053 263.677248 
L 350.305011 259.581888 
L 354.524968 256.98816 
L 358.744926 263.35872 
L 362.964884 265.63392 
L 367.184842 270.63936 
L 371.4048 262.90368 
L 375.624758 266.544 
L 379.844716 271.230912 
L 384.064674 266.407488 
L 388.284632 271.0944 
L 392.504589 265.17888 
L 396.724547 265.497408 
L 400.944505 263.950272 
L 405.164463 264.2688 
L 409.384421 258.35328 
L 413.604379 259.26336 
L 417.824337 257.89824 
L 422.044295 263.35872 
L 426.264253 268.045632 
L 430.484211 269.27424 
L 434.704168 267.590592 
L 438.924126 267.590592 
L 443.144084 270.63936 
L 447.364042 267.90912 
L 451.584 270.18432 
" clip-path="url(#pa3f8fe94c3)" style="fill: none; stroke: #ff0000; stroke-width: 1.5; stroke-linecap: square"/>
   </g>
   <g id="line2d_27">
    <path d="M 50.688 293.39136 
L 54.907958 292.162752 
L 59.127916 291.434688 
L 63.347874 293.072832 
L 67.567832 290.20608 
L 71.787789 292.48128 
L 76.007747 291.11616 
L 80.227705 289.887552 
L 84.447663 290.20608 
L 88.667621 290.979648 
L 92.887579 290.66112 
L 97.107537 290.20608 
L 101.327495 289.432512 
L 105.547453 285.792192 
L 109.767411 289.296 
L 113.987368 282.788928 
L 118.207326 277.46496 
L 122.427284 269.410752 
L 126.647242 264.2688 
L 130.8672 257.4432 
L 135.087158 260.947008 
L 139.307116 250.026048 
L 143.527074 254.121408 
L 147.747032 252.43776 
L 151.966989 251.209152 
L 156.186947 253.211328 
L 160.406905 251.52768 
L 164.626863 250.936128 
L 168.846821 251.07264 
L 173.066779 251.391168 
L 177.286737 248.79744 
L 181.506695 248.660928 
L 185.726653 249.844032 
L 189.946611 260.764992 
L 194.166568 262.130112 
L 198.386526 250.6176 
L 202.606484 241.5168 
L 206.826442 226.819008 
L 211.0464 228.639168 
L 215.266358 250.6176 
L 219.486316 263.040192 
L 223.706274 272.45952 
L 227.926232 272.91456 
L 232.146189 273.961152 
L 236.366147 274.143168 
L 240.586105 273.051072 
L 244.806063 279.148608 
L 249.026021 274.871232 
L 253.245979 279.876672 
L 257.465937 276.873408 
L 261.685895 277.92 
L 265.905853 278.83008 
L 270.125811 280.513728 
L 274.345768 280.65024 
L 278.565726 281.56032 
L 282.785684 275.508288 
L 287.005642 274.871232 
L 291.2256 273.506112 
L 295.445558 266.544 
L 299.665516 266.862528 
L 303.885474 270.047808 
L 308.105432 269.592768 
L 312.325389 274.27968 
L 316.545347 273.3696 
L 320.765305 275.781312 
L 324.985263 278.37504 
L 329.205221 275.6448 
L 333.425179 277.783488 
L 337.645137 274.871232 
L 341.865095 277.783488 
L 346.085053 277.46496 
L 350.305011 275.6448 
L 354.524968 277.146432 
L 358.744926 277.783488 
L 362.964884 281.241792 
L 367.184842 277.601472 
L 371.4048 280.058688 
L 375.624758 279.28512 
L 379.844716 282.4704 
L 384.064674 275.6448 
L 388.284632 280.968768 
L 392.504589 279.148608 
L 396.724547 281.241792 
L 400.944505 280.65024 
L 405.164463 280.968768 
L 409.384421 279.74016 
L 413.604379 275.6448 
L 417.824337 277.783488 
L 422.044295 280.513728 
L 426.264253 283.972032 
L 430.484211 281.878848 
L 434.704168 280.968768 
L 438.924126 282.333888 
L 443.144084 280.1952 
L 447.364042 280.058688 
L 451.584 282.788928 
" clip-path="url(#pa3f8fe94c3)" style="fill: none; stroke: #008000; stroke-width: 1.5; stroke-linecap: square"/>
   </g>
   <g id="line2d_28">
    <path d="M 50.688 296.713152 
L 54.907958 296.440128 
L 59.127916 295.985088 
L 63.347874 295.803072 
L 67.567832 297.03168 
L 71.787789 296.258112 
L 76.007747 297.350208 
L 80.227705 296.57664 
L 84.447663 296.895168 
L 88.667621 295.21152 
L 92.887579 296.713152 
L 97.107537 294.892992 
L 101.327495 295.66656 
L 105.547453 295.803072 
L 109.767411 295.66656 
L 113.987368 294.30144 
L 118.207326 296.1216 
L 122.427284 296.1216 
L 126.647242 295.21152 
L 130.8672 294.75648 
L 135.087158 294.75648 
L 139.307116 292.48128 
L 143.527074 291.889728 
L 147.747032 289.75104 
L 151.966989 286.11072 
L 156.186947 283.38048 
L 160.406905 282.788928 
L 164.626863 282.606912 
L 168.846821 278.511552 
L 173.066779 280.513728 
L 177.286737 279.148608 
L 181.506695 276.09984 
L 185.726653 278.056512 
L 189.946611 281.696832 
L 194.166568 278.056512 
L 198.386526 276.236352 
L 202.606484 271.230912 
L 206.826442 270.63936 
L 211.0464 274.598208 
L 215.266358 278.511552 
L 219.486316 282.333888 
L 223.706274 283.38048 
L 227.926232 285.519168 
L 232.146189 286.56576 
L 236.366147 283.972032 
L 240.586105 285.792192 
L 244.806063 285.20064 
L 249.026021 287.339328 
L 253.245979 288.977472 
L 257.465937 288.38592 
L 261.685895 287.93088 
L 265.905853 290.66112 
L 270.125811 289.75104 
L 274.345768 288.522432 
L 278.565726 291.434688 
L 282.785684 285.974208 
L 287.005642 286.702272 
L 291.2256 283.972032 
L 295.445558 284.427072 
L 299.665516 284.882112 
L 303.885474 285.65568 
L 308.105432 287.339328 
L 312.325389 287.47584 
L 316.545347 284.609088 
L 320.765305 287.0208 
L 324.985263 288.067392 
L 329.205221 288.84096 
L 333.425179 290.20608 
L 337.645137 291.11616 
L 341.865095 291.5712 
L 346.085053 289.75104 
L 350.305011 288.704448 
L 354.524968 289.887552 
L 358.744926 292.162752 
L 362.964884 289.296 
L 367.184842 288.977472 
L 371.4048 290.524608 
L 375.624758 290.20608 
L 379.844716 293.072832 
L 384.064674 292.02624 
L 388.284632 291.434688 
L 392.504589 290.342592 
L 396.724547 291.434688 
L 400.944505 290.20608 
L 405.164463 289.159488 
L 409.384421 291.252672 
L 413.604379 290.524608 
L 417.824337 291.252672 
L 422.044295 291.889728 
L 426.264253 293.072832 
L 430.484211 293.254848 
L 434.704168 290.797632 
L 438.924126 290.342592 
L 443.144084 291.5712 
L 447.364042 290.797632 
L 451.584 293.982912 
" clip-path="url(#pa3f8fe94c3)" style="fill: none; stroke: #a52a2a; stroke-width: 1.5; stroke-linecap: square"/>
   </g>
   <g id="line2d_29">
    <path d="M 50.688 299.443392 
L 54.907958 298.533312 
L 59.127916 299.170368 
L 63.347874 299.898432 
L 67.567832 299.76192 
L 71.787789 299.30688 
L 76.007747 298.85184 
L 80.227705 299.170368 
L 84.447663 299.170368 
L 88.667621 299.898432 
L 92.887579 299.170368 
L 97.107537 298.715328 
L 101.327495 298.85184 
L 105.547453 298.3968 
L 109.767411 299.443392 
L 113.987368 299.625408 
L 118.207326 298.260288 
L 122.427284 299.443392 
L 126.647242 299.170368 
L 130.8672 299.170368 
L 135.087158 298.078272 
L 139.307116 299.443392 
L 143.527074 299.30688 
L 147.747032 298.715328 
L 151.966989 298.85184 
L 156.186947 298.533312 
L 160.406905 299.30688 
L 164.626863 299.170368 
L 168.846821 298.85184 
L 173.066779 299.30688 
L 177.286737 298.260288 
L 181.506695 298.988352 
L 185.726653 296.57664 
L 189.946611 295.66656 
L 194.166568 295.21152 
L 198.386526 297.03168 
L 202.606484 293.072832 
L 206.826442 293.709888 
L 211.0464 295.985088 
L 215.266358 294.619968 
L 219.486316 294.75648 
L 223.706274 293.527872 
L 227.926232 294.30144 
L 232.146189 293.8464 
L 236.366147 294.619968 
L 240.586105 294.619968 
L 244.806063 294.164928 
L 249.026021 294.437952 
L 253.245979 294.164928 
L 257.465937 294.619968 
L 261.685895 297.03168 
L 265.905853 295.348032 
L 270.125811 295.075008 
L 274.345768 295.348032 
L 278.565726 294.619968 
L 282.785684 295.075008 
L 287.005642 294.164928 
L 291.2256 290.797632 
L 295.445558 291.889728 
L 299.665516 291.707712 
L 303.885474 289.75104 
L 308.105432 292.93632 
L 312.325389 291.707712 
L 316.545347 292.799808 
L 320.765305 293.982912 
L 324.985263 294.164928 
L 329.205221 296.440128 
L 333.425179 295.21152 
L 337.645137 295.985088 
L 341.865095 296.440128 
L 346.085053 294.892992 
L 350.305011 297.623232 
L 354.524968 295.985088 
L 358.744926 297.350208 
L 362.964884 297.48672 
L 367.184842 297.350208 
L 371.4048 298.260288 
L 375.624758 298.078272 
L 379.844716 297.168192 
L 384.064674 298.260288 
L 388.284632 297.94176 
L 392.504589 299.30688 
L 396.724547 298.078272 
L 400.944505 298.260288 
L 405.164463 298.3968 
L 409.384421 298.85184 
L 413.604379 299.898432 
L 417.824337 298.3968 
L 422.044295 298.715328 
L 426.264253 298.3968 
L 430.484211 298.260288 
L 434.704168 296.713152 
L 438.924126 298.533312 
L 443.144084 297.48672 
L 447.364042 298.533312 
L 451.584 298.078272 
" clip-path="url(#pa3f8fe94c3)" style="fill: none; stroke: #800080; stroke-width: 1.5; stroke-linecap: square"/>
   </g>
   <g id="patch_3">
    <path d="M 50.688 300.672 
L 50.688 27.648 
" style="fill: none; stroke: #000000; stroke-width: 0.8; stroke-linejoin: miter; stroke-linecap: square"/>
   </g>
   <g id="patch_4">
    <path d="M 451.584 300.672 
L 451.584 27.648 
" style="fill: none; stroke: #000000; stroke-width: 0.8; stroke-linejoin: miter; stroke-linecap: square"/>
   </g>
   <g id="patch_5">
    <path d="M 50.688 300.672 
L 451.584 300.672 
" style="fill: none; stroke: #000000; stroke-width: 0.8; stroke-linejoin: miter; stroke-linecap: square"/>
   </g>
   <g id="patch_6">
    <path d="M 50.688 27.648 
L 451.584 27.648 
" style="fill: none; stroke: #000000; stroke-width: 0.8; stroke-linejoin: miter; stroke-linecap: square"/>
   </g>
   <g id="text_15">
    <!-- Coleta KBr -->
    <g transform="translate(198.149929 21.648) scale(0.23 -0.23)">
     <defs>
      <path id="CMR17-43" d="M 3974 4289 
C 3974 4403 3968 4410 3930 4410 
C 3904 4410 3898 4403 3853 4327 
L 3571 3792 
C 3258 4187 2874 4416 2381 4416 
C 1286 4416 294 3456 294 2148 
C 294 826 1286 -128 2387 -128 
C 3366 -128 3974 730 3974 1461 
C 3974 1524 3974 1550 3917 1550 
C 3866 1550 3866 1531 3859 1474 
C 3808 585 3168 38 2477 38 
C 1824 38 781 495 781 2147 
C 781 3805 1843 4250 2464 4250 
C 3187 4250 3712 3628 3834 2745 
C 3846 2668 3846 2655 3904 2655 
C 3974 2655 3974 2668 3974 2783 
L 3974 4289 
z
" transform="scale(0.015625)"/>
      <path id="CMR17-6f" d="M 2758 1356 
C 2758 2176 2163 2816 1466 2816 
C 768 2816 173 2176 173 1356 
C 173 551 768 -64 1466 -64 
C 2163 -64 2758 551 2758 1356 
z
M 1466 51 
C 1165 51 909 230 762 480 
C 602 767 582 1126 582 1408 
C 582 1677 595 2010 762 2298 
C 890 2509 1139 2714 1466 2714 
C 1754 2714 1997 2554 2150 2330 
C 2349 2029 2349 1607 2349 1408 
C 2349 1158 2336 775 2163 467 
C 1984 173 1709 51 1466 51 
z
" transform="scale(0.015625)"/>
      <path id="CMR17-6c" d="M 979 4396 
L 218 4326 
L 218 4160 
C 595 4160 653 4122 653 3817 
L 653 426 
C 653 184 627 153 218 153 
L 218 -13 
C 371 0 653 0 813 0 
C 979 0 1261 0 1414 -13 
L 1414 153 
C 1005 153 979 178 979 426 
L 979 4396 
z
" transform="scale(0.015625)"/>
      <path id="CMR17-65" d="M 2438 1472 
C 2464 1498 2464 1511 2464 1576 
C 2464 2238 2118 2816 1389 2816 
C 710 2816 173 2169 173 1383 
C 173 551 781 -64 1459 -64 
C 2176 -64 2458 607 2458 740 
C 2458 784 2419 784 2406 784 
C 2362 784 2355 771 2330 696 
C 2189 265 1837 51 1504 51 
C 1229 51 954 203 781 480 
C 582 803 582 1176 582 1472 
L 2438 1472 
z
M 589 1568 
C 634 2505 1126 2714 1382 2714 
C 1818 2714 2112 2297 2118 1568 
L 589 1568 
z
" transform="scale(0.015625)"/>
      <path id="CMR17-74" d="M 966 2560 
L 1862 2560 
L 1862 2725 
L 966 2725 
L 966 3904 
L 851 3904 
C 838 3245 614 2668 70 2668 
L 70 2560 
L 627 2560 
L 627 771 
C 627 650 627 -64 1370 -64 
C 1747 -64 1965 306 1965 777 
L 1965 1140 
L 1850 1140 
L 1850 783 
C 1850 344 1677 51 1408 51 
C 1222 51 966 178 966 758 
L 966 2560 
z
" transform="scale(0.015625)"/>
      <path id="CMR17-61" d="M 2304 1653 
C 2304 2072 2304 2294 2035 2543 
C 1798 2752 1523 2816 1306 2816 
C 800 2816 435 2407 435 1971 
C 435 1728 627 1728 666 1728 
C 749 1728 896 1778 896 1954 
C 896 2112 774 2181 666 2181 
C 640 2181 608 2174 589 2168 
C 723 2592 1069 2714 1293 2714 
C 1613 2714 1965 2429 1965 1885 
L 1965 1600 
C 1587 1600 1133 1549 774 1357 
C 371 1133 256 813 256 570 
C 256 77 832 -64 1171 -64 
C 1523 -64 1850 139 1990 511 
C 2003 233 2182 -18 2464 -18 
C 2598 -18 2938 70 2938 567 
L 2938 920 
L 2822 920 
L 2822 562 
C 2822 178 2650 128 2566 128 
C 2304 128 2304 458 2304 738 
L 2304 1653 
z
M 1965 870 
C 1965 317 1568 38 1216 38 
C 896 38 646 275 646 570 
C 646 761 730 1100 1101 1305 
C 1408 1478 1760 1504 1965 1504 
L 1965 870 
z
" transform="scale(0.015625)"/>
      <path id="CMR17-4b" d="M 2362 2675 
L 3469 3782 
C 3699 4006 3942 4186 4301 4186 
L 4301 4352 
C 4173 4352 4013 4352 3885 4352 
C 3712 4352 3411 4352 3245 4358 
L 3245 4192 
C 3411 4180 3437 4065 3437 4019 
C 3437 3975 3411 3905 3386 3867 
L 1261 1738 
L 1261 3900 
C 1261 4186 1331 4186 1773 4186 
L 1773 4352 
C 1587 4352 1248 4352 1050 4352 
C 851 4352 512 4352 326 4352 
L 326 4186 
C 768 4186 838 4186 838 3899 
L 838 446 
C 838 160 768 160 326 160 
L 326 0 
C 512 0 851 0 1050 0 
C 1248 0 1587 0 1773 0 
L 1773 160 
C 1331 160 1261 160 1261 447 
L 1261 1579 
L 2080 2390 
L 3290 537 
C 3328 473 3373 390 3373 326 
C 3373 160 3194 160 3110 160 
L 3110 0 
C 3315 0 3610 0 3821 0 
C 3974 0 4237 0 4384 -6 
L 4384 160 
C 4077 160 3981 198 3789 493 
L 2362 2675 
z
" transform="scale(0.015625)"/>
      <path id="CMR17-42" d="M 333 4352 
L 333 4186 
C 774 4186 845 4186 845 3900 
L 845 452 
C 845 166 774 166 333 166 
L 333 0 
L 2534 0 
C 3354 0 3885 583 3885 1164 
C 3885 1741 3360 2233 2675 2233 
C 3290 2356 3718 2771 3718 3264 
C 3718 3802 3194 4352 2368 4352 
L 333 4352 
z
M 1248 2304 
L 1248 3937 
C 1248 4155 1261 4186 1517 4186 
L 2336 4186 
C 2970 4186 3251 3674 3251 3277 
C 3251 2791 2861 2304 2170 2304 
L 1248 2304 
z
M 1517 166 
C 1261 166 1248 197 1248 413 
L 1248 2202 
L 2432 2202 
C 3091 2202 3411 1625 3411 1162 
C 3411 699 3046 166 2349 166 
L 1517 166 
z
" transform="scale(0.015625)"/>
      <path id="CMR17-72" d="M 960 1497 
C 960 2112 1222 2688 1702 2688 
C 1747 2688 1792 2682 1837 2662 
C 1837 2662 1696 2617 1696 2452 
C 1696 2298 1818 2234 1914 2234 
C 1990 2234 2131 2279 2131 2458 
C 2131 2663 1926 2790 1709 2790 
C 1222 2790 1011 2317 947 2093 
L 941 2093 
L 941 2790 
L 198 2720 
L 198 2554 
C 576 2554 634 2515 634 2208 
L 634 428 
C 634 184 608 153 198 153 
L 198 -13 
C 352 0 646 0 813 0 
C 998 0 1325 0 1498 -13 
L 1498 153 
C 1037 153 960 153 960 440 
L 960 1497 
z
" transform="scale(0.015625)"/>
     </defs>
     <use xlink:href="#CMR17-43" transform="scale(0.996264)"/>
     <use xlink:href="#CMR17-6f" transform="translate(66.509881 0) scale(0.996264)"/>
     <use xlink:href="#CMR17-6c" transform="translate(112.200358 0) scale(0.996264)"/>
     <use xlink:href="#CMR17-65" transform="translate(137.071416 0) scale(0.996264)"/>
     <use xlink:href="#CMR17-74" transform="translate(177.557077 0) scale(0.996264)"/>
     <use xlink:href="#CMR17-61" transform="translate(212.837844 0) scale(0.996264)"/>
     <use xlink:href="#CMR17-4b" transform="translate(288.604288 0) scale(0.996264)"/>
     <use xlink:href="#CMR17-42" transform="translate(360.279065 0) scale(0.996264)"/>
     <use xlink:href="#CMR17-72" transform="translate(425.46782 0) scale(0.996264)"/>
    </g>
   </g>
   <g id="legend_1">
    <g id="patch_7">
     <path d="M 349.277185 120.870979 
L 443.184 120.870979 
Q 445.584 120.870979 445.584 118.470979 
L 445.584 36.048 
Q 445.584 33.648 443.184 33.648 
L 349.277185 33.648 
Q 346.877185 33.648 346.877185 36.048 
L 346.877185 118.470979 
Q 346.877185 120.870979 349.277185 120.870979 
z
" style="fill: #ffffff; opacity: 0.8; stroke: #cccccc; stroke-linejoin: miter"/>
    </g>
    <g id="line2d_30">
     <path d="M 351.677185 42.648 
L 363.677185 42.648 
L 375.677185 42.648 
" style="fill: none; stroke: #0000ff; stroke-width: 1.5; stroke-linecap: square"/>
    </g>
    <g id="text_16">
     <!-- $U = 35$ kV -->
     <g transform="translate(385.277185 46.848) scale(0.12 -0.12)">
      <defs>
       <path id="CMMI12-55" d="M 3238 1474 
C 3014 581 2272 57 1670 57 
C 1210 57 896 363 896 891 
C 896 916 896 1107 966 1387 
L 1594 3887 
C 1651 4103 1664 4167 2118 4167 
C 2234 4167 2298 4167 2298 4282 
C 2298 4352 2240 4352 2202 4352 
C 2086 4352 1952 4352 1830 4352 
L 1075 4352 
C 954 4352 819 4352 698 4352 
C 653 4352 576 4352 576 4231 
C 576 4167 621 4167 742 4167 
C 1126 4167 1126 4116 1126 4046 
C 1126 4008 1082 3824 1050 3715 
L 493 1488 
C 474 1418 435 1246 435 1075 
C 435 374 941 -128 1638 -128 
C 2285 -128 3002 384 3328 1197 
C 3373 1305 3430 1530 3469 1702 
C 3533 1933 3667 2496 3712 2662 
L 3955 3623 
C 4038 3956 4090 4167 4653 4167 
C 4704 4173 4730 4224 4730 4282 
C 4730 4352 4672 4352 4646 4352 
C 4557 4352 4442 4352 4352 4352 
L 4051 4352 
C 3654 4352 3450 4352 3443 4352 
C 3405 4352 3328 4352 3328 4231 
C 3328 4167 3379 4167 3424 4167 
C 3808 4167 3834 4020 3834 3905 
C 3834 3848 3834 3828 3808 3739 
L 3238 1474 
z
" transform="scale(0.015625)"/>
       <path id="CMR17-3d" d="M 4115 2017 
C 4211 2017 4307 2017 4307 2125 
C 4307 2240 4198 2240 4090 2240 
L 512 2240 
C 403 2240 294 2240 294 2125 
C 294 2017 390 2017 486 2017 
L 4115 2017 
z
M 4090 896 
C 4198 896 4307 896 4307 1011 
C 4307 1119 4211 1119 4115 1119 
L 486 1119 
C 390 1119 294 1119 294 1011 
C 294 896 403 896 512 896 
L 4090 896 
z
" transform="scale(0.015625)"/>
       <path id="CMR17-6b" d="M 1670 1673 
C 1664 1686 1632 1724 1632 1743 
C 1632 1756 2086 2171 2144 2222 
C 2509 2528 2739 2560 2906 2560 
L 2906 2733 
C 2867 2733 2854 2733 2848 2720 
L 2534 2720 
C 2355 2720 2080 2720 1907 2733 
L 1907 2566 
C 1997 2559 2061 2508 2061 2419 
C 2061 2291 1933 2170 1926 2170 
L 960 1289 
L 960 4396 
L 198 4326 
L 198 4160 
C 576 4160 634 4122 634 3817 
L 634 426 
C 634 184 608 153 198 153 
L 198 -13 
C 352 0 634 0 794 0 
C 954 0 1235 0 1389 -13 
L 1389 153 
C 979 153 954 178 954 428 
L 954 1130 
L 1395 1532 
L 2042 574 
C 2118 459 2182 369 2182 286 
C 2182 172 2067 153 1990 153 
L 1990 -13 
C 2144 0 2419 0 2579 0 
C 2694 0 2931 0 3040 0 
L 3040 153 
C 2739 153 2669 210 2477 491 
L 1670 1673 
z
" transform="scale(0.015625)"/>
       <path id="CMR17-56" d="M 3776 3745 
C 3834 3886 3936 4160 4365 4160 
L 4365 4332 
C 4218 4319 4051 4319 3891 4319 
C 3738 4319 3475 4319 3328 4332 
L 3328 4160 
C 3648 4160 3661 3936 3661 3898 
C 3661 3827 3642 3783 3622 3732 
L 2362 446 
L 1043 3886 
C 1024 3931 1011 3963 1011 3994 
C 1011 4160 1267 4160 1402 4160 
L 1402 4319 
C 1197 4319 896 4319 685 4319 
C 518 4319 218 4319 64 4332 
L 64 4160 
C 435 4160 506 4135 582 3931 
L 2106 -26 
C 2138 -115 2144 -128 2214 -128 
C 2285 -128 2291 -115 2323 -26 
L 3776 3745 
z
" transform="scale(0.015625)"/>
      </defs>
      <use xlink:href="#CMMI12-55" transform="scale(0.996264)"/>
      <use xlink:href="#CMR17-3d" transform="translate(104.332782 0) scale(0.996264)"/>
      <use xlink:href="#CMR17-33" transform="translate(203.721579 0) scale(0.996264)"/>
      <use xlink:href="#CMR17-35" transform="translate(249.412056 0) scale(0.996264)"/>
      <use xlink:href="#CMR17-6b" transform="translate(325.178499 0) scale(0.996264)"/>
      <use xlink:href="#CMR17-56" transform="translate(373.471415 0) scale(0.996264)"/>
     </g>
    </g>
    <g id="line2d_31">
     <path d="M 351.677185 59.372596 
L 363.677185 59.372596 
L 375.677185 59.372596 
" style="fill: none; stroke: #ff0000; stroke-width: 1.5; stroke-linecap: square"/>
    </g>
    <g id="text_17">
     <!-- $U = 30$ kV -->
     <g transform="translate(385.277185 63.572596) scale(0.12 -0.12)">
      <use xlink:href="#CMMI12-55" transform="scale(0.996264)"/>
      <use xlink:href="#CMR17-3d" transform="translate(104.332782 0) scale(0.996264)"/>
      <use xlink:href="#CMR17-33" transform="translate(203.721579 0) scale(0.996264)"/>
      <use xlink:href="#CMR17-30" transform="translate(249.412056 0) scale(0.996264)"/>
      <use xlink:href="#CMR17-6b" transform="translate(325.178499 0) scale(0.996264)"/>
      <use xlink:href="#CMR17-56" transform="translate(373.471415 0) scale(0.996264)"/>
     </g>
    </g>
    <g id="line2d_32">
     <path d="M 351.677185 76.097192 
L 363.677185 76.097192 
L 375.677185 76.097192 
" style="fill: none; stroke: #008000; stroke-width: 1.5; stroke-linecap: square"/>
    </g>
    <g id="text_18">
     <!-- $U = 26$ kV -->
     <g transform="translate(385.277185 80.297192) scale(0.12 -0.12)">
      <use xlink:href="#CMMI12-55" transform="scale(0.996264)"/>
      <use xlink:href="#CMR17-3d" transform="translate(104.332782 0) scale(0.996264)"/>
      <use xlink:href="#CMR17-32" transform="translate(203.721579 0) scale(0.996264)"/>
      <use xlink:href="#CMR17-36" transform="translate(249.412056 0) scale(0.996264)"/>
      <use xlink:href="#CMR17-6b" transform="translate(325.178499 0) scale(0.996264)"/>
      <use xlink:href="#CMR17-56" transform="translate(373.471415 0) scale(0.996264)"/>
     </g>
    </g>
    <g id="line2d_33">
     <path d="M 351.677185 92.821787 
L 363.677185 92.821787 
L 375.677185 92.821787 
" style="fill: none; stroke: #a52a2a; stroke-width: 1.5; stroke-linecap: square"/>
    </g>
    <g id="text_19">
     <!-- $U = 22$ kV -->
     <g transform="translate(385.277185 97.021787) scale(0.12 -0.12)">
      <use xlink:href="#CMMI12-55" transform="scale(0.996264)"/>
      <use xlink:href="#CMR17-3d" transform="translate(104.332782 0) scale(0.996264)"/>
      <use xlink:href="#CMR17-32" transform="translate(203.721579 0) scale(0.996264)"/>
      <use xlink:href="#CMR17-32" transform="translate(249.412056 0) scale(0.996264)"/>
      <use xlink:href="#CMR17-6b" transform="translate(325.178499 0) scale(0.996264)"/>
      <use xlink:href="#CMR17-56" transform="translate(373.471415 0) scale(0.996264)"/>
     </g>
    </g>
    <g id="line2d_34">
     <path d="M 351.677185 109.546383 
L 363.677185 109.546383 
L 375.677185 109.546383 
" style="fill: none; stroke: #800080; stroke-width: 1.5; stroke-linecap: square"/>
    </g>
    <g id="text_20">
     <!-- $U = 18$ kV -->
     <g transform="translate(385.277185 113.746383) scale(0.12 -0.12)">
      <use xlink:href="#CMMI12-55" transform="scale(0.996264)"/>
      <use xlink:href="#CMR17-3d" transform="translate(104.332782 0) scale(0.996264)"/>
      <use xlink:href="#CMR17-31" transform="translate(203.721579 0) scale(0.996264)"/>
      <use xlink:href="#CMR17-38" transform="translate(249.412056 0) scale(0.996264)"/>
      <use xlink:href="#CMR17-6b" transform="translate(325.178499 0) scale(0.996264)"/>
      <use xlink:href="#CMR17-56" transform="translate(373.471415 0) scale(0.996264)"/>
     </g>
    </g>
   </g>
  </g>
 </g>
 <defs>
  <clipPath id="pa3f8fe94c3">
   <rect x="50.688" y="27.648" width="400.896" height="273.024"/>
  </clipPath>
 </defs>
</svg>
