<?xml version="1.0" encoding="utf-8" standalone="no"?>
<!DOCTYPE svg PUBLIC "-//W3C//DTD SVG 1.1//EN"
  "http://www.w3.org/Graphics/SVG/1.1/DTD/svg11.dtd">
<svg xmlns:xlink="http://www.w3.org/1999/xlink" width="460.8pt" height="345.6pt" viewBox="0 0 460.8 345.6" xmlns="http://www.w3.org/2000/svg" version="1.1">
 <metadata>
  <rdf:RDF xmlns:dc="http://purl.org/dc/elements/1.1/" xmlns:cc="http://creativecommons.org/ns#" xmlns:rdf="http://www.w3.org/1999/02/22-rdf-syntax-ns#">
   <cc:Work>
    <dc:type rdf:resource="http://purl.org/dc/dcmitype/StillImage"/>
    <dc:date>2024-03-25T22:43:03.653058</dc:date>
    <dc:format>image/svg+xml</dc:format>
    <dc:creator>
     <cc:Agent>
      <dc:title>Matplotlib v3.8.3, https://matplotlib.org/</dc:title>
     </cc:Agent>
    </dc:creator>
   </cc:Work>
  </rdf:RDF>
 </metadata>
 <defs>
  <style type="text/css">*{stroke-linejoin: round; stroke-linecap: butt}</style>
 </defs>
 <g id="figure_1">
  <g id="patch_1">
   <path d="M 0 345.6 
L 460.8 345.6 
L 460.8 0 
L 0 0 
z
" style="fill: #ffffff"/>
  </g>
  <g id="axes_1">
   <g id="patch_2">
    <path d="M 50.688 300.672 
L 451.584 300.672 
L 451.584 27.648 
L 50.688 27.648 
z
" style="fill: #ffffff"/>
   </g>
   <g id="matplotlib.axis_1">
    <g id="xtick_1">
     <g id="line2d_1">
      <path d="M 113.987368 300.672 
L 113.987368 27.648 
" clip-path="url(#p0a20042e02)" style="fill: none; stroke: #b0b0b0; stroke-width: 0.8; stroke-linecap: square"/>
     </g>
     <g id="line2d_2">
      <defs>
       <path id="m80669d3ba0" d="M 0 0 
L 0 3.5 
" style="stroke: #000000; stroke-width: 0.8"/>
      </defs>
      <g>
       <use xlink:href="#m80669d3ba0" x="113.987368" y="300.672" style="stroke: #000000; stroke-width: 0.8"/>
      </g>
     </g>
     <g id="text_1">
      <!-- $\mathdefault{4}$ -->
      <g transform="translate(110.32925 318.049725) scale(0.15 -0.15)">
       <defs>
        <path id="CMR17-34" d="M 2150 4122 
C 2150 4256 2144 4256 2029 4256 
L 128 1254 
L 128 1088 
L 1779 1088 
L 1779 457 
C 1779 224 1766 160 1318 160 
L 1197 160 
L 1197 0 
C 1402 0 1747 0 1965 0 
C 2182 0 2528 0 2733 0 
L 2733 160 
L 2611 160 
C 2163 160 2150 224 2150 457 
L 2150 1088 
L 2803 1088 
L 2803 1254 
L 2150 1254 
L 2150 4122 
z
M 1798 3703 
L 1798 1254 
L 256 1254 
L 1798 3703 
z
" transform="scale(0.015625)"/>
       </defs>
       <use xlink:href="#CMR17-34" transform="scale(0.996264)"/>
      </g>
     </g>
    </g>
    <g id="xtick_2">
     <g id="line2d_3">
      <path d="M 198.386526 300.672 
L 198.386526 27.648 
" clip-path="url(#p0a20042e02)" style="fill: none; stroke: #b0b0b0; stroke-width: 0.8; stroke-linecap: square"/>
     </g>
     <g id="line2d_4">
      <g>
       <use xlink:href="#m80669d3ba0" x="198.386526" y="300.672" style="stroke: #000000; stroke-width: 0.8"/>
      </g>
     </g>
     <g id="text_2">
      <!-- $\mathdefault{6}$ -->
      <g transform="translate(194.728407 318.049725) scale(0.15 -0.15)">
       <defs>
        <path id="CMR17-36" d="M 678 2176 
C 678 3690 1395 4032 1811 4032 
C 1946 4032 2272 4009 2400 3776 
C 2298 3776 2106 3776 2106 3553 
C 2106 3381 2246 3323 2336 3323 
C 2394 3323 2566 3348 2566 3560 
C 2566 3954 2246 4179 1805 4179 
C 1043 4179 243 3390 243 1984 
C 243 253 966 -128 1478 -128 
C 2099 -128 2688 427 2688 1283 
C 2688 2081 2170 2662 1517 2662 
C 1126 2662 838 2407 678 1960 
L 678 2176 
z
M 1478 25 
C 691 25 691 1200 691 1436 
C 691 1896 909 2560 1504 2560 
C 1613 2560 1926 2560 2138 2120 
C 2253 1870 2253 1609 2253 1289 
C 2253 944 2253 690 2118 434 
C 1978 171 1773 25 1478 25 
z
" transform="scale(0.015625)"/>
       </defs>
       <use xlink:href="#CMR17-36" transform="scale(0.996264)"/>
      </g>
     </g>
    </g>
    <g id="xtick_3">
     <g id="line2d_5">
      <path d="M 282.785684 300.672 
L 282.785684 27.648 
" clip-path="url(#p0a20042e02)" style="fill: none; stroke: #b0b0b0; stroke-width: 0.8; stroke-linecap: square"/>
     </g>
     <g id="line2d_6">
      <g>
       <use xlink:href="#m80669d3ba0" x="282.785684" y="300.672" style="stroke: #000000; stroke-width: 0.8"/>
      </g>
     </g>
     <g id="text_3">
      <!-- $\mathdefault{8}$ -->
      <g transform="translate(279.127565 318.049725) scale(0.15 -0.15)">
       <defs>
        <path id="CMR17-38" d="M 1741 2264 
C 2144 2467 2554 2773 2554 3263 
C 2554 3841 1990 4179 1472 4179 
C 890 4179 378 3759 378 3180 
C 378 3021 416 2747 666 2505 
C 730 2442 998 2251 1171 2130 
C 883 1983 211 1634 211 934 
C 211 279 838 -128 1459 -128 
C 2144 -128 2720 362 2720 1010 
C 2720 1590 2330 1857 2074 2029 
L 1741 2264 
z
M 902 2822 
C 851 2854 595 3051 595 3351 
C 595 3739 998 4032 1459 4032 
C 1965 4032 2336 3676 2336 3262 
C 2336 2669 1670 2331 1638 2331 
C 1632 2331 1626 2331 1574 2370 
L 902 2822 
z
M 2080 1519 
C 2176 1449 2483 1240 2483 851 
C 2483 381 2010 25 1472 25 
C 890 25 448 438 448 940 
C 448 1443 838 1862 1280 2060 
L 2080 1519 
z
" transform="scale(0.015625)"/>
       </defs>
       <use xlink:href="#CMR17-38" transform="scale(0.996264)"/>
      </g>
     </g>
    </g>
    <g id="xtick_4">
     <g id="line2d_7">
      <path d="M 367.184842 300.672 
L 367.184842 27.648 
" clip-path="url(#p0a20042e02)" style="fill: none; stroke: #b0b0b0; stroke-width: 0.8; stroke-linecap: square"/>
     </g>
     <g id="line2d_8">
      <g>
       <use xlink:href="#m80669d3ba0" x="367.184842" y="300.672" style="stroke: #000000; stroke-width: 0.8"/>
      </g>
     </g>
     <g id="text_4">
      <!-- $\mathdefault{10}$ -->
      <g transform="translate(359.868604 318.049725) scale(0.15 -0.15)">
       <defs>
        <path id="CMR17-31" d="M 1702 4058 
C 1702 4192 1696 4192 1606 4192 
C 1357 3916 979 3827 621 3827 
C 602 3827 570 3827 563 3808 
C 557 3795 557 3782 557 3648 
C 755 3648 1088 3686 1344 3839 
L 1344 461 
C 1344 236 1331 160 781 160 
L 589 160 
L 589 0 
C 896 0 1216 0 1523 0 
C 1830 0 2150 0 2458 0 
L 2458 160 
L 2266 160 
C 1715 160 1702 230 1702 458 
L 1702 4058 
z
" transform="scale(0.015625)"/>
        <path id="CMR17-30" d="M 2688 2025 
C 2688 2416 2682 3080 2413 3591 
C 2176 4039 1798 4198 1466 4198 
C 1158 4198 768 4058 525 3597 
C 269 3118 243 2524 243 2025 
C 243 1661 250 1106 448 619 
C 723 -39 1216 -128 1466 -128 
C 1760 -128 2208 -7 2470 600 
C 2662 1042 2688 1559 2688 2025 
z
M 1466 -26 
C 1056 -26 813 325 723 812 
C 653 1188 653 1738 653 2096 
C 653 2588 653 2997 736 3387 
C 858 3929 1216 4096 1466 4096 
C 1728 4096 2067 3923 2189 3400 
C 2272 3036 2278 2607 2278 2096 
C 2278 1680 2278 1169 2202 792 
C 2067 95 1690 -26 1466 -26 
z
" transform="scale(0.015625)"/>
       </defs>
       <use xlink:href="#CMR17-31" transform="scale(0.996264)"/>
       <use xlink:href="#CMR17-30" transform="translate(45.690477 0) scale(0.996264)"/>
      </g>
     </g>
    </g>
    <g id="xtick_5">
     <g id="line2d_9">
      <path d="M 451.584 300.672 
L 451.584 27.648 
" clip-path="url(#p0a20042e02)" style="fill: none; stroke: #b0b0b0; stroke-width: 0.8; stroke-linecap: square"/>
     </g>
     <g id="line2d_10">
      <g>
       <use xlink:href="#m80669d3ba0" x="451.584" y="300.672" style="stroke: #000000; stroke-width: 0.8"/>
      </g>
     </g>
     <g id="text_5">
      <!-- $\mathdefault{12}$ -->
      <g transform="translate(444.267762 318.049725) scale(0.15 -0.15)">
       <defs>
        <path id="CMR17-32" d="M 2669 989 
L 2554 989 
C 2490 536 2438 459 2413 420 
C 2381 369 1920 369 1830 369 
L 602 369 
C 832 619 1280 1072 1824 1597 
C 2214 1967 2669 2402 2669 3035 
C 2669 3790 2067 4224 1395 4224 
C 691 4224 262 3604 262 3030 
C 262 2780 448 2748 525 2748 
C 589 2748 781 2787 781 3010 
C 781 3207 614 3264 525 3264 
C 486 3264 448 3258 422 3245 
C 544 3790 915 4058 1306 4058 
C 1862 4058 2227 3617 2227 3035 
C 2227 2479 1901 2000 1536 1584 
L 262 146 
L 262 0 
L 2515 0 
L 2669 989 
z
" transform="scale(0.015625)"/>
       </defs>
       <use xlink:href="#CMR17-31" transform="scale(0.996264)"/>
       <use xlink:href="#CMR17-32" transform="translate(45.690477 0) scale(0.996264)"/>
      </g>
     </g>
    </g>
    <g id="text_6">
     <!-- $\beta$ ($^{\circ}$) -->
     <g transform="translate(233.237885 338.388889) scale(0.18 -0.18)">
      <defs>
       <path id="CMMI12-c" d="M 3622 3701 
C 3622 4081 3296 4480 2714 4480 
C 1888 4480 1363 3477 1197 2816 
L 186 -1172 
C 173 -1223 211 -1236 243 -1236 
C 288 -1236 320 -1230 326 -1198 
L 774 586 
C 838 229 1190 -64 1568 -64 
C 2483 -64 3347 650 3347 1599 
C 3347 1841 3290 2083 3155 2287 
C 3078 2408 2982 2497 2880 2574 
C 3341 2815 3622 3200 3622 3701 
z
M 2509 2580 
C 2406 2542 2304 2529 2182 2529 
C 2093 2529 2010 2523 1894 2561 
C 1958 2606 2054 2618 2189 2618 
C 2304 2618 2419 2606 2509 2580 
z
M 3290 3758 
C 3290 3410 3117 2903 2701 2669 
C 2579 2718 2413 2752 2272 2752 
C 2138 2752 1754 2752 1754 2555 
C 1754 2389 2106 2389 2214 2389 
C 2381 2389 2528 2432 2682 2484 
C 2886 2318 2976 2101 2976 1783 
C 2976 1413 2874 1115 2752 841 
C 2541 369 2042 64 1600 64 
C 1133 64 890 432 890 864 
C 890 922 890 1005 915 1099 
L 1331 2771 
C 1542 3603 2080 4353 2701 4353 
C 3162 4353 3290 4036 3290 3758 
z
" transform="scale(0.015625)"/>
       <path id="CMR17-28" d="M 1958 -1561 
C 1958 -1555 1958 -1542 1939 -1523 
C 1645 -1224 858 -407 858 1581 
C 858 3569 1632 4379 1946 4697 
C 1946 4704 1958 4717 1958 4736 
C 1958 4755 1939 4768 1914 4768 
C 1843 4768 1299 4296 986 3594 
C 666 2887 576 2199 576 1588 
C 576 1128 621 351 1005 -471 
C 1312 -1135 1837 -1600 1914 -1600 
C 1946 -1600 1958 -1587 1958 -1561 
z
" transform="scale(0.015625)"/>
       <path id="CMSY10-e" d="M 2842 1600 
C 2842 2277 2272 2828 1600 2828 
C 909 2828 352 2264 352 1600 
C 352 930 909 372 1600 372 
C 2272 372 2842 923 2842 1600 
z
M 1600 628 
C 1043 628 608 1070 608 1600 
C 608 2130 1050 2572 1600 2572 
C 2131 2572 2586 2142 2586 1600 
C 2586 1058 2131 628 1600 628 
z
" transform="scale(0.015625)"/>
       <path id="CMR17-29" d="M 1683 1581 
C 1683 2040 1638 2817 1254 3639 
C 947 4303 422 4768 346 4768 
C 326 4768 301 4761 301 4729 
C 301 4717 307 4710 314 4697 
C 621 4378 1402 3568 1402 1584 
C 1402 -407 627 -1217 314 -1537 
C 307 -1549 301 -1556 301 -1568 
C 301 -1600 326 -1600 346 -1600 
C 416 -1600 960 -1128 1274 -426 
C 1594 281 1683 969 1683 1581 
z
" transform="scale(0.015625)"/>
      </defs>
      <use xlink:href="#CMMI12-c" transform="scale(0.996264)"/>
      <use xlink:href="#CMR17-28" transform="translate(90.669982 0) scale(0.996264)"/>
      <use xlink:href="#CMSY10-e" transform="translate(125.95075 36.153639) scale(0.697382)"/>
      <use xlink:href="#CMR17-29" transform="translate(161.318092 0) scale(0.996264)"/>
     </g>
    </g>
   </g>
   <g id="matplotlib.axis_2">
    <g id="ytick_1">
     <g id="line2d_11">
      <path d="M 50.688 293.490395 
L 451.584 293.490395 
" clip-path="url(#p0a20042e02)" style="fill: none; stroke: #b0b0b0; stroke-width: 0.8; stroke-linecap: square"/>
     </g>
     <g id="line2d_12">
      <defs>
       <path id="m662e3e8c26" d="M 0 0 
L -3.5 0 
" style="stroke: #000000; stroke-width: 0.8"/>
      </defs>
      <g>
       <use xlink:href="#m662e3e8c26" x="50.688" y="293.490395" style="stroke: #000000; stroke-width: 0.8"/>
      </g>
     </g>
     <g id="text_7">
      <!-- $\mathdefault{0}$ -->
      <g transform="translate(36.371762 298.679258) scale(0.15 -0.15)">
       <use xlink:href="#CMR17-30" transform="scale(0.996264)"/>
      </g>
     </g>
    </g>
    <g id="ytick_2">
     <g id="line2d_13">
      <path d="M 50.688 242.229834 
L 451.584 242.229834 
" clip-path="url(#p0a20042e02)" style="fill: none; stroke: #b0b0b0; stroke-width: 0.8; stroke-linecap: square"/>
     </g>
     <g id="line2d_14">
      <g>
       <use xlink:href="#m662e3e8c26" x="50.688" y="242.229834" style="stroke: #000000; stroke-width: 0.8"/>
      </g>
     </g>
     <g id="text_8">
      <!-- $\mathdefault{1}$ -->
      <g transform="translate(36.371762 247.418697) scale(0.15 -0.15)">
       <use xlink:href="#CMR17-31" transform="scale(0.996264)"/>
      </g>
     </g>
    </g>
    <g id="ytick_3">
     <g id="line2d_15">
      <path d="M 50.688 190.969273 
L 451.584 190.969273 
" clip-path="url(#p0a20042e02)" style="fill: none; stroke: #b0b0b0; stroke-width: 0.8; stroke-linecap: square"/>
     </g>
     <g id="line2d_16">
      <g>
       <use xlink:href="#m662e3e8c26" x="50.688" y="190.969273" style="stroke: #000000; stroke-width: 0.8"/>
      </g>
     </g>
     <g id="text_9">
      <!-- $\mathdefault{2}$ -->
      <g transform="translate(36.371762 196.158136) scale(0.15 -0.15)">
       <use xlink:href="#CMR17-32" transform="scale(0.996264)"/>
      </g>
     </g>
    </g>
    <g id="ytick_4">
     <g id="line2d_17">
      <path d="M 50.688 139.708712 
L 451.584 139.708712 
" clip-path="url(#p0a20042e02)" style="fill: none; stroke: #b0b0b0; stroke-width: 0.8; stroke-linecap: square"/>
     </g>
     <g id="line2d_18">
      <g>
       <use xlink:href="#m662e3e8c26" x="50.688" y="139.708712" style="stroke: #000000; stroke-width: 0.8"/>
      </g>
     </g>
     <g id="text_10">
      <!-- $\mathdefault{3}$ -->
      <g transform="translate(36.371762 144.897575) scale(0.15 -0.15)">
       <defs>
        <path id="CMR17-33" d="M 1414 2157 
C 1984 2157 2234 1662 2234 1090 
C 2234 320 1824 25 1453 25 
C 1114 25 563 194 390 693 
C 422 680 454 680 486 680 
C 640 680 755 782 755 948 
C 755 1133 614 1216 486 1216 
C 378 1216 211 1165 211 926 
C 211 335 787 -128 1466 -128 
C 2176 -128 2720 430 2720 1085 
C 2720 1707 2208 2157 1600 2227 
C 2086 2328 2554 2756 2554 3329 
C 2554 3820 2048 4179 1472 4179 
C 890 4179 378 3829 378 3329 
C 378 3110 544 3072 627 3072 
C 762 3072 877 3155 877 3321 
C 877 3486 762 3569 627 3569 
C 602 3569 570 3569 544 3557 
C 730 3959 1235 4032 1459 4032 
C 1683 4032 2106 3925 2106 3320 
C 2106 3143 2080 2828 1862 2550 
C 1670 2304 1453 2304 1242 2284 
C 1210 2284 1062 2269 1037 2269 
C 992 2263 966 2257 966 2208 
C 966 2163 973 2157 1101 2157 
L 1414 2157 
z
" transform="scale(0.015625)"/>
       </defs>
       <use xlink:href="#CMR17-33" transform="scale(0.996264)"/>
      </g>
     </g>
    </g>
    <g id="ytick_5">
     <g id="line2d_19">
      <path d="M 50.688 88.448151 
L 451.584 88.448151 
" clip-path="url(#p0a20042e02)" style="fill: none; stroke: #b0b0b0; stroke-width: 0.8; stroke-linecap: square"/>
     </g>
     <g id="line2d_20">
      <g>
       <use xlink:href="#m662e3e8c26" x="50.688" y="88.448151" style="stroke: #000000; stroke-width: 0.8"/>
      </g>
     </g>
     <g id="text_11">
      <!-- $\mathdefault{4}$ -->
      <g transform="translate(36.371762 93.637014) scale(0.15 -0.15)">
       <use xlink:href="#CMR17-34" transform="scale(0.996264)"/>
      </g>
     </g>
    </g>
    <g id="ytick_6">
     <g id="line2d_21">
      <path d="M 50.688 37.18759 
L 451.584 37.18759 
" clip-path="url(#p0a20042e02)" style="fill: none; stroke: #b0b0b0; stroke-width: 0.8; stroke-linecap: square"/>
     </g>
     <g id="line2d_22">
      <g>
       <use xlink:href="#m662e3e8c26" x="50.688" y="37.18759" style="stroke: #000000; stroke-width: 0.8"/>
      </g>
     </g>
     <g id="text_12">
      <!-- $\mathdefault{5}$ -->
      <g transform="translate(36.371762 42.376453) scale(0.15 -0.15)">
       <defs>
        <path id="CMR17-35" d="M 730 3692 
C 794 3666 1056 3584 1325 3584 
C 1920 3584 2246 3911 2432 4100 
C 2432 4157 2432 4192 2394 4192 
C 2387 4192 2374 4192 2323 4163 
C 2099 4058 1837 3973 1517 3973 
C 1325 3973 1037 3999 723 4139 
C 653 4171 640 4171 634 4171 
C 602 4171 595 4164 595 4037 
L 595 2203 
C 595 2089 595 2057 659 2057 
C 691 2057 704 2070 736 2114 
C 941 2401 1222 2522 1542 2522 
C 1766 2522 2246 2382 2246 1289 
C 2246 1085 2246 715 2054 421 
C 1894 159 1645 25 1370 25 
C 947 25 518 320 403 814 
C 429 807 480 795 506 795 
C 589 795 749 840 749 1038 
C 749 1210 627 1280 506 1280 
C 358 1280 262 1190 262 1011 
C 262 454 704 -128 1382 -128 
C 2042 -128 2669 440 2669 1264 
C 2669 2030 2170 2624 1549 2624 
C 1222 2624 947 2503 730 2274 
L 730 3692 
z
" transform="scale(0.015625)"/>
       </defs>
       <use xlink:href="#CMR17-35" transform="scale(0.996264)"/>
      </g>
     </g>
    </g>
    <g id="text_13">
     <!-- $I$ ($10^2$/s) -->
     <g transform="translate(27.903578 196.674864) rotate(-90) scale(0.18 -0.18)">
      <defs>
       <path id="CMMI12-49" d="M 2355 3880 
C 2413 4103 2426 4167 2893 4167 
C 3034 4167 3085 4167 3085 4288 
C 3085 4352 3014 4352 2995 4352 
C 2880 4352 2739 4352 2624 4352 
L 1837 4352 
C 1709 4352 1562 4352 1434 4352 
C 1382 4352 1312 4352 1312 4231 
C 1312 4167 1363 4167 1491 4167 
C 1888 4167 1888 4116 1888 4046 
C 1888 4002 1875 3963 1862 3906 
L 998 472 
C 941 249 928 185 461 185 
C 320 185 262 185 262 64 
C 262 0 326 0 358 0 
C 474 0 614 0 730 0 
L 1517 0 
C 1645 0 1786 0 1914 0 
C 1965 0 2042 0 2042 115 
C 2042 185 2003 185 1862 185 
C 1466 185 1466 236 1466 312 
C 1466 325 1466 357 1491 459 
L 2355 3880 
z
" transform="scale(0.015625)"/>
       <path id="CMR17-2f" d="M 2605 4545 
C 2637 4627 2637 4640 2637 4653 
C 2637 4729 2579 4768 2528 4768 
C 2451 4768 2426 4717 2400 4640 
L 326 -1377 
C 294 -1460 294 -1473 294 -1486 
C 294 -1562 352 -1600 403 -1600 
C 480 -1600 506 -1549 531 -1473 
L 2605 4545 
z
" transform="scale(0.015625)"/>
       <path id="CMR17-73" d="M 1978 2697 
C 1978 2813 1971 2819 1933 2819 
C 1907 2819 1901 2813 1824 2717 
C 1805 2691 1747 2626 1728 2601 
C 1523 2819 1235 2819 1126 2819 
C 416 2819 160 2447 160 2076 
C 160 1498 813 1365 998 1325 
C 1402 1243 1542 1217 1677 1101 
C 1760 1025 1901 884 1901 654 
C 1901 384 1747 38 1158 38 
C 602 38 403 460 288 1021 
C 269 1110 269 1117 218 1117 
C 166 1117 160 1110 160 983 
L 160 63 
C 160 -51 166 -58 205 -58 
C 237 -58 243 -51 275 0 
C 314 57 410 211 448 276 
C 576 103 800 -64 1158 -64 
C 1792 -64 2131 283 2131 784 
C 2131 1112 1958 1285 1875 1362 
C 1683 1561 1459 1606 1190 1657 
C 838 1735 390 1825 390 2217 
C 390 2383 480 2737 1126 2737 
C 1811 2737 1850 2094 1862 1888 
C 1869 1856 1901 1849 1920 1849 
C 1978 1849 1978 1869 1978 1978 
L 1978 2697 
z
" transform="scale(0.015625)"/>
      </defs>
      <use xlink:href="#CMMI12-49" transform="scale(0.996264)"/>
      <use xlink:href="#CMR17-28" transform="translate(80.93248 0) scale(0.996264)"/>
      <use xlink:href="#CMR17-31" transform="translate(116.213248 0) scale(0.996264)"/>
      <use xlink:href="#CMR17-30" transform="translate(161.903725 0) scale(0.996264)"/>
      <use xlink:href="#CMR17-32" transform="translate(207.594202 36.153639) scale(0.697382)"/>
      <use xlink:href="#CMR17-2f" transform="translate(240.075516 0) scale(0.996264)"/>
      <use xlink:href="#CMR17-73" transform="translate(285.765993 0) scale(0.996264)"/>
      <use xlink:href="#CMR17-29" transform="translate(321.567331 0) scale(0.996264)"/>
     </g>
    </g>
   </g>
   <g id="line2d_23">
    <path d="M 50.688 266.117256 
L 54.907958 265.60465 
L 59.127916 265.348347 
L 63.347874 262.375235 
L 67.567832 259.914728 
L 71.787789 252.481947 
L 76.007747 238.12899 
L 80.227705 215.881906 
L 84.447663 187.483555 
L 88.667621 165.08269 
L 92.887579 152.472592 
L 97.107537 144.783508 
L 101.327495 143.399473 
L 105.547453 135.556607 
L 109.767411 132.891058 
L 113.987368 136.325515 
L 118.207326 142.015438 
L 122.427284 138.068374 
L 126.647242 145.654937 
L 130.8672 152.882677 
L 135.087158 157.239824 
L 139.307116 162.724704 
L 143.527074 167.338155 
L 147.747032 174.719676 
L 151.966989 176.411274 
L 156.186947 186.919689 
L 160.406905 185.740696 
L 164.626863 178.76926 
L 168.846821 171.746563 
L 173.066779 151.037296 
L 177.286737 139.298628 
L 181.506695 146.167543 
L 185.726653 173.130598 
L 189.946611 192.148266 
L 194.166568 181.281027 
L 198.386526 133.352403 
L 202.606484 64.201906 
L 206.826442 40.058182 
L 211.0464 78.964948 
L 215.266358 143.194431 
L 219.486316 203.579371 
L 223.706274 211.524758 
L 227.926232 218.752497 
L 232.146189 215.3693 
L 236.366147 220.597878 
L 240.586105 220.956702 
L 244.806063 219.0088 
L 249.026021 218.342413 
L 253.245979 222.186955 
L 257.465937 219.88023 
L 261.685895 224.44242 
L 265.905853 222.135694 
L 270.125811 221.366786 
L 274.345768 228.697046 
L 278.565726 222.545779 
L 282.785684 219.213843 
L 287.005642 217.11216 
L 291.2256 215.010477 
L 295.445558 218.855019 
L 299.665516 216.343251 
L 303.885474 217.829807 
L 308.105432 220.444096 
L 312.325389 224.955025 
L 316.545347 223.878554 
L 320.765305 227.979398 
L 324.985263 232.900412 
L 329.205221 228.953349 
L 333.425179 230.081081 
L 337.645137 233.156715 
L 341.865095 235.155877 
L 346.085053 236.744954 
L 350.305011 239.461764 
L 354.524968 235.104616 
L 358.744926 235.976046 
L 362.964884 241.614708 
L 367.184842 240.333194 
L 371.4048 238.18025 
L 375.624758 239.410504 
L 379.844716 241.204623 
L 384.064674 239.666806 
L 388.284632 239.461764 
L 392.504589 241.255884 
L 396.724547 239.154201 
L 400.944505 236.38613 
L 405.164463 233.976884 
L 409.384421 230.286124 
L 413.604379 227.005448 
L 417.824337 234.284447 
L 422.044295 238.18025 
L 426.264253 238.846637 
L 430.484211 242.127313 
L 434.704168 241.665968 
L 438.924126 243.716391 
L 443.144084 245.561771 
L 447.364042 241.81975 
L 451.584 243.972693 
" clip-path="url(#p0a20042e02)" style="fill: none; stroke: #008000; stroke-width: 2.5; stroke-linecap: square"/>
   </g>
   <g id="line2d_24">
    <path d="M 50.688 276.420629 
L 54.907958 278.009706 
L 59.127916 276.984495 
L 63.347874 279.29122 
L 67.567832 276.010544 
L 71.787789 271.345833 
L 76.007747 265.040784 
L 80.227705 252.174383 
L 84.447663 238.846637 
L 88.667621 230.388645 
L 92.887579 225.672673 
L 97.107537 226.390321 
L 101.327495 223.109645 
L 105.547453 229.260912 
L 109.767411 229.312173 
L 113.987368 236.078567 
L 118.207326 241.358405 
L 122.427284 242.998743 
L 126.647242 244.844123 
L 130.8672 251.200433 
L 135.087158 251.405475 
L 139.307116 255.250017 
L 143.527074 255.044975 
L 147.747032 260.632376 
L 151.966989 263.041622 
L 156.186947 264.835742 
L 160.406905 265.399608 
L 164.626863 264.887002 
L 168.846821 264.733221 
L 173.066779 266.117256 
L 177.286737 263.400446 
L 181.506695 265.655911 
L 185.726653 265.655911 
L 189.946611 263.656749 
L 194.166568 250.277742 
L 198.386526 211.063413 
L 202.606484 162.827225 
L 206.826442 143.040649 
L 211.0464 165.544035 
L 215.266358 209.218033 
L 219.486316 243.306306 
L 223.706274 252.379425 
L 227.926232 255.250017 
L 232.146189 257.095397 
L 236.366147 255.096235 
L 240.586105 257.197918 
L 244.806063 257.505482 
L 249.026021 257.556742 
L 253.245979 257.044137 
L 257.465937 260.06851 
L 261.685895 259.402122 
L 265.905853 262.682798 
L 270.125811 263.246664 
L 274.345768 263.861791 
L 278.565726 259.402122 
L 282.785684 258.633214 
L 287.005642 258.479432 
L 291.2256 258.940777 
L 295.445558 258.581953 
L 299.665516 259.914728 
L 303.885474 262.323974 
L 308.105432 264.118094 
L 312.325389 260.171031 
L 316.545347 264.118094 
L 320.765305 263.75927 
L 324.985263 264.476918 
L 329.205221 264.938263 
L 333.425179 266.681122 
L 337.645137 265.399608 
L 341.865095 264.271876 
L 346.085053 266.168516 
L 350.305011 265.60465 
L 354.524968 267.911375 
L 358.744926 264.528178 
L 362.964884 265.860953 
L 367.184842 267.193728 
L 371.4048 264.169355 
L 375.624758 264.579439 
L 379.844716 264.425657 
L 384.064674 265.348347 
L 388.284632 266.52734 
L 392.504589 264.579439 
L 396.724547 262.477756 
L 400.944505 260.734897 
L 405.164463 264.835742 
L 409.384421 263.451707 
L 413.604379 261.503805 
L 417.824337 264.118094 
L 422.044295 265.758432 
L 426.264253 263.554228 
L 430.484211 264.476918 
L 434.704168 265.502129 
L 438.924126 263.810531 
L 443.144084 264.989523 
L 447.364042 267.501291 
L 451.584 263.656749 
" clip-path="url(#p0a20042e02)" style="fill: none; stroke: #0000ff; stroke-width: 2.5; stroke-linecap: square"/>
   </g>
   <g id="line2d_25">
    <path d="M 50.688 287.54417 
L 54.907958 287.185346 
L 59.127916 288.108036 
L 63.347874 288.005515 
L 67.567832 288.261818 
L 71.787789 287.236607 
L 76.007747 284.981142 
L 80.227705 282.469375 
L 84.447663 280.572734 
L 88.667621 280.060128 
L 92.887579 280.111389 
L 97.107537 281.546685 
L 101.327495 280.982819 
L 105.547453 282.98198 
L 109.767411 284.929882 
L 113.987368 285.237445 
L 118.207326 285.032403 
L 122.427284 286.518959 
L 126.647242 286.108875 
L 130.8672 286.877783 
L 135.087158 287.082825 
L 139.307116 286.826522 
L 143.527074 287.800473 
L 147.747032 286.313917 
L 151.966989 287.134086 
L 156.186947 287.339128 
L 160.406905 286.006353 
L 164.626863 283.90467 
L 168.846821 276.57441 
L 173.066779 264.169355 
L 177.286737 261.093721 
L 181.506695 262.990362 
L 185.726653 267.808854 
L 189.946611 275.805502 
L 194.166568 273.447516 
L 198.386526 266.424819 
L 202.606484 255.55758 
L 206.826442 253.199594 
L 211.0464 255.916404 
L 215.266358 270.320622 
L 219.486316 280.572734 
L 223.706274 284.724839 
L 227.926232 282.674417 
L 232.146189 283.750889 
L 236.366147 283.494586 
L 240.586105 284.058452 
L 244.806063 284.622318 
L 249.026021 284.981142 
L 253.245979 285.134924 
L 257.465937 284.724839 
L 261.685895 285.442487 
L 265.905853 285.64753 
L 270.125811 285.852572 
L 274.345768 286.416438 
L 278.565726 286.724001 
L 282.785684 284.878621 
L 287.005642 285.442487 
L 291.2256 286.62148 
L 295.445558 285.903832 
L 299.665516 285.801311 
L 303.885474 285.750051 
L 308.105432 286.518959 
L 312.325389 284.007192 
L 316.545347 286.006353 
L 320.765305 286.262656 
L 324.985263 285.955093 
L 329.205221 285.596269 
L 333.425179 285.69879 
L 337.645137 285.596269 
L 341.865095 284.622318 
L 346.085053 284.007192 
L 350.305011 285.442487 
L 354.524968 285.339966 
L 358.744926 284.417276 
L 362.964884 284.981142 
L 367.184842 283.340804 
L 371.4048 284.673579 
L 375.624758 283.545847 
L 379.844716 284.160973 
L 384.064674 284.622318 
L 388.284632 283.033241 
L 392.504589 283.135762 
L 396.724547 281.905509 
L 400.944505 282.366854 
L 405.164463 281.854248 
L 409.384421 279.650044 
L 413.604379 277.804664 
L 417.824337 279.752565 
L 422.044295 280.265171 
L 426.264253 282.05929 
L 430.484211 282.725678 
L 434.704168 283.545847 
L 438.924126 283.545847 
L 443.144084 284.212234 
L 447.364042 283.289544 
L 451.584 284.7761 
" clip-path="url(#p0a20042e02)" style="fill: none; stroke: #ff0000; stroke-width: 2.5; stroke-linecap: square"/>
   </g>
   <g id="line2d_26">
    <path d="M 50.688 277.907185 
L 54.907958 276.728192 
L 59.127916 275.60046 
L 63.347874 275.395417 
L 67.567832 274.831551 
L 71.787789 268.423981 
L 76.007747 260.222291 
L 80.227705 245.818074 
L 84.447663 218.803758 
L 88.667621 200.862562 
L 92.887579 190.969273 
L 97.107537 180.153295 
L 101.327495 172.771774 
L 105.547453 175.847408 
L 109.767411 172.976816 
L 113.987368 178.923042 
L 118.207326 179.640689 
L 122.427284 185.279351 
L 126.647242 187.175992 
L 130.8672 194.506252 
L 135.087158 201.785252 
L 139.307116 205.014667 
L 143.527074 209.166773 
L 147.747032 215.164258 
L 151.966989 218.239892 
L 156.186947 222.955863 
L 160.406905 226.236539 
L 164.626863 223.468469 
L 168.846821 220.187793 
L 173.066779 207.218871 
L 177.286737 201.375167 
L 181.506695 208.244082 
L 185.726653 225.877715 
L 189.946611 238.026468 
L 194.166568 233.207976 
L 198.386526 210.448287 
L 202.606484 178.76926 
L 206.826442 164.365042 
L 211.0464 184.510443 
L 215.266358 220.034011 
L 219.486316 248.483623 
L 223.706274 255.301277 
L 227.926232 251.046651 
L 232.146189 253.148334 
L 236.366147 250.585306 
L 240.586105 249.765137 
L 244.806063 251.302954 
L 249.026021 250.226482 
L 253.245979 251.86682 
L 257.465937 252.738249 
L 261.685895 250.534045 
L 265.905853 252.020602 
L 270.125811 252.738249 
L 274.345768 254.737411 
L 278.565726 251.405475 
L 282.785684 252.840771 
L 287.005642 253.455897 
L 291.2256 252.225644 
L 295.445558 252.276904 
L 299.665516 254.071024 
L 303.885474 254.63489 
L 308.105432 254.173545 
L 312.325389 254.019763 
L 316.545347 255.916404 
L 320.765305 258.530693 
L 324.985263 257.608003 
L 329.205221 256.890355 
L 333.425179 259.914728 
L 337.645137 259.248341 
L 341.865095 258.530693 
L 346.085053 258.838256 
L 350.305011 258.889517 
L 354.524968 261.247503 
L 358.744926 257.608003 
L 362.964884 259.299601 
L 367.184842 258.018087 
L 371.4048 256.941615 
L 375.624758 260.222291 
L 379.844716 255.916404 
L 384.064674 255.455059 
L 388.284632 258.120608 
L 392.504589 256.070186 
L 396.724547 257.095397 
L 400.944505 255.916404 
L 405.164463 253.763461 
L 409.384421 249.713876 
L 413.604379 251.610517 
L 417.824337 249.457574 
L 422.044295 250.380264 
L 426.264253 254.071024 
L 430.484211 256.634052 
L 434.704168 255.301277 
L 438.924126 255.403799 
L 443.144084 255.403799 
L 447.364042 256.582791 
L 451.584 256.890355 
" clip-path="url(#p0a20042e02)" style="fill: none; stroke: #ffa500; stroke-width: 2.5; stroke-linecap: square"/>
   </g>
   <g id="patch_3">
    <path d="M 50.688 300.672 
L 50.688 27.648 
" style="fill: none; stroke: #000000; stroke-width: 0.8; stroke-linejoin: miter; stroke-linecap: square"/>
   </g>
   <g id="patch_4">
    <path d="M 451.584 300.672 
L 451.584 27.648 
" style="fill: none; stroke: #000000; stroke-width: 0.8; stroke-linejoin: miter; stroke-linecap: square"/>
   </g>
   <g id="patch_5">
    <path d="M 50.688 300.672 
L 451.584 300.672 
" style="fill: none; stroke: #000000; stroke-width: 0.8; stroke-linejoin: miter; stroke-linecap: square"/>
   </g>
   <g id="patch_6">
    <path d="M 50.688 27.648 
L 451.584 27.648 
" style="fill: none; stroke: #000000; stroke-width: 0.8; stroke-linejoin: miter; stroke-linecap: square"/>
   </g>
   <g id="text_14">
    <!-- Coleta Filtros (KBr) -->
    <g transform="translate(156.472008 21.648) scale(0.23 -0.23)">
     <defs>
      <path id="CMR17-43" d="M 3974 4289 
C 3974 4403 3968 4410 3930 4410 
C 3904 4410 3898 4403 3853 4327 
L 3571 3792 
C 3258 4187 2874 4416 2381 4416 
C 1286 4416 294 3456 294 2148 
C 294 826 1286 -128 2387 -128 
C 3366 -128 3974 730 3974 1461 
C 3974 1524 3974 1550 3917 1550 
C 3866 1550 3866 1531 3859 1474 
C 3808 585 3168 38 2477 38 
C 1824 38 781 495 781 2147 
C 781 3805 1843 4250 2464 4250 
C 3187 4250 3712 3628 3834 2745 
C 3846 2668 3846 2655 3904 2655 
C 3974 2655 3974 2668 3974 2783 
L 3974 4289 
z
" transform="scale(0.015625)"/>
      <path id="CMR17-6f" d="M 2758 1356 
C 2758 2176 2163 2816 1466 2816 
C 768 2816 173 2176 173 1356 
C 173 551 768 -64 1466 -64 
C 2163 -64 2758 551 2758 1356 
z
M 1466 51 
C 1165 51 909 230 762 480 
C 602 767 582 1126 582 1408 
C 582 1677 595 2010 762 2298 
C 890 2509 1139 2714 1466 2714 
C 1754 2714 1997 2554 2150 2330 
C 2349 2029 2349 1607 2349 1408 
C 2349 1158 2336 775 2163 467 
C 1984 173 1709 51 1466 51 
z
" transform="scale(0.015625)"/>
      <path id="CMR17-6c" d="M 979 4396 
L 218 4326 
L 218 4160 
C 595 4160 653 4122 653 3817 
L 653 426 
C 653 184 627 153 218 153 
L 218 -13 
C 371 0 653 0 813 0 
C 979 0 1261 0 1414 -13 
L 1414 153 
C 1005 153 979 178 979 426 
L 979 4396 
z
" transform="scale(0.015625)"/>
      <path id="CMR17-65" d="M 2438 1472 
C 2464 1498 2464 1511 2464 1576 
C 2464 2238 2118 2816 1389 2816 
C 710 2816 173 2169 173 1383 
C 173 551 781 -64 1459 -64 
C 2176 -64 2458 607 2458 740 
C 2458 784 2419 784 2406 784 
C 2362 784 2355 771 2330 696 
C 2189 265 1837 51 1504 51 
C 1229 51 954 203 781 480 
C 582 803 582 1176 582 1472 
L 2438 1472 
z
M 589 1568 
C 634 2505 1126 2714 1382 2714 
C 1818 2714 2112 2297 2118 1568 
L 589 1568 
z
" transform="scale(0.015625)"/>
      <path id="CMR17-74" d="M 966 2560 
L 1862 2560 
L 1862 2725 
L 966 2725 
L 966 3904 
L 851 3904 
C 838 3245 614 2668 70 2668 
L 70 2560 
L 627 2560 
L 627 771 
C 627 650 627 -64 1370 -64 
C 1747 -64 1965 306 1965 777 
L 1965 1140 
L 1850 1140 
L 1850 783 
C 1850 344 1677 51 1408 51 
C 1222 51 966 178 966 758 
L 966 2560 
z
" transform="scale(0.015625)"/>
      <path id="CMR17-61" d="M 2304 1653 
C 2304 2072 2304 2294 2035 2543 
C 1798 2752 1523 2816 1306 2816 
C 800 2816 435 2407 435 1971 
C 435 1728 627 1728 666 1728 
C 749 1728 896 1778 896 1954 
C 896 2112 774 2181 666 2181 
C 640 2181 608 2174 589 2168 
C 723 2592 1069 2714 1293 2714 
C 1613 2714 1965 2429 1965 1885 
L 1965 1600 
C 1587 1600 1133 1549 774 1357 
C 371 1133 256 813 256 570 
C 256 77 832 -64 1171 -64 
C 1523 -64 1850 139 1990 511 
C 2003 233 2182 -18 2464 -18 
C 2598 -18 2938 70 2938 567 
L 2938 920 
L 2822 920 
L 2822 562 
C 2822 178 2650 128 2566 128 
C 2304 128 2304 458 2304 738 
L 2304 1653 
z
M 1965 870 
C 1965 317 1568 38 1216 38 
C 896 38 646 275 646 570 
C 646 761 730 1100 1101 1305 
C 1408 1478 1760 1504 1965 1504 
L 1965 870 
z
" transform="scale(0.015625)"/>
      <path id="CMR17-46" d="M 3482 4325 
L 326 4325 
L 326 4160 
C 768 4160 838 4160 838 3874 
L 838 446 
C 838 160 768 160 326 160 
L 326 0 
C 512 0 870 0 1069 0 
C 1331 0 1638 0 1901 0 
L 1901 160 
L 1760 160 
C 1274 160 1261 223 1261 452 
L 1261 2075 
L 1837 2075 
C 2432 2075 2490 1865 2490 1332 
L 2605 1332 
L 2605 2987 
L 2490 2987 
C 2490 2450 2432 2240 1837 2240 
L 1261 2240 
L 1261 3911 
C 1261 4128 1274 4160 1530 4160 
L 2355 4160 
C 3322 4160 3430 3765 3520 2916 
L 3635 2916 
L 3482 4325 
z
" transform="scale(0.015625)"/>
      <path id="CMR17-69" d="M 992 3909 
C 992 4049 877 4170 730 4170 
C 589 4170 467 4056 467 3909 
C 467 3769 582 3648 730 3648 
C 870 3648 992 3763 992 3909 
z
M 243 2706 
L 243 2541 
C 602 2541 653 2502 653 2197 
L 653 427 
C 653 184 627 153 218 153 
L 218 -13 
C 371 0 646 0 806 0 
C 960 0 1222 0 1370 -13 
L 1370 153 
C 992 153 979 191 979 420 
L 979 2776 
L 243 2706 
z
" transform="scale(0.015625)"/>
      <path id="CMR17-72" d="M 960 1497 
C 960 2112 1222 2688 1702 2688 
C 1747 2688 1792 2682 1837 2662 
C 1837 2662 1696 2617 1696 2452 
C 1696 2298 1818 2234 1914 2234 
C 1990 2234 2131 2279 2131 2458 
C 2131 2663 1926 2790 1709 2790 
C 1222 2790 1011 2317 947 2093 
L 941 2093 
L 941 2790 
L 198 2720 
L 198 2554 
C 576 2554 634 2515 634 2208 
L 634 428 
C 634 184 608 153 198 153 
L 198 -13 
C 352 0 646 0 813 0 
C 998 0 1325 0 1498 -13 
L 1498 153 
C 1037 153 960 153 960 440 
L 960 1497 
z
" transform="scale(0.015625)"/>
      <path id="CMR17-4b" d="M 2362 2675 
L 3469 3782 
C 3699 4006 3942 4186 4301 4186 
L 4301 4352 
C 4173 4352 4013 4352 3885 4352 
C 3712 4352 3411 4352 3245 4358 
L 3245 4192 
C 3411 4180 3437 4065 3437 4019 
C 3437 3975 3411 3905 3386 3867 
L 1261 1738 
L 1261 3900 
C 1261 4186 1331 4186 1773 4186 
L 1773 4352 
C 1587 4352 1248 4352 1050 4352 
C 851 4352 512 4352 326 4352 
L 326 4186 
C 768 4186 838 4186 838 3899 
L 838 446 
C 838 160 768 160 326 160 
L 326 0 
C 512 0 851 0 1050 0 
C 1248 0 1587 0 1773 0 
L 1773 160 
C 1331 160 1261 160 1261 447 
L 1261 1579 
L 2080 2390 
L 3290 537 
C 3328 473 3373 390 3373 326 
C 3373 160 3194 160 3110 160 
L 3110 0 
C 3315 0 3610 0 3821 0 
C 3974 0 4237 0 4384 -6 
L 4384 160 
C 4077 160 3981 198 3789 493 
L 2362 2675 
z
" transform="scale(0.015625)"/>
      <path id="CMR17-42" d="M 333 4352 
L 333 4186 
C 774 4186 845 4186 845 3900 
L 845 452 
C 845 166 774 166 333 166 
L 333 0 
L 2534 0 
C 3354 0 3885 583 3885 1164 
C 3885 1741 3360 2233 2675 2233 
C 3290 2356 3718 2771 3718 3264 
C 3718 3802 3194 4352 2368 4352 
L 333 4352 
z
M 1248 2304 
L 1248 3937 
C 1248 4155 1261 4186 1517 4186 
L 2336 4186 
C 2970 4186 3251 3674 3251 3277 
C 3251 2791 2861 2304 2170 2304 
L 1248 2304 
z
M 1517 166 
C 1261 166 1248 197 1248 413 
L 1248 2202 
L 2432 2202 
C 3091 2202 3411 1625 3411 1162 
C 3411 699 3046 166 2349 166 
L 1517 166 
z
" transform="scale(0.015625)"/>
     </defs>
     <use xlink:href="#CMR17-43" transform="scale(0.996264)"/>
     <use xlink:href="#CMR17-6f" transform="translate(66.509881 0) scale(0.996264)"/>
     <use xlink:href="#CMR17-6c" transform="translate(112.200358 0) scale(0.996264)"/>
     <use xlink:href="#CMR17-65" transform="translate(137.071416 0) scale(0.996264)"/>
     <use xlink:href="#CMR17-74" transform="translate(177.557077 0) scale(0.996264)"/>
     <use xlink:href="#CMR17-61" transform="translate(212.837844 0) scale(0.996264)"/>
     <use xlink:href="#CMR17-46" transform="translate(288.604288 0) scale(0.996264)"/>
     <use xlink:href="#CMR17-69" transform="translate(348.588134 0) scale(0.996264)"/>
     <use xlink:href="#CMR17-6c" transform="translate(373.459193 0) scale(0.996264)"/>
     <use xlink:href="#CMR17-74" transform="translate(398.330251 0) scale(0.996264)"/>
     <use xlink:href="#CMR17-72" transform="translate(433.611019 0) scale(0.996264)"/>
     <use xlink:href="#CMR17-6f" transform="translate(468.891787 0) scale(0.996264)"/>
     <use xlink:href="#CMR17-73" transform="translate(514.582264 0) scale(0.996264)"/>
     <use xlink:href="#CMR17-28" transform="translate(580.459568 0) scale(0.996264)"/>
     <use xlink:href="#CMR17-4b" transform="translate(615.740336 0) scale(0.996264)"/>
     <use xlink:href="#CMR17-42" transform="translate(687.415113 0) scale(0.996264)"/>
     <use xlink:href="#CMR17-72" transform="translate(752.603868 0) scale(0.996264)"/>
     <use xlink:href="#CMR17-29" transform="translate(787.884635 0) scale(0.996264)"/>
    </g>
   </g>
   <g id="legend_1">
    <g id="patch_7">
     <path d="M 359.425393 105.376955 
L 443.184 105.376955 
Q 445.584 105.376955 445.584 102.976955 
L 445.584 36.048 
Q 445.584 33.648 443.184 33.648 
L 359.425393 33.648 
Q 357.025393 33.648 357.025393 36.048 
L 357.025393 102.976955 
Q 357.025393 105.376955 359.425393 105.376955 
z
" style="fill: #ffffff; opacity: 0.8; stroke: #cccccc; stroke-linejoin: miter"/>
    </g>
    <g id="line2d_27">
     <path d="M 361.825393 43.214376 
L 373.825393 43.214376 
L 385.825393 43.214376 
" style="fill: none; stroke: #008000; stroke-width: 2.5; stroke-linecap: square"/>
    </g>
    <g id="text_15">
     <!-- S/ Filtro -->
     <g transform="translate(395.425393 47.414376) scale(0.12 -0.12)">
      <defs>
       <path id="CMR17-53" d="M 2803 4290 
C 2803 4404 2797 4411 2758 4411 
C 2720 4411 2707 4385 2682 4328 
L 2490 3907 
C 2246 4257 1875 4416 1472 4416 
C 819 4416 294 3901 294 3253 
C 294 3056 339 2776 557 2510 
C 794 2218 1018 2167 1530 2033 
C 1722 1982 2042 1899 2106 1874 
C 2470 1722 2662 1341 2662 985 
C 2662 527 2336 38 1779 38 
C 1094 38 454 419 410 1311 
C 403 1413 397 1419 352 1419 
C 301 1419 294 1413 294 1285 
L 294 -1 
C 294 -115 301 -122 339 -122 
C 384 -122 397 -90 486 108 
C 493 127 493 140 614 381 
C 934 -39 1472 -128 1779 -128 
C 2477 -128 2970 451 2970 1124 
C 2970 1454 2848 1708 2778 1823 
C 2509 2230 2221 2306 1914 2382 
C 1869 2402 1856 2402 1498 2490 
C 1152 2579 1005 2624 845 2796 
C 666 2992 602 3196 602 3399 
C 602 3812 934 4263 1478 4263 
C 2157 4263 2579 3786 2675 2993 
C 2694 2878 2701 2872 2746 2872 
C 2803 2872 2803 2891 2803 2999 
L 2803 4290 
z
" transform="scale(0.015625)"/>
      </defs>
      <use xlink:href="#CMR17-53" transform="scale(0.996264)"/>
      <use xlink:href="#CMR17-2f" transform="translate(50.89537 0) scale(0.996264)"/>
      <use xlink:href="#CMR17-46" transform="translate(126.661813 0) scale(0.996264)"/>
      <use xlink:href="#CMR17-69" transform="translate(186.64566 0) scale(0.996264)"/>
      <use xlink:href="#CMR17-6c" transform="translate(211.516718 0) scale(0.996264)"/>
      <use xlink:href="#CMR17-74" transform="translate(236.387777 0) scale(0.996264)"/>
      <use xlink:href="#CMR17-72" transform="translate(271.668545 0) scale(0.996264)"/>
      <use xlink:href="#CMR17-6f" transform="translate(306.949312 0) scale(0.996264)"/>
     </g>
    </g>
    <g id="line2d_28">
     <path d="M 361.825393 60.603168 
L 373.825393 60.603168 
L 385.825393 60.603168 
" style="fill: none; stroke: #0000ff; stroke-width: 2.5; stroke-linecap: square"/>
    </g>
    <g id="text_16">
     <!-- Zr -->
     <g transform="translate(395.425393 64.803168) scale(0.12 -0.12)">
      <defs>
       <path id="CMR17-5a" d="M 3302 4230 
C 3302 4352 3296 4352 3162 4352 
L 442 4352 
L 378 2948 
L 493 2948 
C 531 3675 723 4192 1760 4192 
L 2816 4192 
L 339 204 
C 294 134 294 127 294 83 
C 294 0 307 0 435 0 
L 3245 0 
L 3334 1666 
L 3219 1666 
C 3162 829 3117 178 1894 178 
L 781 178 
L 3302 4230 
z
" transform="scale(0.015625)"/>
      </defs>
      <use xlink:href="#CMR17-5a" transform="scale(0.996264)"/>
      <use xlink:href="#CMR17-72" transform="translate(56.100171 0) scale(0.996264)"/>
     </g>
    </g>
    <g id="line2d_29">
     <path d="M 361.825393 77.327764 
L 373.825393 77.327764 
L 385.825393 77.327764 
" style="fill: none; stroke: #ff0000; stroke-width: 2.5; stroke-linecap: square"/>
    </g>
    <g id="text_17">
     <!-- Mo -->
     <g transform="translate(395.425393 81.527764) scale(0.12 -0.12)">
      <defs>
       <path id="CMR17-4d" d="M 1338 4224 
C 1299 4320 1293 4320 1158 4320 
L 339 4320 
L 339 4160 
C 781 4160 851 4160 851 3875 
L 851 610 
C 851 451 851 153 339 153 
L 339 -13 
C 486 0 755 0 915 0 
C 1075 0 1344 0 1491 -13 
L 1491 153 
C 979 153 979 451 979 610 
L 979 4135 
L 986 4135 
L 2490 89 
C 2515 25 2528 -13 2579 -13 
C 2630 -13 2643 25 2669 89 
L 4186 4166 
L 4192 4166 
L 4192 438 
C 4192 153 4122 153 3680 153 
L 3680 -13 
C 3853 0 4198 0 4384 0 
C 4570 0 4922 0 5094 -13 
L 5094 153 
C 4653 153 4582 153 4582 438 
L 4582 3875 
C 4582 4160 4653 4160 5094 4160 
L 5094 4320 
L 4282 4320 
C 4147 4320 4141 4314 4102 4218 
L 2720 502 
L 1338 4224 
z
" transform="scale(0.015625)"/>
      </defs>
      <use xlink:href="#CMR17-4d" transform="scale(0.996264)"/>
      <use xlink:href="#CMR17-6f" transform="translate(84.686941 0) scale(0.996264)"/>
     </g>
    </g>
    <g id="line2d_30">
     <path d="M 361.825393 94.05236 
L 373.825393 94.05236 
L 385.825393 94.05236 
" style="fill: none; stroke: #ffa500; stroke-width: 2.5; stroke-linecap: square"/>
    </g>
    <g id="text_18">
     <!-- Al -->
     <g transform="translate(395.425393 98.25236) scale(0.12 -0.12)">
      <defs>
       <path id="CMR17-41" d="M 2323 4378 
C 2291 4461 2278 4480 2214 4480 
C 2150 4480 2138 4461 2106 4378 
L 749 566 
C 627 223 371 153 147 153 
L 147 -13 
C 262 0 518 0 640 0 
C 800 0 1056 0 1210 -13 
L 1210 153 
C 909 153 864 361 864 439 
C 864 497 877 530 890 569 
L 1229 1536 
L 2906 1536 
L 3290 442 
C 3322 365 3322 352 3322 327 
C 3322 153 3046 153 2925 153 
L 2925 0 
C 3110 0 3443 0 3642 0 
C 3808 0 4128 0 4282 -13 
L 4282 153 
C 3942 153 3827 153 3744 387 
L 2323 4378 
z
M 2067 3893 
L 2848 1702 
L 1286 1702 
L 2067 3893 
z
" transform="scale(0.015625)"/>
      </defs>
      <use xlink:href="#CMR17-41" transform="scale(0.996264)"/>
      <use xlink:href="#CMR17-6c" transform="translate(69.07243 0) scale(0.996264)"/>
     </g>
    </g>
   </g>
  </g>
 </g>
 <defs>
  <clipPath id="p0a20042e02">
   <rect x="50.688" y="27.648" width="400.896" height="273.024"/>
  </clipPath>
 </defs>
</svg>
