<?xml version="1.0" encoding="utf-8" standalone="no"?>
<!DOCTYPE svg PUBLIC "-//W3C//DTD SVG 1.1//EN"
  "http://www.w3.org/Graphics/SVG/1.1/DTD/svg11.dtd">
<svg xmlns:xlink="http://www.w3.org/1999/xlink" width="460.8pt" height="345.6pt" viewBox="0 0 460.8 345.6" xmlns="http://www.w3.org/2000/svg" version="1.1">
 <metadata>
  <rdf:RDF xmlns:dc="http://purl.org/dc/elements/1.1/" xmlns:cc="http://creativecommons.org/ns#" xmlns:rdf="http://www.w3.org/1999/02/22-rdf-syntax-ns#">
   <cc:Work>
    <dc:type rdf:resource="http://purl.org/dc/dcmitype/StillImage"/>
    <dc:date>2024-03-26T16:15:32.976619</dc:date>
    <dc:format>image/svg+xml</dc:format>
    <dc:creator>
     <cc:Agent>
      <dc:title>Matplotlib v3.8.3, https://matplotlib.org/</dc:title>
     </cc:Agent>
    </dc:creator>
   </cc:Work>
  </rdf:RDF>
 </metadata>
 <defs>
  <style type="text/css">*{stroke-linejoin: round; stroke-linecap: butt}</style>
 </defs>
 <g id="figure_1">
  <g id="patch_1">
   <path d="M 0 345.6 
L 460.8 345.6 
L 460.8 0 
L 0 0 
z
" style="fill: #ffffff"/>
  </g>
  <g id="axes_1">
   <g id="patch_2">
    <path d="M 59.904 300.672 
L 451.584 300.672 
L 451.584 27.648 
L 59.904 27.648 
z
" style="fill: #ffffff"/>
   </g>
   <g id="matplotlib.axis_1">
    <g id="xtick_1">
     <g id="line2d_1">
      <defs>
       <path id="m07e78e0633" d="M 0 0 
L 0 3.5 
" style="stroke: #000000; stroke-width: 0.8"/>
      </defs>
      <g>
       <use xlink:href="#m07e78e0633" x="117.435787" y="300.672" style="stroke: #000000; stroke-width: 0.8"/>
      </g>
     </g>
     <g id="text_1">
      <!-- $\mathdefault{200}$ -->
      <g transform="translate(106.46143 318.049725) scale(0.15 -0.15)">
       <defs>
        <path id="CMR17-32" d="M 2669 989 
L 2554 989 
C 2490 536 2438 459 2413 420 
C 2381 369 1920 369 1830 369 
L 602 369 
C 832 619 1280 1072 1824 1597 
C 2214 1967 2669 2402 2669 3035 
C 2669 3790 2067 4224 1395 4224 
C 691 4224 262 3604 262 3030 
C 262 2780 448 2748 525 2748 
C 589 2748 781 2787 781 3010 
C 781 3207 614 3264 525 3264 
C 486 3264 448 3258 422 3245 
C 544 3790 915 4058 1306 4058 
C 1862 4058 2227 3617 2227 3035 
C 2227 2479 1901 2000 1536 1584 
L 262 146 
L 262 0 
L 2515 0 
L 2669 989 
z
" transform="scale(0.015625)"/>
        <path id="CMR17-30" d="M 2688 2025 
C 2688 2416 2682 3080 2413 3591 
C 2176 4039 1798 4198 1466 4198 
C 1158 4198 768 4058 525 3597 
C 269 3118 243 2524 243 2025 
C 243 1661 250 1106 448 619 
C 723 -39 1216 -128 1466 -128 
C 1760 -128 2208 -7 2470 600 
C 2662 1042 2688 1559 2688 2025 
z
M 1466 -26 
C 1056 -26 813 325 723 812 
C 653 1188 653 1738 653 2096 
C 653 2588 653 2997 736 3387 
C 858 3929 1216 4096 1466 4096 
C 1728 4096 2067 3923 2189 3400 
C 2272 3036 2278 2607 2278 2096 
C 2278 1680 2278 1169 2202 792 
C 2067 95 1690 -26 1466 -26 
z
" transform="scale(0.015625)"/>
       </defs>
       <use xlink:href="#CMR17-32" transform="scale(0.996264)"/>
       <use xlink:href="#CMR17-30" transform="translate(45.690477 0) scale(0.996264)"/>
       <use xlink:href="#CMR17-30" transform="translate(91.380954 0) scale(0.996264)"/>
      </g>
     </g>
    </g>
    <g id="xtick_2">
     <g id="line2d_2">
      <g>
       <use xlink:href="#m07e78e0633" x="202.013632" y="300.672" style="stroke: #000000; stroke-width: 0.8"/>
      </g>
     </g>
     <g id="text_2">
      <!-- $\mathdefault{300}$ -->
      <g transform="translate(191.039275 318.049725) scale(0.15 -0.15)">
       <defs>
        <path id="CMR17-33" d="M 1414 2157 
C 1984 2157 2234 1662 2234 1090 
C 2234 320 1824 25 1453 25 
C 1114 25 563 194 390 693 
C 422 680 454 680 486 680 
C 640 680 755 782 755 948 
C 755 1133 614 1216 486 1216 
C 378 1216 211 1165 211 926 
C 211 335 787 -128 1466 -128 
C 2176 -128 2720 430 2720 1085 
C 2720 1707 2208 2157 1600 2227 
C 2086 2328 2554 2756 2554 3329 
C 2554 3820 2048 4179 1472 4179 
C 890 4179 378 3829 378 3329 
C 378 3110 544 3072 627 3072 
C 762 3072 877 3155 877 3321 
C 877 3486 762 3569 627 3569 
C 602 3569 570 3569 544 3557 
C 730 3959 1235 4032 1459 4032 
C 1683 4032 2106 3925 2106 3320 
C 2106 3143 2080 2828 1862 2550 
C 1670 2304 1453 2304 1242 2284 
C 1210 2284 1062 2269 1037 2269 
C 992 2263 966 2257 966 2208 
C 966 2163 973 2157 1101 2157 
L 1414 2157 
z
" transform="scale(0.015625)"/>
       </defs>
       <use xlink:href="#CMR17-33" transform="scale(0.996264)"/>
       <use xlink:href="#CMR17-30" transform="translate(45.690477 0) scale(0.996264)"/>
       <use xlink:href="#CMR17-30" transform="translate(91.380954 0) scale(0.996264)"/>
      </g>
     </g>
    </g>
    <g id="xtick_3">
     <g id="line2d_3">
      <g>
       <use xlink:href="#m07e78e0633" x="286.591477" y="300.672" style="stroke: #000000; stroke-width: 0.8"/>
      </g>
     </g>
     <g id="text_3">
      <!-- $\mathdefault{400}$ -->
      <g transform="translate(275.61712 318.049725) scale(0.15 -0.15)">
       <defs>
        <path id="CMR17-34" d="M 2150 4122 
C 2150 4256 2144 4256 2029 4256 
L 128 1254 
L 128 1088 
L 1779 1088 
L 1779 457 
C 1779 224 1766 160 1318 160 
L 1197 160 
L 1197 0 
C 1402 0 1747 0 1965 0 
C 2182 0 2528 0 2733 0 
L 2733 160 
L 2611 160 
C 2163 160 2150 224 2150 457 
L 2150 1088 
L 2803 1088 
L 2803 1254 
L 2150 1254 
L 2150 4122 
z
M 1798 3703 
L 1798 1254 
L 256 1254 
L 1798 3703 
z
" transform="scale(0.015625)"/>
       </defs>
       <use xlink:href="#CMR17-34" transform="scale(0.996264)"/>
       <use xlink:href="#CMR17-30" transform="translate(45.690477 0) scale(0.996264)"/>
       <use xlink:href="#CMR17-30" transform="translate(91.380954 0) scale(0.996264)"/>
      </g>
     </g>
    </g>
    <g id="xtick_4">
     <g id="line2d_4">
      <g>
       <use xlink:href="#m07e78e0633" x="371.169322" y="300.672" style="stroke: #000000; stroke-width: 0.8"/>
      </g>
     </g>
     <g id="text_4">
      <!-- $\mathdefault{500}$ -->
      <g transform="translate(360.194965 318.049725) scale(0.15 -0.15)">
       <defs>
        <path id="CMR17-35" d="M 730 3692 
C 794 3666 1056 3584 1325 3584 
C 1920 3584 2246 3911 2432 4100 
C 2432 4157 2432 4192 2394 4192 
C 2387 4192 2374 4192 2323 4163 
C 2099 4058 1837 3973 1517 3973 
C 1325 3973 1037 3999 723 4139 
C 653 4171 640 4171 634 4171 
C 602 4171 595 4164 595 4037 
L 595 2203 
C 595 2089 595 2057 659 2057 
C 691 2057 704 2070 736 2114 
C 941 2401 1222 2522 1542 2522 
C 1766 2522 2246 2382 2246 1289 
C 2246 1085 2246 715 2054 421 
C 1894 159 1645 25 1370 25 
C 947 25 518 320 403 814 
C 429 807 480 795 506 795 
C 589 795 749 840 749 1038 
C 749 1210 627 1280 506 1280 
C 358 1280 262 1190 262 1011 
C 262 454 704 -128 1382 -128 
C 2042 -128 2669 440 2669 1264 
C 2669 2030 2170 2624 1549 2624 
C 1222 2624 947 2503 730 2274 
L 730 3692 
z
" transform="scale(0.015625)"/>
       </defs>
       <use xlink:href="#CMR17-35" transform="scale(0.996264)"/>
       <use xlink:href="#CMR17-30" transform="translate(45.690477 0) scale(0.996264)"/>
       <use xlink:href="#CMR17-30" transform="translate(91.380954 0) scale(0.996264)"/>
      </g>
     </g>
    </g>
    <g id="text_5">
     <!-- $\mu$ (cm$^{-1}$) -->
     <g transform="translate(222.634381 339.552753) scale(0.18 -0.18)">
      <defs>
       <path id="CMMI12-16" d="M 922 140 
C 1082 -6 1318 -64 1536 -64 
C 1946 -64 2227 208 2374 405 
C 2438 69 2707 -64 2931 -64 
C 3123 -64 3277 50 3392 277 
C 3494 493 3584 879 3584 903 
C 3584 935 3558 960 3520 960 
C 3462 960 3456 928 3430 834 
C 3334 461 3213 64 2950 64 
C 2765 64 2752 229 2752 358 
C 2752 504 2810 735 2854 926 
L 3034 1615 
C 3059 1737 3130 2023 3162 2139 
C 3200 2292 3270 2567 3270 2592 
C 3270 2688 3194 2752 3098 2752 
C 3040 2752 2906 2726 2854 2535 
L 2406 760 
C 2374 632 2374 619 2291 517 
C 2214 409 1965 64 1562 64 
C 1203 64 1088 326 1088 625 
C 1088 811 1146 1034 1171 1143 
L 1459 2293 
C 1491 2414 1542 2618 1542 2657 
C 1542 2759 1459 2816 1376 2816 
C 1318 2816 1178 2797 1126 2592 
L 198 -1107 
C 192 -1139 179 -1177 179 -1216 
C 179 -1312 256 -1376 352 -1376 
C 538 -1376 576 -1228 621 -1050 
L 922 140 
z
" transform="scale(0.015625)"/>
       <path id="CMR17-28" d="M 1958 -1561 
C 1958 -1555 1958 -1542 1939 -1523 
C 1645 -1224 858 -407 858 1581 
C 858 3569 1632 4379 1946 4697 
C 1946 4704 1958 4717 1958 4736 
C 1958 4755 1939 4768 1914 4768 
C 1843 4768 1299 4296 986 3594 
C 666 2887 576 2199 576 1588 
C 576 1128 621 351 1005 -471 
C 1312 -1135 1837 -1600 1914 -1600 
C 1946 -1600 1958 -1587 1958 -1561 
z
" transform="scale(0.015625)"/>
       <path id="CMR17-63" d="M 2234 2240 
C 2112 2240 1933 2240 1933 2017 
C 1933 1838 2080 1787 2163 1787 
C 2208 1787 2394 1807 2394 2024 
C 2394 2467 1958 2803 1466 2803 
C 787 2803 211 2178 211 1363 
C 211 516 813 -64 1466 -64 
C 2259 -64 2458 677 2458 748 
C 2458 774 2451 793 2406 793 
C 2362 793 2355 787 2330 703 
C 2163 180 1798 51 1523 51 
C 1114 51 621 427 621 1369 
C 621 2338 1094 2688 1472 2688 
C 1722 2688 2093 2573 2234 2240 
z
" transform="scale(0.015625)"/>
       <path id="CMR17-6d" d="M 4326 1933 
C 4326 2252 4269 2790 3507 2790 
C 3072 2790 2771 2496 2656 2151 
L 2650 2151 
C 2573 2676 2195 2790 1837 2790 
C 1331 2790 1069 2400 973 2144 
L 966 2144 
L 966 2790 
L 211 2720 
L 211 2554 
C 589 2554 646 2515 646 2208 
L 646 428 
C 646 184 621 153 211 153 
L 211 -13 
C 365 0 646 0 813 0 
C 979 0 1267 0 1421 -13 
L 1421 153 
C 1011 153 986 178 986 428 
L 986 1658 
C 986 2247 1344 2688 1792 2688 
C 2266 2688 2317 2266 2317 1958 
L 2317 428 
C 2317 184 2291 153 1882 153 
L 1882 -13 
C 2035 0 2317 0 2483 0 
C 2650 0 2938 0 3091 -13 
L 3091 153 
C 2682 153 2656 178 2656 428 
L 2656 1658 
C 2656 2247 3014 2688 3462 2688 
C 3936 2688 3987 2266 3987 1958 
L 3987 428 
C 3987 184 3962 153 3552 153 
L 3552 -13 
C 3706 0 3987 0 4154 0 
C 4320 0 4608 0 4762 -13 
L 4762 153 
C 4352 153 4326 178 4326 428 
L 4326 1933 
z
" transform="scale(0.015625)"/>
       <path id="CMSY10-0" d="M 4218 1472 
C 4326 1472 4442 1472 4442 1600 
C 4442 1728 4326 1728 4218 1728 
L 755 1728 
C 646 1728 531 1728 531 1600 
C 531 1472 646 1472 755 1472 
L 4218 1472 
z
" transform="scale(0.015625)"/>
       <path id="CMR17-31" d="M 1702 4058 
C 1702 4192 1696 4192 1606 4192 
C 1357 3916 979 3827 621 3827 
C 602 3827 570 3827 563 3808 
C 557 3795 557 3782 557 3648 
C 755 3648 1088 3686 1344 3839 
L 1344 461 
C 1344 236 1331 160 781 160 
L 589 160 
L 589 0 
C 896 0 1216 0 1523 0 
C 1830 0 2150 0 2458 0 
L 2458 160 
L 2266 160 
C 1715 160 1702 230 1702 458 
L 1702 4058 
z
" transform="scale(0.015625)"/>
       <path id="CMR17-29" d="M 1683 1581 
C 1683 2040 1638 2817 1254 3639 
C 947 4303 422 4768 346 4768 
C 326 4768 301 4761 301 4729 
C 301 4717 307 4710 314 4697 
C 621 4378 1402 3568 1402 1584 
C 1402 -407 627 -1217 314 -1537 
C 307 -1549 301 -1556 301 -1568 
C 301 -1600 326 -1600 346 -1600 
C 416 -1600 960 -1128 1274 -426 
C 1594 281 1683 969 1683 1581 
z
" transform="scale(0.015625)"/>
      </defs>
      <use xlink:href="#CMMI12-16" transform="scale(0.996264)"/>
      <use xlink:href="#CMR17-28" transform="translate(88.767388 0) scale(0.996264)"/>
      <use xlink:href="#CMR17-63" transform="translate(124.048156 0) scale(0.996264)"/>
      <use xlink:href="#CMR17-6d" transform="translate(164.533816 0) scale(0.996264)"/>
      <use xlink:href="#CMSY10-0" transform="translate(241.453406 36.153639) scale(0.697382)"/>
      <use xlink:href="#CMR17-31" transform="translate(295.694399 36.153639) scale(0.697382)"/>
      <use xlink:href="#CMR17-29" transform="translate(328.175713 0) scale(0.996264)"/>
     </g>
    </g>
   </g>
   <g id="matplotlib.axis_2">
    <g id="ytick_1">
     <g id="line2d_5">
      <defs>
       <path id="m852490b940" d="M 0 0 
L -3.5 0 
" style="stroke: #000000; stroke-width: 0.8"/>
      </defs>
      <g>
       <use xlink:href="#m852490b940" x="59.904" y="297.489776" style="stroke: #000000; stroke-width: 0.8"/>
      </g>
     </g>
     <g id="text_6">
      <!-- $\mathdefault{0.75}$ -->
      <g transform="translate(26.89071 302.678638) scale(0.15 -0.15)">
       <defs>
        <path id="CMMI12-3a" d="M 1178 307 
C 1178 492 1024 619 870 619 
C 685 619 557 466 557 313 
C 557 128 710 0 864 0 
C 1050 0 1178 153 1178 307 
z
" transform="scale(0.015625)"/>
        <path id="CMR17-37" d="M 2886 3941 
L 2886 4081 
L 1382 4081 
C 634 4081 621 4165 595 4288 
L 480 4288 
L 294 3094 
L 410 3094 
C 429 3215 474 3540 550 3661 
C 589 3712 1062 3712 1171 3712 
L 2579 3712 
L 1869 2661 
C 1395 1954 1069 999 1069 165 
C 1069 89 1069 -128 1299 -128 
C 1530 -128 1530 89 1530 171 
L 1530 465 
C 1530 1508 1709 2196 2003 2636 
L 2886 3941 
z
" transform="scale(0.015625)"/>
       </defs>
       <use xlink:href="#CMR17-30" transform="scale(0.996264)"/>
       <use xlink:href="#CMMI12-3a" transform="translate(45.690477 0) scale(0.996264)"/>
       <use xlink:href="#CMR17-37" transform="translate(72.787654 0) scale(0.996264)"/>
       <use xlink:href="#CMR17-35" transform="translate(118.478131 0) scale(0.996264)"/>
      </g>
     </g>
    </g>
    <g id="ytick_2">
     <g id="line2d_6">
      <g>
       <use xlink:href="#m852490b940" x="59.904" y="262.230148" style="stroke: #000000; stroke-width: 0.8"/>
      </g>
     </g>
     <g id="text_7">
      <!-- $\mathdefault{1.00}$ -->
      <g transform="translate(26.89071 267.419011) scale(0.15 -0.15)">
       <use xlink:href="#CMR17-31" transform="scale(0.996264)"/>
       <use xlink:href="#CMMI12-3a" transform="translate(45.690477 0) scale(0.996264)"/>
       <use xlink:href="#CMR17-30" transform="translate(72.787654 0) scale(0.996264)"/>
       <use xlink:href="#CMR17-30" transform="translate(118.478131 0) scale(0.996264)"/>
      </g>
     </g>
    </g>
    <g id="ytick_3">
     <g id="line2d_7">
      <g>
       <use xlink:href="#m852490b940" x="59.904" y="226.97052" style="stroke: #000000; stroke-width: 0.8"/>
      </g>
     </g>
     <g id="text_8">
      <!-- $\mathdefault{1.25}$ -->
      <g transform="translate(26.89071 232.159383) scale(0.15 -0.15)">
       <use xlink:href="#CMR17-31" transform="scale(0.996264)"/>
       <use xlink:href="#CMMI12-3a" transform="translate(45.690477 0) scale(0.996264)"/>
       <use xlink:href="#CMR17-32" transform="translate(72.787654 0) scale(0.996264)"/>
       <use xlink:href="#CMR17-35" transform="translate(118.478131 0) scale(0.996264)"/>
      </g>
     </g>
    </g>
    <g id="ytick_4">
     <g id="line2d_8">
      <g>
       <use xlink:href="#m852490b940" x="59.904" y="191.710893" style="stroke: #000000; stroke-width: 0.8"/>
      </g>
     </g>
     <g id="text_9">
      <!-- $\mathdefault{1.50}$ -->
      <g transform="translate(26.89071 196.899755) scale(0.15 -0.15)">
       <use xlink:href="#CMR17-31" transform="scale(0.996264)"/>
       <use xlink:href="#CMMI12-3a" transform="translate(45.690477 0) scale(0.996264)"/>
       <use xlink:href="#CMR17-35" transform="translate(72.787654 0) scale(0.996264)"/>
       <use xlink:href="#CMR17-30" transform="translate(118.478131 0) scale(0.996264)"/>
      </g>
     </g>
    </g>
    <g id="ytick_5">
     <g id="line2d_9">
      <g>
       <use xlink:href="#m852490b940" x="59.904" y="156.451265" style="stroke: #000000; stroke-width: 0.8"/>
      </g>
     </g>
     <g id="text_10">
      <!-- $\mathdefault{1.75}$ -->
      <g transform="translate(26.89071 161.640127) scale(0.15 -0.15)">
       <use xlink:href="#CMR17-31" transform="scale(0.996264)"/>
       <use xlink:href="#CMMI12-3a" transform="translate(45.690477 0) scale(0.996264)"/>
       <use xlink:href="#CMR17-37" transform="translate(72.787654 0) scale(0.996264)"/>
       <use xlink:href="#CMR17-35" transform="translate(118.478131 0) scale(0.996264)"/>
      </g>
     </g>
    </g>
    <g id="ytick_6">
     <g id="line2d_10">
      <g>
       <use xlink:href="#m852490b940" x="59.904" y="121.191637" style="stroke: #000000; stroke-width: 0.8"/>
      </g>
     </g>
     <g id="text_11">
      <!-- $\mathdefault{2.00}$ -->
      <g transform="translate(26.89071 126.380499) scale(0.15 -0.15)">
       <use xlink:href="#CMR17-32" transform="scale(0.996264)"/>
       <use xlink:href="#CMMI12-3a" transform="translate(45.690477 0) scale(0.996264)"/>
       <use xlink:href="#CMR17-30" transform="translate(72.787654 0) scale(0.996264)"/>
       <use xlink:href="#CMR17-30" transform="translate(118.478131 0) scale(0.996264)"/>
      </g>
     </g>
    </g>
    <g id="ytick_7">
     <g id="line2d_11">
      <g>
       <use xlink:href="#m852490b940" x="59.904" y="85.932009" style="stroke: #000000; stroke-width: 0.8"/>
      </g>
     </g>
     <g id="text_12">
      <!-- $\mathdefault{2.25}$ -->
      <g transform="translate(26.89071 91.120872) scale(0.15 -0.15)">
       <use xlink:href="#CMR17-32" transform="scale(0.996264)"/>
       <use xlink:href="#CMMI12-3a" transform="translate(45.690477 0) scale(0.996264)"/>
       <use xlink:href="#CMR17-32" transform="translate(72.787654 0) scale(0.996264)"/>
       <use xlink:href="#CMR17-35" transform="translate(118.478131 0) scale(0.996264)"/>
      </g>
     </g>
    </g>
    <g id="ytick_8">
     <g id="line2d_12">
      <g>
       <use xlink:href="#m852490b940" x="59.904" y="50.672381" style="stroke: #000000; stroke-width: 0.8"/>
      </g>
     </g>
     <g id="text_13">
      <!-- $\mathdefault{2.50}$ -->
      <g transform="translate(26.89071 55.861244) scale(0.15 -0.15)">
       <use xlink:href="#CMR17-32" transform="scale(0.996264)"/>
       <use xlink:href="#CMMI12-3a" transform="translate(45.690477 0) scale(0.996264)"/>
       <use xlink:href="#CMR17-35" transform="translate(72.787654 0) scale(0.996264)"/>
       <use xlink:href="#CMR17-30" transform="translate(118.478131 0) scale(0.996264)"/>
      </g>
     </g>
    </g>
    <g id="text_14">
     <!-- $\ln(A)$ (s/ unid.) -->
     <g transform="translate(18.422526 221.227993) rotate(-90) scale(0.18 -0.18)">
      <defs>
       <path id="CMR17-6c" d="M 979 4396 
L 218 4326 
L 218 4160 
C 595 4160 653 4122 653 3817 
L 653 426 
C 653 184 627 153 218 153 
L 218 -13 
C 371 0 653 0 813 0 
C 979 0 1261 0 1414 -13 
L 1414 153 
C 1005 153 979 178 979 426 
L 979 4396 
z
" transform="scale(0.015625)"/>
       <path id="CMR17-6e" d="M 2656 1933 
C 2656 2259 2592 2790 1837 2790 
C 1331 2790 1069 2400 973 2144 
L 966 2144 
L 966 2790 
L 211 2720 
L 211 2554 
C 589 2554 646 2515 646 2208 
L 646 428 
C 646 184 621 153 211 153 
L 211 -13 
C 365 0 646 0 813 0 
C 979 0 1267 0 1421 -13 
L 1421 153 
C 1011 153 986 178 986 428 
L 986 1658 
C 986 2247 1344 2688 1792 2688 
C 2266 2688 2317 2266 2317 1958 
L 2317 428 
C 2317 184 2291 153 1882 153 
L 1882 -13 
C 2035 0 2317 0 2483 0 
C 2650 0 2938 0 3091 -13 
L 3091 153 
C 2682 153 2656 178 2656 428 
L 2656 1933 
z
" transform="scale(0.015625)"/>
       <path id="CMMI12-41" d="M 1088 691 
C 864 314 646 186 339 186 
C 269 180 218 180 218 58 
C 218 24 250 0 294 0 
C 410 0 698 0 813 0 
C 998 0 1203 0 1382 0 
C 1421 0 1498 0 1498 122 
C 1498 180 1446 186 1408 186 
C 1261 186 1139 236 1139 388 
C 1139 476 1178 546 1261 685 
L 1747 1479 
L 3379 1479 
C 3386 1423 3386 1373 3392 1316 
C 3411 1152 3488 495 3488 376 
C 3488 186 3162 186 3059 186 
C 2989 186 2918 186 2918 70 
C 2918 0 2976 0 3014 0 
C 3123 0 3251 0 3360 0 
L 3725 0 
C 4115 0 4397 0 4403 0 
C 4448 0 4518 0 4518 122 
C 4518 186 4461 186 4365 186 
C 4013 186 4006 244 3987 434 
L 3597 4404 
C 3584 4531 3558 4544 3488 4544 
C 3424 4544 3386 4531 3328 4435 
L 1088 691 
z
M 1856 1664 
L 3142 3819 
L 3360 1664 
L 1856 1664 
z
" transform="scale(0.015625)"/>
       <path id="CMR17-73" d="M 1978 2697 
C 1978 2813 1971 2819 1933 2819 
C 1907 2819 1901 2813 1824 2717 
C 1805 2691 1747 2626 1728 2601 
C 1523 2819 1235 2819 1126 2819 
C 416 2819 160 2447 160 2076 
C 160 1498 813 1365 998 1325 
C 1402 1243 1542 1217 1677 1101 
C 1760 1025 1901 884 1901 654 
C 1901 384 1747 38 1158 38 
C 602 38 403 460 288 1021 
C 269 1110 269 1117 218 1117 
C 166 1117 160 1110 160 983 
L 160 63 
C 160 -51 166 -58 205 -58 
C 237 -58 243 -51 275 0 
C 314 57 410 211 448 276 
C 576 103 800 -64 1158 -64 
C 1792 -64 2131 283 2131 784 
C 2131 1112 1958 1285 1875 1362 
C 1683 1561 1459 1606 1190 1657 
C 838 1735 390 1825 390 2217 
C 390 2383 480 2737 1126 2737 
C 1811 2737 1850 2094 1862 1888 
C 1869 1856 1901 1849 1920 1849 
C 1978 1849 1978 1869 1978 1978 
L 1978 2697 
z
" transform="scale(0.015625)"/>
       <path id="CMR17-2f" d="M 2605 4545 
C 2637 4627 2637 4640 2637 4653 
C 2637 4729 2579 4768 2528 4768 
C 2451 4768 2426 4717 2400 4640 
L 326 -1377 
C 294 -1460 294 -1473 294 -1486 
C 294 -1562 352 -1600 403 -1600 
C 480 -1600 506 -1549 531 -1473 
L 2605 4545 
z
" transform="scale(0.015625)"/>
       <path id="CMR17-75" d="M 1882 2693 
L 1882 2528 
C 2259 2528 2317 2489 2317 2186 
L 2317 1032 
C 2317 500 2029 38 1555 38 
C 1030 38 986 348 986 678 
L 986 2763 
L 211 2693 
L 211 2528 
C 467 2528 640 2528 646 2274 
L 646 1058 
C 646 633 646 361 813 183 
C 896 101 1056 -64 1517 -64 
C 2061 -64 2272 377 2323 506 
L 2330 506 
L 2330 -63 
L 3091 -63 
L 3091 128 
C 2714 128 2656 166 2656 473 
L 2656 2763 
L 1882 2693 
z
" transform="scale(0.015625)"/>
       <path id="CMR17-69" d="M 992 3909 
C 992 4049 877 4170 730 4170 
C 589 4170 467 4056 467 3909 
C 467 3769 582 3648 730 3648 
C 870 3648 992 3763 992 3909 
z
M 243 2706 
L 243 2541 
C 602 2541 653 2502 653 2197 
L 653 427 
C 653 184 627 153 218 153 
L 218 -13 
C 371 0 646 0 806 0 
C 960 0 1222 0 1370 -13 
L 1370 153 
C 992 153 979 191 979 420 
L 979 2776 
L 243 2706 
z
" transform="scale(0.015625)"/>
       <path id="CMR17-64" d="M 1869 4326 
L 1869 4160 
C 2246 4160 2304 4122 2304 3820 
L 2304 2345 
C 2278 2377 2016 2790 1498 2790 
C 845 2790 211 2208 211 1364 
C 211 525 806 -64 1434 -64 
C 1978 -64 2259 337 2291 380 
L 2291 -63 
L 3066 -63 
L 3066 128 
C 2688 128 2630 166 2630 473 
L 2630 4396 
L 1869 4326 
z
M 2291 755 
C 2291 563 2176 390 2029 262 
C 1811 70 1594 38 1472 38 
C 1286 38 621 134 621 1356 
C 621 2612 1363 2688 1530 2688 
C 1824 2688 2061 2522 2208 2291 
C 2291 2157 2291 2138 2291 2023 
L 2291 755 
z
" transform="scale(0.015625)"/>
       <path id="CMR17-2e" d="M 1062 261 
C 1062 420 934 522 800 522 
C 672 522 538 420 538 261 
C 538 102 666 0 800 0 
C 928 0 1062 102 1062 261 
z
" transform="scale(0.015625)"/>
      </defs>
      <use xlink:href="#CMR17-6c" transform="scale(0.996264)"/>
      <use xlink:href="#CMR17-6e" transform="translate(24.871058 0) scale(0.996264)"/>
      <use xlink:href="#CMR17-28" transform="translate(75.766428 0) scale(0.996264)"/>
      <use xlink:href="#CMMI12-41" transform="translate(111.047196 0) scale(0.996264)"/>
      <use xlink:href="#CMR17-29" transform="translate(184.175081 0) scale(0.996264)"/>
      <use xlink:href="#CMR17-28" transform="translate(249.531816 0) scale(0.996264)"/>
      <use xlink:href="#CMR17-73" transform="translate(284.812583 0) scale(0.996264)"/>
      <use xlink:href="#CMR17-2f" transform="translate(320.613921 0) scale(0.996264)"/>
      <use xlink:href="#CMR17-75" transform="translate(396.380364 0) scale(0.996264)"/>
      <use xlink:href="#CMR17-6e" transform="translate(447.275734 0) scale(0.996264)"/>
      <use xlink:href="#CMR17-69" transform="translate(498.171104 0) scale(0.996264)"/>
      <use xlink:href="#CMR17-64" transform="translate(523.042162 0) scale(0.996264)"/>
      <use xlink:href="#CMR17-2e" transform="translate(573.937532 0) scale(0.996264)"/>
      <use xlink:href="#CMR17-29" transform="translate(598.808591 0) scale(0.996264)"/>
     </g>
    </g>
   </g>
   <g id="line2d_13">
    <path d="M 77.707636 288.261818 
L 433.780364 40.058182 
L 433.780364 40.058182 
" clip-path="url(#p94326174a4)" style="fill: none; stroke: #ff0000; stroke-width: 2.8; stroke-linecap: square"/>
   </g>
   <g id="LineCollection_1">
    <path d="M 84.516868 281.023097 
L 84.522357 281.023097 
" clip-path="url(#p94326174a4)" style="fill: none; stroke: #000000; stroke-width: 1.3"/>
    <path d="M 93.354322 276.06146 
L 93.359811 276.06146 
" clip-path="url(#p94326174a4)" style="fill: none; stroke: #000000; stroke-width: 1.3"/>
    <path d="M 102.576014 272.76517 
L 102.581503 272.76517 
" clip-path="url(#p94326174a4)" style="fill: none; stroke: #000000; stroke-width: 1.3"/>
    <path d="M 112.181942 258.634791 
L 112.187431 258.634791 
" clip-path="url(#p94326174a4)" style="fill: none; stroke: #000000; stroke-width: 1.3"/>
    <path d="M 122.062326 262.628272 
L 122.067815 262.628272 
" clip-path="url(#p94326174a4)" style="fill: none; stroke: #000000; stroke-width: 1.3"/>
    <path d="M 132.272056 251.144962 
L 132.277545 251.144962 
" clip-path="url(#p94326174a4)" style="fill: none; stroke: #000000; stroke-width: 1.3"/>
    <path d="M 142.920914 243.418605 
L 142.926403 243.418605 
" clip-path="url(#p94326174a4)" style="fill: none; stroke: #000000; stroke-width: 1.3"/>
    <path d="M 153.844228 234.612746 
L 153.849717 234.612746 
" clip-path="url(#p94326174a4)" style="fill: none; stroke: #000000; stroke-width: 1.3"/>
    <path d="M 165.096887 226.418964 
L 165.102376 226.418964 
" clip-path="url(#p94326174a4)" style="fill: none; stroke: #000000; stroke-width: 1.3"/>
    <path d="M 176.788675 219.937555 
L 176.794164 219.937555 
" clip-path="url(#p94326174a4)" style="fill: none; stroke: #000000; stroke-width: 1.3"/>
    <path d="M 188.754917 214.475418 
L 188.760406 214.475418 
" clip-path="url(#p94326174a4)" style="fill: none; stroke: #000000; stroke-width: 1.3"/>
    <path d="M 201.105397 202.189751 
L 201.110886 202.189751 
" clip-path="url(#p94326174a4)" style="fill: none; stroke: #000000; stroke-width: 1.3"/>
    <path d="M 213.785223 191.679054 
L 213.790712 191.679054 
" clip-path="url(#p94326174a4)" style="fill: none; stroke: #000000; stroke-width: 1.3"/>
    <path d="M 226.849286 193.845767 
L 226.854775 193.845767 
" clip-path="url(#p94326174a4)" style="fill: none; stroke: #000000; stroke-width: 1.3"/>
    <path d="M 240.242695 177.100665 
L 240.248184 177.100665 
" clip-path="url(#p94326174a4)" style="fill: none; stroke: #000000; stroke-width: 1.3"/>
    <path d="M 253.965451 171.475648 
L 253.97094 171.475648 
" clip-path="url(#p94326174a4)" style="fill: none; stroke: #000000; stroke-width: 1.3"/>
    <path d="M 268.127334 153.261763 
L 268.132823 153.261763 
" clip-path="url(#p94326174a4)" style="fill: none; stroke: #000000; stroke-width: 1.3"/>
    <path d="M 282.563673 146.590907 
L 282.569162 146.590907 
" clip-path="url(#p94326174a4)" style="fill: none; stroke: #000000; stroke-width: 1.3"/>
    <path d="M 297.384248 142.65792 
L 297.389738 142.65792 
" clip-path="url(#p94326174a4)" style="fill: none; stroke: #000000; stroke-width: 1.3"/>
    <path d="M 312.53417 124.392394 
L 312.539659 124.392394 
" clip-path="url(#p94326174a4)" style="fill: none; stroke: #000000; stroke-width: 1.3"/>
    <path d="M 328.013438 107.385746 
L 328.018927 107.385746 
" clip-path="url(#p94326174a4)" style="fill: none; stroke: #000000; stroke-width: 1.3"/>
    <path d="M 343.931835 90.507835 
L 343.937324 90.507835 
" clip-path="url(#p94326174a4)" style="fill: none; stroke: #000000; stroke-width: 1.3"/>
    <path d="M 360.124686 84.853268 
L 360.130175 84.853268 
" clip-path="url(#p94326174a4)" style="fill: none; stroke: #000000; stroke-width: 1.3"/>
    <path d="M 376.701774 75.132198 
L 376.707263 75.132198 
" clip-path="url(#p94326174a4)" style="fill: none; stroke: #000000; stroke-width: 1.3"/>
    <path d="M 393.608209 66.107448 
L 393.613698 66.107448 
" clip-path="url(#p94326174a4)" style="fill: none; stroke: #000000; stroke-width: 1.3"/>
    <path d="M 410.898881 57.184162 
L 410.90437 57.184162 
" clip-path="url(#p94326174a4)" style="fill: none; stroke: #000000; stroke-width: 1.3"/>
   </g>
   <g id="LineCollection_2">
    <path d="M 84.519612 283.455375 
L 84.519612 278.590818 
" clip-path="url(#p94326174a4)" style="fill: none; stroke: #000000; stroke-width: 1.3"/>
    <path d="M 93.357067 278.454668 
L 93.357067 273.668252 
" clip-path="url(#p94326174a4)" style="fill: none; stroke: #000000; stroke-width: 1.3"/>
    <path d="M 102.578758 275.232763 
L 102.578758 270.297577 
" clip-path="url(#p94326174a4)" style="fill: none; stroke: #000000; stroke-width: 1.3"/>
    <path d="M 112.184687 261.239839 
L 112.184687 256.029744 
" clip-path="url(#p94326174a4)" style="fill: none; stroke: #000000; stroke-width: 1.3"/>
    <path d="M 122.065071 265.288984 
L 122.065071 259.967561 
" clip-path="url(#p94326174a4)" style="fill: none; stroke: #000000; stroke-width: 1.3"/>
    <path d="M 132.274801 253.941663 
L 132.274801 248.348261 
" clip-path="url(#p94326174a4)" style="fill: none; stroke: #000000; stroke-width: 1.3"/>
    <path d="M 142.923659 246.482027 
L 142.923659 240.355183 
" clip-path="url(#p94326174a4)" style="fill: none; stroke: #000000; stroke-width: 1.3"/>
    <path d="M 153.846972 237.863081 
L 153.846972 231.362412 
" clip-path="url(#p94326174a4)" style="fill: none; stroke: #000000; stroke-width: 1.3"/>
    <path d="M 165.099631 229.956012 
L 165.099631 222.881916 
" clip-path="url(#p94326174a4)" style="fill: none; stroke: #000000; stroke-width: 1.3"/>
    <path d="M 176.791419 223.685858 
L 176.791419 216.189253 
" clip-path="url(#p94326174a4)" style="fill: none; stroke: #000000; stroke-width: 1.3"/>
    <path d="M 188.757662 218.490284 
L 188.757662 210.460551 
" clip-path="url(#p94326174a4)" style="fill: none; stroke: #000000; stroke-width: 1.3"/>
    <path d="M 201.108142 206.646118 
L 201.108142 197.733384 
" clip-path="url(#p94326174a4)" style="fill: none; stroke: #000000; stroke-width: 1.3"/>
    <path d="M 213.787967 196.5174 
L 213.787967 186.840708 
" clip-path="url(#p94326174a4)" style="fill: none; stroke: #000000; stroke-width: 1.3"/>
    <path d="M 226.852031 198.952728 
L 226.852031 188.738807 
" clip-path="url(#p94326174a4)" style="fill: none; stroke: #000000; stroke-width: 1.3"/>
    <path d="M 240.24544 182.952767 
L 240.24544 171.248564 
" clip-path="url(#p94326174a4)" style="fill: none; stroke: #000000; stroke-width: 1.3"/>
    <path d="M 253.968195 177.879043 
L 253.968195 165.072253 
" clip-path="url(#p94326174a4)" style="fill: none; stroke: #000000; stroke-width: 1.3"/>
    <path d="M 268.130079 160.891596 
L 268.130079 145.63193 
" clip-path="url(#p94326174a4)" style="fill: none; stroke: #000000; stroke-width: 1.3"/>
    <path d="M 282.566417 154.84181 
L 282.566417 138.340004 
" clip-path="url(#p94326174a4)" style="fill: none; stroke: #000000; stroke-width: 1.3"/>
    <path d="M 297.386993 151.581604 
L 297.386993 133.734236 
" clip-path="url(#p94326174a4)" style="fill: none; stroke: #000000; stroke-width: 1.3"/>
    <path d="M 312.536915 134.326139 
L 312.536915 114.458649 
" clip-path="url(#p94326174a4)" style="fill: none; stroke: #000000; stroke-width: 1.3"/>
    <path d="M 328.016183 117.463511 
L 328.016183 97.30798 
" clip-path="url(#p94326174a4)" style="fill: none; stroke: #000000; stroke-width: 1.3"/>
    <path d="M 343.934579 98.877863 
L 343.934579 82.137808 
" clip-path="url(#p94326174a4)" style="fill: none; stroke: #000000; stroke-width: 1.3"/>
    <path d="M 360.12743 91.726026 
L 360.12743 77.980509 
" clip-path="url(#p94326174a4)" style="fill: none; stroke: #000000; stroke-width: 1.3"/>
    <path d="M 376.704519 82.349977 
L 376.704519 67.914418 
" clip-path="url(#p94326174a4)" style="fill: none; stroke: #000000; stroke-width: 1.3"/>
    <path d="M 393.610953 76.152036 
L 393.610953 56.06286 
" clip-path="url(#p94326174a4)" style="fill: none; stroke: #000000; stroke-width: 1.3"/>
    <path d="M 410.901625 73.773069 
L 410.901625 40.595255 
" clip-path="url(#p94326174a4)" style="fill: none; stroke: #000000; stroke-width: 1.3"/>
   </g>
   <g id="line2d_14">
    <defs>
     <path id="m62037b29f9" d="M 0 1.75 
C 0.464105 1.75 0.909265 1.565609 1.237437 1.237437 
C 1.565609 0.909265 1.75 0.464105 1.75 0 
C 1.75 -0.464105 1.565609 -0.909265 1.237437 -1.237437 
C 0.909265 -1.565609 0.464105 -1.75 0 -1.75 
C -0.464105 -1.75 -0.909265 -1.565609 -1.237437 -1.237437 
C -1.565609 -0.909265 -1.75 -0.464105 -1.75 0 
C -1.75 0.464105 -1.565609 0.909265 -1.237437 1.237437 
C -0.909265 1.565609 -0.464105 1.75 0 1.75 
z
" style="stroke: #000000"/>
    </defs>
    <g clip-path="url(#p94326174a4)">
     <use xlink:href="#m62037b29f9" x="84.519612" y="281.023097" style="stroke: #000000"/>
     <use xlink:href="#m62037b29f9" x="93.357067" y="276.06146" style="stroke: #000000"/>
     <use xlink:href="#m62037b29f9" x="102.578758" y="272.76517" style="stroke: #000000"/>
     <use xlink:href="#m62037b29f9" x="112.184687" y="258.634791" style="stroke: #000000"/>
     <use xlink:href="#m62037b29f9" x="122.065071" y="262.628272" style="stroke: #000000"/>
     <use xlink:href="#m62037b29f9" x="132.274801" y="251.144962" style="stroke: #000000"/>
     <use xlink:href="#m62037b29f9" x="142.923659" y="243.418605" style="stroke: #000000"/>
     <use xlink:href="#m62037b29f9" x="153.846972" y="234.612746" style="stroke: #000000"/>
     <use xlink:href="#m62037b29f9" x="165.099631" y="226.418964" style="stroke: #000000"/>
     <use xlink:href="#m62037b29f9" x="176.791419" y="219.937555" style="stroke: #000000"/>
     <use xlink:href="#m62037b29f9" x="188.757662" y="214.475418" style="stroke: #000000"/>
     <use xlink:href="#m62037b29f9" x="201.108142" y="202.189751" style="stroke: #000000"/>
     <use xlink:href="#m62037b29f9" x="213.787967" y="191.679054" style="stroke: #000000"/>
     <use xlink:href="#m62037b29f9" x="226.852031" y="193.845767" style="stroke: #000000"/>
     <use xlink:href="#m62037b29f9" x="240.24544" y="177.100665" style="stroke: #000000"/>
     <use xlink:href="#m62037b29f9" x="253.968195" y="171.475648" style="stroke: #000000"/>
     <use xlink:href="#m62037b29f9" x="268.130079" y="153.261763" style="stroke: #000000"/>
     <use xlink:href="#m62037b29f9" x="282.566417" y="146.590907" style="stroke: #000000"/>
     <use xlink:href="#m62037b29f9" x="297.386993" y="142.65792" style="stroke: #000000"/>
     <use xlink:href="#m62037b29f9" x="312.536915" y="124.392394" style="stroke: #000000"/>
     <use xlink:href="#m62037b29f9" x="328.016183" y="107.385746" style="stroke: #000000"/>
     <use xlink:href="#m62037b29f9" x="343.934579" y="90.507835" style="stroke: #000000"/>
     <use xlink:href="#m62037b29f9" x="360.12743" y="84.853268" style="stroke: #000000"/>
     <use xlink:href="#m62037b29f9" x="376.704519" y="75.132198" style="stroke: #000000"/>
     <use xlink:href="#m62037b29f9" x="393.610953" y="66.107448" style="stroke: #000000"/>
     <use xlink:href="#m62037b29f9" x="410.901625" y="57.184162" style="stroke: #000000"/>
    </g>
   </g>
   <g id="patch_3">
    <path d="M 59.904 300.672 
L 59.904 27.648 
" style="fill: none; stroke: #000000; stroke-width: 0.8; stroke-linejoin: miter; stroke-linecap: square"/>
   </g>
   <g id="patch_4">
    <path d="M 451.584 300.672 
L 451.584 27.648 
" style="fill: none; stroke: #000000; stroke-width: 0.8; stroke-linejoin: miter; stroke-linecap: square"/>
   </g>
   <g id="patch_5">
    <path d="M 59.904 300.672 
L 451.584 300.672 
" style="fill: none; stroke: #000000; stroke-width: 0.8; stroke-linejoin: miter; stroke-linecap: square"/>
   </g>
   <g id="patch_6">
    <path d="M 59.904 27.648 
L 451.584 27.648 
" style="fill: none; stroke: #000000; stroke-width: 0.8; stroke-linejoin: miter; stroke-linecap: square"/>
   </g>
   <g id="text_15">
    <!-- Ajuste: espessura do filtro de Zr -->
    <g transform="translate(107.552472 21.648) scale(0.23 -0.23)">
     <defs>
      <path id="CMR17-41" d="M 2323 4378 
C 2291 4461 2278 4480 2214 4480 
C 2150 4480 2138 4461 2106 4378 
L 749 566 
C 627 223 371 153 147 153 
L 147 -13 
C 262 0 518 0 640 0 
C 800 0 1056 0 1210 -13 
L 1210 153 
C 909 153 864 361 864 439 
C 864 497 877 530 890 569 
L 1229 1536 
L 2906 1536 
L 3290 442 
C 3322 365 3322 352 3322 327 
C 3322 153 3046 153 2925 153 
L 2925 0 
C 3110 0 3443 0 3642 0 
C 3808 0 4128 0 4282 -13 
L 4282 153 
C 3942 153 3827 153 3744 387 
L 2323 4378 
z
M 2067 3893 
L 2848 1702 
L 1286 1702 
L 2067 3893 
z
" transform="scale(0.015625)"/>
      <path id="CMR17-6a" d="M 1165 3963 
C 1165 4103 1050 4224 902 4224 
C 762 4224 640 4110 640 3963 
C 640 3823 755 3702 902 3702 
C 1043 3702 1165 3817 1165 3963 
z
M 365 2754 
L 365 2588 
C 787 2588 838 2543 838 2235 
L 838 -359 
C 838 -678 781 -1178 403 -1178 
C 358 -1178 186 -1178 45 -1082 
C 90 -1075 250 -1031 250 -851 
C 250 -729 166 -621 19 -621 
C -122 -621 -211 -717 -211 -858 
C -211 -1114 70 -1280 397 -1280 
C 838 -1280 1165 -877 1165 -332 
L 1165 2825 
L 365 2754 
z
" transform="scale(0.015625)"/>
      <path id="CMR17-74" d="M 966 2560 
L 1862 2560 
L 1862 2725 
L 966 2725 
L 966 3904 
L 851 3904 
C 838 3245 614 2668 70 2668 
L 70 2560 
L 627 2560 
L 627 771 
C 627 650 627 -64 1370 -64 
C 1747 -64 1965 306 1965 777 
L 1965 1140 
L 1850 1140 
L 1850 783 
C 1850 344 1677 51 1408 51 
C 1222 51 966 178 966 758 
L 966 2560 
z
" transform="scale(0.015625)"/>
      <path id="CMR17-65" d="M 2438 1472 
C 2464 1498 2464 1511 2464 1576 
C 2464 2238 2118 2816 1389 2816 
C 710 2816 173 2169 173 1383 
C 173 551 781 -64 1459 -64 
C 2176 -64 2458 607 2458 740 
C 2458 784 2419 784 2406 784 
C 2362 784 2355 771 2330 696 
C 2189 265 1837 51 1504 51 
C 1229 51 954 203 781 480 
C 582 803 582 1176 582 1472 
L 2438 1472 
z
M 589 1568 
C 634 2505 1126 2714 1382 2714 
C 1818 2714 2112 2297 2118 1568 
L 589 1568 
z
" transform="scale(0.015625)"/>
      <path id="CMR17-3a" d="M 1062 2491 
C 1062 2650 934 2752 800 2752 
C 672 2752 538 2650 538 2491 
C 538 2332 666 2230 800 2230 
C 928 2230 1062 2332 1062 2491 
z
M 1062 261 
C 1062 420 934 522 800 522 
C 672 522 538 420 538 261 
C 538 102 666 0 800 0 
C 928 0 1062 102 1062 261 
z
" transform="scale(0.015625)"/>
      <path id="CMR17-70" d="M 1408 -1063 
C 998 -1063 973 -1037 973 -789 
L 973 402 
C 1158 134 1427 -38 1766 -38 
C 2406 -38 3053 523 3053 1388 
C 3053 2191 2496 2802 1837 2802 
C 1453 2802 1139 2592 960 2338 
L 960 2802 
L 198 2732 
L 198 2567 
C 576 2567 634 2528 634 2223 
L 634 -789 
C 634 -1031 608 -1063 198 -1063 
L 198 -1228 
C 352 -1216 634 -1216 800 -1216 
C 966 -1216 1254 -1216 1408 -1228 
L 1408 -1063 
z
M 973 2012 
C 973 2102 973 2235 1222 2471 
C 1254 2497 1472 2688 1792 2688 
C 2259 2688 2643 2108 2643 1382 
C 2643 656 2234 64 1728 64 
C 1498 64 1248 172 1056 472 
C 973 612 973 650 973 752 
L 973 2012 
z
" transform="scale(0.015625)"/>
      <path id="CMR17-72" d="M 960 1497 
C 960 2112 1222 2688 1702 2688 
C 1747 2688 1792 2682 1837 2662 
C 1837 2662 1696 2617 1696 2452 
C 1696 2298 1818 2234 1914 2234 
C 1990 2234 2131 2279 2131 2458 
C 2131 2663 1926 2790 1709 2790 
C 1222 2790 1011 2317 947 2093 
L 941 2093 
L 941 2790 
L 198 2720 
L 198 2554 
C 576 2554 634 2515 634 2208 
L 634 428 
C 634 184 608 153 198 153 
L 198 -13 
C 352 0 646 0 813 0 
C 998 0 1325 0 1498 -13 
L 1498 153 
C 1037 153 960 153 960 440 
L 960 1497 
z
" transform="scale(0.015625)"/>
      <path id="CMR17-61" d="M 2304 1653 
C 2304 2072 2304 2294 2035 2543 
C 1798 2752 1523 2816 1306 2816 
C 800 2816 435 2407 435 1971 
C 435 1728 627 1728 666 1728 
C 749 1728 896 1778 896 1954 
C 896 2112 774 2181 666 2181 
C 640 2181 608 2174 589 2168 
C 723 2592 1069 2714 1293 2714 
C 1613 2714 1965 2429 1965 1885 
L 1965 1600 
C 1587 1600 1133 1549 774 1357 
C 371 1133 256 813 256 570 
C 256 77 832 -64 1171 -64 
C 1523 -64 1850 139 1990 511 
C 2003 233 2182 -18 2464 -18 
C 2598 -18 2938 70 2938 567 
L 2938 920 
L 2822 920 
L 2822 562 
C 2822 178 2650 128 2566 128 
C 2304 128 2304 458 2304 738 
L 2304 1653 
z
M 1965 870 
C 1965 317 1568 38 1216 38 
C 896 38 646 275 646 570 
C 646 761 730 1100 1101 1305 
C 1408 1478 1760 1504 1965 1504 
L 1965 870 
z
" transform="scale(0.015625)"/>
      <path id="CMR17-6f" d="M 2758 1356 
C 2758 2176 2163 2816 1466 2816 
C 768 2816 173 2176 173 1356 
C 173 551 768 -64 1466 -64 
C 2163 -64 2758 551 2758 1356 
z
M 1466 51 
C 1165 51 909 230 762 480 
C 602 767 582 1126 582 1408 
C 582 1677 595 2010 762 2298 
C 890 2509 1139 2714 1466 2714 
C 1754 2714 1997 2554 2150 2330 
C 2349 2029 2349 1607 2349 1408 
C 2349 1158 2336 775 2163 467 
C 1984 173 1709 51 1466 51 
z
" transform="scale(0.015625)"/>
      <path id="CMR17-c" d="M 2554 2764 
C 2400 2764 1926 2764 1805 2739 
C 1766 2725 1754 2725 1677 2725 
L 947 2725 
L 947 3469 
C 947 4073 1434 4352 1818 4352 
C 1939 4352 2214 4320 2355 4101 
C 2291 4101 2086 4101 2086 3878 
C 2086 3725 2189 3648 2317 3648 
C 2432 3648 2547 3712 2547 3885 
C 2547 4205 2240 4454 1843 4454 
C 1338 4454 634 4168 634 3469 
L 634 2725 
L 122 2725 
L 122 2560 
L 634 2560 
L 634 427 
C 634 184 608 153 198 153 
L 198 -13 
C 352 0 634 0 794 0 
C 960 0 1242 0 1395 -13 
L 1395 153 
C 986 153 960 178 960 427 
L 960 2560 
L 1901 2560 
C 2176 2560 2227 2502 2227 2222 
L 2227 427 
C 2227 184 2202 153 1792 153 
L 1792 -13 
C 1946 0 2227 0 2387 0 
C 2554 0 2835 0 2989 -13 
L 2989 153 
C 2579 153 2554 178 2554 427 
L 2554 2764 
z
" transform="scale(0.015625)"/>
      <path id="CMR17-5a" d="M 3302 4230 
C 3302 4352 3296 4352 3162 4352 
L 442 4352 
L 378 2948 
L 493 2948 
C 531 3675 723 4192 1760 4192 
L 2816 4192 
L 339 204 
C 294 134 294 127 294 83 
C 294 0 307 0 435 0 
L 3245 0 
L 3334 1666 
L 3219 1666 
C 3162 829 3117 178 1894 178 
L 781 178 
L 3302 4230 
z
" transform="scale(0.015625)"/>
     </defs>
     <use xlink:href="#CMR17-41" transform="scale(0.996264)"/>
     <use xlink:href="#CMR17-6a" transform="translate(69.07243 0) scale(0.996264)"/>
     <use xlink:href="#CMR17-75" transform="translate(96.545942 0) scale(0.996264)"/>
     <use xlink:href="#CMR17-73" transform="translate(147.441312 0) scale(0.996264)"/>
     <use xlink:href="#CMR17-74" transform="translate(183.24265 0) scale(0.996264)"/>
     <use xlink:href="#CMR17-65" transform="translate(218.523417 0) scale(0.996264)"/>
     <use xlink:href="#CMR17-3a" transform="translate(259.009078 0) scale(0.996264)"/>
     <use xlink:href="#CMR17-65" transform="translate(324.365797 0) scale(0.996264)"/>
     <use xlink:href="#CMR17-73" transform="translate(364.851457 0) scale(0.996264)"/>
     <use xlink:href="#CMR17-70" transform="translate(400.652795 0) scale(0.996264)"/>
     <use xlink:href="#CMR17-65" transform="translate(454.150603 0) scale(0.996264)"/>
     <use xlink:href="#CMR17-73" transform="translate(494.636264 0) scale(0.996264)"/>
     <use xlink:href="#CMR17-73" transform="translate(530.437602 0) scale(0.996264)"/>
     <use xlink:href="#CMR17-75" transform="translate(566.238939 0) scale(0.996264)"/>
     <use xlink:href="#CMR17-72" transform="translate(617.134309 0) scale(0.996264)"/>
     <use xlink:href="#CMR17-61" transform="translate(652.415077 0) scale(0.996264)"/>
     <use xlink:href="#CMR17-64" transform="translate(728.18152 0) scale(0.996264)"/>
     <use xlink:href="#CMR17-6f" transform="translate(779.07689 0) scale(0.996264)"/>
     <use xlink:href="#CMR17-c" transform="translate(854.843333 0) scale(0.996264)"/>
     <use xlink:href="#CMR17-6c" transform="translate(904.585557 0) scale(0.996264)"/>
     <use xlink:href="#CMR17-74" transform="translate(929.456615 0) scale(0.996264)"/>
     <use xlink:href="#CMR17-72" transform="translate(964.737383 0) scale(0.996264)"/>
     <use xlink:href="#CMR17-6f" transform="translate(1000.018151 0) scale(0.996264)"/>
     <use xlink:href="#CMR17-64" transform="translate(1075.784594 0) scale(0.996264)"/>
     <use xlink:href="#CMR17-65" transform="translate(1126.679964 0) scale(0.996264)"/>
     <use xlink:href="#CMR17-5a" transform="translate(1197.241591 0) scale(0.996264)"/>
     <use xlink:href="#CMR17-72" transform="translate(1253.341762 0) scale(0.996264)"/>
    </g>
   </g>
  </g>
 </g>
 <defs>
  <clipPath id="p94326174a4">
   <rect x="59.904" y="27.648" width="391.68" height="273.024"/>
  </clipPath>
 </defs>
</svg>
