<?xml version="1.0" encoding="utf-8" standalone="no"?>
<!DOCTYPE svg PUBLIC "-//W3C//DTD SVG 1.1//EN"
  "http://www.w3.org/Graphics/SVG/1.1/DTD/svg11.dtd">
<svg xmlns:xlink="http://www.w3.org/1999/xlink" width="460.8pt" height="345.6pt" viewBox="0 0 460.8 345.6" xmlns="http://www.w3.org/2000/svg" version="1.1">
 <metadata>
  <rdf:RDF xmlns:dc="http://purl.org/dc/elements/1.1/" xmlns:cc="http://creativecommons.org/ns#" xmlns:rdf="http://www.w3.org/1999/02/22-rdf-syntax-ns#">
   <cc:Work>
    <dc:type rdf:resource="http://purl.org/dc/dcmitype/StillImage"/>
    <dc:date>2024-03-25T21:47:02.061166</dc:date>
    <dc:format>image/svg+xml</dc:format>
    <dc:creator>
     <cc:Agent>
      <dc:title>Matplotlib v3.8.3, https://matplotlib.org/</dc:title>
     </cc:Agent>
    </dc:creator>
   </cc:Work>
  </rdf:RDF>
 </metadata>
 <defs>
  <style type="text/css">*{stroke-linejoin: round; stroke-linecap: butt}</style>
 </defs>
 <g id="figure_1">
  <g id="patch_1">
   <path d="M 0 345.6 
L 460.8 345.6 
L 460.8 0 
L 0 0 
z
" style="fill: #ffffff"/>
  </g>
  <g id="axes_1">
   <g id="patch_2">
    <path d="M 50.688 300.672 
L 451.584 300.672 
L 451.584 27.648 
L 50.688 27.648 
z
" style="fill: #ffffff"/>
   </g>
   <g id="matplotlib.axis_1">
    <g id="xtick_1">
     <g id="line2d_1">
      <path d="M 113.987368 300.672 
L 113.987368 27.648 
" clip-path="url(#pd0407fb93f)" style="fill: none; stroke: #b0b0b0; stroke-width: 0.8; stroke-linecap: square"/>
     </g>
     <g id="line2d_2">
      <defs>
       <path id="m3e60999bc2" d="M 0 0 
L 0 3.5 
" style="stroke: #000000; stroke-width: 0.8"/>
      </defs>
      <g>
       <use xlink:href="#m3e60999bc2" x="113.987368" y="300.672" style="stroke: #000000; stroke-width: 0.8"/>
      </g>
     </g>
     <g id="text_1">
      <!-- $\mathdefault{4}$ -->
      <g transform="translate(110.32925 318.049725) scale(0.15 -0.15)">
       <defs>
        <path id="CMR17-34" d="M 2150 4122 
C 2150 4256 2144 4256 2029 4256 
L 128 1254 
L 128 1088 
L 1779 1088 
L 1779 457 
C 1779 224 1766 160 1318 160 
L 1197 160 
L 1197 0 
C 1402 0 1747 0 1965 0 
C 2182 0 2528 0 2733 0 
L 2733 160 
L 2611 160 
C 2163 160 2150 224 2150 457 
L 2150 1088 
L 2803 1088 
L 2803 1254 
L 2150 1254 
L 2150 4122 
z
M 1798 3703 
L 1798 1254 
L 256 1254 
L 1798 3703 
z
" transform="scale(0.015625)"/>
       </defs>
       <use xlink:href="#CMR17-34" transform="scale(0.996264)"/>
      </g>
     </g>
    </g>
    <g id="xtick_2">
     <g id="line2d_3">
      <path d="M 198.386526 300.672 
L 198.386526 27.648 
" clip-path="url(#pd0407fb93f)" style="fill: none; stroke: #b0b0b0; stroke-width: 0.8; stroke-linecap: square"/>
     </g>
     <g id="line2d_4">
      <g>
       <use xlink:href="#m3e60999bc2" x="198.386526" y="300.672" style="stroke: #000000; stroke-width: 0.8"/>
      </g>
     </g>
     <g id="text_2">
      <!-- $\mathdefault{6}$ -->
      <g transform="translate(194.728407 318.049725) scale(0.15 -0.15)">
       <defs>
        <path id="CMR17-36" d="M 678 2176 
C 678 3690 1395 4032 1811 4032 
C 1946 4032 2272 4009 2400 3776 
C 2298 3776 2106 3776 2106 3553 
C 2106 3381 2246 3323 2336 3323 
C 2394 3323 2566 3348 2566 3560 
C 2566 3954 2246 4179 1805 4179 
C 1043 4179 243 3390 243 1984 
C 243 253 966 -128 1478 -128 
C 2099 -128 2688 427 2688 1283 
C 2688 2081 2170 2662 1517 2662 
C 1126 2662 838 2407 678 1960 
L 678 2176 
z
M 1478 25 
C 691 25 691 1200 691 1436 
C 691 1896 909 2560 1504 2560 
C 1613 2560 1926 2560 2138 2120 
C 2253 1870 2253 1609 2253 1289 
C 2253 944 2253 690 2118 434 
C 1978 171 1773 25 1478 25 
z
" transform="scale(0.015625)"/>
       </defs>
       <use xlink:href="#CMR17-36" transform="scale(0.996264)"/>
      </g>
     </g>
    </g>
    <g id="xtick_3">
     <g id="line2d_5">
      <path d="M 282.785684 300.672 
L 282.785684 27.648 
" clip-path="url(#pd0407fb93f)" style="fill: none; stroke: #b0b0b0; stroke-width: 0.8; stroke-linecap: square"/>
     </g>
     <g id="line2d_6">
      <g>
       <use xlink:href="#m3e60999bc2" x="282.785684" y="300.672" style="stroke: #000000; stroke-width: 0.8"/>
      </g>
     </g>
     <g id="text_3">
      <!-- $\mathdefault{8}$ -->
      <g transform="translate(279.127565 318.049725) scale(0.15 -0.15)">
       <defs>
        <path id="CMR17-38" d="M 1741 2264 
C 2144 2467 2554 2773 2554 3263 
C 2554 3841 1990 4179 1472 4179 
C 890 4179 378 3759 378 3180 
C 378 3021 416 2747 666 2505 
C 730 2442 998 2251 1171 2130 
C 883 1983 211 1634 211 934 
C 211 279 838 -128 1459 -128 
C 2144 -128 2720 362 2720 1010 
C 2720 1590 2330 1857 2074 2029 
L 1741 2264 
z
M 902 2822 
C 851 2854 595 3051 595 3351 
C 595 3739 998 4032 1459 4032 
C 1965 4032 2336 3676 2336 3262 
C 2336 2669 1670 2331 1638 2331 
C 1632 2331 1626 2331 1574 2370 
L 902 2822 
z
M 2080 1519 
C 2176 1449 2483 1240 2483 851 
C 2483 381 2010 25 1472 25 
C 890 25 448 438 448 940 
C 448 1443 838 1862 1280 2060 
L 2080 1519 
z
" transform="scale(0.015625)"/>
       </defs>
       <use xlink:href="#CMR17-38" transform="scale(0.996264)"/>
      </g>
     </g>
    </g>
    <g id="xtick_4">
     <g id="line2d_7">
      <path d="M 367.184842 300.672 
L 367.184842 27.648 
" clip-path="url(#pd0407fb93f)" style="fill: none; stroke: #b0b0b0; stroke-width: 0.8; stroke-linecap: square"/>
     </g>
     <g id="line2d_8">
      <g>
       <use xlink:href="#m3e60999bc2" x="367.184842" y="300.672" style="stroke: #000000; stroke-width: 0.8"/>
      </g>
     </g>
     <g id="text_4">
      <!-- $\mathdefault{10}$ -->
      <g transform="translate(359.868604 318.049725) scale(0.15 -0.15)">
       <defs>
        <path id="CMR17-31" d="M 1702 4058 
C 1702 4192 1696 4192 1606 4192 
C 1357 3916 979 3827 621 3827 
C 602 3827 570 3827 563 3808 
C 557 3795 557 3782 557 3648 
C 755 3648 1088 3686 1344 3839 
L 1344 461 
C 1344 236 1331 160 781 160 
L 589 160 
L 589 0 
C 896 0 1216 0 1523 0 
C 1830 0 2150 0 2458 0 
L 2458 160 
L 2266 160 
C 1715 160 1702 230 1702 458 
L 1702 4058 
z
" transform="scale(0.015625)"/>
        <path id="CMR17-30" d="M 2688 2025 
C 2688 2416 2682 3080 2413 3591 
C 2176 4039 1798 4198 1466 4198 
C 1158 4198 768 4058 525 3597 
C 269 3118 243 2524 243 2025 
C 243 1661 250 1106 448 619 
C 723 -39 1216 -128 1466 -128 
C 1760 -128 2208 -7 2470 600 
C 2662 1042 2688 1559 2688 2025 
z
M 1466 -26 
C 1056 -26 813 325 723 812 
C 653 1188 653 1738 653 2096 
C 653 2588 653 2997 736 3387 
C 858 3929 1216 4096 1466 4096 
C 1728 4096 2067 3923 2189 3400 
C 2272 3036 2278 2607 2278 2096 
C 2278 1680 2278 1169 2202 792 
C 2067 95 1690 -26 1466 -26 
z
" transform="scale(0.015625)"/>
       </defs>
       <use xlink:href="#CMR17-31" transform="scale(0.996264)"/>
       <use xlink:href="#CMR17-30" transform="translate(45.690477 0) scale(0.996264)"/>
      </g>
     </g>
    </g>
    <g id="xtick_5">
     <g id="line2d_9">
      <path d="M 451.584 300.672 
L 451.584 27.648 
" clip-path="url(#pd0407fb93f)" style="fill: none; stroke: #b0b0b0; stroke-width: 0.8; stroke-linecap: square"/>
     </g>
     <g id="line2d_10">
      <g>
       <use xlink:href="#m3e60999bc2" x="451.584" y="300.672" style="stroke: #000000; stroke-width: 0.8"/>
      </g>
     </g>
     <g id="text_5">
      <!-- $\mathdefault{12}$ -->
      <g transform="translate(444.267762 318.049725) scale(0.15 -0.15)">
       <defs>
        <path id="CMR17-32" d="M 2669 989 
L 2554 989 
C 2490 536 2438 459 2413 420 
C 2381 369 1920 369 1830 369 
L 602 369 
C 832 619 1280 1072 1824 1597 
C 2214 1967 2669 2402 2669 3035 
C 2669 3790 2067 4224 1395 4224 
C 691 4224 262 3604 262 3030 
C 262 2780 448 2748 525 2748 
C 589 2748 781 2787 781 3010 
C 781 3207 614 3264 525 3264 
C 486 3264 448 3258 422 3245 
C 544 3790 915 4058 1306 4058 
C 1862 4058 2227 3617 2227 3035 
C 2227 2479 1901 2000 1536 1584 
L 262 146 
L 262 0 
L 2515 0 
L 2669 989 
z
" transform="scale(0.015625)"/>
       </defs>
       <use xlink:href="#CMR17-31" transform="scale(0.996264)"/>
       <use xlink:href="#CMR17-32" transform="translate(45.690477 0) scale(0.996264)"/>
      </g>
     </g>
    </g>
    <g id="text_6">
     <!-- $\beta$ ($^{\circ}$) -->
     <g transform="translate(233.237885 338.388889) scale(0.18 -0.18)">
      <defs>
       <path id="CMMI12-c" d="M 3622 3701 
C 3622 4081 3296 4480 2714 4480 
C 1888 4480 1363 3477 1197 2816 
L 186 -1172 
C 173 -1223 211 -1236 243 -1236 
C 288 -1236 320 -1230 326 -1198 
L 774 586 
C 838 229 1190 -64 1568 -64 
C 2483 -64 3347 650 3347 1599 
C 3347 1841 3290 2083 3155 2287 
C 3078 2408 2982 2497 2880 2574 
C 3341 2815 3622 3200 3622 3701 
z
M 2509 2580 
C 2406 2542 2304 2529 2182 2529 
C 2093 2529 2010 2523 1894 2561 
C 1958 2606 2054 2618 2189 2618 
C 2304 2618 2419 2606 2509 2580 
z
M 3290 3758 
C 3290 3410 3117 2903 2701 2669 
C 2579 2718 2413 2752 2272 2752 
C 2138 2752 1754 2752 1754 2555 
C 1754 2389 2106 2389 2214 2389 
C 2381 2389 2528 2432 2682 2484 
C 2886 2318 2976 2101 2976 1783 
C 2976 1413 2874 1115 2752 841 
C 2541 369 2042 64 1600 64 
C 1133 64 890 432 890 864 
C 890 922 890 1005 915 1099 
L 1331 2771 
C 1542 3603 2080 4353 2701 4353 
C 3162 4353 3290 4036 3290 3758 
z
" transform="scale(0.015625)"/>
       <path id="CMR17-28" d="M 1958 -1561 
C 1958 -1555 1958 -1542 1939 -1523 
C 1645 -1224 858 -407 858 1581 
C 858 3569 1632 4379 1946 4697 
C 1946 4704 1958 4717 1958 4736 
C 1958 4755 1939 4768 1914 4768 
C 1843 4768 1299 4296 986 3594 
C 666 2887 576 2199 576 1588 
C 576 1128 621 351 1005 -471 
C 1312 -1135 1837 -1600 1914 -1600 
C 1946 -1600 1958 -1587 1958 -1561 
z
" transform="scale(0.015625)"/>
       <path id="CMSY10-e" d="M 2842 1600 
C 2842 2277 2272 2828 1600 2828 
C 909 2828 352 2264 352 1600 
C 352 930 909 372 1600 372 
C 2272 372 2842 923 2842 1600 
z
M 1600 628 
C 1043 628 608 1070 608 1600 
C 608 2130 1050 2572 1600 2572 
C 2131 2572 2586 2142 2586 1600 
C 2586 1058 2131 628 1600 628 
z
" transform="scale(0.015625)"/>
       <path id="CMR17-29" d="M 1683 1581 
C 1683 2040 1638 2817 1254 3639 
C 947 4303 422 4768 346 4768 
C 326 4768 301 4761 301 4729 
C 301 4717 307 4710 314 4697 
C 621 4378 1402 3568 1402 1584 
C 1402 -407 627 -1217 314 -1537 
C 307 -1549 301 -1556 301 -1568 
C 301 -1600 326 -1600 346 -1600 
C 416 -1600 960 -1128 1274 -426 
C 1594 281 1683 969 1683 1581 
z
" transform="scale(0.015625)"/>
      </defs>
      <use xlink:href="#CMMI12-c" transform="scale(0.996264)"/>
      <use xlink:href="#CMR17-28" transform="translate(90.669982 0) scale(0.996264)"/>
      <use xlink:href="#CMSY10-e" transform="translate(125.95075 36.153639) scale(0.697382)"/>
      <use xlink:href="#CMR17-29" transform="translate(161.318092 0) scale(0.996264)"/>
     </g>
    </g>
   </g>
   <g id="matplotlib.axis_2">
    <g id="ytick_1">
     <g id="line2d_11">
      <path d="M 50.688 288.746679 
L 451.584 288.746679 
" clip-path="url(#pd0407fb93f)" style="fill: none; stroke: #b0b0b0; stroke-width: 0.8; stroke-linecap: square"/>
     </g>
     <g id="line2d_12">
      <defs>
       <path id="m043d338427" d="M 0 0 
L -3.5 0 
" style="stroke: #000000; stroke-width: 0.8"/>
      </defs>
      <g>
       <use xlink:href="#m043d338427" x="50.688" y="288.746679" style="stroke: #000000; stroke-width: 0.8"/>
      </g>
     </g>
     <g id="text_7">
      <!-- $\mathdefault{0.0}$ -->
      <g transform="translate(24.990948 293.935541) scale(0.15 -0.15)">
       <defs>
        <path id="CMMI12-3a" d="M 1178 307 
C 1178 492 1024 619 870 619 
C 685 619 557 466 557 313 
C 557 128 710 0 864 0 
C 1050 0 1178 153 1178 307 
z
" transform="scale(0.015625)"/>
       </defs>
       <use xlink:href="#CMR17-30" transform="scale(0.996264)"/>
       <use xlink:href="#CMMI12-3a" transform="translate(45.690477 0) scale(0.996264)"/>
       <use xlink:href="#CMR17-30" transform="translate(72.787654 0) scale(0.996264)"/>
      </g>
     </g>
    </g>
    <g id="ytick_2">
     <g id="line2d_13">
      <path d="M 50.688 232.367514 
L 451.584 232.367514 
" clip-path="url(#pd0407fb93f)" style="fill: none; stroke: #b0b0b0; stroke-width: 0.8; stroke-linecap: square"/>
     </g>
     <g id="line2d_14">
      <g>
       <use xlink:href="#m043d338427" x="50.688" y="232.367514" style="stroke: #000000; stroke-width: 0.8"/>
      </g>
     </g>
     <g id="text_8">
      <!-- $\mathdefault{0.5}$ -->
      <g transform="translate(24.990948 237.556376) scale(0.15 -0.15)">
       <defs>
        <path id="CMR17-35" d="M 730 3692 
C 794 3666 1056 3584 1325 3584 
C 1920 3584 2246 3911 2432 4100 
C 2432 4157 2432 4192 2394 4192 
C 2387 4192 2374 4192 2323 4163 
C 2099 4058 1837 3973 1517 3973 
C 1325 3973 1037 3999 723 4139 
C 653 4171 640 4171 634 4171 
C 602 4171 595 4164 595 4037 
L 595 2203 
C 595 2089 595 2057 659 2057 
C 691 2057 704 2070 736 2114 
C 941 2401 1222 2522 1542 2522 
C 1766 2522 2246 2382 2246 1289 
C 2246 1085 2246 715 2054 421 
C 1894 159 1645 25 1370 25 
C 947 25 518 320 403 814 
C 429 807 480 795 506 795 
C 589 795 749 840 749 1038 
C 749 1210 627 1280 506 1280 
C 358 1280 262 1190 262 1011 
C 262 454 704 -128 1382 -128 
C 2042 -128 2669 440 2669 1264 
C 2669 2030 2170 2624 1549 2624 
C 1222 2624 947 2503 730 2274 
L 730 3692 
z
" transform="scale(0.015625)"/>
       </defs>
       <use xlink:href="#CMR17-30" transform="scale(0.996264)"/>
       <use xlink:href="#CMMI12-3a" transform="translate(45.690477 0) scale(0.996264)"/>
       <use xlink:href="#CMR17-35" transform="translate(72.787654 0) scale(0.996264)"/>
      </g>
     </g>
    </g>
    <g id="ytick_3">
     <g id="line2d_15">
      <path d="M 50.688 175.988349 
L 451.584 175.988349 
" clip-path="url(#pd0407fb93f)" style="fill: none; stroke: #b0b0b0; stroke-width: 0.8; stroke-linecap: square"/>
     </g>
     <g id="line2d_16">
      <g>
       <use xlink:href="#m043d338427" x="50.688" y="175.988349" style="stroke: #000000; stroke-width: 0.8"/>
      </g>
     </g>
     <g id="text_9">
      <!-- $\mathdefault{1.0}$ -->
      <g transform="translate(24.990948 181.177211) scale(0.15 -0.15)">
       <use xlink:href="#CMR17-31" transform="scale(0.996264)"/>
       <use xlink:href="#CMMI12-3a" transform="translate(45.690477 0) scale(0.996264)"/>
       <use xlink:href="#CMR17-30" transform="translate(72.787654 0) scale(0.996264)"/>
      </g>
     </g>
    </g>
    <g id="ytick_4">
     <g id="line2d_17">
      <path d="M 50.688 119.609184 
L 451.584 119.609184 
" clip-path="url(#pd0407fb93f)" style="fill: none; stroke: #b0b0b0; stroke-width: 0.8; stroke-linecap: square"/>
     </g>
     <g id="line2d_18">
      <g>
       <use xlink:href="#m043d338427" x="50.688" y="119.609184" style="stroke: #000000; stroke-width: 0.8"/>
      </g>
     </g>
     <g id="text_10">
      <!-- $\mathdefault{1.5}$ -->
      <g transform="translate(24.990948 124.798046) scale(0.15 -0.15)">
       <use xlink:href="#CMR17-31" transform="scale(0.996264)"/>
       <use xlink:href="#CMMI12-3a" transform="translate(45.690477 0) scale(0.996264)"/>
       <use xlink:href="#CMR17-35" transform="translate(72.787654 0) scale(0.996264)"/>
      </g>
     </g>
    </g>
    <g id="ytick_5">
     <g id="line2d_19">
      <path d="M 50.688 63.230019 
L 451.584 63.230019 
" clip-path="url(#pd0407fb93f)" style="fill: none; stroke: #b0b0b0; stroke-width: 0.8; stroke-linecap: square"/>
     </g>
     <g id="line2d_20">
      <g>
       <use xlink:href="#m043d338427" x="50.688" y="63.230019" style="stroke: #000000; stroke-width: 0.8"/>
      </g>
     </g>
     <g id="text_11">
      <!-- $\mathdefault{2.0}$ -->
      <g transform="translate(24.990948 68.418881) scale(0.15 -0.15)">
       <use xlink:href="#CMR17-32" transform="scale(0.996264)"/>
       <use xlink:href="#CMMI12-3a" transform="translate(45.690477 0) scale(0.996264)"/>
       <use xlink:href="#CMR17-30" transform="translate(72.787654 0) scale(0.996264)"/>
      </g>
     </g>
    </g>
    <g id="text_12">
     <!-- $I$ ($10^3$/s) -->
     <g transform="translate(16.522764 196.674864) rotate(-90) scale(0.18 -0.18)">
      <defs>
       <path id="CMMI12-49" d="M 2355 3880 
C 2413 4103 2426 4167 2893 4167 
C 3034 4167 3085 4167 3085 4288 
C 3085 4352 3014 4352 2995 4352 
C 2880 4352 2739 4352 2624 4352 
L 1837 4352 
C 1709 4352 1562 4352 1434 4352 
C 1382 4352 1312 4352 1312 4231 
C 1312 4167 1363 4167 1491 4167 
C 1888 4167 1888 4116 1888 4046 
C 1888 4002 1875 3963 1862 3906 
L 998 472 
C 941 249 928 185 461 185 
C 320 185 262 185 262 64 
C 262 0 326 0 358 0 
C 474 0 614 0 730 0 
L 1517 0 
C 1645 0 1786 0 1914 0 
C 1965 0 2042 0 2042 115 
C 2042 185 2003 185 1862 185 
C 1466 185 1466 236 1466 312 
C 1466 325 1466 357 1491 459 
L 2355 3880 
z
" transform="scale(0.015625)"/>
       <path id="CMR17-33" d="M 1414 2157 
C 1984 2157 2234 1662 2234 1090 
C 2234 320 1824 25 1453 25 
C 1114 25 563 194 390 693 
C 422 680 454 680 486 680 
C 640 680 755 782 755 948 
C 755 1133 614 1216 486 1216 
C 378 1216 211 1165 211 926 
C 211 335 787 -128 1466 -128 
C 2176 -128 2720 430 2720 1085 
C 2720 1707 2208 2157 1600 2227 
C 2086 2328 2554 2756 2554 3329 
C 2554 3820 2048 4179 1472 4179 
C 890 4179 378 3829 378 3329 
C 378 3110 544 3072 627 3072 
C 762 3072 877 3155 877 3321 
C 877 3486 762 3569 627 3569 
C 602 3569 570 3569 544 3557 
C 730 3959 1235 4032 1459 4032 
C 1683 4032 2106 3925 2106 3320 
C 2106 3143 2080 2828 1862 2550 
C 1670 2304 1453 2304 1242 2284 
C 1210 2284 1062 2269 1037 2269 
C 992 2263 966 2257 966 2208 
C 966 2163 973 2157 1101 2157 
L 1414 2157 
z
" transform="scale(0.015625)"/>
       <path id="CMR17-2f" d="M 2605 4545 
C 2637 4627 2637 4640 2637 4653 
C 2637 4729 2579 4768 2528 4768 
C 2451 4768 2426 4717 2400 4640 
L 326 -1377 
C 294 -1460 294 -1473 294 -1486 
C 294 -1562 352 -1600 403 -1600 
C 480 -1600 506 -1549 531 -1473 
L 2605 4545 
z
" transform="scale(0.015625)"/>
       <path id="CMR17-73" d="M 1978 2697 
C 1978 2813 1971 2819 1933 2819 
C 1907 2819 1901 2813 1824 2717 
C 1805 2691 1747 2626 1728 2601 
C 1523 2819 1235 2819 1126 2819 
C 416 2819 160 2447 160 2076 
C 160 1498 813 1365 998 1325 
C 1402 1243 1542 1217 1677 1101 
C 1760 1025 1901 884 1901 654 
C 1901 384 1747 38 1158 38 
C 602 38 403 460 288 1021 
C 269 1110 269 1117 218 1117 
C 166 1117 160 1110 160 983 
L 160 63 
C 160 -51 166 -58 205 -58 
C 237 -58 243 -51 275 0 
C 314 57 410 211 448 276 
C 576 103 800 -64 1158 -64 
C 1792 -64 2131 283 2131 784 
C 2131 1112 1958 1285 1875 1362 
C 1683 1561 1459 1606 1190 1657 
C 838 1735 390 1825 390 2217 
C 390 2383 480 2737 1126 2737 
C 1811 2737 1850 2094 1862 1888 
C 1869 1856 1901 1849 1920 1849 
C 1978 1849 1978 1869 1978 1978 
L 1978 2697 
z
" transform="scale(0.015625)"/>
      </defs>
      <use xlink:href="#CMMI12-49" transform="scale(0.996264)"/>
      <use xlink:href="#CMR17-28" transform="translate(80.93248 0) scale(0.996264)"/>
      <use xlink:href="#CMR17-31" transform="translate(116.213248 0) scale(0.996264)"/>
      <use xlink:href="#CMR17-30" transform="translate(161.903725 0) scale(0.996264)"/>
      <use xlink:href="#CMR17-33" transform="translate(207.594202 36.153639) scale(0.697382)"/>
      <use xlink:href="#CMR17-2f" transform="translate(240.075516 0) scale(0.996264)"/>
      <use xlink:href="#CMR17-73" transform="translate(285.765993 0) scale(0.996264)"/>
      <use xlink:href="#CMR17-29" transform="translate(321.567331 0) scale(0.996264)"/>
     </g>
    </g>
   </g>
   <g id="line2d_21">
    <path d="M 50.688 287.213166 
L 54.907958 287.359752 
L 59.127916 287.461234 
L 63.347874 287.134235 
L 67.567832 287.20189 
L 71.787789 287.224442 
L 76.007747 286.604271 
L 80.227705 285.115861 
L 84.447663 280.797217 
L 88.667621 269.510108 
L 92.887579 251.716843 
L 97.107537 233.844648 
L 101.327495 220.392579 
L 105.547453 209.037815 
L 109.767411 200.558389 
L 113.987368 193.939475 
L 118.207326 187.354389 
L 122.427284 187.500974 
L 126.647242 182.708745 
L 130.8672 183.813777 
L 135.087158 180.239338 
L 139.307116 185.133049 
L 143.527074 182.7764 
L 147.747032 187.10632 
L 151.966989 187.343113 
L 156.186947 190.443967 
L 160.406905 191.943653 
L 164.626863 195.044507 
L 168.846821 197.11926 
L 173.066779 198.167912 
L 177.286737 204.177931 
L 181.506695 206.072271 
L 185.726653 210.233054 
L 189.946611 214.078113 
L 194.166568 216.446038 
L 198.386526 220.054304 
L 202.606484 218.701204 
L 206.826442 211.011086 
L 211.0464 183.419123 
L 215.266358 155.285919 
L 219.486316 152.692478 
L 223.706274 184.580534 
L 227.926232 221.587818 
L 232.146189 231.939032 
L 236.366147 230.067244 
L 240.586105 204.69662 
L 244.806063 118.4816 
L 249.026021 46.970267 
L 253.245979 40.058182 
L 257.465937 110.791482 
L 261.685895 209.78202 
L 265.905853 239.392358 
L 270.125811 243.406554 
L 274.345768 245.842134 
L 278.565726 246.653994 
L 282.785684 248.796403 
L 287.005642 249.518056 
L 291.2256 250.645639 
L 295.445558 250.72457 
L 299.665516 252.900806 
L 303.885474 254.501974 
L 308.105432 255.922729 
L 312.325389 256.294832 
L 316.545347 257.501346 
L 320.765305 258.448516 
L 324.985263 259.023583 
L 329.205221 260.06096 
L 333.425179 261.673404 
L 337.645137 261.571921 
L 341.865095 264.210466 
L 346.085053 265.236567 
L 350.305011 265.20274 
L 354.524968 266.28522 
L 358.744926 267.187286 
L 362.964884 267.841285 
L 367.184842 268.111905 
L 371.4048 268.213387 
L 375.624758 269.792004 
L 379.844716 270.547485 
L 384.064674 270.34452 
L 388.284632 271.979515 
L 392.504589 272.633514 
L 396.724547 272.013343 
L 400.944505 272.904134 
L 405.164463 272.238859 
L 409.384421 273.208581 
L 413.604379 273.704718 
L 417.824337 273.907683 
L 422.044295 274.809749 
L 426.264253 274.561681 
L 430.484211 274.798474 
L 434.704168 275.125473 
L 438.924126 275.869678 
L 443.144084 275.70054 
L 447.364042 275.542679 
L 451.584 276.10647 
" clip-path="url(#pd0407fb93f)" style="fill: none; stroke: #008000; stroke-width: 2.5; stroke-linecap: square"/>
   </g>
   <g id="line2d_22">
    <path d="M 50.688 286.942546 
L 54.907958 286.852339 
L 59.127916 286.773408 
L 63.347874 287.021477 
L 67.567832 286.818512 
L 71.787789 287.122959 
L 76.007747 286.739581 
L 80.227705 286.818512 
L 84.447663 286.141962 
L 88.667621 284.664827 
L 92.887579 280.30108 
L 97.107537 271.686344 
L 101.327495 263.319676 
L 105.547453 255.144697 
L 109.767411 250.544157 
L 113.987368 247.871784 
L 118.207326 246.631443 
L 122.427284 246.191685 
L 126.647242 245.7181 
L 130.8672 247.150131 
L 135.087158 249.833779 
L 139.307116 250.521605 
L 143.527074 252.709117 
L 147.747032 256.024212 
L 151.966989 258.076413 
L 156.186947 260.692406 
L 160.406905 262.36123 
L 164.626863 264.176639 
L 168.846821 266.724977 
L 173.066779 268.540386 
L 177.286737 269.589039 
L 181.506695 272.114825 
L 185.726653 273.569408 
L 189.946611 276.061367 
L 194.166568 277.031088 
L 198.386526 277.921879 
L 202.606484 279.049463 
L 206.826442 279.207324 
L 211.0464 277.279157 
L 215.266358 274.787198 
L 219.486316 275.463748 
L 223.706274 279.207324 
L 227.926232 282.973452 
L 232.146189 282.578798 
L 236.366147 277.527225 
L 240.586105 255.528075 
L 244.806063 193.375683 
L 249.026021 138.992341 
L 253.245979 131.381153 
L 257.465937 182.325367 
L 261.685895 244.534138 
L 265.905853 262.857366 
L 270.125811 264.875741 
L 274.345768 266.860287 
L 278.565726 266.736253 
L 282.785684 267.90894 
L 287.005642 269.047799 
L 291.2256 270.581312 
L 295.445558 270.716622 
L 299.665516 271.246586 
L 303.885474 271.517206 
L 308.105432 273.118374 
L 312.325389 274.121924 
L 316.545347 273.918959 
L 320.765305 275.407369 
L 324.985263 275.959884 
L 329.205221 276.907054 
L 333.425179 277.098743 
L 337.645137 277.696363 
L 341.865095 278.632257 
L 346.085053 278.891601 
L 350.305011 279.274979 
L 354.524968 279.466668 
L 358.744926 280.154494 
L 362.964884 280.210873 
L 367.184842 280.458942 
L 371.4048 281.067837 
L 375.624758 281.000182 
L 379.844716 281.733111 
L 384.064674 282.071386 
L 388.284632 281.733111 
L 392.504589 282.150317 
L 396.724547 282.691557 
L 400.944505 282.285627 
L 405.164463 282.522419 
L 409.384421 282.319454 
L 413.604379 283.14259 
L 417.824337 282.398385 
L 422.044295 283.074935 
L 426.264253 283.052383 
L 430.484211 282.917073 
L 434.704168 282.804315 
L 438.924126 282.793039 
L 443.144084 283.638727 
L 447.364042 283.2779 
L 451.584 283.41321 
" clip-path="url(#pd0407fb93f)" style="fill: none; stroke: #0000ff; stroke-width: 2.5; stroke-linecap: square"/>
   </g>
   <g id="line2d_23">
    <path d="M 50.688 288.227991 
L 54.907958 288.250542 
L 59.127916 288.14906 
L 63.347874 288.115232 
L 67.567832 288.103957 
L 71.787789 288.103957 
L 76.007747 288.261818 
L 80.227705 288.092681 
L 84.447663 288.103957 
L 88.667621 287.822061 
L 92.887579 287.06658 
L 97.107537 285.070757 
L 101.327495 283.368107 
L 105.547453 282.443488 
L 109.767411 281.936076 
L 113.987368 281.868421 
L 118.207326 281.642904 
L 122.427284 282.714108 
L 126.647242 283.356831 
L 130.8672 284.022105 
L 135.087158 284.382932 
L 139.307116 285.194792 
L 143.527074 285.9841 
L 147.747032 286.671926 
L 151.966989 286.649374 
L 156.186947 287.122959 
L 160.406905 287.145511 
L 164.626863 287.427407 
L 168.846821 287.664199 
L 173.066779 287.709302 
L 177.286737 287.957371 
L 181.506695 287.912267 
L 185.726653 287.934819 
L 189.946611 287.912267 
L 194.166568 288.002474 
L 198.386526 287.754406 
L 202.606484 286.457685 
L 206.826442 281.38356 
L 211.0464 268.822282 
L 215.266358 257.129243 
L 219.486316 253.8367 
L 223.706274 263.195641 
L 227.926232 273.761097 
L 232.146189 277.076192 
L 236.366147 276.884503 
L 240.586105 273.569408 
L 244.806063 258.290654 
L 249.026021 240.869492 
L 253.245979 241.083733 
L 257.465937 259.034859 
L 261.685895 277.606156 
L 265.905853 282.635178 
L 270.125811 283.965726 
L 274.345768 283.95445 
L 278.565726 284.416759 
L 282.785684 285.194792 
L 287.005642 285.341377 
L 291.2256 285.814962 
L 295.445558 285.724756 
L 299.665516 285.690928 
L 303.885474 286.220892 
L 308.105432 286.491512 
L 312.325389 286.615547 
L 316.545347 286.66065 
L 320.765305 286.784684 
L 324.985263 286.976373 
L 329.205221 287.122959 
L 333.425179 286.998925 
L 337.645137 287.213166 
L 341.865095 287.314648 
L 346.085053 287.371027 
L 350.305011 287.551441 
L 354.524968 287.224442 
L 358.744926 287.47251 
L 362.964884 287.416131 
L 367.184842 287.325924 
L 371.4048 287.506337 
L 375.624758 287.359752 
L 379.844716 287.495062 
L 384.064674 287.404855 
L 388.284632 287.382303 
L 392.504589 287.517613 
L 396.724547 287.528889 
L 400.944505 287.506337 
L 405.164463 287.348476 
L 409.384421 287.269545 
L 413.604379 287.416131 
L 417.824337 287.325924 
L 422.044295 287.630372 
L 426.264253 287.449958 
L 430.484211 287.427407 
L 434.704168 287.461234 
L 438.924126 287.3372 
L 443.144084 287.416131 
L 447.364042 287.122959 
L 451.584 287.3372 
" clip-path="url(#pd0407fb93f)" style="fill: none; stroke: #ff0000; stroke-width: 2.5; stroke-linecap: square"/>
   </g>
   <g id="line2d_24">
    <path d="M 50.688 287.912267 
L 54.907958 288.01375 
L 59.127916 288.058853 
L 63.347874 287.810785 
L 67.567832 287.912267 
L 71.787789 288.058853 
L 76.007747 287.889716 
L 80.227705 287.799509 
L 84.447663 287.449958 
L 88.667621 286.784684 
L 92.887579 284.123587 
L 97.107537 277.042364 
L 101.327495 264.774258 
L 105.547453 250.690743 
L 109.767411 239.369806 
L 113.987368 232.581755 
L 118.207326 226.470253 
L 122.427284 221.407404 
L 126.647242 218.464412 
L 130.8672 215.87097 
L 135.087158 216.863244 
L 139.307116 216.119039 
L 143.527074 215.498868 
L 147.747032 216.344555 
L 151.966989 219.411582 
L 156.186947 220.189614 
L 160.406905 221.351025 
L 164.626863 226.086875 
L 168.846821 228.804351 
L 173.066779 230.405519 
L 177.286737 233.044064 
L 181.506695 235.750264 
L 185.726653 238.512843 
L 189.946611 241.376904 
L 194.166568 243.913967 
L 198.386526 246.653994 
L 202.606484 248.108577 
L 206.826442 243.913967 
L 211.0464 229.176453 
L 215.266358 214.055561 
L 219.486316 212.995633 
L 223.706274 233.686786 
L 227.926232 254.761318 
L 232.146189 259.294203 
L 236.366147 259.79034 
L 240.586105 249.281263 
L 244.806063 208.192128 
L 249.026021 169.019884 
L 253.245979 162.603935 
L 257.465937 205.846755 
L 261.685895 254.626008 
L 265.905853 267.378975 
L 270.125811 268.371249 
L 274.345768 268.968868 
L 278.565726 270.321968 
L 282.785684 270.119003 
L 287.005642 271.088724 
L 291.2256 271.956964 
L 295.445558 271.212759 
L 299.665516 272.746272 
L 303.885474 272.746272 
L 308.105432 272.813927 
L 312.325389 273.490477 
L 316.545347 273.490477 
L 320.765305 273.445374 
L 324.985263 274.854853 
L 329.205221 274.730819 
L 333.425179 275.418644 
L 337.645137 275.723092 
L 341.865095 275.56523 
L 346.085053 275.903505 
L 350.305011 276.816848 
L 354.524968 276.907054 
L 358.744926 277.05364 
L 362.964884 277.335536 
L 367.184842 277.279157 
L 371.4048 277.45957 
L 375.624758 278.666084 
L 379.844716 278.372913 
L 384.064674 278.666084 
L 388.284632 278.914153 
L 392.504589 278.981808 
L 396.724547 279.094566 
L 400.944505 279.455393 
L 405.164463 279.556875 
L 409.384421 280.233425 
L 413.604379 280.041736 
L 417.824337 280.177046 
L 422.044295 280.199598 
L 426.264253 280.199598 
L 430.484211 279.793668 
L 434.704168 280.380011 
L 438.924126 280.650631 
L 443.144084 280.289804 
L 447.364042 280.785941 
L 451.584 280.594252 
" clip-path="url(#pd0407fb93f)" style="fill: none; stroke: #ffa500; stroke-width: 2.5; stroke-linecap: square"/>
   </g>
   <g id="patch_3">
    <path d="M 50.688 300.672 
L 50.688 27.648 
" style="fill: none; stroke: #000000; stroke-width: 0.8; stroke-linejoin: miter; stroke-linecap: square"/>
   </g>
   <g id="patch_4">
    <path d="M 451.584 300.672 
L 451.584 27.648 
" style="fill: none; stroke: #000000; stroke-width: 0.8; stroke-linejoin: miter; stroke-linecap: square"/>
   </g>
   <g id="patch_5">
    <path d="M 50.688 300.672 
L 451.584 300.672 
" style="fill: none; stroke: #000000; stroke-width: 0.8; stroke-linejoin: miter; stroke-linecap: square"/>
   </g>
   <g id="patch_6">
    <path d="M 50.688 27.648 
L 451.584 27.648 
" style="fill: none; stroke: #000000; stroke-width: 0.8; stroke-linejoin: miter; stroke-linecap: square"/>
   </g>
   <g id="text_13">
    <!-- Coleta Filtros (NaCl) -->
    <g transform="translate(152.562064 21.648) scale(0.23 -0.23)">
     <defs>
      <path id="CMR17-43" d="M 3974 4289 
C 3974 4403 3968 4410 3930 4410 
C 3904 4410 3898 4403 3853 4327 
L 3571 3792 
C 3258 4187 2874 4416 2381 4416 
C 1286 4416 294 3456 294 2148 
C 294 826 1286 -128 2387 -128 
C 3366 -128 3974 730 3974 1461 
C 3974 1524 3974 1550 3917 1550 
C 3866 1550 3866 1531 3859 1474 
C 3808 585 3168 38 2477 38 
C 1824 38 781 495 781 2147 
C 781 3805 1843 4250 2464 4250 
C 3187 4250 3712 3628 3834 2745 
C 3846 2668 3846 2655 3904 2655 
C 3974 2655 3974 2668 3974 2783 
L 3974 4289 
z
" transform="scale(0.015625)"/>
      <path id="CMR17-6f" d="M 2758 1356 
C 2758 2176 2163 2816 1466 2816 
C 768 2816 173 2176 173 1356 
C 173 551 768 -64 1466 -64 
C 2163 -64 2758 551 2758 1356 
z
M 1466 51 
C 1165 51 909 230 762 480 
C 602 767 582 1126 582 1408 
C 582 1677 595 2010 762 2298 
C 890 2509 1139 2714 1466 2714 
C 1754 2714 1997 2554 2150 2330 
C 2349 2029 2349 1607 2349 1408 
C 2349 1158 2336 775 2163 467 
C 1984 173 1709 51 1466 51 
z
" transform="scale(0.015625)"/>
      <path id="CMR17-6c" d="M 979 4396 
L 218 4326 
L 218 4160 
C 595 4160 653 4122 653 3817 
L 653 426 
C 653 184 627 153 218 153 
L 218 -13 
C 371 0 653 0 813 0 
C 979 0 1261 0 1414 -13 
L 1414 153 
C 1005 153 979 178 979 426 
L 979 4396 
z
" transform="scale(0.015625)"/>
      <path id="CMR17-65" d="M 2438 1472 
C 2464 1498 2464 1511 2464 1576 
C 2464 2238 2118 2816 1389 2816 
C 710 2816 173 2169 173 1383 
C 173 551 781 -64 1459 -64 
C 2176 -64 2458 607 2458 740 
C 2458 784 2419 784 2406 784 
C 2362 784 2355 771 2330 696 
C 2189 265 1837 51 1504 51 
C 1229 51 954 203 781 480 
C 582 803 582 1176 582 1472 
L 2438 1472 
z
M 589 1568 
C 634 2505 1126 2714 1382 2714 
C 1818 2714 2112 2297 2118 1568 
L 589 1568 
z
" transform="scale(0.015625)"/>
      <path id="CMR17-74" d="M 966 2560 
L 1862 2560 
L 1862 2725 
L 966 2725 
L 966 3904 
L 851 3904 
C 838 3245 614 2668 70 2668 
L 70 2560 
L 627 2560 
L 627 771 
C 627 650 627 -64 1370 -64 
C 1747 -64 1965 306 1965 777 
L 1965 1140 
L 1850 1140 
L 1850 783 
C 1850 344 1677 51 1408 51 
C 1222 51 966 178 966 758 
L 966 2560 
z
" transform="scale(0.015625)"/>
      <path id="CMR17-61" d="M 2304 1653 
C 2304 2072 2304 2294 2035 2543 
C 1798 2752 1523 2816 1306 2816 
C 800 2816 435 2407 435 1971 
C 435 1728 627 1728 666 1728 
C 749 1728 896 1778 896 1954 
C 896 2112 774 2181 666 2181 
C 640 2181 608 2174 589 2168 
C 723 2592 1069 2714 1293 2714 
C 1613 2714 1965 2429 1965 1885 
L 1965 1600 
C 1587 1600 1133 1549 774 1357 
C 371 1133 256 813 256 570 
C 256 77 832 -64 1171 -64 
C 1523 -64 1850 139 1990 511 
C 2003 233 2182 -18 2464 -18 
C 2598 -18 2938 70 2938 567 
L 2938 920 
L 2822 920 
L 2822 562 
C 2822 178 2650 128 2566 128 
C 2304 128 2304 458 2304 738 
L 2304 1653 
z
M 1965 870 
C 1965 317 1568 38 1216 38 
C 896 38 646 275 646 570 
C 646 761 730 1100 1101 1305 
C 1408 1478 1760 1504 1965 1504 
L 1965 870 
z
" transform="scale(0.015625)"/>
      <path id="CMR17-46" d="M 3482 4325 
L 326 4325 
L 326 4160 
C 768 4160 838 4160 838 3874 
L 838 446 
C 838 160 768 160 326 160 
L 326 0 
C 512 0 870 0 1069 0 
C 1331 0 1638 0 1901 0 
L 1901 160 
L 1760 160 
C 1274 160 1261 223 1261 452 
L 1261 2075 
L 1837 2075 
C 2432 2075 2490 1865 2490 1332 
L 2605 1332 
L 2605 2987 
L 2490 2987 
C 2490 2450 2432 2240 1837 2240 
L 1261 2240 
L 1261 3911 
C 1261 4128 1274 4160 1530 4160 
L 2355 4160 
C 3322 4160 3430 3765 3520 2916 
L 3635 2916 
L 3482 4325 
z
" transform="scale(0.015625)"/>
      <path id="CMR17-69" d="M 992 3909 
C 992 4049 877 4170 730 4170 
C 589 4170 467 4056 467 3909 
C 467 3769 582 3648 730 3648 
C 870 3648 992 3763 992 3909 
z
M 243 2706 
L 243 2541 
C 602 2541 653 2502 653 2197 
L 653 427 
C 653 184 627 153 218 153 
L 218 -13 
C 371 0 646 0 806 0 
C 960 0 1222 0 1370 -13 
L 1370 153 
C 992 153 979 191 979 420 
L 979 2776 
L 243 2706 
z
" transform="scale(0.015625)"/>
      <path id="CMR17-72" d="M 960 1497 
C 960 2112 1222 2688 1702 2688 
C 1747 2688 1792 2682 1837 2662 
C 1837 2662 1696 2617 1696 2452 
C 1696 2298 1818 2234 1914 2234 
C 1990 2234 2131 2279 2131 2458 
C 2131 2663 1926 2790 1709 2790 
C 1222 2790 1011 2317 947 2093 
L 941 2093 
L 941 2790 
L 198 2720 
L 198 2554 
C 576 2554 634 2515 634 2208 
L 634 428 
C 634 184 608 153 198 153 
L 198 -13 
C 352 0 646 0 813 0 
C 998 0 1325 0 1498 -13 
L 1498 153 
C 1037 153 960 153 960 440 
L 960 1497 
z
" transform="scale(0.015625)"/>
      <path id="CMR17-4e" d="M 1312 4250 
C 1267 4320 1261 4320 1139 4320 
L 326 4320 
L 326 4160 
L 448 4160 
C 704 4160 819 4129 838 4122 
L 838 610 
C 838 451 838 153 326 153 
L 326 -13 
C 474 0 742 0 902 0 
C 1062 0 1331 0 1478 -13 
L 1478 153 
C 966 153 966 451 966 610 
L 966 4033 
C 1011 3995 1011 3982 1056 3919 
L 3430 76 
C 3475 0 3494 0 3526 0 
C 3590 0 3590 19 3590 139 
L 3590 3705 
C 3590 3863 3590 4160 4102 4160 
L 4102 4326 
C 3955 4320 3686 4320 3526 4320 
C 3366 4320 3098 4320 2950 4326 
L 2950 4160 
C 3462 4160 3462 3862 3462 3703 
L 3462 763 
L 1312 4250 
z
" transform="scale(0.015625)"/>
     </defs>
     <use xlink:href="#CMR17-43" transform="scale(0.996264)"/>
     <use xlink:href="#CMR17-6f" transform="translate(66.509881 0) scale(0.996264)"/>
     <use xlink:href="#CMR17-6c" transform="translate(112.200358 0) scale(0.996264)"/>
     <use xlink:href="#CMR17-65" transform="translate(137.071416 0) scale(0.996264)"/>
     <use xlink:href="#CMR17-74" transform="translate(177.557077 0) scale(0.996264)"/>
     <use xlink:href="#CMR17-61" transform="translate(212.837844 0) scale(0.996264)"/>
     <use xlink:href="#CMR17-46" transform="translate(288.604288 0) scale(0.996264)"/>
     <use xlink:href="#CMR17-69" transform="translate(348.588134 0) scale(0.996264)"/>
     <use xlink:href="#CMR17-6c" transform="translate(373.459193 0) scale(0.996264)"/>
     <use xlink:href="#CMR17-74" transform="translate(398.330251 0) scale(0.996264)"/>
     <use xlink:href="#CMR17-72" transform="translate(433.611019 0) scale(0.996264)"/>
     <use xlink:href="#CMR17-6f" transform="translate(468.891787 0) scale(0.996264)"/>
     <use xlink:href="#CMR17-73" transform="translate(514.582264 0) scale(0.996264)"/>
     <use xlink:href="#CMR17-28" transform="translate(580.459568 0) scale(0.996264)"/>
     <use xlink:href="#CMR17-4e" transform="translate(615.740336 0) scale(0.996264)"/>
     <use xlink:href="#CMR17-61" transform="translate(684.812766 0) scale(0.996264)"/>
     <use xlink:href="#CMR17-43" transform="translate(730.503243 0) scale(0.996264)"/>
     <use xlink:href="#CMR17-6c" transform="translate(797.013123 0) scale(0.996264)"/>
     <use xlink:href="#CMR17-29" transform="translate(821.884182 0) scale(0.996264)"/>
    </g>
   </g>
   <g id="legend_1">
    <g id="patch_7">
     <path d="M 359.425393 105.376955 
L 443.184 105.376955 
Q 445.584 105.376955 445.584 102.976955 
L 445.584 36.048 
Q 445.584 33.648 443.184 33.648 
L 359.425393 33.648 
Q 357.025393 33.648 357.025393 36.048 
L 357.025393 102.976955 
Q 357.025393 105.376955 359.425393 105.376955 
z
" style="fill: #ffffff; opacity: 0.8; stroke: #cccccc; stroke-linejoin: miter"/>
    </g>
    <g id="line2d_25">
     <path d="M 361.825393 43.214376 
L 373.825393 43.214376 
L 385.825393 43.214376 
" style="fill: none; stroke: #008000; stroke-width: 2.5; stroke-linecap: square"/>
    </g>
    <g id="text_14">
     <!-- S/ Filtro -->
     <g transform="translate(395.425393 47.414376) scale(0.12 -0.12)">
      <defs>
       <path id="CMR17-53" d="M 2803 4290 
C 2803 4404 2797 4411 2758 4411 
C 2720 4411 2707 4385 2682 4328 
L 2490 3907 
C 2246 4257 1875 4416 1472 4416 
C 819 4416 294 3901 294 3253 
C 294 3056 339 2776 557 2510 
C 794 2218 1018 2167 1530 2033 
C 1722 1982 2042 1899 2106 1874 
C 2470 1722 2662 1341 2662 985 
C 2662 527 2336 38 1779 38 
C 1094 38 454 419 410 1311 
C 403 1413 397 1419 352 1419 
C 301 1419 294 1413 294 1285 
L 294 -1 
C 294 -115 301 -122 339 -122 
C 384 -122 397 -90 486 108 
C 493 127 493 140 614 381 
C 934 -39 1472 -128 1779 -128 
C 2477 -128 2970 451 2970 1124 
C 2970 1454 2848 1708 2778 1823 
C 2509 2230 2221 2306 1914 2382 
C 1869 2402 1856 2402 1498 2490 
C 1152 2579 1005 2624 845 2796 
C 666 2992 602 3196 602 3399 
C 602 3812 934 4263 1478 4263 
C 2157 4263 2579 3786 2675 2993 
C 2694 2878 2701 2872 2746 2872 
C 2803 2872 2803 2891 2803 2999 
L 2803 4290 
z
" transform="scale(0.015625)"/>
      </defs>
      <use xlink:href="#CMR17-53" transform="scale(0.996264)"/>
      <use xlink:href="#CMR17-2f" transform="translate(50.89537 0) scale(0.996264)"/>
      <use xlink:href="#CMR17-46" transform="translate(126.661813 0) scale(0.996264)"/>
      <use xlink:href="#CMR17-69" transform="translate(186.64566 0) scale(0.996264)"/>
      <use xlink:href="#CMR17-6c" transform="translate(211.516718 0) scale(0.996264)"/>
      <use xlink:href="#CMR17-74" transform="translate(236.387777 0) scale(0.996264)"/>
      <use xlink:href="#CMR17-72" transform="translate(271.668545 0) scale(0.996264)"/>
      <use xlink:href="#CMR17-6f" transform="translate(306.949312 0) scale(0.996264)"/>
     </g>
    </g>
    <g id="line2d_26">
     <path d="M 361.825393 60.603168 
L 373.825393 60.603168 
L 385.825393 60.603168 
" style="fill: none; stroke: #0000ff; stroke-width: 2.5; stroke-linecap: square"/>
    </g>
    <g id="text_15">
     <!-- Zr -->
     <g transform="translate(395.425393 64.803168) scale(0.12 -0.12)">
      <defs>
       <path id="CMR17-5a" d="M 3302 4230 
C 3302 4352 3296 4352 3162 4352 
L 442 4352 
L 378 2948 
L 493 2948 
C 531 3675 723 4192 1760 4192 
L 2816 4192 
L 339 204 
C 294 134 294 127 294 83 
C 294 0 307 0 435 0 
L 3245 0 
L 3334 1666 
L 3219 1666 
C 3162 829 3117 178 1894 178 
L 781 178 
L 3302 4230 
z
" transform="scale(0.015625)"/>
      </defs>
      <use xlink:href="#CMR17-5a" transform="scale(0.996264)"/>
      <use xlink:href="#CMR17-72" transform="translate(56.100171 0) scale(0.996264)"/>
     </g>
    </g>
    <g id="line2d_27">
     <path d="M 361.825393 77.327764 
L 373.825393 77.327764 
L 385.825393 77.327764 
" style="fill: none; stroke: #ff0000; stroke-width: 2.5; stroke-linecap: square"/>
    </g>
    <g id="text_16">
     <!-- Mo -->
     <g transform="translate(395.425393 81.527764) scale(0.12 -0.12)">
      <defs>
       <path id="CMR17-4d" d="M 1338 4224 
C 1299 4320 1293 4320 1158 4320 
L 339 4320 
L 339 4160 
C 781 4160 851 4160 851 3875 
L 851 610 
C 851 451 851 153 339 153 
L 339 -13 
C 486 0 755 0 915 0 
C 1075 0 1344 0 1491 -13 
L 1491 153 
C 979 153 979 451 979 610 
L 979 4135 
L 986 4135 
L 2490 89 
C 2515 25 2528 -13 2579 -13 
C 2630 -13 2643 25 2669 89 
L 4186 4166 
L 4192 4166 
L 4192 438 
C 4192 153 4122 153 3680 153 
L 3680 -13 
C 3853 0 4198 0 4384 0 
C 4570 0 4922 0 5094 -13 
L 5094 153 
C 4653 153 4582 153 4582 438 
L 4582 3875 
C 4582 4160 4653 4160 5094 4160 
L 5094 4320 
L 4282 4320 
C 4147 4320 4141 4314 4102 4218 
L 2720 502 
L 1338 4224 
z
" transform="scale(0.015625)"/>
      </defs>
      <use xlink:href="#CMR17-4d" transform="scale(0.996264)"/>
      <use xlink:href="#CMR17-6f" transform="translate(84.686941 0) scale(0.996264)"/>
     </g>
    </g>
    <g id="line2d_28">
     <path d="M 361.825393 94.05236 
L 373.825393 94.05236 
L 385.825393 94.05236 
" style="fill: none; stroke: #ffa500; stroke-width: 2.5; stroke-linecap: square"/>
    </g>
    <g id="text_17">
     <!-- Al -->
     <g transform="translate(395.425393 98.25236) scale(0.12 -0.12)">
      <defs>
       <path id="CMR17-41" d="M 2323 4378 
C 2291 4461 2278 4480 2214 4480 
C 2150 4480 2138 4461 2106 4378 
L 749 566 
C 627 223 371 153 147 153 
L 147 -13 
C 262 0 518 0 640 0 
C 800 0 1056 0 1210 -13 
L 1210 153 
C 909 153 864 361 864 439 
C 864 497 877 530 890 569 
L 1229 1536 
L 2906 1536 
L 3290 442 
C 3322 365 3322 352 3322 327 
C 3322 153 3046 153 2925 153 
L 2925 0 
C 3110 0 3443 0 3642 0 
C 3808 0 4128 0 4282 -13 
L 4282 153 
C 3942 153 3827 153 3744 387 
L 2323 4378 
z
M 2067 3893 
L 2848 1702 
L 1286 1702 
L 2067 3893 
z
" transform="scale(0.015625)"/>
      </defs>
      <use xlink:href="#CMR17-41" transform="scale(0.996264)"/>
      <use xlink:href="#CMR17-6c" transform="translate(69.07243 0) scale(0.996264)"/>
     </g>
    </g>
   </g>
  </g>
 </g>
 <defs>
  <clipPath id="pd0407fb93f">
   <rect x="50.688" y="27.648" width="400.896" height="273.024"/>
  </clipPath>
 </defs>
</svg>
